<?xml version="1.0" encoding="utf-8"?>
<!-- Generator: Adobe Illustrator 19.2.0, SVG Export Plug-In . SVG Version: 6.00 Build 0)  -->
<svg version="1.1" id="Layer_1" xmlns="http://www.w3.org/2000/svg" xmlns:xlink="http://www.w3.org/1999/xlink" x="0px" y="0px"
	 viewBox="0 0 148.1 88.9" style="enable-background:new 0 0 148.1 88.9;" xml:space="preserve">
<style type="text/css">
	.st0{fill:#E6E7E8;}
	.st1{fill:none;stroke:#6D6E71;stroke-width:2;stroke-miterlimit:10;}
	.st2{fill:#D1D3D4;stroke:#6D6E71;stroke-width:2;stroke-miterlimit:10;}
	.st3{fill:#6D6E71;}
	.st4{fill:none;stroke:#00AEEF;stroke-width:2;stroke-miterlimit:10;}
	.st5{fill:none;stroke:#58595B;stroke-width:2;stroke-miterlimit:10;}
	.st6{fill:none;stroke:#BCBEC0;stroke-width:2;stroke-miterlimit:10;}
	.st7{fill:#1C75BC;}
	.st8{fill:none;stroke:#FFFFFF;stroke-width:2;stroke-miterlimit:10;}
	.st9{fill:#2E3192;}
	.st10{fill:#FFFFFF;}
</style>
<rect x="10.2" y="37.5" class="st0" width="108.3" height="5.8"/>
<rect x="1" y="1" class="st1" width="117.5" height="74.9"/>
<rect x="1" y="1" class="st2" width="8.2" height="74.9"/>
<circle class="st3" cx="5.1" cy="5.5" r="2.1"/>
<circle class="st3" cx="5.1" cy="13.7" r="2.1"/>
<circle class="st3" cx="5.1" cy="21.8" r="2.1"/>
<circle class="st3" cx="5.1" cy="29.9" r="2.1"/>
<line class="st4" x1="19.7" y1="10.3" x2="33.1" y2="10.3"/>
<line class="st5" x1="23" y1="16.3" x2="34.5" y2="16.3"/>
<line class="st5" x1="23" y1="22.4" x2="77.9" y2="22.4"/>
<line class="st5" x1="28" y1="34.4" x2="82.4" y2="34.4"/>
<line class="st4" x1="31.6" y1="40.4" x2="46.1" y2="40.4"/>
<line class="st5" x1="23" y1="28.4" x2="46.1" y2="28.4"/>
<line class="st6" x1="47.7" y1="37.9" x2="47.7" y2="42.1"/>
<g>
	<rect x="31.6" y="43.3" class="st5" width="48.3" height="21.8"/>
	<rect x="33.2" y="45.1" class="st7" width="45.1" height="6.4"/>
	<line class="st8" x1="40.7" y1="48.5" x2="73.5" y2="48.5"/>
	<line class="st5" x1="40.7" y1="54.2" x2="73.5" y2="54.2"/>
	<line class="st5" x1="40.7" y1="60" x2="73.5" y2="60"/>
	<line class="st8" x1="34.8" y1="48.5" x2="37.2" y2="48.5"/>
	<line class="st5" x1="34.8" y1="54.2" x2="37.2" y2="54.2"/>
	<line class="st5" x1="34.8" y1="60" x2="37.2" y2="60"/>
</g>
<g>
	<rect x="98.9" y="52.5" class="st9" width="49.3" height="36.4"/>
	<g>
		<polygon class="st10" points="111.4,70.7 120.3,79.6 116.8,83 104.5,70.7 116.8,58.4 120.3,61.9 		"/>
		<polygon class="st10" points="137.7,70.7 128.8,61.9 132.3,58.4 144.6,70.7 132.3,83 128.8,79.6 		"/>
	</g>
</g>
</svg>
