<?xml version="1.0" encoding="utf-8"?>
<!-- Generator: Adobe Illustrator 19.2.0, SVG Export Plug-In . SVG Version: 6.00 Build 0)  -->
<svg version="1.1" id="Layer_1" xmlns="http://www.w3.org/2000/svg" xmlns:xlink="http://www.w3.org/1999/xlink" x="0px" y="0px"
	 viewBox="0 0 148.1 88.9" style="enable-background:new 0 0 148.1 88.9;" xml:space="preserve">
<style type="text/css">
	.st0{opacity:0.75;fill:#F42534;}
	.st1{opacity:0.75;fill:#39B54A;}
	.st2{fill:none;stroke:#6D6E71;stroke-width:2;stroke-miterlimit:10;}
	.st3{fill:#D1D3D4;stroke:#6D6E71;stroke-width:2;stroke-miterlimit:10;}
	.st4{fill:#6D6E71;}
	.st5{fill:#58595B;stroke:#58595B;stroke-width:2;stroke-miterlimit:10;}
	.st6{fill:#1C75BC;stroke:#00AEEF;stroke-width:2;stroke-miterlimit:10;}
	.st7{fill:#58595B;stroke:#00A651;stroke-width:2;stroke-miterlimit:10;}
	.st8{fill:#58595B;stroke:#7F3F98;stroke-width:2;stroke-miterlimit:10;}
	.st9{fill:#58595B;stroke:#F42534;stroke-width:2;stroke-miterlimit:10;}
	.st10{fill:#F42534;}
	.st11{fill:#FFFFFF;}
</style>
<rect x="36.8" y="18.9" class="st0" width="41.2" height="12.6"/>
<rect x="79.8" y="18.9" class="st1" width="37.8" height="12.6"/>
<rect x="1" y="1" class="st2" width="117.5" height="74.9"/>
<rect x="1" y="1" class="st3" width="8.2" height="74.9"/>
<circle class="st4" cx="5.1" cy="5.5" r="2.1"/>
<circle class="st4" cx="5.1" cy="13.7" r="2.1"/>
<circle class="st4" cx="5.1" cy="21.8" r="2.1"/>
<circle class="st4" cx="5.1" cy="29.9" r="2.1"/>
<path class="st5" d="M67.2,72.9"/>
<g>
	<line class="st6" x1="45.9" y1="10.3" x2="52.6" y2="10.3"/>
	<line class="st5" x1="47.5" y1="16.3" x2="53.3" y2="16.3"/>
	<line class="st5" x1="47.5" y1="22.4" x2="69.1" y2="22.4"/>
	<line class="st5" x1="50" y1="34.4" x2="77.2" y2="34.4"/>
	<line class="st5" x1="51.8" y1="40.4" x2="70" y2="40.4"/>
	<line class="st5" x1="47.5" y1="28.4" x2="70" y2="28.4"/>
</g>
<g>
	<line class="st6" x1="81.9" y1="10.3" x2="88.6" y2="10.3"/>
	<line class="st5" x1="83.6" y1="16.3" x2="89.3" y2="16.3"/>
	<line class="st5" x1="83.6" y1="22.4" x2="111" y2="22.4"/>
	<line class="st5" x1="86.1" y1="34.4" x2="113.3" y2="34.4"/>
	<line class="st5" x1="87.9" y1="40.4" x2="106" y2="40.4"/>
	<line class="st5" x1="83.6" y1="28.4" x2="95.1" y2="28.4"/>
</g>
<rect x="9.2" y="1" class="st3" width="26.9" height="74.9"/>
<rect x="9.2" y="2.8" class="st2" width="26.9" height="5.3"/>
<rect x="9.2" y="8.2" class="st2" width="26.9" height="12.4"/>
<line class="st5" x1="12.4" y1="5.5" x2="21.8" y2="5.5"/>
<g>
	<g>
		<line class="st5" x1="15.6" y1="23.3" x2="28.8" y2="23.3"/>
		<line class="st5" x1="15.6" y1="26.5" x2="28.8" y2="26.5"/>
		<line class="st5" x1="15.6" y1="29.8" x2="28.8" y2="29.8"/>
		<line class="st5" x1="15.6" y1="33" x2="28.8" y2="33"/>
		<line class="st5" x1="15.6" y1="36.3" x2="28.8" y2="36.3"/>
		<line class="st5" x1="15.6" y1="39.5" x2="28.8" y2="39.5"/>
	</g>
	<g>
		<line class="st7" x1="12.2" y1="23.3" x2="14.3" y2="23.3"/>
		<line class="st7" x1="12.2" y1="26.5" x2="14.3" y2="26.5"/>
		<line class="st7" x1="12.2" y1="29.8" x2="14.3" y2="29.8"/>
		<line class="st8" x1="12.2" y1="33" x2="14.3" y2="33"/>
		<line class="st8" x1="12.2" y1="36.3" x2="14.3" y2="36.3"/>
		<line class="st9" x1="12.2" y1="39.5" x2="14.3" y2="39.5"/>
	</g>
</g>
<g>
	<g>
		<line class="st5" x1="15.6" y1="11.6" x2="28.8" y2="11.6"/>
		<line class="st5" x1="15.6" y1="14.8" x2="28.8" y2="14.8"/>
		<line class="st5" x1="15.6" y1="18.1" x2="28.8" y2="18.1"/>
	</g>
	<g>
		<line class="st7" x1="12.2" y1="11.6" x2="14.3" y2="11.6"/>
		<line class="st7" x1="12.2" y1="14.8" x2="14.3" y2="14.8"/>
		<line class="st7" x1="12.2" y1="18.1" x2="14.3" y2="18.1"/>
	</g>
</g>
<g>
	<g>
		<rect x="98.9" y="52.5" class="st10" width="49.3" height="36.4"/>
	</g>
	<g>
		<path class="st11" d="M137.2,69.5l-12.4-12.4c-0.7-0.7-1.9-0.7-2.6,0l-2.6,2.6l3.3,3.3c0.8-0.3,1.6-0.1,2.2,0.5
			c0.6,0.6,0.8,1.5,0.5,2.2l3.1,3.1c0.8-0.3,1.6-0.1,2.2,0.5c0.8,0.8,0.8,2.2,0,3.1c-0.8,0.8-2.2,0.8-3.1,0
			c-0.6-0.6-0.8-1.6-0.5-2.4l-2.9-2.9v7.7c0.2,0.1,0.4,0.2,0.6,0.4c0.8,0.8,0.8,2.2,0,3.1c-0.8,0.8-2.2,0.8-3.1,0
			c-0.8-0.8-0.8-2.2,0-3.1c0.2-0.2,0.5-0.4,0.7-0.5V67c-0.3-0.1-0.5-0.3-0.7-0.5c-0.6-0.6-0.8-1.6-0.5-2.4l-3.2-3.2l-8.5,8.5
			c-0.7,0.7-0.7,1.9,0,2.6l12.4,12.4c0.7,0.7,1.9,0.7,2.6,0L137.2,72C137.9,71.3,137.9,70.2,137.2,69.5z"/>
	</g>
</g>
<line class="st2" x1="78.8" y1="1" x2="78.8" y2="75.9"/>
</svg>
