<?xml version="1.0" encoding="utf-8"?>
<!-- Generator: Adobe Illustrator 19.2.0, SVG Export Plug-In . SVG Version: 6.00 Build 0)  -->
<svg version="1.1" id="Layer_1" xmlns="http://www.w3.org/2000/svg" xmlns:xlink="http://www.w3.org/1999/xlink" x="0px" y="0px"
	 viewBox="0 0 149.1 88.9" style="enable-background:new 0 0 149.1 88.9;" xml:space="preserve">
<style type="text/css">
	.st0{opacity:0.75;fill:#FAAF40;}
	.st1{fill:none;stroke:#6D6E70;stroke-width:2;stroke-miterlimit:10;}
	.st2{fill:#D0D2D3;stroke:#6D6E70;stroke-width:2;stroke-miterlimit:10;}
	.st3{fill:#6D6E70;}
	.st4{fill:#58595B;stroke:#58595B;stroke-width:2;stroke-miterlimit:10;}
	.st5{fill:#1B75BB;stroke:#00ADEE;stroke-width:2;stroke-miterlimit:10;}
	.st6{fill:none;stroke:#58595B;stroke-width:2;stroke-miterlimit:10;}
	.st7{fill:none;stroke:#BBBDBF;stroke-width:2;stroke-miterlimit:10;}
	.st8{fill:none;stroke:#28ABE2;stroke-width:2;stroke-miterlimit:10;}
	.st9{fill:#37B34A;}
	.st10{fill:#FFFFFF;}
	.st11{opacity:0.75;fill:#F42534;}
</style>
<g>
	<rect x="65.6" y="31.4" class="st0" width="81.6" height="5.8"/>
	<g>
		<rect x="30.6" y="1" class="st1" width="117.5" height="74.9"/>
		<rect x="30.6" y="1" class="st2" width="8.2" height="74.9"/>
		<circle class="st3" cx="34.7" cy="5.5" r="2.1"/>
		<circle class="st3" cx="34.7" cy="13.6" r="2.1"/>
		<circle class="st3" cx="34.7" cy="21.7" r="2.1"/>
		<circle class="st3" cx="34.7" cy="29.9" r="2.1"/>
		<path class="st4" d="M96.8,72.9"/>
		<g>
			<line class="st5" x1="75.5" y1="10.3" x2="88.9" y2="10.3"/>
			<line class="st4" x1="78.8" y1="16.3" x2="90.3" y2="16.3"/>
			<line class="st4" x1="78.8" y1="22.3" x2="133.7" y2="22.3"/>
			<line class="st4" x1="83.7" y1="34.3" x2="138.2" y2="34.3"/>
			<line class="st4" x1="87.4" y1="40.3" x2="123.6" y2="40.3"/>
			<line class="st4" x1="78.8" y1="28.3" x2="101.9" y2="28.3"/>
		</g>
		<rect x="66" y="53.5" class="st6" width="82.1" height="22.4"/>
		<rect x="38.8" y="1" class="st2" width="26.9" height="74.9"/>
		<rect x="38.8" y="2.8" class="st1" width="26.9" height="19.5"/>
		<rect x="38.8" y="22.3" class="st1" width="26.9" height="19.5"/>
		<rect x="38.8" y="41.7" class="st1" width="26.9" height="19.5"/>
		<polyline class="st7" points="71.2,68.3 73.7,70.8 71.2,73.3 		"/>
		<line class="st4" x1="42" y1="6.4" x2="51.4" y2="6.4"/>
		<line class="st8" x1="53" y1="6.4" x2="58.8" y2="6.4"/>
		<line class="st8" x1="53" y1="9.8" x2="58.8" y2="9.8"/>
		<line class="st4" x1="42" y1="9.8" x2="51.4" y2="9.8"/>
		<line class="st4" x1="42" y1="25.8" x2="54.8" y2="25.8"/>
		<line class="st4" x1="42" y1="45.3" x2="54.8" y2="45.3"/>
		<line class="st4" x1="42" y1="48.2" x2="54.8" y2="48.2"/>
		<line class="st4" x1="42" y1="65.1" x2="54.8" y2="65.1"/>
	</g>
	<g>
		<rect y="52.5" class="st9" width="49.3" height="36.4"/>
		<g id="iconBg_1_">
			<path class="st10" d="M25.8,74.8v5c0,0.5,0.1,1.5-0.4,1.5h-1.9v-1.2h1.2v-3.8l-0.2-0.2c-1.7,1.4-4.2,1.5-5.5,0.1
				c-1.4-1.4-1.2-3.2,0.3-5.6h-4v1.2H14V70c0-0.5,0.9-0.4,1.5-0.4h4.8L25.8,74.8z M22.3,62.4h-1.2v-1.2h2.3c0.5,0,1.2,0.3,1.2,0.8v4
				l0.9,1c0.2-1.1,1.1-2,2.3-2c0.2,0,0.4,0,0.4,0v-2.6h1.2v3.1c0,0.1,0.3,0.5,0.5,0.5h3.1v1.2h-2.6c0,0,0,0.2,0,0.4
				c0,1.2-0.9,2.1-2,2.3l1,0.9h4c0.5,0,0.8,0.7,0.8,1.2v2.3h-1.2v-1.2h-3l-7.7-7.4V62.4z M24.6,56.5c-7.8,0-14.2,6.3-14.2,14.2
				s6.3,14.2,14.2,14.2s14.2-6.3,14.2-14.2S32.5,56.5,24.6,56.5z M36.4,70.7c0,2.8-1,5.4-2.7,7.5L17.2,61.6c2-1.7,4.6-2.7,7.5-2.7
				C31.1,58.9,36.4,64.2,36.4,70.7z M12.8,70.7c0-2.8,1-5.4,2.7-7.5l16.6,16.6c-2,1.7-4.6,2.7-7.5,2.7
				C18.1,82.5,12.8,77.2,12.8,70.7z"/>
		</g>
	</g>
	<circle class="st11" cx="70.3" cy="34.3" r="1.8"/>
</g>
</svg>
