<?xml version="1.0" encoding="iso-8859-1"?>
<!-- Generator: Adobe Illustrator 19.0.0, SVG Export Plug-In . SVG Version: 6.00 Build 0)  -->
<svg version="1.1" id="Capa_1" xmlns="http://www.w3.org/2000/svg" xmlns:xlink="http://www.w3.org/1999/xlink" x="0px" y="0px"
	 viewBox="0 0 512 512" style="enable-background:new 0 0 512 512;" xml:space="preserve">
<circle style="fill:#6E64C3;" cx="256" cy="256" r="256"/>
<path style="fill:#5046AF;" d="M405.21,129.405l-70.646-28.547l-124.44,120.581l-75.183-57.035l-28.518,14.259l0.366,150.674
	l180.73,180.73C414.032,494.532,512,386.712,512,256c0-6.947-0.287-13.827-0.83-20.635L405.21,129.405z"/>
<path style="fill:#FFFFFF;" d="M405.21,129.405l-70.646-28.547l-124.44,120.581l-75.183-57.035l-28.518,14.259l0.366,150.674
	l28.518,14.259l75.183-57.035l124.44,120.581l70.646-28.547L405.21,129.405z M142.437,285.913v-63.825L177.718,254h0.366
	L142.437,285.913z M327.477,307.139L256.549,254h-0.366l71.294-53.139L327.477,307.139L327.477,307.139z"/>
<g>
</g>
<g>
</g>
<g>
</g>
<g>
</g>
<g>
</g>
<g>
</g>
<g>
</g>
<g>
</g>
<g>
</g>
<g>
</g>
<g>
</g>
<g>
</g>
<g>
</g>
<g>
</g>
<g>
</g>
</svg>
