<?xml version="1.0" encoding="utf-8"?>
<!-- Generator: Adobe Illustrator 17.1.0, SVG Export Plug-In . SVG Version: 6.00 Build 0)  -->
<!DOCTYPE svg PUBLIC "-//W3C//DTD SVG 1.1//EN" "http://www.w3.org/Graphics/SVG/1.1/DTD/svg11.dtd">
<svg version="1.1" id="Layer_1" xmlns="http://www.w3.org/2000/svg" xmlns:xlink="http://www.w3.org/1999/xlink" x="0px" y="0px"
	 viewBox="120 420 358.8 350.6" enable-background="new 120 420 358.8 350.6" xml:space="preserve">
<path fill="#181616" d="M300,420c-99.6,0-180,80.4-180,180c0,79.2,51.6,146.4,123.6,170.4c9.6,1.2,12-3.6,12-8.4v-31.2
	c-50.4,10.8-61.2-24-61.2-24c-8.4-20.4-20.4-26.4-20.4-26.4c-16.8-10.8,1.2-10.8,1.2-10.8c18,1.2,27.6,18,27.6,18
	c15.6,27.6,42,19.2,52.8,14.4c1.2-12,6-19.2,12-24c-39.6-4.8-81.6-20.4-81.6-88.8c0-19.2,7.2-36,18-48c-2.4-4.8-8.4-22.8,1.2-48
	c0,0,15.6-4.8,49.2,18c14.4-3.6,30-6,45.6-6s31.2,2.4,45.6,6c34.8-22.8,49.2-18,49.2-18c9.6,25.2,3.6,43.2,1.2,48
	c12,12,18,28.8,18,48c0,69.6-42,84-81.6,88.8c6,6,12,16.8,12,33.6v49.2c0,4.8,3.6,10.8,12,8.4c72-24,122.4-91.2,122.4-170.4
	C480,500.4,399.6,420,300,420z"/>
</svg>
