<?xml version="1.0" encoding="UTF-8" standalone="no"?>
<!-- Created with Inkscape (http://www.inkscape.org/) -->

<svg
   xmlns:dc="http://purl.org/dc/elements/1.1/"
   xmlns:cc="http://creativecommons.org/ns#"
   xmlns:rdf="http://www.w3.org/1999/02/22-rdf-syntax-ns#"
   xmlns:svg="http://www.w3.org/2000/svg"
   xmlns="http://www.w3.org/2000/svg"
   xmlns:sodipodi="http://sodipodi.sourceforge.net/DTD/sodipodi-0.dtd"
   xmlns:inkscape="http://www.inkscape.org/namespaces/inkscape"
   id="svg8"
   version="1.1"
   viewBox="0 0 799.99996 30"
   height="30"
   width="800"
   inkscape:version="0.92.3 (unknown)"
   sodipodi:docname="turing-logo-border.svg"
   preserveAspectRatio="none">
  <sodipodi:namedview
     inkscape:window-maximized="1"
     inkscape:window-y="54"
     inkscape:window-x="0"
     inkscape:window-height="1386"
     inkscape:window-width="2560"
     showgrid="false"
     inkscape:current-layer="layer2"
     inkscape:document-units="mm"
     inkscape:cy="-7.7321817"
     inkscape:cx="104.31981"
     inkscape:zoom="2.56"
     inkscape:pageshadow="2"
     inkscape:pageopacity="0.0"
     borderopacity="1.0"
     bordercolor="#666666"
     pagecolor="#ffffff"
     id="base"
     viewbox-height="297"
     fit-margin-top="0"
     fit-margin-left="0"
     fit-margin-right="0"
     fit-margin-bottom="0"
     inkscape:lockguides="true"
     height="20"
     units="px"
     width="50" />
  <defs
     id="defs2">
    <inkscape:path-effect
       effect="skeletal"
       id="path-effect4829"
       is_visible="true"
       pattern="m -731.80017,-0.7084879 h 1"
       copytype="single_stretched"
       prop_scale="0.5250726"
       scale_y_rel="false"
       spacing="0"
       normal_offset="0"
       tang_offset="0"
       prop_units="false"
       vertical_pattern="false"
       fuse_tolerance="0" />
    <inkscape:perspective
       id="perspective815"
       inkscape:persp3d-origin="13.889769 : 11112.946 : 1"
       inkscape:vp_z="27.779537 : 16669.417 : 1"
       inkscape:vp_y="0 : 333388.36 : 0"
       inkscape:vp_x="0 : 49508.17 : 1"
       sodipodi:type="inkscape:persp3d" />
    <inkscape:path-effect
       effect="skeletal"
       id="path-effect4829-3"
       is_visible="true"
       pattern="m -530.85809,-142.5133 h 1"
       copytype="single_stretched"
       prop_scale="0.5250726"
       scale_y_rel="false"
       spacing="0"
       normal_offset="0"
       tang_offset="0"
       prop_units="false"
       vertical_pattern="false"
       fuse_tolerance="0" />
    <inkscape:path-effect
       effect="skeletal"
       id="path-effect4829-3-5"
       is_visible="true"
       pattern="m -731.80017,-0.7084879 h 1"
       copytype="single_stretched"
       prop_scale="0.5250726"
       scale_y_rel="false"
       spacing="0"
       normal_offset="0"
       tang_offset="0"
       prop_units="false"
       vertical_pattern="false"
       fuse_tolerance="0" />
    <inkscape:path-effect
       effect="skeletal"
       id="path-effect4829-3-2"
       is_visible="true"
       pattern="m -795.03839,-5.6915618 h 1"
       copytype="single_stretched"
       prop_scale="0.5250726"
       scale_y_rel="false"
       spacing="0"
       normal_offset="0"
       tang_offset="0"
       prop_units="false"
       vertical_pattern="false"
       fuse_tolerance="0" />
    <inkscape:path-effect
       effect="skeletal"
       id="path-effect4829-3-6"
       is_visible="true"
       pattern="m -731.80017,-0.7084879 h 1"
       copytype="single_stretched"
       prop_scale="0.5250726"
       scale_y_rel="false"
       spacing="0"
       normal_offset="0"
       tang_offset="0"
       prop_units="false"
       vertical_pattern="false"
       fuse_tolerance="0" />
    <inkscape:path-effect
       effect="skeletal"
       id="path-effect4829-3-1"
       is_visible="true"
       pattern="m -731.80017,-0.7084879 h 1"
       copytype="single_stretched"
       prop_scale="0.5250726"
       scale_y_rel="false"
       spacing="0"
       normal_offset="0"
       tang_offset="0"
       prop_units="false"
       vertical_pattern="false"
       fuse_tolerance="0" />
  </defs>
  <metadata
     id="metadata5">
    <rdf:RDF>
      <cc:Work
         rdf:about="">
        <dc:format>image/svg+xml</dc:format>
        <dc:type
           rdf:resource="http://purl.org/dc/dcmitype/StillImage" />
        <dc:title></dc:title>
      </cc:Work>
    </rdf:RDF>
  </metadata>
  <g
     id="layer1"
     inkscape:groupmode="layer"
     inkscape:label="Layer 1"
     transform="translate(424.45758,-139.90763)" />
  <g
     inkscape:groupmode="layer"
     id="layer4"
     inkscape:label="red"
     transform="translate(75.75775,1.1671856)">
    <path
       id="path1075-5"
       title="t (1/sqrt(2*pi*0.3333333333333333)) * exp(-pow(t-2, 2)/2*0.3333333333333333) "
       d="m -147.75775,28.29103 h 0.82472 0.82473 0.82473 0.82473 0.82473 0.82472 0.82473 0.82473 0.82472 0.82473 0.82474 0.82472 0.82473 0.82473 0.82473 0.82473 0.82472 0.82473 0.82473 0.82473 0.82473 0.82473 0.82473 0.82472 0.82473 0.82473 0.82473 0.82473 0.82472 0.82473 0.82473 0.82473 0.82473 0.82472 0.82473 0.82474 0.82472 0.82473 0.82473 0.82473 0.82472 0.82474 0.82472 0.82473 0.82473 0.82473 0.82473 0.82472 0.82473 0.82473 0.82473 0.82473 0.82473 0.82472 0.82474 0.82473 0.82473 0.82473 0.82473 0.82473 0.82472 0.82473 0.82473 0.82473 0.82473 0.82473 0.82473 0.82473 c 0.27491,0 0.54982,0 0.82472,-10e-6 h 0.82473 c 0.27492,-10e-6 0.54982,-10e-6 0.82474,-2e-5 0.27491,0 0.54981,-10e-6 0.82473,-10e-6 l 0.82473,-3e-5 c 0.27491,-2e-5 0.54982,-3e-5 0.82473,-5e-5 0.27491,-2e-5 0.54983,-4e-5 0.82474,-7e-5 0.27491,-3e-5 0.54982,-7e-5 0.82473,-1.2e-4 0.2749,-4e-5 0.54982,-10e-5 0.82473,-1.7e-4 0.27491,-7e-5 0.54981,-1.6e-4 0.82472,-2.7e-4 0.27491,-1.1e-4 0.54982,-2.4e-4 0.82472,-4e-4 0.27492,-1.6e-4 0.54982,-3.6e-4 0.82473,-6e-4 0.27491,-2.4e-4 0.54982,-5.3e-4 0.82473,-8.9e-4 0.27491,-3.6e-4 0.54981,-7.8e-4 0.82472,-0.001 0.27491,-5.2e-4 0.54982,-10e-4 0.82472,-0.002 0.27492,-7.5e-4 0.54982,-0.002 0.82473,-0.003 0.27491,-0.001 0.54982,-0.002 0.82473,-0.004 0.27491,-0.002 0.54982,-0.003 0.82473,-0.005 0.2749,-0.002 0.54981,-0.005 0.82472,-0.008 0.27491,-0.003 0.54982,-0.006 0.82473,-0.0104 0.27491,-0.004 0.54982,-0.009 0.82473,-0.0142 0.27491,-0.006 0.54982,-0.0118 0.82473,-0.0192 0.27491,-0.007 0.54982,-0.0159 0.82473,-0.0257 0.27491,-0.01 0.54982,-0.0211 0.82472,-0.0341 0.27491,-0.013 0.54982,-0.0277 0.82473,-0.0446 0.27491,-0.0169 0.54982,-0.036 0.82473,-0.0579 0.27491,-0.0218 0.54982,-0.0464 0.82473,-0.0742 0.27491,-0.0279 0.54982,-0.0591 0.82473,-0.0943 0.27491,-0.0352 0.54982,-0.0744 0.824731,-0.11842 0.27491,-0.044 0.54981,-0.0928 0.82473,-0.14716 0.27491,-0.0544 0.54981,-0.11441 0.82473,-0.18092 0.27491,-0.0665 0.54982,-0.13955 0.82472,-0.22 0.27491,-0.0805 0.54982,-0.16835 0.82473,-0.26457 0.27491,-0.0962 0.54982,-0.20083 0.82473,-0.31463 0.27491,-0.1138 0.54982,-0.23686 0.82473,-0.36991 0.27491,-0.13305 0.54982,-0.27615 0.82473,-0.4299 0.2749,-0.15375 0.54982,-0.31821 0.82472,-0.49377 0.27491,-0.17556 0.54982,-0.3623 0.82473,-0.56034 0.27491,-0.19804 0.54982,-0.40747 0.82473,-0.62809 0.27491,-0.22063 0.54982,-0.45253 0.82473,-0.69517 0.27491,-0.24264 0.54981,-0.49608 0.82472,-0.7594 0.27491,-0.26331 0.54982,-0.53656 0.82473,-0.81839 0.27491,-0.28182 0.54982,-0.57227 0.82473,-0.86955 0.27491,-0.29728 0.54982,-0.60144 0.82473,-0.91025 0.27491,-0.30882 0.54981,-0.62233 0.82473,-0.93792 0.2749,-0.31559 0.54981,-0.63328 0.82472,-0.95014 0.27491,-0.31687 0.54982,-0.63289 0.82472,-0.94491 0.27491,-0.31202 0.54982,-0.62 0.82473,-0.92063 0.27491,-0.30063 0.54982,-0.59385 0.82473,-0.87633 0.27491,-0.28248 0.54982,-0.55415 0.82473,-0.81175 0.2749,-0.25761 0.54981,-0.50106 0.82472,-0.72737 0.27491,-0.2263 0.54982,-0.43534 0.82473,-0.62447 0.27491,-0.18913 0.54982,-0.35823 0.824731,-0.50513 0.27491,-0.14691 0.54982,-0.27148 0.82472,-0.37215 0.274909,-0.10066 0.549819,-0.17726 0.824729,-0.22889 0.27491,-0.0516 0.54982,-0.0781 0.82473,-0.0792 0.27491,-10e-4 0.54982,0.0232 0.82473,0.0726 0.27491,0.0494 0.54981,0.12393 0.82473,0.22246 0.2749,0.0985 0.54981,0.22115 0.82472,0.36607 0.27491,0.14492 0.54982,0.31225 0.82473,0.49959 0.27491,0.18735 0.54982,0.39483 0.82473,0.61959 0.27491,0.22476 0.54982,0.46691 0.82472,0.72325 0.27491,0.25634 0.54982,0.52696 0.82472,0.80847 0.27491,0.28151 0.54982,0.57397 0.824731,0.87393 0.2749,0.29996 0.54981,0.60747 0.82472,0.91912 0.27491,0.31165 0.54982,0.62747 0.82473,0.94425 0.2749,0.31679 0.54981,0.63453 0.82472,0.9503 0.27491,0.31577 0.549819,0.62956 0.824729,0.93879 0.27491,0.30922 0.54982,0.61386 0.82473,0.91175 0.27491,0.29789 0.54982,0.58898 0.82473,0.87157 0.27491,0.28258 0.54982,0.55661 0.82473,0.8208 0.27492,0.2642 0.54983,0.51851 0.82473,0.76211 0.27491,0.24359 0.54982,0.47642 0.82474,0.69804 0.2749,0.22163 0.54982,0.432 0.82473,0.63105 0.2749,0.19905 0.54982,0.38673 0.82473,0.56329 0.27491,0.17655 0.54982,0.34193 0.82473,0.49663 0.2749,0.1547 0.54981,0.29867 0.82472,0.43262 0.27491,0.13394 0.54982,0.25781 0.82473,0.37243 0.27491,0.11463 0.54982,0.21996 0.82473,0.31693 0.27491,0.097 0.54981,0.18553 0.82472,0.26665 0.27492,0.0811 0.54982,0.15473 0.82473,0.22183 0.27491,0.0671 0.54982,0.12762 0.82473,0.18251 0.27491,0.0549 0.54982,0.10411 0.82472,0.14853 0.27491,0.0444 0.54982,0.084 0.82473,0.11958 0.27491,0.0356 0.54982,0.0671 0.82473,0.0952 0.27491,0.0282 0.54981,0.053 0.82472,0.075 0.27491,0.0221 0.54982,0.0414 0.82473,0.0585 0.27491,0.0171 0.54982,0.032 0.82473,0.0451 0.27491,0.0131 0.54982,0.0245 0.82473,0.0345 0.27491,0.01 0.54981,0.0186 0.82473,0.0261 0.2749,0.007 0.54981,0.0139 0.82472,0.0195 0.27491,0.006 0.54982,0.0103 0.82473,0.0144 0.27491,0.004 0.54981,0.008 0.82472,0.0106 0.27491,0.003 0.54982,0.006 0.82473,0.008 l 0.82473,0.006 c 0.27491,0.002 0.54982,0.003 0.82473,0.004 l 0.82473,0.003 c 0.27491,7.6e-4 0.54981,0.001 0.82472,0.002 0.27491,5.3e-4 0.54982,9.6e-4 0.82473,10e-4 0.2749099,3.7e-4 0.5498199,6.6e-4 0.8247299,9.1e-4 0.27491,2.4e-4 0.54982,4.4e-4 0.82473,6.1e-4 0.2749,1.6e-4 0.5498099,3e-4 0.8247199,4.1e-4 0.27491,1.1e-4 0.54982,2e-4 0.82473,2.7e-4 0.27491,7e-5 0.54982,1.3e-4 0.8247199,1.8e-4 0.27491,5e-5 0.54982,8e-5 0.82473,1.1e-4 0.27491,3e-5 0.54982,6e-5 0.82473,8e-5 0.2749099,2e-5 0.5498199,3e-5 0.8247299,5e-5 l 0.82473,3e-5 c 0.2749,0 0.54981,10e-6 0.8247199,10e-6 0.27491,10e-6 0.54982,10e-6 0.82473005,2e-5 h 0.82472 c 0.2749099,0 0.5498199,10e-6 0.8247299,10e-6 h 0.82473005 0.8247299 0.82473 0.82472 0.8247299 0.82472 0.8247299 0.82473 0.8247299 0.82473 0.82472 0.8247299 0.82473 0.82473 0.82472 0.82473 0.82473 0.82473 0.82473 0.82472 0.82473 0.82472 0.82473 0.82473 0.82473 0.82472 0.82473 0.82473 0.82473 0.82473 0.82472 0.82473 0.82473 0.82472 0.82473 0.82473 0.82473 0.82472 0.82473 0.82473 0.82473 0.82473 0.82473 0.82472 0.82473 0.82473 0.82472 0.82473 0.82473 0.82473 0.82472 0.82473 0.82473 0.82472 0.82473 0.82473 0.82473 0.82472 0.82473 0.82473 0.82473 0.82473 0.82472 0.82473 0.82472 0.82473 0.82473 0.82473 0.82473 0.82472 0.82473 0.82473 0.82473 0.82473 0.82473 0.82472 0.82473 0.82473 0.82472 0.82473 0.82473 0.82473 0.82473 0.82472 0.82473 0.82473 0.82473 0.82473 0.82473 0.82472 0.82473 0.82473 0.82472 0.82473 0.82473 0.82473 0.82473 0.82473 0.82472 0.82473 0.82473 0.82473 0.82473 0.82473 0.82472 0.82473 0.82473 0.82472 0.82473 0.82473 0.82473 0.82473 0.82472 0.82473 0.82473 0.82473 0.82473 0.82473 952.48485"
       style="opacity:1;fill:none;fill-opacity:0.0734679;stroke:#cc3333;stroke-width:1.08210897;stroke-miterlimit:4;stroke-dasharray:none;stroke-dashoffset:0;stroke-opacity:1"
       inkscape:connector-curvature="0"
       sodipodi:nodetypes="ccccccccccccccccccccccccccccccccccccccccccccccccccccccccccccccccccccscccccsscsssssccsssscccccsccscccccssccscsccsccccssccsccccscscscccscscscscccccccccscccccsssccccssscccccsssssccccssccccccccccccccccccccccccccccccccccccccccccccccccccccccccccccccccccccccccccccccccccccccccccccccccccccccccccccccccccccccc" />
  </g>
  <g
     inkscape:groupmode="layer"
     id="layer3"
     inkscape:label="purple"
     transform="translate(75.75775,1.1671856)">
    <path
       id="path1041-7"
       title="t (1/sqrt(2*pi*1)) * exp(-pow(t-0, 2)/2*1)"
       d="m -124.95603,28.29103 h 0.57704 0.57703 0.57704 0.57704 0.57704 0.57704 0.57703 0.57704 0.57704 0.57703 0.57704 0.57704 0.57704 0.57704 0.57703 0.57704 0.57704 0.57704 0.57703 0.57704 0.57704 0.57704 0.57703 0.57704 0.57704 0.57704 0.57703 0.57704 0.57704 0.57704 0.57704 0.57703 0.57704 0.57704 0.57704 0.57703 0.57704 0.57704 0.57705 0.57703 0.57704 0.57704 0.57704 0.57704 0.57703 0.57704 0.57704 0.57704 0.57704 0.57704 0.57704 0.57703 0.57704 0.57704 0.57704 0.57704 0.57703 0.57704 0.57704 0.57704 0.57703 0.57705 0.57703 0.57705 0.57704 0.57704 0.57704 0.57704 0.57704 0.57704 0.57703 0.57704 0.57703 0.57704 0.57704 0.57704 0.57703 0.57703 0.57703 0.57704 c 0.19235,0 0.38469,-10e-6 0.57704,-10e-6 0.19234,0 0.38469,-10e-6 0.57703,-2e-5 0.19235,-10e-6 0.3847,-2e-5 0.57704,-4e-5 0.19235,-3e-5 0.3847,-5e-5 0.57704,-10e-5 0.19235,-5e-5 0.38469,-1.1e-4 0.57704,-2.1e-4 0.19234,-9e-5 0.38469,-2.3e-4 0.57703,-4.2e-4 0.19235,-2e-4 0.3847,-4.7e-4 0.57704,-8.6e-4 0.19235,-4e-4 0.38469,-9.2e-4 0.57704,-0.002 0.19235,-7.6e-4 0.38469,-0.002 0.57704,-0.003 0.19234,-10e-4 0.38469,-0.003 0.57703,-0.006 0.19235,-0.003 0.3847,-0.006 0.57704,-0.0104 0.19235,-0.005 0.3847,-0.0103 0.57704,-0.018 0.19235,-0.008 0.3847,-0.0174 0.57704,-0.0302 0.19234,-0.0128 0.38469,-0.0287 0.57703,-0.0492 0.19235,-0.0205 0.38469,-0.0457 0.57704,-0.0776 0.19235,-0.0319 0.38469,-0.0706 0.57704,-0.11865 0.19235,-0.0481 0.38469,-0.10558 0.57704,-0.1757 0.19235,-0.0701 0.38469,-0.15292 0.57704,-0.25192 0.19234,-0.099 0.38469,-0.21431 0.57703,-0.34951 0.19235,-0.13519 0.38469,-0.29043 0.57704,-0.46889 0.19235,-0.17845 0.3847,-0.38029 0.57704,-0.60772 0.19235,-0.22742 0.38469,-0.48061 0.57704,-0.76009 0.19235,-0.27947 0.38469,-0.58542 0.57703,-0.91604 0.19235,-0.33062 0.3847,-0.68607 0.57704,-1.06173 0.19235,-0.37565 0.3847,-0.77162 0.57704,-1.18027 0.19235,-0.40865 0.38469,-0.83001 0.57704,-1.25365 0.19235,-0.42363 0.38469,-0.8495 0.57704,-1.26506 0.19234,-0.41556 0.38468,-0.82067 0.57703,-1.20186 0.19235,-0.3812 0.38469,-0.73824 0.57704,-1.05819 0.19235,-0.31996 0.38469,-0.60251 0.57704,-0.83686 0.19234,-0.23434 0.38469,-0.42011 0.57704,-0.55004 0.19234,-0.12992 0.38469,-0.20363 0.57703,-0.21837 0.19235,-0.0148 0.38469,0.0298 0.57704,0.13148 0.19234,0.10167 0.38469,0.26075 0.57703,0.47037 0.19235,0.20963 0.3847,0.47003 0.57704,0.77062 0.19235,0.30059 0.38469,0.64151 0.57704,1.00981 0.19235,0.36831 0.38469,0.76407 0.57704,1.17355 0.19234,0.40948 0.38469,0.83267 0.57703,1.25662 0.19235,0.42394 0.3847,0.84857 0.57704,1.26289 0.19235,0.41432 0.3847,0.81825 0.57704,1.20355 0.19235,0.38531 0.38469,0.75189 0.57704,1.09461 0.19235,0.34272 0.38469,0.66146 0.57703,0.95405 0.19235,0.29258 0.38469,0.55889 0.57704,0.79922 0.19234,0.24033 0.38469,0.45457 0.57703,0.64486 0.19235,0.19029 0.38469,0.35651 0.57704,0.50194 0.19234,0.14542 0.38469,0.26996 0.57703,0.37735 0.19235,0.10739 0.3847,0.19756 0.57704,0.27426 0.19235,0.0767 0.38469,0.13984 0.57704,0.19285 0.19234,0.053 0.38469,0.0958 0.57703,0.13128 0.19235,0.0355 0.3847,0.0636 0.57704,0.0866 0.19235,0.023 0.3847,0.0409 0.57704,0.0553 0.19235,0.0145 0.38469,0.0255 0.57704,0.0343 0.19235,0.009 0.38469,0.0154 0.57703,0.0206 0.19235,0.005 0.3847,0.009 0.57704,0.012 0.19235,0.003 0.38469,0.005 0.57704,0.007 0.19234,0.002 0.38469,0.003 0.57704,0.004 0.19234,8.9e-4 0.38469,0.002 0.57704,0.002 0.19234,4.7e-4 0.38468,7.9e-4 0.57703,0.001 0.19234,2.4e-4 0.38469,4e-4 0.57704,5.1e-4 0.19234,1.2e-4 0.38469,2e-4 0.57703,2.5e-4 0.19235,6e-5 0.3847,9e-5 0.57704,1.2e-4 0.19235,2e-5 0.38469,4e-5 0.57704,5e-5 l 0.57703,3e-5 c 0.19235,0 0.38469,0 0.57704,10e-6 h 0.57704 0.57703 0.57704 0.57703 0.57704 0.57703 0.577029 0.57704 0.57704 0.57703 0.577041 0.57704 0.57704 0.57704 0.57704 0.57704 0.57704 0.57704 0.57704 0.57704 0.57704 0.57703 0.57704 0.57704 0.57703 0.57704 0.57704 0.57704 0.57703 0.57704 0.57703 0.57704 0.57704 0.57703 0.57704 0.57704 0.57703 0.57704 0.57704 0.57703 0.57704 0.57704 0.57703 0.57704 0.57704 0.57704 0.57703 0.57704 0.57704 0.57703 0.57704 0.57704 0.57703 0.57704 0.57704 0.5770401 0.57704 0.57703 0.57704 0.57703 0.57704 0.57704 0.57703 0.57704 0.57704 0.57703 0.57704 0.57704 0.57704 0.57703 0.57703995 0.57704 0.57703 0.57704 H 1.41516 1.9921901 2.56923 3.14627 3.7233 4.30034 4.87738 5.45441 6.03145 6.60849 7.18553 7.76256 8.3396 h 0.57704 0.57703 0.57704 0.57704 0.57704 0.57703 0.57704 0.57703 0.57704 0.57704 0.57703 0.57704 0.57704 0.57704 0.57703 0.57704 0.57704 0.57703 0.57704 0.57704 0.57703 0.57704 0.57704 0.57704 0.57703 0.57704 0.57704 0.57703 0.57704 0.57704 0.57704 0.57703 0.57704 0.57704 0.57704 0.57703 0.57704 0.57704 0.57704 0.57703 0.57703 0.57704 0.57704 0.57704 0.57703 0.57704 0.57704 0.57704 0.57704 0.57703 0.57704 0.57704 0.57703 0.57704 0.57704 0.57704 0.57703 0.57704 0.57704 0.57703 0.57704 0.57704 0.57704 0.57703 0.57704 0.57704 0.57703 1003.11612"
       style="opacity:1;fill:none;fill-opacity:0.0734679;stroke:#b352cc;stroke-width:1.08210897;stroke-miterlimit:4;stroke-dasharray:none;stroke-dashoffset:0;stroke-opacity:1"
       inkscape:connector-curvature="0"
       sodipodi:nodetypes="ccccccccccccccccccccccccccccccccccccccccccccccccccccccccccccccccccccccccccccccccssscsccccssccscscccccccccccccccccccccccccsccccccccccccssccccccsccccccccccccccccccccccccccccccccccccccccccccccccccccccccccccccccccccccccccccccccccccccccccccccccccccccccccccccccccccccccccccccccccccccccccccccccccccccccccccc" />
  </g>
  <g
     inkscape:groupmode="layer"
     id="layer2"
     inkscape:label="green"
     transform="translate(75.75775,1.1671856)">
    <path
       style="opacity:1;fill:none;fill-opacity:0.0734679;stroke:#228a22;stroke-width:1.08210897;stroke-miterlimit:4;stroke-dasharray:none;stroke-dashoffset:0;stroke-opacity:1"
       d="m -132.39977,28.29103 h 0.65393 0.65393 0.65393 0.65393 0.65393 0.65393 6e-5 0.65388 0.65393 0.6539 3e-5 0.65393 3e-5 0.65384 6e-5 0.65393 0.65393 0.65393 0.65393 6e-5 0.65381 6e-5 0.65393 6e-5 0.65387 0.65393 0.65394 0.65392 6e-5 0.65388 0.65393 0.65393 0.65393 0.65387 6e-5 0.65393 0.65393 0.65393 0.65393 0.65393 6e-5 0.65381 6e-5 0.65393 0.65393 0.65393 6e-5 0.65381 6e-5 0.65393 6e-5 0.65388 0.65393 0.65387 6e-5 0.65393 6e-5 0.65381 6e-5 0.65393 0.65393 0.65393 0.65394 0.65393 6e-5 0.65381 6e-5 0.65393 0.65393 0.65394 0.653869 6.1e-5 0.65393 0.653869 6.1e-5 0.65393 0.65393 0.65393 6.1e-5 0.653808 6.1e-5 0.65393 3e-5 0.6539 0.65394 0.6539 3e-5 0.65393 3e-5 0.6539 0.65393 0.65393 0.65393 0.653879 6.1e-5 0.65394 0.65393 0.65394 0.6539 3e-5 0.65393 3e-5 0.65387 3e-5 0.65393 0.65392 0.65393 3e-5 0.65387 3e-5 0.65393 3e-5 0.6539 0.65392 c 0.217967,-10e-6 0.435933,-10e-6 0.6539,-10e-6 10e-6,0 2e-5,0 3e-5,0 0.217977,-10e-6 0.435953,-10e-6 0.65393,-2e-5 10e-6,0 2e-5,0 3e-5,0 0.217967,0 0.435933,-10e-6 0.6539,-2e-5 0.217977,-10e-6 0.435953,-3e-5 0.65393,-5e-5 0.217977,-2e-5 0.435953,-4e-5 0.65393,-8e-5 0.217977,-4e-5 0.435953,-8e-5 0.65393,-1.4e-4 0.217977,-6e-5 0.435953,-1.4e-4 0.65393,-2.4e-4 0.217977,-1.1e-4 0.435953,-2.4e-4 0.65393,-4.1e-4 0.21797,-1.8e-4 0.43594,-4e-4 0.65391,-6.9e-4 1e-5,0 2e-5,0 3e-5,0 0.217973,-2.9e-4 0.435947,-6.5e-4 0.65392,-0.001 1e-5,0 2e-5,0 3e-5,0 0.217968,-4.7e-4 0.435935,-0.001 0.6539,-0.002 0.217978,-7.6e-4 0.435953,-0.002 0.65393,-0.003 0.217981,-0.001 0.435956,-0.003 0.65393,-0.005 0.217973,-0.002 0.435948,-0.004 0.65391,-0.007 1e-5,0 2e-5,0 3e-5,0 0.217985,-0.003 0.435973,-0.006 0.65393,-0.0106 0.218003,-0.004 0.435964,-0.01 0.653921,-0.016 0.218042,-0.006 0.436023,-0.0141 0.65394,-0.0236 0.218095,-0.009 0.436073,-0.02071 0.65393,-0.0343 0.218148,-0.01371 0.436151,-0.02982 0.653869,-0.04919 2.1e-5,-1e-6 4.1e-5,-3e-6 6.1e-5,-5e-6 0.218349,-0.01943 0.436405,-0.04226 0.65393,-0.0694 0.218652,-0.02728 0.436773,-0.05894 0.65393,-0.0963 0.219166,-0.0377 0.43737,-0.08113 0.65393,-0.1317 0.219975,-0.05137 0.438274,-0.110021 0.65393,-0.17725 0.221188,-0.0689 0.439556,-0.146924 0.65393,-0.23476 1.9e-5,-8e-6 3.8e-5,-1.5e-5 5.6e-5,-2.3e-5 0.222769,-0.09126 0.441158,-0.193251 0.653874,-0.305977 0.224726,-0.119085 0.443054,-0.250223 0.65393,-0.3924 0.226779,-0.152902 0.444879,-0.318603 0.65393,-0.49497 0.228634,-0.192888 0.446391,-0.398558 0.65393,-0.61398 7e-6,-7e-6 1.4e-5,-1.5e-5 2.1e-5,-2.2e-5 0.22998,-0.238717 0.447371,-0.489441 0.653919,-0.748698 0.230667,-0.289559 0.447767,-0.589816 0.65392,-0.89731 0.230664,-0.34405 0.447579,-0.697226 0.653915,-1.056394 5e-6,-8e-6 10e-6,-1.7e-5 1.5e-5,-2.6e-5 0.230054,-0.400436 0.446902,-0.808389 0.65393,-1.2212 0.228938,-0.456469 0.445799,-0.918945 0.65393,-1.38527 0.227422,-0.509524 0.444352,-1.023698 0.653919,-1.540822 3e-6,-9e-6 7e-6,-1.9e-5 1.1e-5,-2.8e-5 0.225603,-0.556671 0.442616,-1.116801 0.653929,-1.679052 4e-6,-9e-6 7e-6,-1.9e-5 1.1e-5,-2.8e-5 0.223519,-0.594755 0.440606,-1.191913 0.65393,-1.7904 0.221201,-0.620616 0.438316,-1.242681 0.65393,-1.86526 0.218642,-0.63136 0.435713,-1.263263 0.65393,-1.89477 3e-6,-10e-6 7e-6,-1.9e-5 10e-6,-2.9e-5 0.215802,-0.624554 0.432702,-1.248736 0.65389,-1.8714037 6e-6,-1.91e-5 1.3e-5,-3.82e-5 2e-5,-5.73e-5 0.212661,-0.5986397 0.429238,-1.1959111 0.653929,-1.79014 0.209072,-0.5529127 0.42507,-1.1032671 0.653918,-1.648292 4e-6,-9.3e-6 8e-6,-1.87e-5 1.2e-5,-2.8e-5 0.204932,-0.4880781 0.419994,-0.9720613 0.653931,-1.44692 0.20014,-0.4062856 0.413777,-0.806361 0.653914,-1.1903642 5e-6,-8.6e-6 1.1e-5,-1.72e-5 1.6e-5,-2.58e-5 0.194953,-0.3117548 0.407045,-0.614109 0.653929,-0.88659 0.191556,-0.2114344 0.405279,-0.4066841 0.65393,-0.54658 0.199566,-0.1122934 0.424942,-0.1842517 0.653931,-0.1838 0.229233,4.522e-4 0.454455,0.073691 0.653894,0.186705 8e-6,5e-6 1.7e-5,10e-6 2.6e-5,1.5e-5 0.248732,0.1409118 0.462289,0.3371711 0.653889,0.5493349 1.4e-5,1.5e-5 2.7e-5,3.01e-5 4.1e-5,4.51e-5 0.246901,0.2733943 0.458896,0.5766499 0.65394,0.88916 5e-6,8.6e-6 1.1e-5,1.72e-5 1.6e-5,2.58e-5 0.240127,0.3847761 0.453694,0.7856232 0.653914,1.1925942 0.233916,0.4754844 0.448934,0.96009 0.65393,1.44874 0.228832,0.545492 0.444805,1.0963113 0.653919,1.6496616 4e-6,9.4e-6 7e-6,1.89e-5 1.1e-5,2.84e-5 0.224662,0.5945083 0.441218,1.1920541 0.6539,1.7909527 6e-6,1.91e-5 1.3e-5,3.82e-5 2e-5,5.73e-5 0.221189,0.622835 0.43809,1.247184 0.65394,1.87189 0.218187,0.631507 0.435257,1.263401 0.65393,1.89474 0.215589,0.622447 0.432706,1.24437 0.65392,1.86484 0.213301,0.598247 0.430407,1.19515 0.65394,1.78965 0.21128,0.561938 0.428322,1.12173 0.65393,1.67807 0.209539,0.516748 0.426502,1.030518 0.653918,1.539652 4e-6,9e-6 8e-6,1.9e-5 1.2e-5,2.8e-5 0.208102,0.465917 0.425007,0.927948 0.65392,1.384 5e-6,9e-6 9e-6,1.8e-5 1.4e-5,2.7e-5 0.207006,0.412377 0.423887,0.819861 0.653916,1.219853 0.206313,0.358769 0.423281,0.711494 0.65392,1.05513 0.206134,0.307111 0.423281,0.606927 0.65393,0.89608 0.206529,0.258924 0.42397,0.509243 0.65393,0.7476 0.20752,0.215117 0.425324,0.420399 0.65392,0.61297 8e-6,7e-6 1.6e-5,1.3e-5 2.3e-5,2e-5 0.209038,0.176095 0.427169,0.341448 0.653907,0.49408 1.7e-5,1.1e-5 3.4e-5,2.3e-5 5e-5,3.4e-5 0.210865,0.141928 0.429202,0.272758 0.65388,0.391616 0.212742,0.112539 0.431176,0.214274 0.65394,0.30538 0.214395,0.08763 0.432771,0.165461 0.65393,0.23426 0.215664,0.06708 0.43396,0.125604 0.65393,0.17683 0.216555,0.05047 0.434751,0.09379 0.65391,0.131375 1e-5,2e-6 2e-5,3e-6 3e-5,5e-6 0.217164,0.03726 0.435276,0.06892 0.65393,0.0961 10e-6,10e-7 2e-5,3e-6 3e-5,4e-6 0.21752,0.02704 0.435568,0.04976 0.6539,0.0692 0.217737,0.01938 0.435767,0.03539 0.65394,0.049 0.217854,0.01359 0.435855,0.0248 0.65393,0.0342 0.217933,0.009 0.435905,0.0171 0.65393,0.0235 10e-6,0 2e-5,1e-6 3e-5,1e-6 0.217929,0.006 0.43587,0.0116 0.653839,0.0159 2e-5,0 4.1e-5,1e-6 6.1e-5,1e-6 0.217969,0.004 0.43594,0.008 0.65393,0.0106 0.217969,0.003 0.43595,0.005 0.65393,0.007 0.217974,0.002 0.435956,0.003 0.65393,0.005 l 0.65393,0.003 c 2e-5,0 4.1e-5,0 6.1e-5,0 0.217956,7.5e-4 0.435914,0.001 0.653869,0.002 0.217977,4.7e-4 0.435953,8.3e-4 0.65393,10e-4 0.217967,2.9e-4 0.435933,5.1e-4 0.6539,6.8e-4 10e-6,0 2e-5,0 3e-5,0 0.217977,1.7e-4 0.435953,3e-4 0.65393,4.1e-4 10e-6,0 2e-5,0 3e-5,0 0.217957,10e-5 0.435913,1.8e-4 0.65387,2.4e-4 10e-6,0 2e-5,0 3e-5,0 0.217977,6e-5 0.435953,1.1e-4 0.65393,1.4e-4 0.217977,4e-5 0.435953,6e-5 0.65393,8e-5 0.217973,2e-5 0.435947,4e-5 0.65392,5e-5 0.217977,10e-6 0.435953,2e-5 0.65393,2e-5 0.217977,10e-6 0.435953,10e-6 0.65393,2e-5 10e-6,0 2e-5,0 3e-5,0 0.217947,0 0.435893,0 0.653839,10e-6 2e-5,0 4.1e-5,0 6.1e-5,0 h 0.65393 3e-5 0.6539 0.65393 0.6539 3e-5 0.65393 6.1e-5 0.653839 3e-5 0.65393 0.65393 0.65393 3e-5 0.65387 3e-5 0.65393 3e-5 0.6539 0.65393 0.653869 6.1e-5 0.6539299 3.04e-5 0.6538996 0.65393 0.6539299 0.65393 0.6538996 3.04e-5 0.6539299 6.08e-5 0.6538692 0.65392 0.6539299 0.6538692 6.08e-5 0.65394 3.04e-5 0.6538691 3.04e-5 0.65392005 0.65394 0.6539299 3.04e-5 0.65388965 0.65394 6.08e-5 0.6538691 0.65392 0.6538692 6.08e-5 0.6539299 3.04e-5 0.6538996 0.65393 0.6539299 0.65393 0.65393 0.6539299 0.6538692 6.08e-5 0.6539299 0.65393 3e-5 0.6539 0.65393 0.6539 3e-5 0.65393 3e-5 0.65387 3e-5 0.65393 0.65393 0.65393 6.1e-5 0.653839 3e-5 0.65393 3e-5 0.6539 0.65393 0.653869 6.1e-5 0.65393 3e-5 0.6539 0.65393 0.65393 0.65393 0.6539 3e-5 0.65393 3e-5 0.6539 0.65393 0.6539 3e-5 0.65393 3e-5 0.65387 3e-5 0.65393 0.65393 0.65393 3e-5 0.65387 3e-5 0.65393 3e-5 0.6539 0.65393 0.6539 3e-5 0.65393 3e-5 0.65387 3e-5 0.65393 0.65393 0.65393 0.65393 0.65393 3e-5 0.65387 3e-5 0.65393 6.1e-5 0.653869 0.65393 0.653869 6.1e-5 0.65393 0.653869 6.1e-5 0.65393 0.65393 0.65393 3e-5 0.65387 3e-5 0.65393 6.1e-5 0.653869 0.65393 0.6539 3e-5 0.65393 3e-5 0.6539 0.65393 0.65393 0.65392 0.65391 3e-5 0.65393 6.1e-5 0.653869 0.65393 0.6539 3e-5 0.65393 3e-5 0.653839 6.1e-5 0.65393 0.65393 0.65393 3e-5 0.65387 3e-5 0.65393 6.1e-5 0.653869 0.65392 0.6539 3e-5 0.65394 3e-5 0.6539 0.65393 0.65393 0.65393 989.71637"
       title="t (1/sqrt(2*pi*0.5)) * exp(-pow(t-2.5, 2)/2*0.5)"
       id="path1058-3"
       inkscape:connector-curvature="0"
       inkscape:path-effect="#path-effect4829-3"
       inkscape:original-d="m -132.39977,28.29103 h 0.65393 0.65393 0.65393 0.65393 0.65393 0.65393 0.65394 0.65393 0.65393 0.65393 0.65393 0.65393 0.65393 0.65393 0.65393 0.65393 0.65393 0.65393 0.65393 0.65394 0.65392 0.65394 0.65393 0.65393 0.65393 0.65393 0.65393 0.65393 0.65393 0.65393 0.65393 0.65393 0.65393 0.65393 0.65393 0.65393 0.65393 0.65394 0.65393 0.65393 0.65393 0.65393 0.65393 0.65393 0.65393 0.65394 0.65393 0.65393 0.65393 0.65393 0.65394 0.65393 0.65393 0.65393 0.65393 0.65393 0.65393 0.65393 0.65393 0.65393 0.65394 0.65393 0.65393 0.65393 0.65393 0.65393 0.65393 0.65394 0.65394 0.65393 0.65394 0.65393 0.65393 0.65393 0.65393 0.65392 0.65393 0.65393 0.65393 0.65393 0.65392 c 0.21798,-10e-6 0.43595,-10e-6 0.65393,-10e-6 0.21798,-10e-6 0.43595,-10e-6 0.65393,-2e-5 0.21798,0 0.43596,-10e-6 0.65393,-2e-5 0.21798,-10e-6 0.43596,-3e-5 0.65393,-5e-5 0.21798,-2e-5 0.43595,-4e-5 0.65393,-8e-5 0.21798,-4e-5 0.43595,-8e-5 0.65393,-1.4e-4 0.21798,-6e-5 0.43595,-1.4e-4 0.65393,-2.4e-4 0.21798,-1.1e-4 0.43595,-2.4e-4 0.65393,-4.1e-4 0.21798,-1.8e-4 0.43596,-4e-4 0.65394,-6.9e-4 0.21797,-2.9e-4 0.43594,-6.5e-4 0.65392,-0.001 0.21798,-4.7e-4 0.43596,-0.001 0.65393,-0.002 0.21798,-7.6e-4 0.43596,-0.002 0.65393,-0.003 0.21798,-0.001 0.43596,-0.003 0.65393,-0.005 0.21798,-0.002 0.43596,-0.004 0.65394,-0.007 0.21797,-0.003 0.43595,-0.006 0.65393,-0.0106 0.21797,-0.004 0.43595,-0.01 0.653921,-0.016 0.21798,-0.006 0.43596,-0.0141 0.65394,-0.0236 0.21797,-0.009 0.43595,-0.0207 0.65393,-0.0343 0.21798,-0.0137 0.43595,-0.0298 0.65393,-0.0492 0.21798,-0.0194 0.43595,-0.0422 0.65393,-0.0694 0.21798,-0.0272 0.43595,-0.0588 0.65393,-0.0963 0.21798,-0.0375 0.43596,-0.0808 0.65393,-0.1317 0.21798,-0.0509 0.43596,-0.1093 0.65393,-0.17725 0.21798,-0.0679 0.43596,-0.14545 0.65393,-0.23476 0.21798,-0.0893 0.43596,-0.19049 0.65393,-0.306 0.21798,-0.11551 0.43596,-0.24544 0.65393,-0.3924 0.21798,-0.14697 0.43595,-0.31107 0.65393,-0.49497 0.21798,-0.1839 0.43595,-0.38772 0.65393,-0.61398 0.21798,-0.22626 0.43595,-0.4751 0.65394,-0.74872 0.21797,-0.27362 0.43595,-0.57219 0.65392,-0.89731 0.21798,-0.32513 0.43596,-0.677 0.65393,-1.05642 0.21798,-0.37942 0.43596,-0.78657 0.65393,-1.2212 0.21798,-0.43462 0.43596,-0.8969 0.65393,-1.38527 0.21798,-0.48837 0.43596,-1.00299 0.65393,-1.54085 0.21798,-0.53786 0.43596,-1.09909 0.65394,-1.67908 0.21797,-0.57999 0.43595,-1.17885 0.65393,-1.7904 0.21797,-0.61155 0.43595,-1.23585 0.65393,-1.86526 0.21797,-0.62942 0.43595,-1.26395 0.65393,-1.89477 0.21797,-0.63083 0.43595,-1.25788 0.65392,-1.87149 0.217979,-0.61361 0.435949,-1.21366 0.653929,-1.79014 0.21798,-0.57647 0.43595,-1.12918 0.65393,-1.64832 0.21797,-0.51913 0.43595,-1.00445 0.653931,-1.44692 0.21797,-0.44248 0.43595,-0.84182 0.65393,-1.19039 0.217969,-0.34856 0.435949,-0.64601 0.653929,-0.88659 0.21797,-0.24059 0.43595,-0.42394 0.65393,-0.54658 0.217971,-0.12265 0.435951,-0.18423 0.653931,-0.1838 0.21797,4.3e-4 0.43595,0.0632 0.65392,0.18672 0.21798,0.12349 0.43596,0.30801 0.65393,0.54938 0.21798,0.24137 0.43596,0.5399 0.65394,0.88916 0.21797,0.34927 0.43595,0.74955 0.65393,1.19262 0.21797,0.44307 0.43595,0.92914 0.65393,1.44874 0.21797,0.5196 0.43595,1.07288 0.65393,1.64969 0.21797,0.5768 0.43595,1.17722 0.65392,1.79101 0.21798,0.6138 0.43596,1.24102 0.65394,1.87189 0.21797,0.63088 0.43595,1.2654 0.65393,1.89474 0.21798,0.62935 0.43595,1.25347 0.65392,1.86484 0.21798,0.61137 0.43596,1.20992 0.65394,1.78965 0.21797,0.57973 0.43595,1.14054 0.65393,1.67807 0.21797,0.53754 0.43595,1.05167 0.65393,1.53968 0.21797,0.48801 0.43595,0.94975 0.65392,1.384 0.21798,0.43424 0.43595,0.84084 0.65393,1.21988 0.21797,0.37904 0.43595,0.73037 0.65392,1.05513 0.21798,0.32476 0.43595,0.62281 0.65393,0.89608 0.21798,0.27328 0.43595,0.52166 0.65393,0.7476 0.21797,0.22595 0.43595,0.42935 0.65392,0.61297 0.21798,0.18363 0.43596,0.34737 0.65393,0.4941 0.21798,0.14672 0.43596,0.27634 0.65393,0.39165 0.21798,0.11531 0.43596,0.21623 0.65394,0.30538 0.21798,0.0891 0.43595,0.16645 0.65393,0.23426 0.21798,0.0678 0.43596,0.12607 0.65393,0.17683 0.21798,0.0508 0.43596,0.094 0.65394,0.13138 0.21797,0.0374 0.43595,0.069 0.65393,0.0961 0.21798,0.0271 0.43595,0.0498 0.65393,0.0692 0.21798,0.0194 0.43596,0.0354 0.65394,0.049 0.21797,0.0136 0.43595,0.0248 0.65393,0.0342 0.21797,0.009 0.43595,0.0171 0.65393,0.0235 0.21798,0.006 0.43595,0.0116 0.65393,0.0159 0.21798,0.004 0.43595,0.008 0.65393,0.0106 0.21798,0.003 0.43595,0.005 0.65393,0.007 0.21798,0.002 0.43595,0.003 0.65393,0.005 l 0.65393,0.003 c 0.21797,7.5e-4 0.43595,0.001 0.65393,0.002 0.21797,4.7e-4 0.43595,8.3e-4 0.65393,10e-4 0.21797,2.9e-4 0.43595,5.1e-4 0.65393,6.8e-4 0.21797,1.7e-4 0.43595,3e-4 0.65393,4.1e-4 0.21797,10e-5 0.43595,1.8e-4 0.65393,2.4e-4 0.21797,6e-5 0.43595,1.1e-4 0.65393,1.4e-4 0.21797,4e-5 0.43595,6e-5 0.65393,8e-5 0.21797,2e-5 0.43595,4e-5 0.65392,5e-5 0.21798,10e-6 0.43596,2e-5 0.65393,2e-5 0.21798,10e-6 0.43596,10e-6 0.65393,2e-5 0.21798,0 0.43596,0 0.65393,10e-6 h 0.65393 0.65393 0.65393 0.65393 0.65393 0.65393 0.65393 0.65393 0.65393 0.65393 0.65393 0.65393 0.65393 0.65393 0.6539299 0.65393 0.65393 0.6539299 0.65393 0.65393 0.6539299 0.65393 0.65392 0.6539299 0.65393 0.65394 0.6539299 0.65392005 0.65394 0.6539299 0.65392005 0.65394 0.6539299 0.65392 0.65393 0.6539299 0.65393 0.65393 0.6539299 0.65393 0.65393 0.6539299 0.65393 0.65393 0.6539299 0.65393 0.65393 0.65393 0.65393 0.65393 0.65393 0.65393 0.65393 0.65393 0.65393 0.65393 0.65393 0.65393 0.65393 0.65393 0.65393 0.65393 0.65393 0.65393 0.65393 0.65393 0.65393 0.65393 0.65393 0.65393 0.65393 0.65393 0.65393 0.65393 0.65393 0.65393 0.65393 0.65393 0.65393 0.65393 0.65393 0.65393 0.65393 0.65393 0.65393 0.65393 0.65393 0.65393 0.65393 0.65393 0.65393 0.65393 0.65393 0.65393 0.65393 0.65393 0.65393 0.65393 0.65393 0.65393 0.65393 0.65393 0.65393 0.65393 0.65392 0.65394 0.65393 0.65393 0.65393 0.65393 0.65393 0.65393 0.65393 0.65393 0.65393 0.65393 0.65393 0.65393 0.65392 0.65393 0.65394 0.65393 0.65393 0.65393 0.65393 989.71637"
       sodipodi:nodetypes="ccccccccccccccccccccccccccccccccccccccccccccccccccccccccccccccccccccccccccccccccccccssssccsccsssccccssscccccsscccccccccccccccccscccccccccccccccccccccccccsscccccsccccscscssccccccccccccccccccccccccccccccccccccccccccccccccccccccccccccccccccccccccccccccccccccccccccccccccccccccccccccccccccccccccccccccccc" />
  </g>
</svg>
