<?xml version="1.0" encoding="utf-8"?>
<svg xmlns="http://www.w3.org/2000/svg" xmlns:xlink="http://www.w3.org/1999/xlink" width="1000" height="250" viewBox="0 0 4000 1000">
<defs>
  <clipPath id="clip9200">
    <rect x="0" y="0" width="2000" height="2000"/>
  </clipPath>
</defs>
<defs>
  <clipPath id="clip9201">
    <rect x="0" y="0" width="4000" height="1000"/>
  </clipPath>
</defs>
<polygon clip-path="url(#clip9201)" points="
0,1000 4000,1000 4000,0 0,0 
  " fill="#ffffff" fill-opacity="1"/>
<defs>
  <clipPath id="clip9202">
    <rect x="800" y="0" width="2801" height="1000"/>
  </clipPath>
</defs>
<polygon clip-path="url(#clip9201)" points="
224.386,848.866 1941.33,848.866 1941.33,125.984 224.386,125.984 
  " fill="#ffffff" fill-opacity="1"/>
<defs>
  <clipPath id="clip9203">
    <rect x="224" y="125" width="1718" height="724"/>
  </clipPath>
</defs>
<polyline clip-path="url(#clip9203)" style="stroke:#000000; stroke-width:2; stroke-opacity:0.1; fill:none" points="
  271.358,848.866 271.358,125.984 
  "/>
<polyline clip-path="url(#clip9203)" style="stroke:#000000; stroke-width:2; stroke-opacity:0.1; fill:none" points="
  676.703,848.866 676.703,125.984 
  "/>
<polyline clip-path="url(#clip9203)" style="stroke:#000000; stroke-width:2; stroke-opacity:0.1; fill:none" points="
  1082.05,848.866 1082.05,125.984 
  "/>
<polyline clip-path="url(#clip9203)" style="stroke:#000000; stroke-width:2; stroke-opacity:0.1; fill:none" points="
  1487.39,848.866 1487.39,125.984 
  "/>
<polyline clip-path="url(#clip9203)" style="stroke:#000000; stroke-width:2; stroke-opacity:0.1; fill:none" points="
  1892.74,848.866 1892.74,125.984 
  "/>
<polyline clip-path="url(#clip9203)" style="stroke:#000000; stroke-width:2; stroke-opacity:0.1; fill:none" points="
  224.386,742.992 1941.33,742.992 
  "/>
<polyline clip-path="url(#clip9203)" style="stroke:#000000; stroke-width:2; stroke-opacity:0.1; fill:none" points="
  224.386,636.448 1941.33,636.448 
  "/>
<polyline clip-path="url(#clip9203)" style="stroke:#000000; stroke-width:2; stroke-opacity:0.1; fill:none" points="
  224.386,529.905 1941.33,529.905 
  "/>
<polyline clip-path="url(#clip9203)" style="stroke:#000000; stroke-width:2; stroke-opacity:0.1; fill:none" points="
  224.386,423.362 1941.33,423.362 
  "/>
<polyline clip-path="url(#clip9203)" style="stroke:#000000; stroke-width:2; stroke-opacity:0.1; fill:none" points="
  224.386,316.818 1941.33,316.818 
  "/>
<polyline clip-path="url(#clip9203)" style="stroke:#000000; stroke-width:2; stroke-opacity:0.1; fill:none" points="
  224.386,210.275 1941.33,210.275 
  "/>
<polyline clip-path="url(#clip9201)" style="stroke:#000000; stroke-width:4; stroke-opacity:1; fill:none" points="
  224.386,848.866 1941.33,848.866 
  "/>
<polyline clip-path="url(#clip9201)" style="stroke:#000000; stroke-width:4; stroke-opacity:1; fill:none" points="
  224.386,848.866 224.386,125.984 
  "/>
<polyline clip-path="url(#clip9201)" style="stroke:#000000; stroke-width:4; stroke-opacity:1; fill:none" points="
  271.358,848.866 271.358,838.023 
  "/>
<polyline clip-path="url(#clip9201)" style="stroke:#000000; stroke-width:4; stroke-opacity:1; fill:none" points="
  676.703,848.866 676.703,838.023 
  "/>
<polyline clip-path="url(#clip9201)" style="stroke:#000000; stroke-width:4; stroke-opacity:1; fill:none" points="
  1082.05,848.866 1082.05,838.023 
  "/>
<polyline clip-path="url(#clip9201)" style="stroke:#000000; stroke-width:4; stroke-opacity:1; fill:none" points="
  1487.39,848.866 1487.39,838.023 
  "/>
<polyline clip-path="url(#clip9201)" style="stroke:#000000; stroke-width:4; stroke-opacity:1; fill:none" points="
  1892.74,848.866 1892.74,838.023 
  "/>
<polyline clip-path="url(#clip9201)" style="stroke:#000000; stroke-width:4; stroke-opacity:1; fill:none" points="
  224.386,742.992 250.14,742.992 
  "/>
<polyline clip-path="url(#clip9201)" style="stroke:#000000; stroke-width:4; stroke-opacity:1; fill:none" points="
  224.386,636.448 250.14,636.448 
  "/>
<polyline clip-path="url(#clip9201)" style="stroke:#000000; stroke-width:4; stroke-opacity:1; fill:none" points="
  224.386,529.905 250.14,529.905 
  "/>
<polyline clip-path="url(#clip9201)" style="stroke:#000000; stroke-width:4; stroke-opacity:1; fill:none" points="
  224.386,423.362 250.14,423.362 
  "/>
<polyline clip-path="url(#clip9201)" style="stroke:#000000; stroke-width:4; stroke-opacity:1; fill:none" points="
  224.386,316.818 250.14,316.818 
  "/>
<polyline clip-path="url(#clip9201)" style="stroke:#000000; stroke-width:4; stroke-opacity:1; fill:none" points="
  224.386,210.275 250.14,210.275 
  "/>
<g clip-path="url(#clip9201)">
<text style="fill:#000000; fill-opacity:1; font-family:Arial,Helvetica Neue,Helvetica,sans-serif; font-size:48; text-anchor:middle;" transform="rotate(0, 271.358, 910.866)" x="271.358" y="910.866">0</text>
</g>
<g clip-path="url(#clip9201)">
<text style="fill:#000000; fill-opacity:1; font-family:Arial,Helvetica Neue,Helvetica,sans-serif; font-size:48; text-anchor:middle;" transform="rotate(0, 676.703, 910.866)" x="676.703" y="910.866">250</text>
</g>
<g clip-path="url(#clip9201)">
<text style="fill:#000000; fill-opacity:1; font-family:Arial,Helvetica Neue,Helvetica,sans-serif; font-size:48; text-anchor:middle;" transform="rotate(0, 1082.05, 910.866)" x="1082.05" y="910.866">500</text>
</g>
<g clip-path="url(#clip9201)">
<text style="fill:#000000; fill-opacity:1; font-family:Arial,Helvetica Neue,Helvetica,sans-serif; font-size:48; text-anchor:middle;" transform="rotate(0, 1487.39, 910.866)" x="1487.39" y="910.866">750</text>
</g>
<g clip-path="url(#clip9201)">
<text style="fill:#000000; fill-opacity:1; font-family:Arial,Helvetica Neue,Helvetica,sans-serif; font-size:48; text-anchor:middle;" transform="rotate(0, 1892.74, 910.866)" x="1892.74" y="910.866">1000</text>
</g>
<g clip-path="url(#clip9201)">
<text style="fill:#000000; fill-opacity:1; font-family:Arial,Helvetica Neue,Helvetica,sans-serif; font-size:48; text-anchor:end;" transform="rotate(0, 184.386, 760.492)" x="184.386" y="760.492">0.3</text>
</g>
<g clip-path="url(#clip9201)">
<text style="fill:#000000; fill-opacity:1; font-family:Arial,Helvetica Neue,Helvetica,sans-serif; font-size:48; text-anchor:end;" transform="rotate(0, 184.386, 653.948)" x="184.386" y="653.948">0.4</text>
</g>
<g clip-path="url(#clip9201)">
<text style="fill:#000000; fill-opacity:1; font-family:Arial,Helvetica Neue,Helvetica,sans-serif; font-size:48; text-anchor:end;" transform="rotate(0, 184.386, 547.405)" x="184.386" y="547.405">0.5</text>
</g>
<g clip-path="url(#clip9201)">
<text style="fill:#000000; fill-opacity:1; font-family:Arial,Helvetica Neue,Helvetica,sans-serif; font-size:48; text-anchor:end;" transform="rotate(0, 184.386, 440.862)" x="184.386" y="440.862">0.6</text>
</g>
<g clip-path="url(#clip9201)">
<text style="fill:#000000; fill-opacity:1; font-family:Arial,Helvetica Neue,Helvetica,sans-serif; font-size:48; text-anchor:end;" transform="rotate(0, 184.386, 334.318)" x="184.386" y="334.318">0.7</text>
</g>
<g clip-path="url(#clip9201)">
<text style="fill:#000000; fill-opacity:1; font-family:Arial,Helvetica Neue,Helvetica,sans-serif; font-size:48; text-anchor:end;" transform="rotate(0, 184.386, 227.775)" x="184.386" y="227.775">0.8</text>
</g>
<g clip-path="url(#clip9201)">
<text style="fill:#000000; fill-opacity:1; font-family:Arial,Helvetica Neue,Helvetica,sans-serif; font-size:82; text-anchor:middle;" transform="rotate(0, 1082.86, 72)" x="1082.86" y="72">Param1</text>
</g>
<g clip-path="url(#clip9201)">
<text style="fill:#000000; fill-opacity:1; font-family:Arial,Helvetica Neue,Helvetica,sans-serif; font-size:66; text-anchor:middle;" transform="rotate(0, 1082.86, 990.4)" x="1082.86" y="990.4">Iteration</text>
</g>
<g clip-path="url(#clip9201)">
<text style="fill:#000000; fill-opacity:1; font-family:Arial,Helvetica Neue,Helvetica,sans-serif; font-size:66; text-anchor:middle;" transform="rotate(-90, 57.6, 487.425)" x="57.6" y="487.425">Sample value</text>
</g>
<polyline clip-path="url(#clip9203)" style="stroke:#009af9; stroke-width:4; stroke-opacity:1; fill:none" points="
  272.979,146.443 274.6,828.407 276.222,211.072 277.843,793.627 279.464,257.019 281.086,707.915 282.707,349.76 284.329,614.467 285.95,381.65 287.571,596.023 
  289.193,423.419 290.814,625.873 292.436,433.299 294.057,626.045 295.678,431.916 297.3,542.833 298.921,440.885 300.542,593.458 302.164,516.963 303.785,538.501 
  305.407,421.639 307.028,582.34 308.649,444.222 310.271,535.467 311.892,474.694 313.513,499.447 315.135,486.552 316.756,577.807 318.378,414.134 319.999,591.135 
  321.62,441.733 323.242,609.605 324.863,421.582 326.485,560.639 328.106,466.611 329.727,558.213 331.349,448.848 332.97,540.514 334.591,418.418 336.213,618.038 
  337.834,416.539 339.456,571.033 341.077,446.773 342.698,586.998 344.32,490.266 345.941,521.186 347.562,492.075 349.184,443.376 350.805,527.021 352.427,519.984 
  354.048,534.81 355.669,459.476 357.291,504.957 358.912,474.527 360.534,582.031 362.155,451.842 363.776,565.663 365.398,439.92 367.019,564.968 368.64,457.29 
  370.262,570.112 371.883,464.255 373.505,549.278 375.126,461.225 376.747,534.905 378.369,458.738 379.99,554.375 381.612,510.328 383.233,452.461 384.854,541.951 
  386.476,465.648 388.097,571.084 389.718,465.035 391.34,512.7 392.961,517.617 394.583,457.6 396.204,505.417 397.825,508.521 399.447,493.858 401.068,560.192 
  402.689,510.822 404.311,487.572 405.932,518.198 407.554,539.939 409.175,501.585 410.796,512.433 412.418,501.293 414.039,562.904 415.661,445.068 417.282,557.128 
  418.903,464.786 420.525,560.834 422.146,503.157 423.767,482.255 425.389,516.201 427.01,487.272 428.632,549.924 430.253,441.818 431.874,549.716 433.496,462.827 
  435.117,571.895 436.738,434.586 438.36,614.05 439.981,443.807 441.603,513.822 443.224,529.284 444.845,450.391 446.467,570.408 448.088,445.693 449.71,537.079 
  451.331,510.355 452.952,438.544 454.574,547.605 456.195,513.912 457.816,415.734 459.438,587.277 461.059,444.687 462.681,531.028 464.302,461.888 465.923,583.142 
  467.545,457.988 469.166,588.455 470.787,453.74 472.409,530.151 474.03,512.094 475.652,523.667 477.273,525.538 478.894,489.035 480.516,536.207 482.137,453.748 
  483.759,537.774 485.38,527.335 487.001,495.022 488.623,511.772 490.244,508.07 491.865,474.26 493.487,603.202 495.108,414.758 496.73,574.208 498.351,464.695 
  499.972,538.492 501.594,518.447 503.215,436.051 504.836,550.932 506.458,453.775 508.079,594.382 509.701,476.735 511.322,526.337 512.943,493.735 514.565,494.165 
  516.186,485.826 517.808,504.386 519.429,525.567 521.05,508.771 522.672,530.556 524.293,532.866 525.914,476 527.536,517.332 529.157,548.322 530.779,451.399 
  532.4,595.986 534.021,482.734 535.643,534.148 537.264,503.345 538.885,529.129 540.507,516.649 542.128,526.551 543.75,483.688 545.371,549.627 546.992,480.555 
  548.614,549.636 550.235,521.263 551.857,493.13 553.478,538.029 555.099,402.383 556.721,576.873 558.342,456.553 559.963,561.089 561.585,518.366 563.206,488.933 
  564.828,567.438 566.449,467.649 568.07,578.195 569.692,440.768 571.313,515.905 572.934,514.549 574.556,511.246 576.177,465.855 577.799,536.594 579.42,545.307 
  581.041,507.54 582.663,524.752 584.284,450.596 585.906,615.459 587.527,444.014 589.148,589.169 590.77,423.04 592.391,582.528 594.012,438.946 595.634,522.823 
  597.255,522.386 598.877,510.114 600.498,511.31 602.119,508.013 603.741,537.244 605.362,466.269 606.983,543.717 608.605,422.94 610.226,559.004 611.848,464.14 
  613.469,529.081 615.09,493.466 616.712,537.68 618.333,446.08 619.955,491.341 621.576,466.012 623.197,575.064 624.819,464.656 626.44,557.543 628.061,500.705 
  629.683,530.569 631.304,522.656 632.926,474.558 634.547,507.926 636.168,525.222 637.79,484.173 639.411,510.703 641.032,506.593 642.654,554.592 644.275,444.713 
  645.897,567.896 647.518,450.129 649.139,563.83 650.761,513.656 652.382,537.967 654.004,513.815 655.625,519.722 657.246,484.833 658.868,529.026 660.489,527.003 
  662.11,467.429 663.732,594.851 665.353,438.184 666.975,542.786 668.596,459.081 670.217,518.053 671.839,473.71 673.46,551.433 675.082,487.834 676.703,488.462 
  678.324,503.267 679.946,548.442 681.567,435.309 683.188,531.257 684.81,487.728 686.431,530.292 688.053,516.629 689.674,519.19 691.295,506.553 692.917,483.048 
  694.538,528.755 696.159,503.651 697.781,502.216 699.402,542.922 701.024,481.91 702.645,539.4 704.266,438.825 705.888,582.78 707.509,444.997 709.131,587.949 
  710.752,414.259 712.373,620.282 713.995,417.031 715.616,585.486 717.237,436.556 718.859,590.392 720.48,422.368 722.102,568.332 723.723,437.2 725.344,572.717 
  726.966,522.429 728.587,513.763 730.208,530.769 731.83,478.752 733.451,495.299 735.073,499.391 736.694,580.01 738.315,457.306 739.937,537.914 741.558,547.842 
  743.18,426.111 744.801,556.969 746.422,475.392 748.044,557.029 749.665,515.935 751.286,520.438 752.908,543.738 754.529,496.097 756.151,520.748 757.772,498.536 
  759.393,499.344 761.015,544.669 762.636,485.855 764.257,503.132 765.879,491.098 767.5,530.54 769.122,501.828 770.743,520.703 772.364,534.647 773.986,541.982 
  775.607,475.446 777.229,574.362 778.85,472.217 780.471,526.966 782.093,477.146 783.714,515.543 785.335,517.211 786.957,471.233 788.578,626.834 790.2,400.432 
  791.821,591.376 793.442,469.233 795.064,523.294 796.685,474.364 798.306,533.544 799.928,448.326 801.549,596.595 803.171,466.198 804.792,542.636 806.413,468.073 
  808.035,556.192 809.656,455.464 811.278,558.585 812.899,440.69 814.52,545.539 816.142,492.832 817.763,516.59 819.384,518.601 821.006,535.824 822.627,455.933 
  824.249,566.711 825.87,434.854 827.491,590.258 829.113,429.226 830.734,638.256 832.355,381.559 833.977,604.035 835.598,443.372 837.22,558.38 838.841,450.766 
  840.462,541.26 842.084,530.495 843.705,490.217 845.327,606.859 846.948,422.47 848.569,608.001 850.191,374.982 851.812,646.395 853.433,383.842 855.055,634.551 
  856.676,459.815 858.298,503.345 859.919,477.037 861.54,546.785 863.162,496.575 864.783,472.3 866.404,574.051 868.026,484.761 869.647,490.435 871.269,554.844 
  872.89,452.287 874.511,599.163 876.133,394.828 877.754,605.876 879.376,413.841 880.997,630.332 882.618,407.385 884.24,612.149 885.861,421.841 887.482,558.773 
  889.104,502.004 890.725,555.04 892.347,472.482 893.968,587.824 895.589,426.748 897.211,581.819 898.832,391.566 900.453,619.354 902.075,432.973 903.696,577.823 
  905.318,373.092 906.939,629.403 908.56,417.254 910.182,603.3 911.803,464.489 913.425,580.456 915.046,490.186 916.667,495.246 918.289,462.684 919.91,543.015 
  921.531,494.4 923.153,472.04 924.774,533.704 926.396,466.103 928.017,575.577 929.638,462.502 931.26,571.546 932.881,449.641 934.502,573.087 936.124,425.732 
  937.745,605.498 939.367,429.613 940.988,613.998 942.609,424.621 944.231,645.087 945.852,372.803 947.474,671.199 949.095,348.128 950.716,625.193 952.338,428.533 
  953.959,555.849 955.58,493.142 957.202,548.383 958.823,469.025 960.445,525.507 962.066,413.725 963.687,579.52 965.309,447.603 966.93,578.576 968.552,515.624 
  970.173,492.564 971.794,466.032 973.416,590.179 975.037,466.113 976.658,541.853 978.28,468.913 979.901,540.801 981.523,497.322 983.144,486.368 984.765,564.173 
  986.387,472.63 988.008,556.086 989.629,494.995 991.251,482.566 992.872,545.372 994.494,413.234 996.115,556.061 997.736,473.088 999.358,515.212 1000.98,565.218 
  1002.6,475.37 1004.22,560.187 1005.84,447.739 1007.46,532.015 1009.09,507.683 1010.71,469.749 1012.33,555.069 1013.95,459.09 1015.57,603.475 1017.19,407.887 
  1018.81,611.148 1020.44,427.707 1022.06,559.674 1023.68,492.237 1025.3,518.275 1026.92,516.831 1028.54,497.585 1030.16,500.753 1031.79,497.082 1033.41,487.498 
  1035.03,521.962 1036.65,506.787 1038.27,530.905 1039.89,512.62 1041.51,497.538 1043.14,542.388 1044.76,447.496 1046.38,555.821 1048,504.442 1049.62,556.314 
  1051.24,477.616 1052.86,505.651 1054.48,517.284 1056.11,526.027 1057.73,517.307 1059.35,539.868 1060.97,468.152 1062.59,520.364 1064.21,427.7 1065.83,563.268 
  1067.46,501.533 1069.08,526.48 1070.7,526.148 1072.32,502.277 1073.94,567.212 1075.56,423.25 1077.18,608.096 1078.81,394.365 1080.43,581.879 1082.05,447.734 
  1083.67,543.555 1085.29,469.014 1086.91,582.267 1088.53,443.445 1090.16,520.425 1091.78,492.545 1093.4,497.87 1095.02,557.329 1096.64,454.484 1098.26,596.523 
  1099.88,435.192 1101.5,564.007 1103.13,473.059 1104.75,533.769 1106.37,480.975 1107.99,544.01 1109.61,459.736 1111.23,533.575 1112.85,463.091 1114.48,489.363 
  1116.1,520.376 1117.72,474.451 1119.34,517.22 1120.96,429.738 1122.58,591.568 1124.2,434.278 1125.83,532.468 1127.45,474.355 1129.07,534.817 1130.69,511.368 
  1132.31,502.564 1133.93,523.356 1135.55,512.289 1137.18,439.702 1138.8,541.331 1140.42,484.774 1142.04,494.406 1143.66,583.27 1145.28,487.216 1146.9,480.064 
  1148.52,530.244 1150.15,505.346 1151.77,491.913 1153.39,484.78 1155.01,531.586 1156.63,514.878 1158.25,520.757 1159.87,521.043 1161.5,511.744 1163.12,476.307 
  1164.74,539.644 1166.36,478.5 1167.98,499.97 1169.6,546.862 1171.22,472.163 1172.85,558.354 1174.47,490.574 1176.09,517.283 1177.71,505.982 1179.33,523.615 
  1180.95,490.959 1182.57,482.759 1184.2,478.335 1185.82,559.057 1187.44,446.177 1189.06,609.607 1190.68,445.481 1192.3,560.423 1193.92,448.128 1195.54,553.648 
  1197.17,492.332 1198.79,508.482 1200.41,490.539 1202.03,524.072 1203.65,468.593 1205.27,567.137 1206.89,416.018 1208.52,664.691 1210.14,344.174 1211.76,666.323 
  1213.38,358.656 1215,587.075 1216.62,471.099 1218.24,533.052 1219.87,552.349 1221.49,462.592 1223.11,507.309 1224.73,467.098 1226.35,607.292 1227.97,406.874 
  1229.59,586.689 1231.22,439.296 1232.84,522.569 1234.46,477.818 1236.08,545.359 1237.7,458.466 1239.32,485.775 1240.94,511.313 1242.56,472.724 1244.19,515.15 
  1245.81,484.03 1247.43,543.23 1249.05,513.407 1250.67,512.159 1252.29,493.231 1253.91,521.491 1255.54,446.762 1257.16,598.216 1258.78,598.216 1260.4,430.912 
  1262.02,553.872 1263.64,473.326 1265.26,537.958 1266.89,578.846 1268.51,459.997 1270.13,535.823 1271.75,492.224 1273.37,511.124 1274.99,523.519 1276.61,481.96 
  1278.24,576.995 1279.86,457.877 1281.48,545.216 1283.1,507.28 1284.72,494.275 1286.34,488.878 1287.96,553.972 1289.58,478.847 1291.21,531.564 1292.83,531.766 
  1294.45,513.041 1296.07,519.242 1297.69,454.975 1299.31,547.871 1300.93,504.517 1302.56,554.174 1304.18,452.459 1305.8,559.545 1307.42,429.146 1309.04,569.294 
  1310.66,488.744 1312.28,551.676 1313.91,502.563 1315.53,491.28 1317.15,456.251 1318.77,537.582 1320.39,511 1322.01,522.302 1323.63,505.887 1325.26,494.363 
  1326.88,550.464 1328.5,478.076 1330.12,506.862 1331.74,499.931 1333.36,444.177 1334.98,528.859 1336.61,502.063 1338.23,526.118 1339.85,433.453 1341.47,542.135 
  1343.09,519.984 1344.71,547.545 1346.33,513.842 1347.95,472.989 1349.58,541.412 1351.2,460.597 1352.82,539.389 1354.44,483.754 1356.06,528.886 1357.68,453.215 
  1359.3,572.197 1360.93,479.699 1362.55,543.906 1364.17,465.688 1365.79,510.877 1367.41,494.041 1369.03,463.843 1370.65,515.947 1372.28,497.201 1373.9,514.673 
  1375.52,474.798 1377.14,479.739 1378.76,562.471 1380.38,450.997 1382,532.398 1383.63,498.028 1385.25,529.023 1386.87,483.691 1388.49,585.576 1390.11,460.3 
  1391.73,569.925 1393.35,479.939 1394.97,502.919 1396.6,515.712 1398.22,502.945 1399.84,509.1 1401.46,466.983 1403.08,528.056 1404.7,509.382 1406.32,532.169 
  1407.95,439.451 1409.57,520.573 1411.19,539.685 1412.81,445.196 1414.43,572.661 1416.05,495.966 1417.67,509.605 1419.3,440.909 1420.92,496.652 1422.54,564.951 
  1424.16,463.877 1425.78,522.791 1427.4,469.09 1429.02,522.826 1430.65,446.048 1432.27,636.115 1433.89,372.348 1435.51,640.019 1437.13,416.756 1438.75,617.203 
  1440.37,394.857 1441.99,593.454 1443.62,442.928 1445.24,525.822 1446.86,498.065 1448.48,492.593 1450.1,533.91 1451.72,496.53 1453.34,473.996 1454.97,488.391 
  1456.59,561.854 1458.21,465.58 1459.83,586.963 1461.45,479.051 1463.07,572.173 1464.69,424.604 1466.32,640.545 1467.94,428.283 1469.56,570.671 1471.18,432.931 
  1472.8,539.355 1474.42,465.696 1476.04,450.323 1477.67,502.799 1479.29,500.808 1480.91,495.973 1482.53,501.952 1484.15,557.228 1485.77,458.484 1487.39,576.351 
  1489.01,444.616 1490.64,577.43 1492.26,516.228 1493.88,499.154 1495.5,504.94 1497.12,481.681 1498.74,517.633 1500.36,590.345 1501.99,447.383 1503.61,531.691 
  1505.23,498.297 1506.85,552.621 1508.47,470.896 1510.09,526.318 1511.71,522.135 1513.34,446.115 1514.96,560.076 1516.58,490.113 1518.2,479.323 1519.82,521.819 
  1521.44,526.395 1523.06,499.355 1524.69,480.399 1526.31,587.289 1527.93,404.023 1529.55,579.905 1531.17,399.743 1532.79,571.72 1534.41,467.655 1536.03,571.879 
  1537.66,426.019 1539.28,603.102 1540.9,411.327 1542.52,535.026 1544.14,426.145 1545.76,581.5 1547.38,413.904 1549.01,561.616 1550.63,367.349 1552.25,619.958 
  1553.87,619.958 1555.49,410.487 1557.11,576.608 1558.73,481.842 1560.36,557.562 1561.98,481.213 1563.6,539.794 1565.22,489.834 1566.84,542.149 1568.46,489.39 
  1570.08,489.124 1571.71,541.088 1573.33,462.367 1574.95,538.697 1576.57,497.331 1578.19,524.314 1579.81,507.208 1581.43,509.532 1583.05,452.631 1584.68,579.134 
  1586.3,447.091 1587.92,518.656 1589.54,502.467 1591.16,485.202 1592.78,548.541 1594.4,491.308 1596.03,512.495 1597.65,474.35 1599.27,515.391 1600.89,462.577 
  1602.51,537.951 1604.13,484.283 1605.75,524.254 1607.38,469.099 1609,558.75 1610.62,448.718 1612.24,593.643 1613.86,438.453 1615.48,556.634 1617.1,531.282 
  1618.73,478.177 1620.35,569.054 1621.97,474.942 1623.59,564.3 1625.21,453.287 1626.83,600.099 1628.45,457.921 1630.08,516.857 1631.7,524.782 1633.32,485.554 
  1634.94,535.271 1636.56,459.44 1638.18,478.355 1639.8,589.404 1641.42,417.551 1643.05,618.998 1644.67,480.69 1646.29,569.882 1647.91,415.841 1649.53,573.371 
  1651.15,474.514 1652.77,557.284 1654.4,448.565 1656.02,541.266 1657.64,522.749 1659.26,488.936 1660.88,526.424 1662.5,467.476 1664.12,503.077 1665.75,522.618 
  1667.37,522.618 1668.99,492.798 1670.61,577.057 1672.23,420.236 1673.85,613.833 1675.47,387.025 1677.1,633.207 1678.72,401.37 1680.34,631.873 1681.96,418.051 
  1683.58,544.232 1685.2,467.142 1686.82,586.472 1688.44,410.439 1690.07,609.253 1691.69,475.336 1693.31,527.109 1694.93,512.78 1696.55,498.288 1698.17,521.862 
  1699.79,489.912 1701.42,533.277 1703.04,445.129 1704.66,528.702 1706.28,464.297 1707.9,579.195 1709.52,419.446 1711.14,614.859 1712.77,422.108 1714.39,595.661 
  1716.01,442.503 1717.63,542.888 1719.25,448.565 1720.87,542.701 1722.49,476.317 1724.12,582.545 1725.74,430.579 1727.36,556.782 1728.98,530.679 1730.6,493.516 
  1732.22,482.49 1733.84,571.599 1735.46,487.347 1737.09,491.489 1738.71,517.726 1740.33,476.686 1741.95,524.51 1743.57,544.004 1745.19,452.994 1746.81,568.435 
  1748.44,443.115 1750.06,528.746 1751.68,488.629 1753.3,530.145 1754.92,511.606 1756.54,461.653 1758.16,508.906 1759.79,540.635 1761.41,471.871 1763.03,551.11 
  1764.65,455.978 1766.27,564.25 1767.89,419.591 1769.51,621.767 1771.14,388.508 1772.76,598.376 1774.38,457.429 1776,550.45 1777.62,517.485 1779.24,525.668 
  1780.86,517.079 1782.48,475.907 1784.11,553.924 1785.73,394.25 1787.35,666.777 1788.97,406.636 1790.59,619.615 1792.21,375.775 1793.83,638.304 1795.46,406.873 
  1797.08,617.39 1798.7,404.293 1800.32,571.023 1801.94,438.682 1803.56,545.561 1805.18,459.152 1806.81,536.502 1808.43,481.988 1810.05,531.708 1811.67,485.713 
  1813.29,550.565 1814.91,472.44 1816.53,551.119 1818.16,432.683 1819.78,529.728 1821.4,486.16 1823.02,548.513 1824.64,466.528 1826.26,524.639 1827.88,434.393 
  1829.5,596.503 1831.13,404.444 1832.75,610.733 1834.37,421.546 1835.99,593.684 1837.61,437.582 1839.23,513.591 1840.85,512.966 1842.48,423.238 1844.1,622.358 
  1845.72,426.636 1847.34,533.541 1848.96,449.438 1850.58,573.721 1852.2,437.997 1853.83,576.815 1855.45,481.159 1857.07,565.627 1858.69,461.252 1860.31,514.069 
  1861.93,484.307 1863.55,512.101 1865.18,523.622 1866.8,496.305 1868.42,531.29 1870.04,455.983 1871.66,560.326 1873.28,535 1874.9,472.256 1876.52,527.153 
  1878.15,492.302 1879.77,582.302 1881.39,443.054 1883.01,587.814 1884.63,464.301 1886.25,584 1887.87,511.481 1889.5,487.992 1891.12,533.876 1892.74,558.367 
  
  "/>
<polygon clip-path="url(#clip9201)" points="
2204.31,848.866 3921.26,848.866 3921.26,125.984 2204.31,125.984 
  " fill="#ffffff" fill-opacity="1"/>
<defs>
  <clipPath id="clip9204">
    <rect x="2204" y="125" width="1718" height="724"/>
  </clipPath>
</defs>
<polyline clip-path="url(#clip9204)" style="stroke:#000000; stroke-width:2; stroke-opacity:0.1; fill:none" points="
  2316.75,848.866 2316.75,125.984 
  "/>
<polyline clip-path="url(#clip9204)" style="stroke:#000000; stroke-width:2; stroke-opacity:0.1; fill:none" points="
  2755.76,848.866 2755.76,125.984 
  "/>
<polyline clip-path="url(#clip9204)" style="stroke:#000000; stroke-width:2; stroke-opacity:0.1; fill:none" points="
  3194.77,848.866 3194.77,125.984 
  "/>
<polyline clip-path="url(#clip9204)" style="stroke:#000000; stroke-width:2; stroke-opacity:0.1; fill:none" points="
  3633.78,848.866 3633.78,125.984 
  "/>
<polyline clip-path="url(#clip9204)" style="stroke:#000000; stroke-width:2; stroke-opacity:0.1; fill:none" points="
  2204.31,828.408 3921.26,828.408 
  "/>
<polyline clip-path="url(#clip9204)" style="stroke:#000000; stroke-width:2; stroke-opacity:0.1; fill:none" points="
  2204.31,644.586 3921.26,644.586 
  "/>
<polyline clip-path="url(#clip9204)" style="stroke:#000000; stroke-width:2; stroke-opacity:0.1; fill:none" points="
  2204.31,460.764 3921.26,460.764 
  "/>
<polyline clip-path="url(#clip9204)" style="stroke:#000000; stroke-width:2; stroke-opacity:0.1; fill:none" points="
  2204.31,276.942 3921.26,276.942 
  "/>
<polyline clip-path="url(#clip9201)" style="stroke:#000000; stroke-width:4; stroke-opacity:1; fill:none" points="
  2204.31,848.866 3921.26,848.866 
  "/>
<polyline clip-path="url(#clip9201)" style="stroke:#000000; stroke-width:4; stroke-opacity:1; fill:none" points="
  2204.31,848.866 2204.31,125.984 
  "/>
<polyline clip-path="url(#clip9201)" style="stroke:#000000; stroke-width:4; stroke-opacity:1; fill:none" points="
  2316.75,848.866 2316.75,838.023 
  "/>
<polyline clip-path="url(#clip9201)" style="stroke:#000000; stroke-width:4; stroke-opacity:1; fill:none" points="
  2755.76,848.866 2755.76,838.023 
  "/>
<polyline clip-path="url(#clip9201)" style="stroke:#000000; stroke-width:4; stroke-opacity:1; fill:none" points="
  3194.77,848.866 3194.77,838.023 
  "/>
<polyline clip-path="url(#clip9201)" style="stroke:#000000; stroke-width:4; stroke-opacity:1; fill:none" points="
  3633.78,848.866 3633.78,838.023 
  "/>
<polyline clip-path="url(#clip9201)" style="stroke:#000000; stroke-width:4; stroke-opacity:1; fill:none" points="
  2204.31,828.408 2230.07,828.408 
  "/>
<polyline clip-path="url(#clip9201)" style="stroke:#000000; stroke-width:4; stroke-opacity:1; fill:none" points="
  2204.31,644.586 2230.07,644.586 
  "/>
<polyline clip-path="url(#clip9201)" style="stroke:#000000; stroke-width:4; stroke-opacity:1; fill:none" points="
  2204.31,460.764 2230.07,460.764 
  "/>
<polyline clip-path="url(#clip9201)" style="stroke:#000000; stroke-width:4; stroke-opacity:1; fill:none" points="
  2204.31,276.942 2230.07,276.942 
  "/>
<g clip-path="url(#clip9201)">
<text style="fill:#000000; fill-opacity:1; font-family:Arial,Helvetica Neue,Helvetica,sans-serif; font-size:48; text-anchor:middle;" transform="rotate(0, 2316.75, 910.866)" x="2316.75" y="910.866">0.2</text>
</g>
<g clip-path="url(#clip9201)">
<text style="fill:#000000; fill-opacity:1; font-family:Arial,Helvetica Neue,Helvetica,sans-serif; font-size:48; text-anchor:middle;" transform="rotate(0, 2755.76, 910.866)" x="2755.76" y="910.866">0.4</text>
</g>
<g clip-path="url(#clip9201)">
<text style="fill:#000000; fill-opacity:1; font-family:Arial,Helvetica Neue,Helvetica,sans-serif; font-size:48; text-anchor:middle;" transform="rotate(0, 3194.77, 910.866)" x="3194.77" y="910.866">0.6</text>
</g>
<g clip-path="url(#clip9201)">
<text style="fill:#000000; fill-opacity:1; font-family:Arial,Helvetica Neue,Helvetica,sans-serif; font-size:48; text-anchor:middle;" transform="rotate(0, 3633.78, 910.866)" x="3633.78" y="910.866">0.8</text>
</g>
<g clip-path="url(#clip9201)">
<text style="fill:#000000; fill-opacity:1; font-family:Arial,Helvetica Neue,Helvetica,sans-serif; font-size:48; text-anchor:end;" transform="rotate(0, 2164.31, 845.908)" x="2164.31" y="845.908">0</text>
</g>
<g clip-path="url(#clip9201)">
<text style="fill:#000000; fill-opacity:1; font-family:Arial,Helvetica Neue,Helvetica,sans-serif; font-size:48; text-anchor:end;" transform="rotate(0, 2164.31, 662.086)" x="2164.31" y="662.086">2</text>
</g>
<g clip-path="url(#clip9201)">
<text style="fill:#000000; fill-opacity:1; font-family:Arial,Helvetica Neue,Helvetica,sans-serif; font-size:48; text-anchor:end;" transform="rotate(0, 2164.31, 478.264)" x="2164.31" y="478.264">4</text>
</g>
<g clip-path="url(#clip9201)">
<text style="fill:#000000; fill-opacity:1; font-family:Arial,Helvetica Neue,Helvetica,sans-serif; font-size:48; text-anchor:end;" transform="rotate(0, 2164.31, 294.442)" x="2164.31" y="294.442">6</text>
</g>
<g clip-path="url(#clip9201)">
<text style="fill:#000000; fill-opacity:1; font-family:Arial,Helvetica Neue,Helvetica,sans-serif; font-size:82; text-anchor:middle;" transform="rotate(0, 3062.79, 72)" x="3062.79" y="72">Param1</text>
</g>
<g clip-path="url(#clip9201)">
<text style="fill:#000000; fill-opacity:1; font-family:Arial,Helvetica Neue,Helvetica,sans-serif; font-size:66; text-anchor:middle;" transform="rotate(0, 3062.79, 990.4)" x="3062.79" y="990.4">Sample value</text>
</g>
<g clip-path="url(#clip9201)">
<text style="fill:#000000; fill-opacity:1; font-family:Arial,Helvetica Neue,Helvetica,sans-serif; font-size:66; text-anchor:middle;" transform="rotate(-90, 2077.67, 487.425)" x="2077.67" y="487.425">Density</text>
</g>
<polyline clip-path="url(#clip9204)" style="stroke:#009af9; stroke-width:4; stroke-opacity:1; fill:none" points="
  2252.91,828.407 2261.05,828.405 2269.19,828.398 2277.33,828.382 2285.47,828.344 2293.6,828.267 2301.74,828.123 2309.88,827.885 2318.02,827.53 2326.16,827.064 
  2334.3,826.527 2342.44,826 2350.58,825.585 2358.72,825.363 2366.86,825.36 2375,825.526 2383.14,825.753 2391.28,825.914 2399.42,825.925 2407.56,825.778 
  2415.7,825.547 2423.84,825.356 2431.98,825.322 2440.12,825.508 2448.26,825.901 2456.39,826.423 2464.53,826.972 2472.67,827.46 2480.81,827.836 2488.95,828.094 
  2497.09,828.25 2505.23,828.334 2513.37,828.372 2521.51,828.38 2529.65,828.361 2537.79,828.308 2545.93,828.201 2554.07,828.013 2562.21,827.718 2570.35,827.307 
  2578.49,826.8 2586.63,826.26 2594.77,825.778 2602.91,825.445 2611.05,825.305 2619.18,825.321 2627.32,825.358 2635.46,825.212 2643.6,824.667 2651.74,823.572 
  2659.88,821.905 2668.02,819.799 2676.16,817.497 2684.3,815.229 2692.44,813.069 2700.58,810.829 2708.72,808.062 2716.86,804.195 2725,798.725 2733.14,791.379 
  2741.28,782.165 2749.42,771.314 2757.56,759.184 2765.7,746.178 2773.83,732.704 2781.97,719.135 2790.11,705.708 2798.25,692.391 2806.39,678.78 2814.53,664.161 
  2822.67,647.741 2830.81,628.978 2838.95,607.852 2847.09,584.924 2855.23,561.147 2863.37,537.524 2871.51,514.762 2879.65,493.07 2887.79,472.166 2895.93,451.428 
  2904.07,430.09 2912.21,407.392 2920.35,382.656 2928.49,355.372 2936.62,325.355 2944.76,292.963 2952.9,259.285 2961.04,226.169 2969.18,196.026 2977.32,171.418 
  2985.46,154.498 2993.6,146.443 3001.74,147.051 3009.88,154.697 3018.02,166.772 3026.16,180.476 3034.3,193.68 3042.44,205.441 3050.58,215.983 3058.72,226.224 
  3066.86,237.18 3075,249.578 3083.14,263.76 3091.28,279.782 3099.41,297.529 3107.55,316.764 3115.69,337.178 3123.83,358.51 3131.97,380.689 3140.11,403.872 
  3148.25,428.284 3156.39,453.952 3164.53,480.536 3172.67,507.416 3180.81,534.005 3188.95,560.052 3197.09,585.699 3205.23,611.256 3213.37,636.843 3221.51,662.146 
  3229.65,686.427 3237.79,708.756 3245.93,728.325 3254.07,744.683 3262.2,757.824 3270.34,768.131 3278.48,776.236 3286.62,782.831 3294.76,788.503 3302.9,793.615 
  3311.04,798.286 3319.18,802.475 3327.32,806.114 3335.46,809.219 3343.6,811.924 3351.74,814.421 3359.88,816.859 3368.02,819.271 3376.16,821.573 3384.3,823.621 
  3392.44,825.292 3400.58,826.532 3408.72,827.367 3416.86,827.876 3424.99,828.158 3433.13,828.299 3441.27,828.361 3449.41,828.378 3457.55,828.365 3465.69,828.319 
  3473.83,828.221 3481.97,828.047 3490.11,827.767 3498.25,827.37 3506.39,826.873 3514.53,826.333 3522.67,825.846 3530.81,825.518 3538.95,825.426 3547.09,825.59 
  3555.23,825.953 3563.37,826.405 3571.51,826.815 3579.65,827.069 3587.78,827.101 3595.92,826.903 3604.06,826.528 3612.2,826.079 3620.34,825.684 3628.48,825.46 
  3636.62,825.481 3644.76,825.747 3652.9,826.195 3661.04,826.724 3669.18,827.234 3677.32,827.651 3685.46,827.939 3693.6,828.091 3701.74,828.109 3709.88,827.995 
  3718.02,827.743 3726.16,827.358 3734.3,826.864 3742.44,826.327 3750.57,825.843 3758.71,825.519 3766.85,825.436 3774.99,825.615 3783.13,826.012 3791.27,826.531 
  3799.41,827.065 3807.55,827.531 3815.69,827.885 3823.83,828.123 3831.97,828.267 3840.11,828.344 3848.25,828.382 3856.39,828.398 3864.53,828.405 3872.67,828.407 
  
  "/>
</svg>
