<?xml version="1.0" encoding="utf-8"?>
<!-- Generator: Adobe Illustrator 19.2.0, SVG Export Plug-In . SVG Version: 6.00 Build 0)  -->
<svg version="1.1" id="Layer_1" xmlns="http://www.w3.org/2000/svg" xmlns:xlink="http://www.w3.org/1999/xlink" x="0px" y="0px"
	 viewBox="0 0 125 25" style="enable-background:new 0 0 125 25;" xml:space="preserve">
<style type="text/css">
	.st0{fill:#808285;}
</style>
<g>
	<polygon class="st0" points="44.6,22.8 44.6,16.1 46.8,16.1 46.8,25 26.7,25 26.7,16.1 29,16.1 29,22.8 	"/>
	<path class="st0" d="M31.2,20.5h11.2v-2.2H31.2V20.5L31.2,20.5z M41.2,0l-1.8,1.3l6.7,8.9l1.8-1.3L41.2,0L41.2,0z M35.7,5.3
		l8.6,7.1l1.4-1.7l-8.6-7.1L35.7,5.3L35.7,5.3z M32.9,10.2L43,14.9l0.9-2L33.8,8.2L32.9,10.2L32.9,10.2z M31.4,15.5l10.9,2.3
		l0.5-2.2l-10.9-2.3L31.4,15.5L31.4,15.5z"/>
</g>
<g>
	<path class="st0" d="M74.8,5.5c-0.9,0.4-1.9,0.7-2.9,0.8c1.1-0.6,1.9-1.6,2.3-2.8c-1,0.6-2.1,1-3.3,1.2c-0.9-1-2.3-1.6-3.7-1.6
		c-2.8,0-5.1,2.3-5.1,5.1c0,0.4,0,0.8,0.1,1.2c-4.3-0.2-8-2.3-10.6-5.4c-0.5,0.8-0.8,1.7-0.8,2.6c0,1.8,0.9,3.3,2.3,4.3
		c-0.8,0-1.6-0.3-2.3-0.6c0,0,0,0,0,0.1c0,2.5,1.8,4.6,4.1,5c-0.4,0.1-0.9,0.2-1.4,0.2c-0.3,0-0.7,0-1-0.1c0.7,2,2.5,3.5,4.8,3.6
		c-1.8,1.4-4,2.2-6.4,2.2c-0.4,0-0.8,0-1.2-0.1c2.3,1.5,5,2.3,7.9,2.3c9.4,0,14.6-7.8,14.6-14.6c0-0.2,0-0.4,0-0.7
		C73.2,7.5,74.1,6.6,74.8,5.5L74.8,5.5z"/>
</g>
<g>
	<path class="st0" d="M12.5,0.5C5.6,0.5,0,6,0,12.8c0,5.4,3.6,10,8.5,11.7c0.6,0.1,0.9-0.3,0.9-0.6c0-0.3,0-1.3,0-2.3
		c-3.5,0.7-4.2-1.5-4.2-1.5c-0.6-1.4-1.4-1.8-1.4-1.8c-1.1-0.8,0.1-0.7,0.1-0.7c1.3,0.1,1.9,1.3,1.9,1.3c1.1,1.9,2.9,1.3,3.6,1
		c0.1-0.8,0.4-1.3,0.8-1.6c-2.8-0.3-5.7-1.4-5.7-6.1c0-1.3,0.5-2.4,1.3-3.3C5.7,8.5,5.3,7.3,5.9,5.6c0,0,1.1-0.3,3.4,1.3
		c1-0.3,2.1-0.4,3.1-0.4c1.1,0,2.1,0.1,3.1,0.4c2.4-1.6,3.4-1.3,3.4-1.3c0.7,1.7,0.3,2.9,0.1,3.3c0.8,0.9,1.3,2,1.3,3.3
		c0,4.7-2.9,5.8-5.7,6.1c0.4,0.4,0.8,1.1,0.8,2.3c0,1.6,0,3,0,3.4c0,0.3,0.2,0.7,0.9,0.6c5-1.6,8.5-6.2,8.5-11.7
		C25,6,19.4,0.5,12.5,0.5z"/>
</g>
<path class="st0" d="M89.1,0c6,0,10.9,3,10.9,6.8c0,2.4-2,4.5-4.9,5.7c0.7,1.3,1.7,2.6,2.9,4.3c-2.3-0.8-5.8-1.6-7.8-3.2l-1,0.1
	c-6,0-10.9-3-10.9-6.8C78.1,3,83,0,89.1,0z M91.7,16.1c0,3.2-3.8,5.7-8.3,5.7h-0.7C81,23.4,78.7,25,76,25c0.6-1.2,1.9-2.4,2.7-4.1
	c-2.3-1-3.8-2.8-3.8-4.8s1.5-3.7,3.8-4.8c2,1.9,5.4,3.2,9.3,3.2l1-0.1c0.8,0.6,1.6,1,2.7,1.5C91.7,15.9,91.7,16.1,91.7,16.1z"/>
<g>
	<circle class="st0" cx="104.5" cy="20.4" r="2.6"/>
	<g>
		<path class="st0" d="M116.3,22.9h-3.8c0-5.9-4.8-10.7-10.7-10.7V8.5C109.9,8.5,116.3,15,116.3,22.9z"/>
	</g>
	<g>
		<path class="st0" d="M123.2,23h-3.8c-0.8-9.3-8.3-16.7-17.6-17.3V2C113.2,2.6,122.4,11.6,123.2,23z"/>
	</g>
</g>
</svg>
