<?xml version="1.0" encoding="UTF-8" standalone="no"?>
<svg width="199px" height="98px" viewBox="0 0 199 98" version="1.1" xmlns="http://www.w3.org/2000/svg" xmlns:xlink="http://www.w3.org/1999/xlink">
    <title>valueprops-top-sprite</title>
    <defs></defs>
    <g id="Page-1" stroke="none" stroke-width="1" fill="none" fill-rule="evenodd">
        <g id="valueprops-top-sprite" transform="translate(2.000000, 1.000000)" stroke-width="2">
            <polygon id="Shape" stroke="#444444" points="159.9 9.9 169.7 9.9 169.7 0 150 0 150 46 173 46 173 36.1 159.9 36.1"></polygon>
            <polygon id="Shape" stroke="#444444" points="164.8 14.8 181.1 14.8 181.1 31.1 164.8 31.1"></polygon>
            <path d="M173,0 L173,9.9 L179.6,9.9 L179.6,6.6 L189.4,6.6 L189.4,16.4 L186.1,16.4 L186.1,23 L196,23 L196,0 L173,0 Z M186.1,36.1 L186.1,26.3 L196,26.3 L196,46 L176.3,46 L176.3,36.1 L186.1,36.1 Z M146.1,21 L126,0.9 C124.8,-0.3 123,-0.3 121.8,0.9 L117.7,5 L123,10.3 C124.2,9.9 125.6,10.2 126.6,11.1 C127.6,12.1 127.9,13.5 127.4,14.7 L132.5,19.8 C133.7,19.4 135.2,19.6 136.1,20.6 C137.5,22 137.5,24.2 136.1,25.6 C134.7,27 132.5,27 131.1,25.6 C130.1,24.6 129.8,23 130.3,21.8 L125.5,17 L125.5,29.5 C125.8,29.7 126.2,29.9 126.4,30.2 C127.8,31.6 127.8,33.8 126.4,35.2 C125,36.6 122.8,36.6 121.4,35.2 C120,33.8 120,31.6 121.4,30.2 C121.7,29.9 122.1,29.6 122.6,29.4 L122.6,16.9 C122.2,16.7 121.8,16.5 121.4,16.1 C120.4,15.1 120.1,13.5 120.6,12.2 L115.4,7 L101.6,20.8 C100.4,22 100.4,23.8 101.6,25 L122,45.1 C123.2,46.3 125,46.3 126.2,45.1 L146.2,25.1 C147.3,24 147.3,22.1 146.1,21 Z" id="Shape" stroke="#444444"></path>
            <g id="iconBg_1_" transform="translate(53.000000, 4.000000)" stroke="#444444">
                <path d="M22.1,26.3 L22.1,35.2 C22.1,36.2 22.3,37.8 21.3,37.8 L16.9,37.8 L16.9,35.7 L19,35.7 L19,29 L18.6,28.6 C15.6,31.1 11.2,31.2 8.8,28.8 C6.4,26.4 6.6,23.1 9.3,18.9 L2.2,18.9 L2.2,21 L0.1,21 L0.1,16.6 C0.1,15.6 1.8,15.8 2.7,15.8 L11.3,15.8 L22.1,26.3 Z M15.4,10.9 L15.8,3.3 L13.7,3.3 L13.7,0.2 L17.8,0.2 C18.8,0.2 20,0.7 20,1.6 L20,9.6 L21.5,11.4 C21.9,9.4 23.4,7.8 25.5,7.8 C25.8,7.8 26.2,7.8 26.2,7.9 L26.2,3.3 L28.3,3.3 L28.3,8.8 C28.3,9 28.9,9.6 29.1,9.6 L34.6,9.6 L34.6,11.7 L30,11.7 C30.1,11.7 30.1,12 30.1,12.3 C30.1,14.4 28.6,16 26.5,16.3 L28.3,17.9 L35.3,17.9 C36.3,17.9 37.7,19.1 37.7,20.1 L37.7,24.2 L34.6,24.2 L34.6,22.1 L27,22.6 L15.4,10.9 L15.4,10.9 Z" id="Shape"></path>
            </g>
            <circle id="Oval" stroke="#444444" cx="72" cy="23" r="23"></circle>
            <polyline id="Shape" stroke="#444444" points="55.8 6.8 66.0599516 17.0916181 88.2 39.3"></polyline>
            <path d="M7.9,21.5 L18.1,31.6 L14.1,35.6 L0,21.5 L14.1,7.3 L18.1,11.3 L7.9,21.5 Z M38.1,21.5 L27.9,11.3 L31.9,7.3 L46,21.5 L31.9,35.6 L27.9,31.6 L38.1,21.5 Z" id="Shape" stroke="#444444"></path>
            <g id="Group" transform="translate(150.000000, 50.000000)" stroke="#000000">
                <polygon id="Shape" points="9.9 9.9 19.7 9.9 19.7 0 0 0 0 46 23 46 23 36.1 9.9 36.1"></polygon>
                <polygon id="Shape" points="14.8 14.8 31.1 14.8 31.1 31.1 14.8 31.1"></polygon>
                <path d="M23,0 L23,9.9 L29.6,9.9 L29.6,6.6 L39.4,6.6 L39.4,16.4 L36.1,16.4 L36.1,23 L46,23 L46,0 L23,0 Z M36.1,36.1 L36.1,26.3 L46,26.3 L46,46 L26.3,46 L26.3,36.1 L36.1,36.1 Z" id="Shape"></path>
            </g>
            <path d="M146.1,71 L126,50.9 C124.8,49.7 123,49.7 121.8,50.9 L117.6,55.1 L122.9,60.4 C124.1,60 125.5,60.3 126.5,61.2 C127.5,62.2 127.8,63.6 127.3,64.8 L132.4,69.9 C133.6,69.5 135.1,69.7 136,70.7 C137.4,72.1 137.4,74.3 136,75.7 C134.6,77.1 132.4,77.1 131,75.7 C130,74.7 129.7,73.1 130.2,71.9 L125.4,67.1 L125.4,79.6 C125.7,79.8 126.1,80 126.3,80.3 C127.7,81.7 127.7,83.9 126.3,85.3 C124.9,86.7 122.7,86.7 121.3,85.3 C119.9,83.9 119.9,81.7 121.3,80.3 C121.6,80 122,79.7 122.5,79.5 L122.5,66.9 C122.1,66.7 121.7,66.5 121.3,66.1 C120.3,65.1 120,63.5 120.5,62.2 L115.3,57 L101.5,70.8 C100.3,72 100.3,73.8 101.5,75 L122,95.1 C123.2,96.3 125,96.3 126.2,95.1 L146.2,75.1 C147.3,74 147.3,72.1 146.1,71 Z" id="Shape" stroke="#F42534"></path>
            <g id="Group" transform="translate(49.000000, 50.000000)" stroke="#37B34A">
                <g id="iconBg_2_" transform="translate(4.000000, 4.000000)">
                    <path d="M22.1,26.3 L22.1,35.2 C22.1,36.2 22.3,37.8 21.3,37.8 L16.9,37.8 L16.9,35.7 L19,35.7 L19,29 L18.6,28.6 C15.6,31.1 11.2,31.2 8.8,28.8 C6.4,26.4 6.6,23.1 9.3,18.9 L2.2,18.9 L2.2,21 L0.1,21 L0.1,16.6 C0.1,15.6 1.8,15.8 2.7,15.8 L11.3,15.8 L22.1,26.3 Z M15.4,10.9 L15.8,3.3 L13.7,3.3 L13.7,0.2 L17.8,0.2 C18.8,0.2 20,0.7 20,1.6 L20,9.6 L21.5,11.4 C21.9,9.4 23.4,7.8 25.5,7.8 C25.8,7.8 26.2,7.8 26.2,7.9 L26.2,3.2 L28.3,3.2 L28.3,8.7 C28.3,8.9 28.9,9.5 29.1,9.5 L34.6,9.5 L34.6,11.6 L30,11.6 C30.1,11.6 30.1,11.9 30.1,12.2 C30.1,14.3 28.6,15.9 26.5,16.2 L28.3,17.8 L35.3,17.8 C36.3,17.8 37.7,19 37.7,20 L37.7,24.1 L34.6,24.1 L34.6,22 L27,22.6 L15.4,10.9 L15.4,10.9 Z" id="Shape"></path>
                </g>
                <circle id="Oval" cx="23" cy="23" r="23"></circle>
                <path d="M6.8,6.8 L39.2,39.3" id="Shape"></path>
            </g>
            <path d="M7.9,71.5 L18.1,81.6 L14.1,85.6 L0,71.5 L14.1,57.3 L18.1,61.3 L7.9,71.5 Z M38.1,71.5 L27.9,61.3 L31.9,57.3 L46,71.5 L31.9,85.6 L27.9,81.6 L38.1,71.5 Z" id="Shape" stroke="#2E3192"></path>
        </g>
    </g>
</svg>