<?xml version="1.0" encoding="utf-8"?>
<svg xmlns="http://www.w3.org/2000/svg" xmlns:xlink="http://www.w3.org/1999/xlink" width="576" height="384" viewBox="0 0 2304 1536">
<defs>
  <clipPath id="clip8300">
    <rect x="0" y="0" width="2000" height="2000"/>
  </clipPath>
</defs>
<defs>
  <clipPath id="clip8301">
    <rect x="0" y="0" width="2304" height="1536"/>
  </clipPath>
</defs>
<polygon clip-path="url(#clip8301)" points="
0,1536 2304,1536 2304,0 0,0 
  " fill="#ffffff" fill-rule="evenodd" fill-opacity="1"/>
<defs>
  <clipPath id="clip8302">
    <rect x="460" y="0" width="1614" height="1536"/>
  </clipPath>
</defs>
<polygon clip-path="url(#clip8301)" points="
149.361,1447.86 2225.26,1447.86 2225.26,125.984 149.361,125.984 
  " fill="#ffffff" fill-rule="evenodd" fill-opacity="1"/>
<defs>
  <clipPath id="clip8303">
    <rect x="149" y="125" width="2077" height="1323"/>
  </clipPath>
</defs>
<polyline clip-path="url(#clip8303)" style="stroke:#000000; stroke-width:2; stroke-opacity:0.1; fill:none" points="
  489.688,1447.86 489.688,125.984 
  "/>
<polyline clip-path="url(#clip8303)" style="stroke:#000000; stroke-width:2; stroke-opacity:0.1; fill:none" points="
  1037.59,1447.86 1037.59,125.984 
  "/>
<polyline clip-path="url(#clip8303)" style="stroke:#000000; stroke-width:2; stroke-opacity:0.1; fill:none" points="
  1585.5,1447.86 1585.5,125.984 
  "/>
<polyline clip-path="url(#clip8303)" style="stroke:#000000; stroke-width:2; stroke-opacity:0.1; fill:none" points="
  2133.4,1447.86 2133.4,125.984 
  "/>
<polyline clip-path="url(#clip8303)" style="stroke:#000000; stroke-width:2; stroke-opacity:0.1; fill:none" points="
  149.361,1407.27 2225.26,1407.27 
  "/>
<polyline clip-path="url(#clip8303)" style="stroke:#000000; stroke-width:2; stroke-opacity:0.1; fill:none" points="
  149.361,1085.08 2225.26,1085.08 
  "/>
<polyline clip-path="url(#clip8303)" style="stroke:#000000; stroke-width:2; stroke-opacity:0.1; fill:none" points="
  149.361,762.901 2225.26,762.901 
  "/>
<polyline clip-path="url(#clip8303)" style="stroke:#000000; stroke-width:2; stroke-opacity:0.1; fill:none" points="
  149.361,440.718 2225.26,440.718 
  "/>
<polyline clip-path="url(#clip8301)" style="stroke:#000000; stroke-width:4; stroke-opacity:1; fill:none" points="
  149.361,1447.86 2225.26,1447.86 
  "/>
<polyline clip-path="url(#clip8301)" style="stroke:#000000; stroke-width:4; stroke-opacity:1; fill:none" points="
  149.361,1447.86 149.361,125.984 
  "/>
<polyline clip-path="url(#clip8301)" style="stroke:#000000; stroke-width:4; stroke-opacity:1; fill:none" points="
  489.688,1447.86 489.688,1428.03 
  "/>
<polyline clip-path="url(#clip8301)" style="stroke:#000000; stroke-width:4; stroke-opacity:1; fill:none" points="
  1037.59,1447.86 1037.59,1428.03 
  "/>
<polyline clip-path="url(#clip8301)" style="stroke:#000000; stroke-width:4; stroke-opacity:1; fill:none" points="
  1585.5,1447.86 1585.5,1428.03 
  "/>
<polyline clip-path="url(#clip8301)" style="stroke:#000000; stroke-width:4; stroke-opacity:1; fill:none" points="
  2133.4,1447.86 2133.4,1428.03 
  "/>
<polyline clip-path="url(#clip8301)" style="stroke:#000000; stroke-width:4; stroke-opacity:1; fill:none" points="
  149.361,1407.27 180.499,1407.27 
  "/>
<polyline clip-path="url(#clip8301)" style="stroke:#000000; stroke-width:4; stroke-opacity:1; fill:none" points="
  149.361,1085.08 180.499,1085.08 
  "/>
<polyline clip-path="url(#clip8301)" style="stroke:#000000; stroke-width:4; stroke-opacity:1; fill:none" points="
  149.361,762.901 180.499,762.901 
  "/>
<polyline clip-path="url(#clip8301)" style="stroke:#000000; stroke-width:4; stroke-opacity:1; fill:none" points="
  149.361,440.718 180.499,440.718 
  "/>
<g clip-path="url(#clip8301)">
<text style="fill:#000000; fill-opacity:1; font-family:Arial,Helvetica Neue,Helvetica,sans-serif; font-size:48px; text-anchor:middle;" transform="rotate(0, 489.688, 1501.38)" x="489.688" y="1501.38">-4</text>
</g>
<g clip-path="url(#clip8301)">
<text style="fill:#000000; fill-opacity:1; font-family:Arial,Helvetica Neue,Helvetica,sans-serif; font-size:48px; text-anchor:middle;" transform="rotate(0, 1037.59, 1501.38)" x="1037.59" y="1501.38">-2</text>
</g>
<g clip-path="url(#clip8301)">
<text style="fill:#000000; fill-opacity:1; font-family:Arial,Helvetica Neue,Helvetica,sans-serif; font-size:48px; text-anchor:middle;" transform="rotate(0, 1585.5, 1501.38)" x="1585.5" y="1501.38">0</text>
</g>
<g clip-path="url(#clip8301)">
<text style="fill:#000000; fill-opacity:1; font-family:Arial,Helvetica Neue,Helvetica,sans-serif; font-size:48px; text-anchor:middle;" transform="rotate(0, 2133.4, 1501.38)" x="2133.4" y="1501.38">2</text>
</g>
<g clip-path="url(#clip8301)">
<text style="fill:#000000; fill-opacity:1; font-family:Arial,Helvetica Neue,Helvetica,sans-serif; font-size:48px; text-anchor:end;" transform="rotate(0, 126.321, 1424.77)" x="126.321" y="1424.77">-6</text>
</g>
<g clip-path="url(#clip8301)">
<text style="fill:#000000; fill-opacity:1; font-family:Arial,Helvetica Neue,Helvetica,sans-serif; font-size:48px; text-anchor:end;" transform="rotate(0, 126.321, 1102.58)" x="126.321" y="1102.58">-4</text>
</g>
<g clip-path="url(#clip8301)">
<text style="fill:#000000; fill-opacity:1; font-family:Arial,Helvetica Neue,Helvetica,sans-serif; font-size:48px; text-anchor:end;" transform="rotate(0, 126.321, 780.401)" x="126.321" y="780.401">-2</text>
</g>
<g clip-path="url(#clip8301)">
<text style="fill:#000000; fill-opacity:1; font-family:Arial,Helvetica Neue,Helvetica,sans-serif; font-size:48px; text-anchor:end;" transform="rotate(0, 126.321, 458.218)" x="126.321" y="458.218">0</text>
</g>
<g clip-path="url(#clip8301)">
<text style="fill:#000000; fill-opacity:1; font-family:Arial,Helvetica Neue,Helvetica,sans-serif; font-size:84px; text-anchor:middle;" transform="rotate(0, 1187.31, 73.2)" x="1187.31" y="73.2">Synthetic Dataset</text>
</g>
<circle clip-path="url(#clip8303)" style="fill:#000000; stroke:none; fill-opacity:1" cx="953.093" cy="1410.45" r="18"/>
<circle clip-path="url(#clip8303)" style="fill:#009af9; stroke:none; fill-opacity:1" cx="953.093" cy="1410.45" r="14"/>
<circle clip-path="url(#clip8303)" style="fill:#000000; stroke:none; fill-opacity:1" cx="1195.06" cy="1161.32" r="18"/>
<circle clip-path="url(#clip8303)" style="fill:#009af9; stroke:none; fill-opacity:1" cx="1195.06" cy="1161.32" r="14"/>
<circle clip-path="url(#clip8303)" style="fill:#000000; stroke:none; fill-opacity:1" cx="598.829" cy="1253.02" r="18"/>
<circle clip-path="url(#clip8303)" style="fill:#009af9; stroke:none; fill-opacity:1" cx="598.829" cy="1253.02" r="14"/>
<circle clip-path="url(#clip8303)" style="fill:#000000; stroke:none; fill-opacity:1" cx="654.276" cy="1004.86" r="18"/>
<circle clip-path="url(#clip8303)" style="fill:#009af9; stroke:none; fill-opacity:1" cx="654.276" cy="1004.86" r="14"/>
<circle clip-path="url(#clip8303)" style="fill:#000000; stroke:none; fill-opacity:1" cx="903.024" cy="868.541" r="18"/>
<circle clip-path="url(#clip8303)" style="fill:#009af9; stroke:none; fill-opacity:1" cx="903.024" cy="868.541" r="14"/>
<circle clip-path="url(#clip8303)" style="fill:#000000; stroke:none; fill-opacity:1" cx="943.921" cy="1081.08" r="18"/>
<circle clip-path="url(#clip8303)" style="fill:#009af9; stroke:none; fill-opacity:1" cx="943.921" cy="1081.08" r="14"/>
<circle clip-path="url(#clip8303)" style="fill:#000000; stroke:none; fill-opacity:1" cx="559.652" cy="992.96" r="18"/>
<circle clip-path="url(#clip8303)" style="fill:#009af9; stroke:none; fill-opacity:1" cx="559.652" cy="992.96" r="14"/>
<circle clip-path="url(#clip8303)" style="fill:#000000; stroke:none; fill-opacity:1" cx="486.178" cy="1259.1" r="18"/>
<circle clip-path="url(#clip8303)" style="fill:#009af9; stroke:none; fill-opacity:1" cx="486.178" cy="1259.1" r="14"/>
<circle clip-path="url(#clip8303)" style="fill:#000000; stroke:none; fill-opacity:1" cx="766.834" cy="1118.47" r="18"/>
<circle clip-path="url(#clip8303)" style="fill:#009af9; stroke:none; fill-opacity:1" cx="766.834" cy="1118.47" r="14"/>
<circle clip-path="url(#clip8303)" style="fill:#000000; stroke:none; fill-opacity:1" cx="307.209" cy="1074.19" r="18"/>
<circle clip-path="url(#clip8303)" style="fill:#009af9; stroke:none; fill-opacity:1" cx="307.209" cy="1074.19" r="14"/>
<circle clip-path="url(#clip8303)" style="fill:#000000; stroke:none; fill-opacity:1" cx="432.444" cy="1038.11" r="18"/>
<circle clip-path="url(#clip8303)" style="fill:#009af9; stroke:none; fill-opacity:1" cx="432.444" cy="1038.11" r="14"/>
<circle clip-path="url(#clip8303)" style="fill:#000000; stroke:none; fill-opacity:1" cx="422.287" cy="947.468" r="18"/>
<circle clip-path="url(#clip8303)" style="fill:#009af9; stroke:none; fill-opacity:1" cx="422.287" cy="947.468" r="14"/>
<circle clip-path="url(#clip8303)" style="fill:#000000; stroke:none; fill-opacity:1" cx="538.898" cy="783.196" r="18"/>
<circle clip-path="url(#clip8303)" style="fill:#009af9; stroke:none; fill-opacity:1" cx="538.898" cy="783.196" r="14"/>
<circle clip-path="url(#clip8303)" style="fill:#000000; stroke:none; fill-opacity:1" cx="720.493" cy="1100.48" r="18"/>
<circle clip-path="url(#clip8303)" style="fill:#009af9; stroke:none; fill-opacity:1" cx="720.493" cy="1100.48" r="14"/>
<circle clip-path="url(#clip8303)" style="fill:#000000; stroke:none; fill-opacity:1" cx="794.58" cy="904.332" r="18"/>
<circle clip-path="url(#clip8303)" style="fill:#009af9; stroke:none; fill-opacity:1" cx="794.58" cy="904.332" r="14"/>
<circle clip-path="url(#clip8303)" style="fill:#000000; stroke:none; fill-opacity:1" cx="426.975" cy="902.494" r="18"/>
<circle clip-path="url(#clip8303)" style="fill:#009af9; stroke:none; fill-opacity:1" cx="426.975" cy="902.494" r="14"/>
<circle clip-path="url(#clip8303)" style="fill:#000000; stroke:none; fill-opacity:1" cx="814.987" cy="1026.3" r="18"/>
<circle clip-path="url(#clip8303)" style="fill:#009af9; stroke:none; fill-opacity:1" cx="814.987" cy="1026.3" r="14"/>
<circle clip-path="url(#clip8303)" style="fill:#000000; stroke:none; fill-opacity:1" cx="761.674" cy="979.294" r="18"/>
<circle clip-path="url(#clip8303)" style="fill:#009af9; stroke:none; fill-opacity:1" cx="761.674" cy="979.294" r="14"/>
<circle clip-path="url(#clip8303)" style="fill:#000000; stroke:none; fill-opacity:1" cx="966.249" cy="1199.53" r="18"/>
<circle clip-path="url(#clip8303)" style="fill:#009af9; stroke:none; fill-opacity:1" cx="966.249" cy="1199.53" r="14"/>
<circle clip-path="url(#clip8303)" style="fill:#000000; stroke:none; fill-opacity:1" cx="540.598" cy="886.319" r="18"/>
<circle clip-path="url(#clip8303)" style="fill:#009af9; stroke:none; fill-opacity:1" cx="540.598" cy="886.319" r="14"/>
<circle clip-path="url(#clip8303)" style="fill:#000000; stroke:none; fill-opacity:1" cx="208.112" cy="799.832" r="18"/>
<circle clip-path="url(#clip8303)" style="fill:#009af9; stroke:none; fill-opacity:1" cx="208.112" cy="799.832" r="14"/>
<circle clip-path="url(#clip8303)" style="fill:#000000; stroke:none; fill-opacity:1" cx="704.061" cy="1103.45" r="18"/>
<circle clip-path="url(#clip8303)" style="fill:#009af9; stroke:none; fill-opacity:1" cx="704.061" cy="1103.45" r="14"/>
<circle clip-path="url(#clip8303)" style="fill:#000000; stroke:none; fill-opacity:1" cx="1047.45" cy="1182.13" r="18"/>
<circle clip-path="url(#clip8303)" style="fill:#009af9; stroke:none; fill-opacity:1" cx="1047.45" cy="1182.13" r="14"/>
<circle clip-path="url(#clip8303)" style="fill:#000000; stroke:none; fill-opacity:1" cx="428.992" cy="1082.54" r="18"/>
<circle clip-path="url(#clip8303)" style="fill:#009af9; stroke:none; fill-opacity:1" cx="428.992" cy="1082.54" r="14"/>
<circle clip-path="url(#clip8303)" style="fill:#000000; stroke:none; fill-opacity:1" cx="922.233" cy="970.886" r="18"/>
<circle clip-path="url(#clip8303)" style="fill:#009af9; stroke:none; fill-opacity:1" cx="922.233" cy="970.886" r="14"/>
<circle clip-path="url(#clip8303)" style="fill:#000000; stroke:none; fill-opacity:1" cx="438.755" cy="1046.48" r="18"/>
<circle clip-path="url(#clip8303)" style="fill:#009af9; stroke:none; fill-opacity:1" cx="438.755" cy="1046.48" r="14"/>
<circle clip-path="url(#clip8303)" style="fill:#000000; stroke:none; fill-opacity:1" cx="511.101" cy="1146.01" r="18"/>
<circle clip-path="url(#clip8303)" style="fill:#009af9; stroke:none; fill-opacity:1" cx="511.101" cy="1146.01" r="14"/>
<circle clip-path="url(#clip8303)" style="fill:#000000; stroke:none; fill-opacity:1" cx="827.928" cy="768.083" r="18"/>
<circle clip-path="url(#clip8303)" style="fill:#009af9; stroke:none; fill-opacity:1" cx="827.928" cy="768.083" r="14"/>
<circle clip-path="url(#clip8303)" style="fill:#000000; stroke:none; fill-opacity:1" cx="538.614" cy="1082.3" r="18"/>
<circle clip-path="url(#clip8303)" style="fill:#009af9; stroke:none; fill-opacity:1" cx="538.614" cy="1082.3" r="14"/>
<circle clip-path="url(#clip8303)" style="fill:#000000; stroke:none; fill-opacity:1" cx="478.637" cy="881.438" r="18"/>
<circle clip-path="url(#clip8303)" style="fill:#009af9; stroke:none; fill-opacity:1" cx="478.637" cy="881.438" r="14"/>
<circle clip-path="url(#clip8303)" style="fill:#000000; stroke:none; fill-opacity:1" cx="1684.37" cy="608.177" r="18"/>
<circle clip-path="url(#clip8303)" style="fill:#009af9; stroke:none; fill-opacity:1" cx="1684.37" cy="608.177" r="14"/>
<circle clip-path="url(#clip8303)" style="fill:#000000; stroke:none; fill-opacity:1" cx="1475.56" cy="244.004" r="18"/>
<circle clip-path="url(#clip8303)" style="fill:#009af9; stroke:none; fill-opacity:1" cx="1475.56" cy="244.004" r="14"/>
<circle clip-path="url(#clip8303)" style="fill:#000000; stroke:none; fill-opacity:1" cx="1371.53" cy="352.407" r="18"/>
<circle clip-path="url(#clip8303)" style="fill:#009af9; stroke:none; fill-opacity:1" cx="1371.53" cy="352.407" r="14"/>
<circle clip-path="url(#clip8303)" style="fill:#000000; stroke:none; fill-opacity:1" cx="1979.15" cy="388.408" r="18"/>
<circle clip-path="url(#clip8303)" style="fill:#009af9; stroke:none; fill-opacity:1" cx="1979.15" cy="388.408" r="14"/>
<circle clip-path="url(#clip8303)" style="fill:#000000; stroke:none; fill-opacity:1" cx="1308.37" cy="272.052" r="18"/>
<circle clip-path="url(#clip8303)" style="fill:#009af9; stroke:none; fill-opacity:1" cx="1308.37" cy="272.052" r="14"/>
<circle clip-path="url(#clip8303)" style="fill:#000000; stroke:none; fill-opacity:1" cx="1352.81" cy="349.17" r="18"/>
<circle clip-path="url(#clip8303)" style="fill:#009af9; stroke:none; fill-opacity:1" cx="1352.81" cy="349.17" r="14"/>
<circle clip-path="url(#clip8303)" style="fill:#000000; stroke:none; fill-opacity:1" cx="1270.52" cy="377.7" r="18"/>
<circle clip-path="url(#clip8303)" style="fill:#009af9; stroke:none; fill-opacity:1" cx="1270.52" cy="377.7" r="14"/>
<circle clip-path="url(#clip8303)" style="fill:#000000; stroke:none; fill-opacity:1" cx="1313.23" cy="444.31" r="18"/>
<circle clip-path="url(#clip8303)" style="fill:#009af9; stroke:none; fill-opacity:1" cx="1313.23" cy="444.31" r="14"/>
<circle clip-path="url(#clip8303)" style="fill:#000000; stroke:none; fill-opacity:1" cx="1254.66" cy="457.916" r="18"/>
<circle clip-path="url(#clip8303)" style="fill:#009af9; stroke:none; fill-opacity:1" cx="1254.66" cy="457.916" r="14"/>
<circle clip-path="url(#clip8303)" style="fill:#000000; stroke:none; fill-opacity:1" cx="1511.94" cy="480.096" r="18"/>
<circle clip-path="url(#clip8303)" style="fill:#009af9; stroke:none; fill-opacity:1" cx="1511.94" cy="480.096" r="14"/>
<circle clip-path="url(#clip8303)" style="fill:#000000; stroke:none; fill-opacity:1" cx="1894.34" cy="230.515" r="18"/>
<circle clip-path="url(#clip8303)" style="fill:#009af9; stroke:none; fill-opacity:1" cx="1894.34" cy="230.515" r="14"/>
<circle clip-path="url(#clip8303)" style="fill:#000000; stroke:none; fill-opacity:1" cx="2045.38" cy="542.032" r="18"/>
<circle clip-path="url(#clip8303)" style="fill:#009af9; stroke:none; fill-opacity:1" cx="2045.38" cy="542.032" r="14"/>
<circle clip-path="url(#clip8303)" style="fill:#000000; stroke:none; fill-opacity:1" cx="1530.98" cy="434.998" r="18"/>
<circle clip-path="url(#clip8303)" style="fill:#009af9; stroke:none; fill-opacity:1" cx="1530.98" cy="434.998" r="14"/>
<circle clip-path="url(#clip8303)" style="fill:#000000; stroke:none; fill-opacity:1" cx="1514.47" cy="250.611" r="18"/>
<circle clip-path="url(#clip8303)" style="fill:#009af9; stroke:none; fill-opacity:1" cx="1514.47" cy="250.611" r="14"/>
<circle clip-path="url(#clip8303)" style="fill:#000000; stroke:none; fill-opacity:1" cx="2166.51" cy="316.727" r="18"/>
<circle clip-path="url(#clip8303)" style="fill:#009af9; stroke:none; fill-opacity:1" cx="2166.51" cy="316.727" r="14"/>
<circle clip-path="url(#clip8303)" style="fill:#000000; stroke:none; fill-opacity:1" cx="1759.47" cy="168.293" r="18"/>
<circle clip-path="url(#clip8303)" style="fill:#009af9; stroke:none; fill-opacity:1" cx="1759.47" cy="168.293" r="14"/>
<circle clip-path="url(#clip8303)" style="fill:#000000; stroke:none; fill-opacity:1" cx="1662.04" cy="660.495" r="18"/>
<circle clip-path="url(#clip8303)" style="fill:#009af9; stroke:none; fill-opacity:1" cx="1662.04" cy="660.495" r="14"/>
<circle clip-path="url(#clip8303)" style="fill:#000000; stroke:none; fill-opacity:1" cx="1886.56" cy="336.388" r="18"/>
<circle clip-path="url(#clip8303)" style="fill:#009af9; stroke:none; fill-opacity:1" cx="1886.56" cy="336.388" r="14"/>
<circle clip-path="url(#clip8303)" style="fill:#000000; stroke:none; fill-opacity:1" cx="1590.79" cy="276.886" r="18"/>
<circle clip-path="url(#clip8303)" style="fill:#009af9; stroke:none; fill-opacity:1" cx="1590.79" cy="276.886" r="14"/>
<circle clip-path="url(#clip8303)" style="fill:#000000; stroke:none; fill-opacity:1" cx="2051.48" cy="395.365" r="18"/>
<circle clip-path="url(#clip8303)" style="fill:#009af9; stroke:none; fill-opacity:1" cx="2051.48" cy="395.365" r="14"/>
<circle clip-path="url(#clip8303)" style="fill:#000000; stroke:none; fill-opacity:1" cx="1278.93" cy="231.7" r="18"/>
<circle clip-path="url(#clip8303)" style="fill:#009af9; stroke:none; fill-opacity:1" cx="1278.93" cy="231.7" r="14"/>
<circle clip-path="url(#clip8303)" style="fill:#000000; stroke:none; fill-opacity:1" cx="1715.26" cy="163.396" r="18"/>
<circle clip-path="url(#clip8303)" style="fill:#009af9; stroke:none; fill-opacity:1" cx="1715.26" cy="163.396" r="14"/>
<circle clip-path="url(#clip8303)" style="fill:#000000; stroke:none; fill-opacity:1" cx="2082.56" cy="541.924" r="18"/>
<circle clip-path="url(#clip8303)" style="fill:#009af9; stroke:none; fill-opacity:1" cx="2082.56" cy="541.924" r="14"/>
<circle clip-path="url(#clip8303)" style="fill:#000000; stroke:none; fill-opacity:1" cx="1600.31" cy="559.779" r="18"/>
<circle clip-path="url(#clip8303)" style="fill:#009af9; stroke:none; fill-opacity:1" cx="1600.31" cy="559.779" r="14"/>
<circle clip-path="url(#clip8303)" style="fill:#000000; stroke:none; fill-opacity:1" cx="1459.63" cy="663.371" r="18"/>
<circle clip-path="url(#clip8303)" style="fill:#009af9; stroke:none; fill-opacity:1" cx="1459.63" cy="663.371" r="14"/>
<circle clip-path="url(#clip8303)" style="fill:#000000; stroke:none; fill-opacity:1" cx="1524.77" cy="216.389" r="18"/>
<circle clip-path="url(#clip8303)" style="fill:#009af9; stroke:none; fill-opacity:1" cx="1524.77" cy="216.389" r="14"/>
<circle clip-path="url(#clip8303)" style="fill:#000000; stroke:none; fill-opacity:1" cx="1801.78" cy="443.208" r="18"/>
<circle clip-path="url(#clip8303)" style="fill:#009af9; stroke:none; fill-opacity:1" cx="1801.78" cy="443.208" r="14"/>
<circle clip-path="url(#clip8303)" style="fill:#000000; stroke:none; fill-opacity:1" cx="1666.93" cy="376.34" r="18"/>
<circle clip-path="url(#clip8303)" style="fill:#009af9; stroke:none; fill-opacity:1" cx="1666.93" cy="376.34" r="14"/>
<circle clip-path="url(#clip8303)" style="fill:#000000; stroke:none; fill-opacity:1" cx="1360.33" cy="524.546" r="18"/>
<circle clip-path="url(#clip8303)" style="fill:#009af9; stroke:none; fill-opacity:1" cx="1360.33" cy="524.546" r="14"/>
<circle clip-path="url(#clip8303)" style="fill:#000000; stroke:none; fill-opacity:1" cx="1360.52" cy="522.66" r="18"/>
<circle clip-path="url(#clip8303)" style="fill:#009af9; stroke:none; fill-opacity:1" cx="1360.52" cy="522.66" r="14"/>
</svg>
