<?xml version="1.0" encoding="utf-8"?>
<svg xmlns="http://www.w3.org/2000/svg" xmlns:xlink="http://www.w3.org/1999/xlink" width="576" height="384" viewBox="0 0 2304 1536">
<defs>
  <clipPath id="clip5300">
    <rect x="0" y="0" width="2000" height="2000"/>
  </clipPath>
</defs>
<defs>
  <clipPath id="clip5301">
    <rect x="0" y="0" width="2304" height="1536"/>
  </clipPath>
</defs>
<polygon clip-path="url(#clip5301)" points="
0,1536 2304,1536 2304,0 0,0 
  " fill="#ffffff" fill-rule="evenodd" fill-opacity="1"/>
<defs>
  <clipPath id="clip5302">
    <rect x="460" y="0" width="1614" height="1536"/>
  </clipPath>
</defs>
<polygon clip-path="url(#clip5301)" points="
224.386,1384.87 2225.26,1384.87 2225.26,47.2441 224.386,47.2441 
  " fill="#ffffff" fill-rule="evenodd" fill-opacity="1"/>
<defs>
  <clipPath id="clip5303">
    <rect x="224" y="47" width="2002" height="1339"/>
  </clipPath>
</defs>
<polyline clip-path="url(#clip5303)" style="stroke:#000000; stroke-width:2; stroke-opacity:0.1; fill:none" points="
  279.125,1384.87 279.125,47.2441 
  "/>
<polyline clip-path="url(#clip5303)" style="stroke:#000000; stroke-width:2; stroke-opacity:0.1; fill:none" points="
  751.502,1384.87 751.502,47.2441 
  "/>
<polyline clip-path="url(#clip5303)" style="stroke:#000000; stroke-width:2; stroke-opacity:0.1; fill:none" points="
  1223.88,1384.87 1223.88,47.2441 
  "/>
<polyline clip-path="url(#clip5303)" style="stroke:#000000; stroke-width:2; stroke-opacity:0.1; fill:none" points="
  1696.25,1384.87 1696.25,47.2441 
  "/>
<polyline clip-path="url(#clip5303)" style="stroke:#000000; stroke-width:2; stroke-opacity:0.1; fill:none" points="
  2168.63,1384.87 2168.63,47.2441 
  "/>
<polyline clip-path="url(#clip5303)" style="stroke:#000000; stroke-width:2; stroke-opacity:0.1; fill:none" points="
  224.386,1384.87 2225.26,1384.87 
  "/>
<polyline clip-path="url(#clip5303)" style="stroke:#000000; stroke-width:2; stroke-opacity:0.1; fill:none" points="
  224.386,1117.34 2225.26,1117.34 
  "/>
<polyline clip-path="url(#clip5303)" style="stroke:#000000; stroke-width:2; stroke-opacity:0.1; fill:none" points="
  224.386,849.817 2225.26,849.817 
  "/>
<polyline clip-path="url(#clip5303)" style="stroke:#000000; stroke-width:2; stroke-opacity:0.1; fill:none" points="
  224.386,582.293 2225.26,582.293 
  "/>
<polyline clip-path="url(#clip5303)" style="stroke:#000000; stroke-width:2; stroke-opacity:0.1; fill:none" points="
  224.386,314.768 2225.26,314.768 
  "/>
<polyline clip-path="url(#clip5303)" style="stroke:#000000; stroke-width:2; stroke-opacity:0.1; fill:none" points="
  224.386,47.2441 2225.26,47.2441 
  "/>
<polyline clip-path="url(#clip5301)" style="stroke:#000000; stroke-width:4; stroke-opacity:1; fill:none" points="
  224.386,1384.87 2225.26,1384.87 
  "/>
<polyline clip-path="url(#clip5301)" style="stroke:#000000; stroke-width:4; stroke-opacity:1; fill:none" points="
  224.386,1384.87 224.386,47.2441 
  "/>
<polyline clip-path="url(#clip5301)" style="stroke:#000000; stroke-width:4; stroke-opacity:1; fill:none" points="
  279.125,1384.87 279.125,1364.8 
  "/>
<polyline clip-path="url(#clip5301)" style="stroke:#000000; stroke-width:4; stroke-opacity:1; fill:none" points="
  751.502,1384.87 751.502,1364.8 
  "/>
<polyline clip-path="url(#clip5301)" style="stroke:#000000; stroke-width:4; stroke-opacity:1; fill:none" points="
  1223.88,1384.87 1223.88,1364.8 
  "/>
<polyline clip-path="url(#clip5301)" style="stroke:#000000; stroke-width:4; stroke-opacity:1; fill:none" points="
  1696.25,1384.87 1696.25,1364.8 
  "/>
<polyline clip-path="url(#clip5301)" style="stroke:#000000; stroke-width:4; stroke-opacity:1; fill:none" points="
  2168.63,1384.87 2168.63,1364.8 
  "/>
<polyline clip-path="url(#clip5301)" style="stroke:#000000; stroke-width:4; stroke-opacity:1; fill:none" points="
  224.386,1384.87 254.399,1384.87 
  "/>
<polyline clip-path="url(#clip5301)" style="stroke:#000000; stroke-width:4; stroke-opacity:1; fill:none" points="
  224.386,1117.34 254.399,1117.34 
  "/>
<polyline clip-path="url(#clip5301)" style="stroke:#000000; stroke-width:4; stroke-opacity:1; fill:none" points="
  224.386,849.817 254.399,849.817 
  "/>
<polyline clip-path="url(#clip5301)" style="stroke:#000000; stroke-width:4; stroke-opacity:1; fill:none" points="
  224.386,582.293 254.399,582.293 
  "/>
<polyline clip-path="url(#clip5301)" style="stroke:#000000; stroke-width:4; stroke-opacity:1; fill:none" points="
  224.386,314.768 254.399,314.768 
  "/>
<polyline clip-path="url(#clip5301)" style="stroke:#000000; stroke-width:4; stroke-opacity:1; fill:none" points="
  224.386,47.2441 254.399,47.2441 
  "/>
<g clip-path="url(#clip5301)">
<text style="fill:#000000; fill-opacity:1; font-family:Arial,Helvetica Neue,Helvetica,sans-serif; font-size:48px; text-anchor:middle;" transform="rotate(0, 279.125, 1438.39)" x="279.125" y="1438.39">0</text>
</g>
<g clip-path="url(#clip5301)">
<text style="fill:#000000; fill-opacity:1; font-family:Arial,Helvetica Neue,Helvetica,sans-serif; font-size:48px; text-anchor:middle;" transform="rotate(0, 751.502, 1438.39)" x="751.502" y="1438.39">250</text>
</g>
<g clip-path="url(#clip5301)">
<text style="fill:#000000; fill-opacity:1; font-family:Arial,Helvetica Neue,Helvetica,sans-serif; font-size:48px; text-anchor:middle;" transform="rotate(0, 1223.88, 1438.39)" x="1223.88" y="1438.39">500</text>
</g>
<g clip-path="url(#clip5301)">
<text style="fill:#000000; fill-opacity:1; font-family:Arial,Helvetica Neue,Helvetica,sans-serif; font-size:48px; text-anchor:middle;" transform="rotate(0, 1696.25, 1438.39)" x="1696.25" y="1438.39">750</text>
</g>
<g clip-path="url(#clip5301)">
<text style="fill:#000000; fill-opacity:1; font-family:Arial,Helvetica Neue,Helvetica,sans-serif; font-size:48px; text-anchor:middle;" transform="rotate(0, 2168.63, 1438.39)" x="2168.63" y="1438.39">1000</text>
</g>
<g clip-path="url(#clip5301)">
<text style="fill:#000000; fill-opacity:1; font-family:Arial,Helvetica Neue,Helvetica,sans-serif; font-size:48px; text-anchor:end;" transform="rotate(0, 201.346, 1402.37)" x="201.346" y="1402.37">0.0</text>
</g>
<g clip-path="url(#clip5301)">
<text style="fill:#000000; fill-opacity:1; font-family:Arial,Helvetica Neue,Helvetica,sans-serif; font-size:48px; text-anchor:end;" transform="rotate(0, 201.346, 1134.84)" x="201.346" y="1134.84">0.2</text>
</g>
<g clip-path="url(#clip5301)">
<text style="fill:#000000; fill-opacity:1; font-family:Arial,Helvetica Neue,Helvetica,sans-serif; font-size:48px; text-anchor:end;" transform="rotate(0, 201.346, 867.317)" x="201.346" y="867.317">0.4</text>
</g>
<g clip-path="url(#clip5301)">
<text style="fill:#000000; fill-opacity:1; font-family:Arial,Helvetica Neue,Helvetica,sans-serif; font-size:48px; text-anchor:end;" transform="rotate(0, 201.346, 599.793)" x="201.346" y="599.793">0.6</text>
</g>
<g clip-path="url(#clip5301)">
<text style="fill:#000000; fill-opacity:1; font-family:Arial,Helvetica Neue,Helvetica,sans-serif; font-size:48px; text-anchor:end;" transform="rotate(0, 201.346, 332.268)" x="201.346" y="332.268">0.8</text>
</g>
<g clip-path="url(#clip5301)">
<text style="fill:#000000; fill-opacity:1; font-family:Arial,Helvetica Neue,Helvetica,sans-serif; font-size:48px; text-anchor:end;" transform="rotate(0, 201.346, 64.7441)" x="201.346" y="64.7441">1.0</text>
</g>
<g clip-path="url(#clip5301)">
<text style="fill:#000000; fill-opacity:1; font-family:Arial,Helvetica Neue,Helvetica,sans-serif; font-size:66px; text-anchor:middle;" transform="rotate(0, 1224.82, 1526.4)" x="1224.82" y="1526.4">Sample</text>
</g>
<g clip-path="url(#clip5301)">
<text style="fill:#000000; fill-opacity:1; font-family:Arial,Helvetica Neue,Helvetica,sans-serif; font-size:66px; text-anchor:middle;" transform="rotate(-90, 57.6, 716.055)" x="57.6" y="716.055">Persistence probability</text>
</g>
<polyline clip-path="url(#clip5303)" style="stroke:#009af9; stroke-width:4; stroke-opacity:1; fill:none" points="
  281.015,430.338 282.904,430.484 284.794,431.168 286.683,430.881 288.573,433.776 290.462,432.364 292.352,429.484 294.241,431.387 296.131,433.633 298.02,432.951 
  299.91,435.422 301.799,434.735 303.689,433.643 305.578,433.653 307.468,434.76 309.357,436.398 311.247,434.301 313.136,433.646 315.026,428.257 316.915,429.479 
  318.805,432.333 320.694,433.812 322.584,431.02 324.473,428.707 326.363,431.855 328.252,429.859 330.142,426.313 332.031,426.783 333.921,424.29 335.81,428.381 
  337.7,431.346 339.589,433.609 341.479,431.75 343.368,432.597 345.258,432.384 347.147,437.11 349.037,432.767 350.926,431.121 352.816,430.923 354.705,430.375 
  356.595,433.888 358.484,438.447 360.374,436.583 362.263,436.109 364.153,437.303 366.042,433.955 367.932,432.084 369.821,430.343 371.711,431.217 373.6,427.232 
  375.49,426.745 377.379,422.995 379.269,420.779 381.158,419.253 383.048,419.74 384.938,418.805 386.827,421.302 388.717,426.331 390.606,424.039 392.496,421.438 
  394.385,418.995 396.275,416.006 398.164,411.268 400.054,414.177 401.943,416.16 403.833,417.108 405.722,416.044 407.612,416.186 409.501,416.666 411.391,415.005 
  413.28,415.648 415.17,417.847 417.059,418.048 418.949,419.822 420.838,417.866 422.728,417.864 424.617,418.6 426.507,419.556 428.396,418.22 430.286,415.229 
  432.175,412.444 434.065,412.573 435.954,412.142 437.844,412.305 439.733,411.14 441.623,411.218 443.512,407.568 445.402,408.911 447.291,410.181 449.181,410.369 
  451.07,409.93 452.96,413.666 454.849,416.24 456.739,419.66 458.628,414.004 460.518,413.435 462.407,405.464 464.297,406.385 466.186,406.868 468.076,407.538 
  469.965,408.101 471.855,410.177 473.744,413.712 475.634,414.341 477.523,415.025 479.413,413.179 481.302,416.202 483.192,414.785 485.081,413.691 486.971,415.497 
  488.86,416.668 490.75,418.281 492.639,415.616 494.529,421.436 496.418,421.646 498.308,419.609 500.197,419.111 502.087,419.873 503.976,420.504 505.866,422.96 
  507.755,424.009 509.645,425.785 511.534,425.605 513.424,421.196 515.313,424.194 517.203,427.457 519.092,427.025 520.982,423.797 522.871,421.826 524.761,422.828 
  526.65,422.448 528.54,422.956 530.429,422.61 532.319,422.167 534.208,421.745 536.098,422.411 537.988,423.297 539.877,423.108 541.767,424.592 543.656,420.837 
  545.546,422.47 547.435,421.975 549.325,419.565 551.214,417.268 553.104,417.77 554.993,419.815 556.883,420.691 558.772,427.221 560.662,426.812 562.551,428.602 
  564.441,427.257 566.33,429.245 568.22,431.77 570.109,430.762 571.999,432.992 573.888,433.84 575.778,433.105 577.667,433.209 579.557,429.127 581.446,430.205 
  583.336,429.507 585.225,429.158 587.115,424.05 589.004,426.382 590.894,425.353 592.783,428.891 594.673,428.344 596.562,434.916 598.452,436.081 600.341,433.522 
  602.231,434.94 604.12,433.68 606.01,431.613 607.899,431.077 609.789,429.276 611.678,425.703 613.568,421.795 615.457,423.532 617.347,426.527 619.236,429.365 
  621.126,432.986 623.015,431.186 624.905,429.992 626.794,432.997 628.684,430.905 630.573,430.077 632.463,428.391 634.352,430.334 636.242,428.796 638.131,428.875 
  640.021,429.851 641.91,428.536 643.8,431.716 645.689,432.998 647.579,437.187 649.468,434.859 651.358,435.277 653.247,435.721 655.137,437.198 657.026,433.178 
  658.916,436.737 660.805,435.307 662.695,434.991 664.584,435.235 666.474,436.046 668.363,438.831 670.253,441.999 672.142,446.025 674.032,445.408 675.921,441.276 
  677.811,441.698 679.7,443.659 681.59,446.952 683.479,440.866 685.369,439.669 687.258,438.808 689.148,438.866 691.038,440.063 692.927,441.411 694.817,444.365 
  696.706,442.806 698.596,444.435 700.485,442.368 702.375,440.741 704.264,441.248 706.154,441.448 708.043,442.497 709.933,446.828 711.822,447.125 713.712,447.365 
  715.601,444.732 717.491,442.43 719.38,437.82 721.27,438.888 723.159,445.406 725.049,444.426 726.938,449.101 728.828,448.614 730.717,449.961 732.607,453.274 
  734.496,458.006 736.386,453.1 738.275,452.674 740.165,450.75 742.054,449.968 743.944,450.885 745.833,455.005 747.723,452.123 749.612,453.332 751.502,453.68 
  753.391,451.222 755.281,447.916 757.17,446.617 759.06,445.574 760.949,444.676 762.839,444.93 764.728,443.549 766.618,446.916 768.507,449.14 770.397,452.75 
  772.286,456.359 774.176,455.69 776.065,460.82 777.955,462.209 779.844,462.103 781.734,460.633 783.623,461.16 785.513,460.079 787.402,459.8 789.292,461.242 
  791.181,455.45 793.071,455.311 794.96,462.504 796.85,464.183 798.739,467.156 800.629,465.664 802.518,463.407 804.408,461.009 806.297,459.785 808.187,458.039 
  810.076,460.571 811.966,461.218 813.855,461.714 815.745,464.474 817.634,463.19 819.524,465.004 821.413,466.008 823.303,464.732 825.192,466.776 827.082,465.997 
  828.971,463.815 830.861,460.854 832.75,462.833 834.64,461.796 836.529,460.163 838.419,459.95 840.308,456.282 842.198,452.546 844.088,457.412 845.977,458.898 
  847.867,462.738 849.756,466.746 851.646,470.076 853.535,474.663 855.425,473.15 857.314,477.516 859.204,483.731 861.093,480.567 862.983,480.193 864.872,477.049 
  866.762,472.742 868.651,472.154 870.541,477.581 872.43,476.78 874.32,477.132 876.209,481.733 878.099,477.134 879.988,480.734 881.878,484.99 883.767,486.632 
  885.657,485.198 887.546,480.825 889.436,478.82 891.325,473.148 893.215,476.772 895.104,474.676 896.994,474.085 898.883,474.796 900.773,476.145 902.662,473.355 
  904.552,478.038 906.441,482.911 908.331,478.859 910.22,484.032 912.11,482.882 913.999,485.395 915.889,484.208 917.778,481.835 919.668,481.179 921.557,482.379 
  923.447,479.818 925.336,483.2 927.226,481.122 929.115,479.716 931.005,481.754 932.894,484.486 934.784,483.418 936.673,479.072 938.563,478.254 940.452,479.784 
  942.342,481.111 944.231,481.044 946.121,483.646 948.01,485.429 949.9,483.553 951.789,484.516 953.679,480.895 955.568,479.252 957.458,477.651 959.347,476.287 
  961.237,478.116 963.126,478.09 965.016,478.568 966.905,482.64 968.795,480.16 970.684,476.82 972.574,473.187 974.463,471.284 976.353,471.799 978.242,471.652 
  980.132,469.403 982.021,472.237 983.911,468.306 985.8,473.038 987.69,469.78 989.579,466.88 991.469,465.491 993.358,461.814 995.248,463.989 997.138,461.268 
  999.027,459.757 1000.92,463.816 1002.81,472.95 1004.7,474.445 1006.59,469.838 1008.47,462.837 1010.36,462.668 1012.25,461.254 1014.14,460.397 1016.03,458.507 
  1017.92,458.16 1019.81,457.65 1021.7,458.783 1023.59,459.07 1025.48,456.634 1027.37,456.35 1029.26,455.661 1031.15,453.747 1033.04,452.441 1034.93,447.613 
  1036.82,453.955 1038.71,457.457 1040.6,455.048 1042.49,455.37 1044.38,453.291 1046.26,453.972 1048.15,454.743 1050.04,454.678 1051.93,458.052 1053.82,457.51 
  1055.71,460.273 1057.6,460.367 1059.49,461.089 1061.38,458.078 1063.27,455.343 1065.16,453.645 1067.05,461.333 1068.94,458.983 1070.83,457.977 1072.72,457.069 
  1074.61,458.169 1076.5,458.565 1078.39,456.36 1080.28,457.737 1082.17,460.674 1084.05,458.578 1085.94,456.705 1087.83,458.34 1089.72,460.134 1091.61,462.906 
  1093.5,463.483 1095.39,471.163 1097.28,465.098 1099.17,464.907 1101.06,464.686 1102.95,470.299 1104.84,470.352 1106.73,474.55 1108.62,477.746 1110.51,479.777 
  1112.4,483.151 1114.29,482.797 1116.18,483.388 1118.07,484.649 1119.96,485.89 1121.84,487.012 1123.73,484.908 1125.62,487.107 1127.51,487.028 1129.4,485.772 
  1131.29,485.778 1133.18,493.014 1135.07,492.256 1136.96,490.832 1138.85,483.822 1140.74,484.647 1142.63,480.191 1144.52,479.776 1146.41,482.119 1148.3,484.213 
  1150.19,481.652 1152.08,481.938 1153.97,484.985 1155.86,484.534 1157.75,487.504 1159.64,490.378 1161.52,494.161 1163.41,494.286 1165.3,492.186 1167.19,493.617 
  1169.08,492.059 1170.97,489.459 1172.86,492.512 1174.75,489.784 1176.64,495.596 1178.53,496.212 1180.42,498.097 1182.31,491.929 1184.2,485.703 1186.09,483.389 
  1187.98,480.224 1189.87,479.137 1191.76,478.355 1193.65,480.622 1195.54,486.717 1197.43,487.087 1199.31,486.033 1201.2,484.91 1203.09,485.922 1204.98,486.928 
  1206.87,486.985 1208.76,488.709 1210.65,479.901 1212.54,481.366 1214.43,480.537 1216.32,488.559 1218.21,485.029 1220.1,488.673 1221.99,492.513 1223.88,495.111 
  1225.77,497.799 1227.66,500.475 1229.55,505.006 1231.44,500.78 1233.33,506.278 1235.22,508.079 1237.1,507.084 1238.99,510.817 1240.88,509.632 1242.77,507.529 
  1244.66,507.118 1246.55,504.176 1248.44,505.705 1250.33,506.672 1252.22,506.943 1254.11,500.407 1256,503.373 1257.89,506.612 1259.78,503.521 1261.67,503.211 
  1263.56,505.473 1265.45,509.168 1267.34,513.432 1269.23,511.372 1271.12,508.557 1273.01,507.892 1274.89,505.327 1276.78,504.938 1278.67,504.819 1280.56,505.409 
  1282.45,502.799 1284.34,506.544 1286.23,504.594 1288.12,502.705 1290.01,507.304 1291.9,504.236 1293.79,500.219 1295.68,494.255 1297.57,494.195 1299.46,494.701 
  1301.35,498.502 1303.24,497.906 1305.13,497.836 1307.02,494.216 1308.91,496.721 1310.8,494.484 1312.69,493.297 1314.57,492.881 1316.46,489.865 1318.35,485.859 
  1320.24,485.34 1322.13,488.27 1324.02,486.329 1325.91,485.876 1327.8,489.179 1329.69,489.544 1331.58,488.432 1333.47,495.661 1335.36,495.578 1337.25,499.135 
  1339.14,500.12 1341.03,503.987 1342.92,506.935 1344.81,509.211 1346.7,513.85 1348.59,511.312 1350.48,516.074 1352.36,513.629 1354.25,517.635 1356.14,513.135 
  1358.03,512.438 1359.92,512.996 1361.81,517.264 1363.7,518.902 1365.59,521.58 1367.48,525.06 1369.37,525.55 1371.26,527.041 1373.15,526.878 1375.04,525.109 
  1376.93,521.733 1378.82,524.349 1380.71,522.55 1382.6,525.693 1384.49,530.129 1386.38,532.425 1388.27,532.919 1390.15,533.357 1392.04,532.631 1393.93,533.192 
  1395.82,529.843 1397.71,532.684 1399.6,531.257 1401.49,532.287 1403.38,533.438 1405.27,532.576 1407.16,532.27 1409.05,532.473 1410.94,531.648 1412.83,534.062 
  1414.72,533.64 1416.61,533.622 1418.5,533.573 1420.39,541.611 1422.28,541.357 1424.17,534.055 1426.06,535.823 1427.94,538.481 1429.83,541.309 1431.72,533.755 
  1433.61,537.333 1435.5,540.595 1437.39,545.722 1439.28,548.642 1441.17,550.427 1443.06,548.784 1444.95,548.571 1446.84,554.586 1448.73,553.157 1450.62,549.974 
  1452.51,551.444 1454.4,550.08 1456.29,549.389 1458.18,546.722 1460.07,542.094 1461.96,536.635 1463.85,541.018 1465.74,547.21 1467.62,548.965 1469.51,543.487 
  1471.4,546.273 1473.29,547.504 1475.18,551.117 1477.07,550.164 1478.96,551.265 1480.85,548.924 1482.74,549.715 1484.63,550.663 1486.52,545.395 1488.41,543.11 
  1490.3,545.078 1492.19,543.588 1494.08,548.946 1495.97,553.868 1497.86,562.284 1499.75,562.217 1501.64,559.995 1503.53,560.351 1505.41,557.966 1507.3,562.118 
  1509.19,565.497 1511.08,565.7 1512.97,563.974 1514.86,562.363 1516.75,553.803 1518.64,554.475 1520.53,552.779 1522.42,552.394 1524.31,554.307 1526.2,552.023 
  1528.09,546.882 1529.98,549.656 1531.87,552.63 1533.76,554.538 1535.65,553.196 1537.54,554.726 1539.43,551.301 1541.32,546.314 1543.2,545.444 1545.09,544.752 
  1546.98,541.516 1548.87,543.138 1550.76,543.957 1552.65,544.936 1554.54,543.048 1556.43,541.625 1558.32,545.7 1560.21,547.267 1562.1,545.86 1563.99,552.537 
  1565.88,552.613 1567.77,551.73 1569.66,553.036 1571.55,549.24 1573.44,544.679 1575.33,543.907 1577.22,547.936 1579.11,548.27 1580.99,548.997 1582.88,545.326 
  1584.77,547.216 1586.66,547.996 1588.55,544.465 1590.44,546.453 1592.33,551.552 1594.22,558.252 1596.11,558.441 1598,551.747 1599.89,553.908 1601.78,557.78 
  1603.67,552.638 1605.56,550.68 1607.45,548.171 1609.34,546.089 1611.23,544.931 1613.12,546.403 1615.01,542.394 1616.9,538.324 1618.79,534.488 1620.67,535.812 
  1622.56,530.468 1624.45,531.81 1626.34,529.743 1628.23,533.082 1630.12,535.383 1632.01,536.578 1633.9,539.545 1635.79,538.923 1637.68,538.219 1639.57,538.612 
  1641.46,541.681 1643.35,540.349 1645.24,540.449 1647.13,543.742 1649.02,543.917 1650.91,543.076 1652.8,538.037 1654.69,537.191 1656.58,537.916 1658.46,536.778 
  1660.35,532.966 1662.24,533.4 1664.13,532.143 1666.02,530.327 1667.91,527.794 1669.8,525.612 1671.69,519.685 1673.58,523.7 1675.47,522.993 1677.36,520.054 
  1679.25,519.094 1681.14,521.906 1683.03,521.956 1684.92,522.311 1686.81,524.52 1688.7,522.492 1690.59,525.574 1692.48,528.26 1694.37,522.562 1696.25,515.166 
  1698.14,518.49 1700.03,515.724 1701.92,513.49 1703.81,511.964 1705.7,508.968 1707.59,506.605 1709.48,507.847 1711.37,507.19 1713.26,507.039 1715.15,503.615 
  1717.04,502.148 1718.93,504.299 1720.82,505.776 1722.71,505.23 1724.6,502.486 1726.49,503.088 1728.38,502.493 1730.27,498.624 1732.16,495.985 1734.04,490.778 
  1735.93,492.723 1737.82,497.874 1739.71,505.145 1741.6,503.907 1743.49,504.553 1745.38,501.364 1747.27,499.318 1749.16,496.928 1751.05,503.034 1752.94,500.188 
  1754.83,503.2 1756.72,497.084 1758.61,498.343 1760.5,495.96 1762.39,503.734 1764.28,506.278 1766.17,509.221 1768.06,509.935 1769.95,509.167 1771.84,507.717 
  1773.72,507.404 1775.61,510.488 1777.5,518.759 1779.39,516.158 1781.28,516.088 1783.17,514.891 1785.06,513.433 1786.95,511.43 1788.84,516.154 1790.73,509.21 
  1792.62,509.501 1794.51,506.866 1796.4,504.027 1798.29,504.789 1800.18,505.908 1802.07,504.772 1803.96,503.778 1805.85,502.161 1807.74,502.665 1809.63,501.707 
  1811.51,504.07 1813.4,502.916 1815.29,498.211 1817.18,498.082 1819.07,494.832 1820.96,494.832 1822.85,491.725 1824.74,493.949 1826.63,494.561 1828.52,493.475 
  1830.41,491.493 1832.3,490.691 1834.19,494.581 1836.08,494.701 1837.97,497.062 1839.86,500.741 1841.75,501.726 1843.64,501.948 1845.53,501.626 1847.42,500.674 
  1849.3,501.271 1851.19,496.86 1853.08,499.627 1854.97,501.388 1856.86,501.392 1858.75,497.334 1860.64,498.837 1862.53,497.083 1864.42,496.635 1866.31,493.846 
  1868.2,494.212 1870.09,493.236 1871.98,495.359 1873.87,493.577 1875.76,490.686 1877.65,490.219 1879.54,486.165 1881.43,485.458 1883.32,481.64 1885.21,482.552 
  1887.09,480.845 1888.98,479.339 1890.87,475.919 1892.76,471.784 1894.65,469.363 1896.54,467.893 1898.43,464.523 1900.32,466.148 1902.21,467.464 1904.1,464.135 
  1905.99,462.481 1907.88,461.247 1909.77,457.295 1911.66,459.395 1913.55,458.206 1915.44,457.831 1917.33,459.036 1919.22,465.803 1921.11,467.78 1923,465.108 
  1924.89,465.692 1926.77,467.408 1928.66,470.845 1930.55,470.756 1932.44,473.517 1934.33,469.448 1936.22,473.876 1938.11,473.602 1940,474.346 1941.89,478.01 
  1943.78,478.396 1945.67,477.229 1947.56,472.411 1949.45,475.875 1951.34,476.169 1953.23,477.884 1955.12,472.101 1957.01,470.54 1958.9,470.277 1960.79,467.375 
  1962.68,463.469 1964.56,463.676 1966.45,461.897 1968.34,456.449 1970.23,458.795 1972.12,462.363 1974.01,459.494 1975.9,467.308 1977.79,465.407 1979.68,464.152 
  1981.57,465.637 1983.46,464.856 1985.35,466.43 1987.24,471.424 1989.13,473.575 1991.02,470.909 1992.91,467.913 1994.8,464.853 1996.69,460.549 1998.58,458.941 
  2000.47,459.886 2002.35,458.679 2004.24,459.966 2006.13,456.351 2008.02,457.778 2009.91,458.277 2011.8,457.88 2013.69,462.622 2015.58,456.424 2017.47,456.381 
  2019.36,457.769 2021.25,460.598 2023.14,460.286 2025.03,458.579 2026.92,458.587 2028.81,456.729 2030.7,457.314 2032.59,458.274 2034.48,460.823 2036.37,460.883 
  2038.26,458.592 2040.14,458.369 2042.03,461.619 2043.92,462.358 2045.81,461.116 2047.7,463.016 2049.59,464.544 2051.48,469.893 2053.37,472.113 2055.26,477.285 
  2057.15,473.834 2059.04,467.516 2060.93,466.814 2062.82,466.697 2064.71,466.689 2066.6,466.374 2068.49,466.342 2070.38,462.848 2072.27,463.321 2074.16,463.258 
  2076.05,462.626 2077.94,458.934 2079.82,459.349 2081.71,456.31 2083.6,452.465 2085.49,455.348 2087.38,461.595 2089.27,466.639 2091.16,470.203 2093.05,470.462 
  2094.94,476.091 2096.83,478.98 2098.72,481.347 2100.61,478.544 2102.5,476.043 2104.39,475.968 2106.28,478.145 2108.17,473.052 2110.06,477.698 2111.95,478.718 
  2113.84,474.554 2115.73,469.928 2117.61,474.799 2119.5,478.839 2121.39,480.929 2123.28,480.681 2125.17,479.162 2127.06,474.767 2128.95,474.886 2130.84,474.873 
  2132.73,475.78 2134.62,471.073 2136.51,472.159 2138.4,470.753 2140.29,469.784 2142.18,467.179 2144.07,466.592 2145.96,469.916 2147.85,468.414 2149.74,467.571 
  2151.63,467.246 2153.52,469.358 2155.4,470.075 2157.29,469.057 2159.18,469.347 2161.07,468.418 2162.96,471.962 2164.85,470.919 2166.74,471.912 2168.63,467.534 
  
  "/>
<polyline clip-path="url(#clip5303)" style="stroke:#e26f46; stroke-width:4; stroke-opacity:1; fill:none" points="
  281.015,1156.26 282.904,1156.01 284.794,1157.63 286.683,1155.2 288.573,1154.57 290.462,1157.34 292.352,1158.19 294.241,1157.55 296.131,1158.16 298.02,1156.36 
  299.91,1155.92 301.799,1156.83 303.689,1156.86 305.578,1157.55 307.468,1154.98 309.357,1153.27 311.247,1154.18 313.136,1157.07 315.026,1156.87 316.915,1157.17 
  318.805,1156.98 320.694,1158.94 322.584,1159.1 324.473,1158.36 326.363,1155.84 328.252,1157.29 330.142,1155.46 332.031,1153.45 333.921,1156.68 335.81,1155.69 
  337.7,1155.2 339.589,1153.38 341.479,1153.57 343.368,1155.18 345.258,1154.25 347.147,1151.84 349.037,1154.72 350.926,1153.03 352.816,1155.8 354.705,1156.29 
  356.595,1156.79 358.484,1156.18 360.374,1155.54 362.263,1154.27 364.153,1156.06 366.042,1156.7 367.932,1155.86 369.821,1157.6 371.711,1160.51 373.6,1158.73 
  375.49,1162.48 377.379,1163.45 379.269,1163.36 381.158,1166.24 383.048,1169.04 384.938,1169.95 386.827,1171.42 388.717,1175.1 390.606,1175.36 392.496,1174.32 
  394.385,1173.93 396.275,1173.04 398.164,1175.09 400.054,1175.68 401.943,1174.4 403.833,1176.25 405.722,1177.85 407.612,1175.86 409.501,1174.86 411.391,1177.51 
  413.28,1178.43 415.17,1176.64 417.059,1175.75 418.949,1175.23 420.838,1174.97 422.728,1177.33 424.617,1176.48 426.507,1176.06 428.396,1176.43 430.286,1174.33 
  432.175,1173.75 434.065,1174.52 435.954,1175 437.844,1172.68 439.733,1174.14 441.623,1172.68 443.512,1172.43 445.402,1167.93 447.291,1166.19 449.181,1164.23 
  451.07,1165.6 452.96,1164.94 454.849,1160.45 456.739,1161.45 458.628,1160.13 460.518,1159.11 462.407,1158.68 464.297,1156.03 466.186,1155.59 468.076,1154.49 
  469.965,1153.01 471.855,1152.57 473.744,1155.93 475.634,1155.53 477.523,1155.36 479.413,1158.42 481.302,1159.63 483.192,1157.49 485.081,1156.17 486.971,1156.01 
  488.86,1157.76 490.75,1155.39 492.639,1158.87 494.529,1160.07 496.418,1157.03 498.308,1152.52 500.197,1150.99 502.087,1150.6 503.976,1149.67 505.866,1152.19 
  507.755,1151.1 509.645,1150 511.534,1151.69 513.424,1151.04 515.313,1153.66 517.203,1154.89 519.092,1154.57 520.982,1154.95 522.871,1156.04 524.761,1154.34 
  526.65,1154.2 528.54,1153.95 530.429,1156.66 532.319,1157.65 534.208,1160.72 536.098,1161.77 537.988,1162.12 539.877,1160.38 541.767,1160.2 543.656,1162.26 
  545.546,1157.55 547.435,1159.26 549.325,1156.3 551.214,1157.46 553.104,1157.36 554.993,1158.38 556.883,1156.44 558.772,1158.06 560.662,1158.66 562.551,1160.49 
  564.441,1160.26 566.33,1159.78 568.22,1160.66 570.109,1161.15 571.999,1162.05 573.888,1164.04 575.778,1162.61 577.667,1162.14 579.557,1164.7 581.446,1162.49 
  583.336,1159.85 585.225,1158.14 587.115,1158.09 589.004,1156.77 590.894,1154.67 592.783,1156.35 594.673,1158.27 596.562,1155.99 598.452,1155.71 600.341,1156.53 
  602.231,1157.29 604.12,1160.19 606.01,1158.51 607.899,1158.46 609.789,1159.13 611.678,1159.92 613.568,1165.64 615.457,1163.67 617.347,1163.37 619.236,1163.26 
  621.126,1163.42 623.015,1161.48 624.905,1163.02 626.794,1165.94 628.684,1161.81 630.573,1161.22 632.463,1159.4 634.352,1161.76 636.242,1163.15 638.131,1164.11 
  640.021,1166.1 641.91,1168.43 643.8,1170.81 645.689,1171.3 647.579,1173.4 649.468,1172.84 651.358,1170.63 653.247,1171.6 655.137,1170.12 657.026,1171.31 
  658.916,1173.71 660.805,1172.04 662.695,1172.79 664.584,1173.96 666.474,1175.3 668.363,1177.38 670.253,1177.26 672.142,1177.6 674.032,1180.23 675.921,1180.05 
  677.811,1177.24 679.7,1177.88 681.59,1178.72 683.479,1178.93 685.369,1178.67 687.258,1177.28 689.148,1178.18 691.038,1177.51 692.927,1177.22 694.817,1177.39 
  696.706,1178.64 698.596,1178.2 700.485,1179.45 702.375,1177.3 704.264,1176.51 706.154,1177.52 708.043,1175.97 709.933,1175.53 711.822,1173.83 713.712,1176.94 
  715.601,1178.72 717.491,1176.71 719.38,1177.33 721.27,1176.4 723.159,1176.93 725.049,1179.48 726.938,1178.78 728.828,1175.53 730.717,1176.95 732.607,1177.72 
  734.496,1177.6 736.386,1178.49 738.275,1176.9 740.165,1175.35 742.054,1174.33 743.944,1173.51 745.833,1173.07 747.723,1170.84 749.612,1168.58 751.502,1167.08 
  753.391,1167.6 755.281,1163.85 757.17,1162.49 759.06,1162.33 760.949,1161 762.839,1160.94 764.728,1159.41 766.618,1162.59 768.507,1165.09 770.397,1163.12 
  772.286,1162.43 774.176,1162.53 776.065,1163.45 777.955,1167.23 779.844,1169.43 781.734,1169.28 783.623,1169.29 785.513,1167.11 787.402,1167.06 789.292,1168.05 
  791.181,1168.29 793.071,1167.52 794.96,1166.01 796.85,1165.39 798.739,1169.69 800.629,1171.39 802.518,1169.87 804.408,1169.65 806.297,1170.89 808.187,1172.81 
  810.076,1176.26 811.966,1176.31 813.855,1176.64 815.745,1177.78 817.634,1175.26 819.524,1172.62 821.413,1173.56 823.303,1172.23 825.192,1171.08 827.082,1168.75 
  828.971,1168.72 830.861,1171.2 832.75,1174.2 834.64,1173.95 836.529,1174.74 838.419,1176.6 840.308,1178.23 842.198,1177.62 844.088,1175.24 845.977,1176.86 
  847.867,1176.61 849.756,1175.55 851.646,1177.14 853.535,1179.03 855.425,1180.52 857.314,1177.69 859.204,1177.17 861.093,1176.41 862.983,1169.13 864.872,1168.84 
  866.762,1171.13 868.651,1170.96 870.541,1168.7 872.43,1169.7 874.32,1172.81 876.209,1174.6 878.099,1174.91 879.988,1176.79 881.878,1174.97 883.767,1169.59 
  885.657,1169.68 887.546,1169.9 889.436,1166.94 891.325,1167.78 893.215,1167.67 895.104,1167.88 896.994,1166.45 898.883,1166.97 900.773,1165.5 902.662,1165.55 
  904.552,1164.04 906.441,1163.08 908.331,1163.72 910.22,1164.91 912.11,1163.42 913.999,1166.38 915.889,1164.6 917.778,1164.68 919.668,1165.92 921.557,1167.46 
  923.447,1165.62 925.336,1167.29 927.226,1167.46 929.115,1169.23 931.005,1170.62 932.894,1171.34 934.784,1170.61 936.673,1170.53 938.563,1170.67 940.452,1168.23 
  942.342,1169.23 944.231,1168.15 946.121,1168.33 948.01,1168.96 949.9,1169.38 951.789,1168.98 953.679,1170.17 955.568,1171.41 957.458,1171.33 959.347,1171.44 
  961.237,1173.02 963.126,1173.19 965.016,1172.93 966.905,1174.58 968.795,1174.05 970.684,1170.51 972.574,1169.85 974.463,1170.82 976.353,1168.42 978.242,1164.85 
  980.132,1165.46 982.021,1163.28 983.911,1159.97 985.8,1160.64 987.69,1162.34 989.579,1164.12 991.469,1165.02 993.358,1163.34 995.248,1160.35 997.138,1159.22 
  999.027,1158.35 1000.92,1157.31 1002.81,1154.03 1004.7,1154.21 1006.59,1152.54 1008.47,1155.58 1010.36,1154.93 1012.25,1154.75 1014.14,1152.97 1016.03,1151.35 
  1017.92,1154.38 1019.81,1154.43 1021.7,1155.79 1023.59,1152.99 1025.48,1154.92 1027.37,1151.37 1029.26,1149.9 1031.15,1150.59 1033.04,1148.26 1034.93,1146.96 
  1036.82,1145.7 1038.71,1146.29 1040.6,1143.19 1042.49,1140.07 1044.38,1141.91 1046.26,1140.41 1048.15,1141.43 1050.04,1135.9 1051.93,1136.43 1053.82,1136.63 
  1055.71,1138.31 1057.6,1136.82 1059.49,1135.09 1061.38,1133.33 1063.27,1136.09 1065.16,1135.88 1067.05,1137.07 1068.94,1136.19 1070.83,1138.37 1072.72,1139.77 
  1074.61,1141.16 1076.5,1140.15 1078.39,1141.9 1080.28,1140.62 1082.17,1139.18 1084.05,1141.16 1085.94,1141.92 1087.83,1141.17 1089.72,1140.04 1091.61,1141.36 
  1093.5,1142.22 1095.39,1140.73 1097.28,1139.36 1099.17,1141.74 1101.06,1142.73 1102.95,1144.11 1104.84,1143.68 1106.73,1143.78 1108.62,1143.51 1110.51,1148.82 
  1112.4,1149.97 1114.29,1148.69 1116.18,1150.55 1118.07,1151.64 1119.96,1152.02 1121.84,1151.44 1123.73,1148.25 1125.62,1146.65 1127.51,1146.87 1129.4,1150.25 
  1131.29,1151.58 1133.18,1152.78 1135.07,1154.57 1136.96,1154.45 1138.85,1157.92 1140.74,1158.53 1142.63,1158.18 1144.52,1157.69 1146.41,1159.91 1148.3,1158.77 
  1150.19,1156.31 1152.08,1157.06 1153.97,1154.83 1155.86,1155.39 1157.75,1158.64 1159.64,1159.37 1161.52,1158.23 1163.41,1154.15 1165.3,1152.62 1167.19,1155.42 
  1169.08,1158.47 1170.97,1159.96 1172.86,1157.57 1174.75,1159.11 1176.64,1160.98 1178.53,1158.08 1180.42,1161.38 1182.31,1160.39 1184.2,1162.96 1186.09,1162.74 
  1187.98,1160.22 1189.87,1164.64 1191.76,1166.25 1193.65,1162.94 1195.54,1165.79 1197.43,1167.89 1199.31,1168.04 1201.2,1166.89 1203.09,1168.89 1204.98,1170.73 
  1206.87,1173.32 1208.76,1173.42 1210.65,1171.61 1212.54,1171.55 1214.43,1171.29 1216.32,1171.39 1218.21,1169.52 1220.1,1169.87 1221.99,1173.43 1223.88,1172.96 
  1225.77,1173.49 1227.66,1173.43 1229.55,1174.86 1231.44,1176.3 1233.33,1178.89 1235.22,1181.09 1237.1,1179.37 1238.99,1178.41 1240.88,1176.23 1242.77,1175.86 
  1244.66,1179.09 1246.55,1180.72 1248.44,1182.46 1250.33,1181.52 1252.22,1181.11 1254.11,1180.7 1256,1180.85 1257.89,1181.57 1259.78,1179.7 1261.67,1181.97 
  1263.56,1181.51 1265.45,1183.12 1267.34,1182.38 1269.23,1182.1 1271.12,1178.69 1273.01,1178.79 1274.89,1181.16 1276.78,1179.7 1278.67,1179.96 1280.56,1181.67 
  1282.45,1179.86 1284.34,1182.28 1286.23,1182.81 1288.12,1182.33 1290.01,1183.8 1291.9,1185.18 1293.79,1185.37 1295.68,1185.63 1297.57,1184.62 1299.46,1187.02 
  1301.35,1187.55 1303.24,1188.13 1305.13,1187.9 1307.02,1190.7 1308.91,1188.51 1310.8,1188.44 1312.69,1189.2 1314.57,1190.71 1316.46,1191.03 1318.35,1191.41 
  1320.24,1190.2 1322.13,1192.65 1324.02,1192.56 1325.91,1191.62 1327.8,1191.51 1329.69,1191.12 1331.58,1191.99 1333.47,1192.53 1335.36,1190.94 1337.25,1190.86 
  1339.14,1191.93 1341.03,1193.61 1342.92,1193.53 1344.81,1192.99 1346.7,1193.31 1348.59,1196.49 1350.48,1195.81 1352.36,1196.66 1354.25,1196.57 1356.14,1194.23 
  1358.03,1194.21 1359.92,1195.3 1361.81,1197.07 1363.7,1199.05 1365.59,1196.5 1367.48,1197.98 1369.37,1196.32 1371.26,1197.46 1373.15,1200.11 1375.04,1195.98 
  1376.93,1192.6 1378.82,1192.42 1380.71,1192.79 1382.6,1190.94 1384.49,1189.59 1386.38,1189.6 1388.27,1189.12 1390.15,1189.29 1392.04,1189.61 1393.93,1192.8 
  1395.82,1191.77 1397.71,1191.72 1399.6,1190.71 1401.49,1189.81 1403.38,1188.12 1405.27,1186.11 1407.16,1184.61 1409.05,1183.23 1410.94,1181.71 1412.83,1183.68 
  1414.72,1188.59 1416.61,1188.13 1418.5,1189 1420.39,1188.14 1422.28,1187.67 1424.17,1185.38 1426.06,1188.03 1427.94,1190.3 1429.83,1190.31 1431.72,1192.15 
  1433.61,1192.97 1435.5,1191.94 1437.39,1190.66 1439.28,1192.76 1441.17,1192.68 1443.06,1192.04 1444.95,1192.96 1446.84,1192.17 1448.73,1190.48 1450.62,1189.51 
  1452.51,1188.55 1454.4,1187.8 1456.29,1187.07 1458.18,1187.8 1460.07,1185.73 1461.96,1187.13 1463.85,1187.09 1465.74,1184.15 1467.62,1182.42 1469.51,1184.2 
  1471.4,1182.72 1473.29,1182.58 1475.18,1182.55 1477.07,1181.71 1478.96,1181.26 1480.85,1184.86 1482.74,1184.49 1484.63,1185.19 1486.52,1185.39 1488.41,1187.51 
  1490.3,1188.07 1492.19,1186.98 1494.08,1184.8 1495.97,1186.17 1497.86,1185.35 1499.75,1185.67 1501.64,1186.97 1503.53,1188.27 1505.41,1186.09 1507.3,1187.89 
  1509.19,1187.71 1511.08,1188.8 1512.97,1189.77 1514.86,1188.76 1516.75,1189.72 1518.64,1190.75 1520.53,1190.79 1522.42,1189.17 1524.31,1191.07 1526.2,1191.18 
  1528.09,1190.72 1529.98,1190.9 1531.87,1191.65 1533.76,1189.21 1535.65,1191.43 1537.54,1194.09 1539.43,1191.12 1541.32,1191.77 1543.2,1191.17 1545.09,1189.93 
  1546.98,1191.32 1548.87,1190.4 1550.76,1190.56 1552.65,1193.23 1554.54,1191.45 1556.43,1194.02 1558.32,1193.59 1560.21,1191.75 1562.1,1189.66 1563.99,1188.48 
  1565.88,1190.11 1567.77,1190.74 1569.66,1192.43 1571.55,1190.83 1573.44,1188.74 1575.33,1188.75 1577.22,1186.45 1579.11,1186.12 1580.99,1185.03 1582.88,1185.42 
  1584.77,1185.76 1586.66,1184.71 1588.55,1185.77 1590.44,1186.09 1592.33,1185.07 1594.22,1186.39 1596.11,1186.72 1598,1186.63 1599.89,1185.53 1601.78,1185.44 
  1603.67,1184.37 1605.56,1187.18 1607.45,1187.24 1609.34,1184.94 1611.23,1185.25 1613.12,1185.2 1615.01,1182.93 1616.9,1181.43 1618.79,1184.7 1620.67,1184.17 
  1622.56,1182.89 1624.45,1182.87 1626.34,1181.91 1628.23,1182.37 1630.12,1181.86 1632.01,1180.97 1633.9,1182.27 1635.79,1183.59 1637.68,1183.66 1639.57,1186.62 
  1641.46,1186.93 1643.35,1187.25 1645.24,1188.63 1647.13,1184.88 1649.02,1187.98 1650.91,1186.71 1652.8,1186.96 1654.69,1187.92 1656.58,1188.7 1658.46,1189.13 
  1660.35,1187.06 1662.24,1189.3 1664.13,1192.33 1666.02,1190.35 1667.91,1189.98 1669.8,1192.72 1671.69,1194.02 1673.58,1195.03 1675.47,1195.21 1677.36,1193.63 
  1679.25,1193.74 1681.14,1194.44 1683.03,1195.17 1684.92,1191.06 1686.81,1190.82 1688.7,1188.63 1690.59,1188.52 1692.48,1191.2 1694.37,1191.08 1696.25,1190.13 
  1698.14,1190.34 1700.03,1189.41 1701.92,1190.45 1703.81,1191.35 1705.7,1193.25 1707.59,1196.82 1709.48,1196.14 1711.37,1197.01 1713.26,1197.71 1715.15,1194.42 
  1717.04,1193.53 1718.93,1195 1720.82,1195.16 1722.71,1194.1 1724.6,1195.53 1726.49,1194.78 1728.38,1192.92 1730.27,1194.84 1732.16,1194.67 1734.04,1194.59 
  1735.93,1194.96 1737.82,1196.26 1739.71,1197.02 1741.6,1194.84 1743.49,1194.31 1745.38,1194.55 1747.27,1194.65 1749.16,1194.14 1751.05,1196.44 1752.94,1197.3 
  1754.83,1199.94 1756.72,1198.62 1758.61,1198.78 1760.5,1196.62 1762.39,1196.66 1764.28,1196.3 1766.17,1195.86 1768.06,1194.55 1769.95,1196.81 1771.84,1196.54 
  1773.72,1193.79 1775.61,1194.8 1777.5,1195.89 1779.39,1195.67 1781.28,1196.71 1783.17,1196.57 1785.06,1197.28 1786.95,1197.44 1788.84,1197.15 1790.73,1194.02 
  1792.62,1192.97 1794.51,1192.59 1796.4,1193.01 1798.29,1193.94 1800.18,1194.25 1802.07,1193.98 1803.96,1196.53 1805.85,1197.9 1807.74,1196.56 1809.63,1196.16 
  1811.51,1195.67 1813.4,1193.57 1815.29,1191.03 1817.18,1191.73 1819.07,1192.47 1820.96,1195.53 1822.85,1196.92 1824.74,1196.45 1826.63,1197.78 1828.52,1198.2 
  1830.41,1197.57 1832.3,1196.65 1834.19,1198.18 1836.08,1199.31 1837.97,1198.79 1839.86,1196.48 1841.75,1196.57 1843.64,1196.02 1845.53,1196.7 1847.42,1196.61 
  1849.3,1199.04 1851.19,1199.48 1853.08,1200.32 1854.97,1198.06 1856.86,1197.49 1858.75,1196.21 1860.64,1195.7 1862.53,1196.91 1864.42,1197.41 1866.31,1198.26 
  1868.2,1198.89 1870.09,1199.99 1871.98,1198.21 1873.87,1198.87 1875.76,1197.35 1877.65,1196.5 1879.54,1197.65 1881.43,1198.6 1883.32,1196.6 1885.21,1196.44 
  1887.09,1198.44 1888.98,1199.28 1890.87,1198.74 1892.76,1198.31 1894.65,1198.02 1896.54,1198.46 1898.43,1196.72 1900.32,1198.15 1902.21,1200.5 1904.1,1202.6 
  1905.99,1199.03 1907.88,1196.56 1909.77,1194.93 1911.66,1197.83 1913.55,1197.43 1915.44,1197.09 1917.33,1194.8 1919.22,1194.52 1921.11,1193.53 1923,1192.66 
  1924.89,1193.5 1926.77,1192.22 1928.66,1192.29 1930.55,1190.61 1932.44,1190.22 1934.33,1188.74 1936.22,1187.5 1938.11,1189.5 1940,1189.52 1941.89,1189.85 
  1943.78,1189.98 1945.67,1190.01 1947.56,1190.19 1949.45,1188.48 1951.34,1186.22 1953.23,1186.17 1955.12,1187.39 1957.01,1189.26 1958.9,1187.56 1960.79,1187.56 
  1962.68,1189.39 1964.56,1187.97 1966.45,1189.78 1968.34,1189.11 1970.23,1186.57 1972.12,1183.96 1974.01,1183.8 1975.9,1187.55 1977.79,1188.59 1979.68,1186.56 
  1981.57,1184.75 1983.46,1186.15 1985.35,1188.35 1987.24,1189.04 1989.13,1193.13 1991.02,1192.18 1992.91,1195.22 1994.8,1196.88 1996.69,1198.05 1998.58,1197 
  2000.47,1197.5 2002.35,1197.14 2004.24,1198.6 2006.13,1200.49 2008.02,1199.24 2009.91,1200.14 2011.8,1200.69 2013.69,1202.88 2015.58,1204 2017.47,1203.63 
  2019.36,1201.7 2021.25,1203.22 2023.14,1201.3 2025.03,1200.24 2026.92,1199.34 2028.81,1198.26 2030.7,1198.84 2032.59,1197.57 2034.48,1195.58 2036.37,1194.52 
  2038.26,1191.8 2040.14,1191.48 2042.03,1191.47 2043.92,1194.48 2045.81,1198.42 2047.7,1194.98 2049.59,1194.33 2051.48,1195.29 2053.37,1193.25 2055.26,1193 
  2057.15,1195.84 2059.04,1192.77 2060.93,1193.57 2062.82,1192.62 2064.71,1192.41 2066.6,1190.84 2068.49,1187.64 2070.38,1189.39 2072.27,1191.07 2074.16,1191.2 
  2076.05,1193.21 2077.94,1193.96 2079.82,1193.78 2081.71,1193.54 2083.6,1192.43 2085.49,1192.22 2087.38,1193.35 2089.27,1194.37 2091.16,1194.23 2093.05,1191.46 
  2094.94,1190.74 2096.83,1189.92 2098.72,1191.46 2100.61,1191.52 2102.5,1189.72 2104.39,1188.31 2106.28,1187.35 2108.17,1189.61 2110.06,1188.2 2111.95,1185.66 
  2113.84,1185.16 2115.73,1182.82 2117.61,1182.5 2119.5,1183.24 2121.39,1184.41 2123.28,1187.42 2125.17,1187.91 2127.06,1190.97 2128.95,1189.8 2130.84,1189.87 
  2132.73,1190.43 2134.62,1192.52 2136.51,1191 2138.4,1189.7 2140.29,1190.91 2142.18,1190.9 2144.07,1191.71 2145.96,1190.93 2147.85,1193.15 2149.74,1193.69 
  2151.63,1195.17 2153.52,1196.32 2155.4,1197.11 2157.29,1197.52 2159.18,1199.87 2161.07,1202.98 2162.96,1204.85 2164.85,1204.48 2166.74,1204.12 2168.63,1202.96 
  
  "/>
<polyline clip-path="url(#clip5303)" style="stroke:#3da44d; stroke-width:4; stroke-opacity:1; fill:none" points="
  281.015,1268.96 282.904,1269.72 284.794,1270.68 286.683,1271.08 288.573,1272.6 290.462,1270.88 292.352,1269.78 294.241,1270.41 296.131,1270.25 298.02,1269.51 
  299.91,1268.65 301.799,1271.47 303.689,1273.08 305.578,1273.51 307.468,1274.04 309.357,1273.95 311.247,1273.1 313.136,1274.33 315.026,1274.2 316.915,1274.17 
  318.805,1273.65 320.694,1272.12 322.584,1272.9 324.473,1273.43 326.363,1274.36 328.252,1272.56 330.142,1272.13 332.031,1272.56 333.921,1273.24 335.81,1273.89 
  337.7,1273.64 339.589,1272.77 341.479,1274.02 343.368,1274.77 345.258,1274.62 347.147,1274.12 349.037,1273.36 350.926,1273.36 352.816,1272.25 354.705,1270.74 
  356.595,1269.89 358.484,1268.35 360.374,1268.78 362.263,1269.97 364.153,1269.91 366.042,1270.95 367.932,1270.26 369.821,1268.95 371.711,1266.86 373.6,1267.32 
  375.49,1266.49 377.379,1268.01 379.269,1268.23 381.158,1271.19 383.048,1272.06 384.938,1272.09 386.827,1272.14 388.717,1273.6 390.606,1272.27 392.496,1272.89 
  394.385,1272.99 396.275,1274.31 398.164,1275.46 400.054,1275.52 401.943,1274.6 403.833,1273.24 405.722,1272.87 407.612,1273.35 409.501,1272.28 411.391,1271.2 
  413.28,1272.3 415.17,1273.03 417.059,1273.38 418.949,1274.25 420.838,1274.01 422.728,1272.8 424.617,1273.21 426.507,1273.42 428.396,1274.23 430.286,1274.6 
  432.175,1275.4 434.065,1274.43 435.954,1276.26 437.844,1274.77 439.733,1275.45 441.623,1275.07 443.512,1274.36 445.402,1275.15 447.291,1273.67 449.181,1273.24 
  451.07,1273.23 452.96,1271.96 454.849,1271.64 456.739,1271.14 458.628,1270.85 460.518,1270.15 462.407,1270.25 464.297,1268.88 466.186,1270.05 468.076,1269.98 
  469.965,1270.46 471.855,1269.13 473.744,1267.96 475.634,1268.2 477.523,1266.96 479.413,1265.23 481.302,1264.94 483.192,1263.36 485.081,1265.05 486.971,1264.83 
  488.86,1264.56 490.75,1263.13 492.639,1262.64 494.529,1262.61 496.418,1263.03 498.308,1263.78 500.197,1263.52 502.087,1264.06 503.976,1261.49 505.866,1260.82 
  507.755,1263.84 509.645,1264.13 511.534,1262.21 513.424,1263.02 515.313,1260.98 517.203,1263.17 519.092,1260.32 520.982,1261.75 522.871,1261.48 524.761,1260.32 
  526.65,1258.86 528.54,1259.96 530.429,1260.13 532.319,1261.77 534.208,1262.86 536.098,1263.58 537.988,1264.58 539.877,1264.31 541.767,1263.53 543.656,1263.32 
  545.546,1264.43 547.435,1266.57 549.325,1267.23 551.214,1267.26 553.104,1267.52 554.993,1267.6 556.883,1267.04 558.772,1267.33 560.662,1266.4 562.551,1267.48 
  564.441,1268.07 566.33,1269.27 568.22,1269.41 570.109,1268.19 571.999,1265.78 573.888,1265.77 575.778,1265.21 577.667,1264.53 579.557,1267.62 581.446,1267.29 
  583.336,1266.75 585.225,1267.43 587.115,1267.46 589.004,1266.68 590.894,1267.59 592.783,1267.05 594.673,1266.14 596.562,1265.89 598.452,1265.91 600.341,1267.1 
  602.231,1266.08 604.12,1266.57 606.01,1267.87 607.899,1268.56 609.789,1267.59 611.678,1270.58 613.568,1270.16 615.457,1269.49 617.347,1267.79 619.236,1267.14 
  621.126,1265.7 623.015,1266.99 624.905,1264.91 626.794,1264.59 628.684,1264.75 630.573,1264.82 632.463,1264.31 634.352,1266.39 636.242,1266.3 638.131,1265.63 
  640.021,1267.19 641.91,1268.05 643.8,1267.69 645.689,1268.55 647.579,1268.57 649.468,1268.54 651.358,1269.01 653.247,1268.6 655.137,1267.08 657.026,1267.67 
  658.916,1267.62 660.805,1267.49 662.695,1267.04 664.584,1267.54 666.474,1268.6 668.363,1270.11 670.253,1269.9 672.142,1268.39 674.032,1269.45 675.921,1270.41 
  677.811,1270.41 679.7,1271.6 681.59,1272.84 683.479,1274.96 685.369,1273.65 687.258,1274.24 689.148,1275.49 691.038,1275.59 692.927,1275.05 694.817,1274.45 
  696.706,1273.66 698.596,1272.6 700.485,1270.93 702.375,1270.93 704.264,1273.21 706.154,1273.92 708.043,1273.72 709.933,1273.7 711.822,1275.69 713.712,1276 
  715.601,1276.01 717.491,1276.24 719.38,1278.22 721.27,1278.77 723.159,1280.22 725.049,1281.55 726.938,1282.08 728.828,1281.29 730.717,1281.13 732.607,1281.34 
  734.496,1280.99 736.386,1280.64 738.275,1280.36 740.165,1280.83 742.054,1279.16 743.944,1280.04 745.833,1280.53 747.723,1281.18 749.612,1281.74 751.502,1280.25 
  753.391,1280.4 755.281,1281.32 757.17,1280.83 759.06,1280.34 760.949,1280.06 762.839,1280.36 764.728,1280.88 766.618,1280.58 768.507,1279.38 770.397,1278.59 
  772.286,1278.76 774.176,1279.77 776.065,1277.68 777.955,1276.83 779.844,1274.4 781.734,1275.86 783.623,1276.77 785.513,1276.29 787.402,1276.58 789.292,1273.97 
  791.181,1273.84 793.071,1272.13 794.96,1273.83 796.85,1271.65 798.739,1270.17 800.629,1271.24 802.518,1271.37 804.408,1272.59 806.297,1272.05 808.187,1272.25 
  810.076,1272.44 811.966,1273.08 813.855,1274.99 815.745,1273.85 817.634,1274.39 819.524,1274.66 821.413,1274.44 823.303,1273.99 825.192,1274.81 827.082,1273.86 
  828.971,1274.69 830.861,1275.44 832.75,1276.88 834.64,1277.32 836.529,1276.81 838.419,1278.79 840.308,1279.44 842.198,1279.57 844.088,1280.17 845.977,1280.51 
  847.867,1278.86 849.756,1279.35 851.646,1279.63 853.535,1279.21 855.425,1278.28 857.314,1278.12 859.204,1277.99 861.093,1279.68 862.983,1280.77 864.872,1281.29 
  866.762,1282.01 868.651,1282.45 870.541,1283.66 872.43,1283.55 874.32,1283.56 876.209,1283.24 878.099,1283.24 879.988,1281.91 881.878,1282.38 883.767,1281.5 
  885.657,1281.33 887.546,1281.84 889.436,1282.67 891.325,1283.96 893.215,1283.97 895.104,1283.68 896.994,1282.96 898.883,1284.34 900.773,1283.76 902.662,1284.9 
  904.552,1285.76 906.441,1285.75 908.331,1286.05 910.22,1286.33 912.11,1287.64 913.999,1286.61 915.889,1288.85 917.778,1289.14 919.668,1290.21 921.557,1290.16 
  923.447,1290.19 925.336,1289.94 927.226,1289.88 929.115,1288.65 931.005,1288.19 932.894,1287.52 934.784,1287.52 936.673,1286.53 938.563,1285.3 940.452,1285.28 
  942.342,1285.03 944.231,1285.33 946.121,1286.48 948.01,1285.44 949.9,1284.68 951.789,1283.36 953.679,1284.94 955.568,1285.12 957.458,1286.46 959.347,1285.41 
  961.237,1288.05 963.126,1289.32 965.016,1287.6 966.905,1287.04 968.795,1287.85 970.684,1286.49 972.574,1286.2 974.463,1285.58 976.353,1285.2 978.242,1283.93 
  980.132,1283.83 982.021,1283.37 983.911,1283.29 985.8,1283.29 987.69,1284.18 989.579,1283.84 991.469,1284.78 993.358,1282.81 995.248,1283.6 997.138,1282.23 
  999.027,1281.49 1000.92,1281.25 1002.81,1281.65 1004.7,1281.5 1006.59,1281.75 1008.47,1282.73 1010.36,1283.26 1012.25,1282.3 1014.14,1282.4 1016.03,1282.55 
  1017.92,1283.39 1019.81,1283.62 1021.7,1284.34 1023.59,1283.52 1025.48,1283.53 1027.37,1284.87 1029.26,1285.35 1031.15,1284.96 1033.04,1285.97 1034.93,1286.26 
  1036.82,1284.86 1038.71,1283.9 1040.6,1284.01 1042.49,1282.65 1044.38,1282.49 1046.26,1281.28 1048.15,1280.2 1050.04,1280.42 1051.93,1281.61 1053.82,1281.45 
  1055.71,1282.06 1057.6,1283.19 1059.49,1284.27 1061.38,1284.09 1063.27,1283.83 1065.16,1282.73 1067.05,1282.08 1068.94,1283.77 1070.83,1282.69 1072.72,1281.85 
  1074.61,1284.01 1076.5,1283.84 1078.39,1284.41 1080.28,1285.15 1082.17,1283.99 1084.05,1284.72 1085.94,1286.36 1087.83,1286.71 1089.72,1288.73 1091.61,1288.96 
  1093.5,1289.25 1095.39,1287.89 1097.28,1288.42 1099.17,1289.91 1101.06,1291.34 1102.95,1291.84 1104.84,1292.41 1106.73,1292.65 1108.62,1292.34 1110.51,1294.37 
  1112.4,1294.99 1114.29,1295.32 1116.18,1294.19 1118.07,1294.52 1119.96,1296 1121.84,1296.23 1123.73,1295.29 1125.62,1296.69 1127.51,1298.29 1129.4,1298.12 
  1131.29,1297.85 1133.18,1296.55 1135.07,1296.13 1136.96,1295.34 1138.85,1295.99 1140.74,1296.92 1142.63,1297.17 1144.52,1297.71 1146.41,1298.53 1148.3,1297.09 
  1150.19,1296.92 1152.08,1297.65 1153.97,1297.43 1155.86,1298.88 1157.75,1298.13 1159.64,1296.87 1161.52,1296.83 1163.41,1295.46 1165.3,1298.07 1167.19,1298.01 
  1169.08,1297.1 1170.97,1297.26 1172.86,1297.28 1174.75,1295.54 1176.64,1295.53 1178.53,1296.42 1180.42,1298.36 1182.31,1298.35 1184.2,1297.15 1186.09,1297.11 
  1187.98,1297.99 1189.87,1297.1 1191.76,1295.94 1193.65,1295.4 1195.54,1295.11 1197.43,1293.82 1199.31,1295.86 1201.2,1294.97 1203.09,1295.79 1204.98,1295.29 
  1206.87,1295.84 1208.76,1295.03 1210.65,1294.69 1212.54,1294.67 1214.43,1294.73 1216.32,1296.71 1218.21,1296.11 1220.1,1295.71 1221.99,1294.58 1223.88,1293.15 
  1225.77,1293.81 1227.66,1293.25 1229.55,1291.97 1231.44,1292.86 1233.33,1293.05 1235.22,1293.02 1237.1,1292.99 1238.99,1293.12 1240.88,1291.83 1242.77,1291.84 
  1244.66,1292.69 1246.55,1293.87 1248.44,1294.88 1250.33,1294.78 1252.22,1295.13 1254.11,1296.79 1256,1296.78 1257.89,1297.84 1259.78,1298.82 1261.67,1298.59 
  1263.56,1297.54 1265.45,1297.79 1267.34,1297.26 1269.23,1297.98 1271.12,1297.16 1273.01,1297.57 1274.89,1296.85 1276.78,1295.16 1278.67,1295.24 1280.56,1295.69 
  1282.45,1295.73 1284.34,1298.52 1286.23,1298.85 1288.12,1299.26 1290.01,1298.44 1291.9,1300.07 1293.79,1301.13 1295.68,1299.5 1297.57,1300.54 1299.46,1301.22 
  1301.35,1299.48 1303.24,1299.19 1305.13,1298.77 1307.02,1298.91 1308.91,1297.97 1310.8,1298.9 1312.69,1298.44 1314.57,1299.12 1316.46,1299.91 1318.35,1301.22 
  1320.24,1300.95 1322.13,1300.27 1324.02,1299.93 1325.91,1299.98 1327.8,1299.4 1329.69,1299.23 1331.58,1299.51 1333.47,1299.6 1335.36,1300.36 1337.25,1300.79 
  1339.14,1300.52 1341.03,1300.09 1342.92,1300.34 1344.81,1300.49 1346.7,1300.98 1348.59,1302.07 1350.48,1301.81 1352.36,1302.95 1354.25,1301.92 1356.14,1302.68 
  1358.03,1301.23 1359.92,1301.33 1361.81,1301.21 1363.7,1301.27 1365.59,1302.19 1367.48,1302.68 1369.37,1302.31 1371.26,1301.99 1373.15,1300.5 1375.04,1299.45 
  1376.93,1299.84 1378.82,1300.13 1380.71,1299.46 1382.6,1298.68 1384.49,1298.76 1386.38,1299.47 1388.27,1299.56 1390.15,1300.62 1392.04,1299.87 1393.93,1298.99 
  1395.82,1298.27 1397.71,1299.03 1399.6,1298.13 1401.49,1298.13 1403.38,1297.58 1405.27,1297.76 1407.16,1298.81 1409.05,1297.61 1410.94,1297.77 1412.83,1298.98 
  1414.72,1297.6 1416.61,1298.58 1418.5,1299.22 1420.39,1300 1422.28,1299.31 1424.17,1299.11 1426.06,1299.44 1427.94,1300.14 1429.83,1301.04 1431.72,1300.83 
  1433.61,1301.57 1435.5,1302.21 1437.39,1302.11 1439.28,1302.51 1441.17,1302.83 1443.06,1301.96 1444.95,1301.57 1446.84,1301.75 1448.73,1302.92 1450.62,1303.27 
  1452.51,1303.65 1454.4,1303.21 1456.29,1303.61 1458.18,1303.88 1460.07,1303.34 1461.96,1304.73 1463.85,1304.91 1465.74,1304.85 1467.62,1305.09 1469.51,1304.44 
  1471.4,1303.4 1473.29,1303.29 1475.18,1302.5 1477.07,1301.99 1478.96,1301.9 1480.85,1302.63 1482.74,1302.83 1484.63,1303.4 1486.52,1303.18 1488.41,1304.38 
  1490.3,1304.21 1492.19,1303.85 1494.08,1304.72 1495.97,1303.21 1497.86,1303.57 1499.75,1302.81 1501.64,1303.65 1503.53,1302.85 1505.41,1302.19 1507.3,1302.21 
  1509.19,1302.67 1511.08,1302.86 1512.97,1302.61 1514.86,1302.05 1516.75,1301.07 1518.64,1301.54 1520.53,1300.88 1522.42,1299.55 1524.31,1299.27 1526.2,1299.55 
  1528.09,1299.43 1529.98,1300.76 1531.87,1300.08 1533.76,1300.7 1535.65,1300.35 1537.54,1301.39 1539.43,1300.15 1541.32,1301.21 1543.2,1301.43 1545.09,1301.97 
  1546.98,1301.32 1548.87,1301.7 1550.76,1303.26 1552.65,1302.81 1554.54,1303.74 1556.43,1304.29 1558.32,1305.31 1560.21,1305.07 1562.1,1305.31 1563.99,1304.23 
  1565.88,1303.67 1567.77,1303.86 1569.66,1303.76 1571.55,1303.82 1573.44,1302.28 1575.33,1301.7 1577.22,1301.53 1579.11,1301.9 1580.99,1301.89 1582.88,1301.89 
  1584.77,1301.23 1586.66,1301.96 1588.55,1303.28 1590.44,1302.98 1592.33,1301.69 1594.22,1300.93 1596.11,1301.34 1598,1301.4 1599.89,1301.53 1601.78,1301.23 
  1603.67,1302 1605.56,1302.05 1607.45,1300.13 1609.34,1299.48 1611.23,1300.37 1613.12,1301.37 1615.01,1300.41 1616.9,1299.18 1618.79,1301.11 1620.67,1301.98 
  1622.56,1301.13 1624.45,1301.57 1626.34,1303.12 1628.23,1303.32 1630.12,1304.48 1632.01,1303.84 1633.9,1302.85 1635.79,1302.75 1637.68,1303.59 1639.57,1302.65 
  1641.46,1302.66 1643.35,1300.93 1645.24,1300.15 1647.13,1300.54 1649.02,1302.01 1650.91,1302.39 1652.8,1302.88 1654.69,1304.33 1656.58,1304.14 1658.46,1304.82 
  1660.35,1304.43 1662.24,1305.81 1664.13,1305.94 1666.02,1305.06 1667.91,1305.31 1669.8,1305.65 1671.69,1305.09 1673.58,1305.18 1675.47,1305.11 1677.36,1306.66 
  1679.25,1304.47 1681.14,1304.44 1683.03,1305.05 1684.92,1305.46 1686.81,1305.6 1688.7,1306.31 1690.59,1306.79 1692.48,1305.88 1694.37,1306.19 1696.25,1305.75 
  1698.14,1305.09 1700.03,1305.2 1701.92,1304.97 1703.81,1303.94 1705.7,1304.33 1707.59,1303.92 1709.48,1305.66 1711.37,1306.45 1713.26,1306.28 1715.15,1306 
  1717.04,1304.57 1718.93,1304.82 1720.82,1304.98 1722.71,1303.78 1724.6,1302.69 1726.49,1303.81 1728.38,1305.21 1730.27,1306.1 1732.16,1306.65 1734.04,1306.92 
  1735.93,1306.1 1737.82,1305.11 1739.71,1305.54 1741.6,1304.26 1743.49,1305.23 1745.38,1305.49 1747.27,1306.51 1749.16,1307.18 1751.05,1307.08 1752.94,1309.11 
  1754.83,1308.84 1756.72,1310.05 1758.61,1310.34 1760.5,1309.73 1762.39,1309.57 1764.28,1308.41 1766.17,1309.14 1768.06,1308.38 1769.95,1308.78 1771.84,1308.71 
  1773.72,1309.65 1775.61,1309.91 1777.5,1309.86 1779.39,1309.12 1781.28,1309.42 1783.17,1309.6 1785.06,1310.19 1786.95,1309.89 1788.84,1308.45 1790.73,1308.86 
  1792.62,1309.18 1794.51,1309.78 1796.4,1310.97 1798.29,1310.79 1800.18,1309.34 1802.07,1308.88 1803.96,1308.29 1805.85,1307.71 1807.74,1307.7 1809.63,1307.54 
  1811.51,1308.31 1813.4,1308.34 1815.29,1308.42 1817.18,1310.58 1819.07,1310.8 1820.96,1311.3 1822.85,1311.68 1824.74,1311.77 1826.63,1311.74 1828.52,1311.16 
  1830.41,1310.64 1832.3,1310.55 1834.19,1311.55 1836.08,1311.37 1837.97,1311.03 1839.86,1309.64 1841.75,1309.64 1843.64,1309.45 1845.53,1310.02 1847.42,1310.51 
  1849.3,1310.85 1851.19,1310.27 1853.08,1309.42 1854.97,1310.03 1856.86,1310.15 1858.75,1310.49 1860.64,1310.46 1862.53,1310.89 1864.42,1312.02 1866.31,1312.33 
  1868.2,1311.18 1870.09,1312.65 1871.98,1312.1 1873.87,1312.49 1875.76,1312.12 1877.65,1312 1879.54,1311.87 1881.43,1310.88 1883.32,1310.93 1885.21,1310.95 
  1887.09,1310.82 1888.98,1311.6 1890.87,1311.14 1892.76,1309.84 1894.65,1310.08 1896.54,1310.49 1898.43,1310.62 1900.32,1311.47 1902.21,1310.64 1904.1,1309.45 
  1905.99,1308.39 1907.88,1308.29 1909.77,1308.34 1911.66,1308.51 1913.55,1308.26 1915.44,1308.26 1917.33,1308.43 1919.22,1308.88 1921.11,1308.08 1923,1308.17 
  1924.89,1309.55 1926.77,1309.08 1928.66,1308.69 1930.55,1309.85 1932.44,1308.92 1934.33,1308.57 1936.22,1308.18 1938.11,1307.9 1940,1307.37 1941.89,1308.52 
  1943.78,1308.98 1945.67,1308.24 1947.56,1307.75 1949.45,1308.18 1951.34,1308.46 1953.23,1310.12 1955.12,1310.18 1957.01,1310.25 1958.9,1311.65 1960.79,1312.93 
  1962.68,1313.61 1964.56,1313.4 1966.45,1312.81 1968.34,1311.32 1970.23,1312.65 1972.12,1311.76 1974.01,1311.43 1975.9,1311.13 1977.79,1312.08 1979.68,1312.64 
  1981.57,1312.51 1983.46,1313.43 1985.35,1312.99 1987.24,1312.85 1989.13,1312.98 1991.02,1313.92 1992.91,1314.55 1994.8,1314.92 1996.69,1314.79 1998.58,1315.33 
  2000.47,1315.38 2002.35,1314.83 2004.24,1315.12 2006.13,1314.42 2008.02,1314.05 2009.91,1312.5 2011.8,1311.72 2013.69,1311.14 2015.58,1309.77 2017.47,1309.78 
  2019.36,1309.48 2021.25,1308.78 2023.14,1308.24 2025.03,1308.27 2026.92,1308.24 2028.81,1308.79 2030.7,1307.56 2032.59,1306.65 2034.48,1305.78 2036.37,1305.81 
  2038.26,1306.71 2040.14,1305.63 2042.03,1304.06 2043.92,1304.53 2045.81,1304.41 2047.7,1304.27 2049.59,1303.39 2051.48,1303.07 2053.37,1303.78 2055.26,1302.96 
  2057.15,1303.53 2059.04,1304.39 2060.93,1306.69 2062.82,1307.49 2064.71,1308.94 2066.6,1310.06 2068.49,1309.43 2070.38,1310.05 2072.27,1309.71 2074.16,1310.03 
  2076.05,1310.44 2077.94,1310.15 2079.82,1310.44 2081.71,1310.53 2083.6,1310.01 2085.49,1310.29 2087.38,1310.74 2089.27,1311.26 2091.16,1312.05 2093.05,1311.33 
  2094.94,1311.5 2096.83,1310.93 2098.72,1310.76 2100.61,1310.86 2102.5,1310.47 2104.39,1309.9 2106.28,1309.4 2108.17,1308.93 2110.06,1309.01 2111.95,1307.8 
  2113.84,1309.77 2115.73,1309.72 2117.61,1310.54 2119.5,1310.06 2121.39,1309.21 2123.28,1308.73 2125.17,1309.1 2127.06,1308.9 2128.95,1307.93 2130.84,1308.44 
  2132.73,1309.34 2134.62,1309.72 2136.51,1309.26 2138.4,1308.78 2140.29,1308.38 2142.18,1309.05 2144.07,1309.24 2145.96,1310.18 2147.85,1309.94 2149.74,1311.03 
  2151.63,1310.27 2153.52,1310.22 2155.4,1310.06 2157.29,1311.25 2159.18,1311.79 2161.07,1310.72 2162.96,1310.54 2164.85,1310.5 2166.74,1310.69 2168.63,1309.49 
  
  "/>
<polygon clip-path="url(#clip5301)" points="
1802.66,366.924 2156.14,366.924 2156.14,125.004 1802.66,125.004 
  " fill="#ffffff" fill-rule="evenodd" fill-opacity="1"/>
<polyline clip-path="url(#clip5301)" style="stroke:#000000; stroke-width:4; stroke-opacity:1; fill:none" points="
  1802.66,366.924 2156.14,366.924 2156.14,125.004 1802.66,125.004 1802.66,366.924 
  "/>
<polyline clip-path="url(#clip5301)" style="stroke:#009af9; stroke-width:4; stroke-opacity:1; fill:none" points="
  1825.7,185.484 1963.94,185.484 
  "/>
<g clip-path="url(#clip5301)">
<text style="fill:#000000; fill-opacity:1; font-family:Arial,Helvetica Neue,Helvetica,sans-serif; font-size:48px; text-anchor:start;" transform="rotate(0, 1986.98, 202.984)" x="1986.98" y="202.984">T[1,1]</text>
</g>
<polyline clip-path="url(#clip5301)" style="stroke:#e26f46; stroke-width:4; stroke-opacity:1; fill:none" points="
  1825.7,245.964 1963.94,245.964 
  "/>
<g clip-path="url(#clip5301)">
<text style="fill:#000000; fill-opacity:1; font-family:Arial,Helvetica Neue,Helvetica,sans-serif; font-size:48px; text-anchor:start;" transform="rotate(0, 1986.98, 263.464)" x="1986.98" y="263.464">T[2,2]</text>
</g>
<polyline clip-path="url(#clip5301)" style="stroke:#3da44d; stroke-width:4; stroke-opacity:1; fill:none" points="
  1825.7,306.444 1963.94,306.444 
  "/>
<g clip-path="url(#clip5301)">
<text style="fill:#000000; fill-opacity:1; font-family:Arial,Helvetica Neue,Helvetica,sans-serif; font-size:48px; text-anchor:start;" transform="rotate(0, 1986.98, 323.944)" x="1986.98" y="323.944">T[3,3]</text>
</g>
</svg>
