<?xml version="1.0" encoding="utf-8"?>
<svg xmlns="http://www.w3.org/2000/svg" xmlns:xlink="http://www.w3.org/1999/xlink" width="576" height="384" viewBox="0 0 2304 1536">
<defs>
  <clipPath id="clip8900">
    <rect x="0" y="0" width="2000" height="2000"/>
  </clipPath>
</defs>
<defs>
  <clipPath id="clip8901">
    <rect x="0" y="0" width="2304" height="1536"/>
  </clipPath>
</defs>
<polygon clip-path="url(#clip8901)" points="
0,1536 2304,1536 2304,0 0,0 
  " fill="#ffffff" fill-rule="evenodd" fill-opacity="1"/>
<defs>
  <clipPath id="clip8902">
    <rect x="460" y="0" width="1614" height="1536"/>
  </clipPath>
</defs>
<polygon clip-path="url(#clip8901)" points="
149.361,1439.47 2225.26,1439.47 2225.26,125.984 149.361,125.984 
  " fill="#ffffff" fill-rule="evenodd" fill-opacity="1"/>
<defs>
  <clipPath id="clip8903">
    <rect x="149" y="125" width="2077" height="1314"/>
  </clipPath>
</defs>
<polyline clip-path="url(#clip8903)" style="stroke:#000000; stroke-width:2; stroke-opacity:0.1; fill:none" points="
  489.688,1439.47 489.688,125.984 
  "/>
<polyline clip-path="url(#clip8903)" style="stroke:#000000; stroke-width:2; stroke-opacity:0.1; fill:none" points="
  1037.59,1439.47 1037.59,125.984 
  "/>
<polyline clip-path="url(#clip8903)" style="stroke:#000000; stroke-width:2; stroke-opacity:0.1; fill:none" points="
  1585.5,1439.47 1585.5,125.984 
  "/>
<polyline clip-path="url(#clip8903)" style="stroke:#000000; stroke-width:2; stroke-opacity:0.1; fill:none" points="
  2133.4,1439.47 2133.4,125.984 
  "/>
<polyline clip-path="url(#clip8903)" style="stroke:#000000; stroke-width:2; stroke-opacity:0.1; fill:none" points="
  149.361,1399.14 2225.26,1399.14 
  "/>
<polyline clip-path="url(#clip8903)" style="stroke:#000000; stroke-width:2; stroke-opacity:0.1; fill:none" points="
  149.361,1079 2225.26,1079 
  "/>
<polyline clip-path="url(#clip8903)" style="stroke:#000000; stroke-width:2; stroke-opacity:0.1; fill:none" points="
  149.361,758.862 2225.26,758.862 
  "/>
<polyline clip-path="url(#clip8903)" style="stroke:#000000; stroke-width:2; stroke-opacity:0.1; fill:none" points="
  149.361,438.722 2225.26,438.722 
  "/>
<polyline clip-path="url(#clip8901)" style="stroke:#000000; stroke-width:4; stroke-opacity:1; fill:none" points="
  149.361,1439.47 2225.26,1439.47 
  "/>
<polyline clip-path="url(#clip8901)" style="stroke:#000000; stroke-width:4; stroke-opacity:1; fill:none" points="
  149.361,1439.47 149.361,125.984 
  "/>
<polyline clip-path="url(#clip8901)" style="stroke:#000000; stroke-width:4; stroke-opacity:1; fill:none" points="
  489.688,1439.47 489.688,1419.77 
  "/>
<polyline clip-path="url(#clip8901)" style="stroke:#000000; stroke-width:4; stroke-opacity:1; fill:none" points="
  1037.59,1439.47 1037.59,1419.77 
  "/>
<polyline clip-path="url(#clip8901)" style="stroke:#000000; stroke-width:4; stroke-opacity:1; fill:none" points="
  1585.5,1439.47 1585.5,1419.77 
  "/>
<polyline clip-path="url(#clip8901)" style="stroke:#000000; stroke-width:4; stroke-opacity:1; fill:none" points="
  2133.4,1439.47 2133.4,1419.77 
  "/>
<polyline clip-path="url(#clip8901)" style="stroke:#000000; stroke-width:4; stroke-opacity:1; fill:none" points="
  149.361,1399.14 180.499,1399.14 
  "/>
<polyline clip-path="url(#clip8901)" style="stroke:#000000; stroke-width:4; stroke-opacity:1; fill:none" points="
  149.361,1079 180.499,1079 
  "/>
<polyline clip-path="url(#clip8901)" style="stroke:#000000; stroke-width:4; stroke-opacity:1; fill:none" points="
  149.361,758.862 180.499,758.862 
  "/>
<polyline clip-path="url(#clip8901)" style="stroke:#000000; stroke-width:4; stroke-opacity:1; fill:none" points="
  149.361,438.722 180.499,438.722 
  "/>
<g clip-path="url(#clip8901)">
<text style="fill:#000000; fill-opacity:1; font-family:Arial,Helvetica Neue,Helvetica,sans-serif; font-size:48px; text-anchor:middle;" transform="rotate(0, 489.688, 1492.99)" x="489.688" y="1492.99">-4</text>
</g>
<g clip-path="url(#clip8901)">
<text style="fill:#000000; fill-opacity:1; font-family:Arial,Helvetica Neue,Helvetica,sans-serif; font-size:48px; text-anchor:middle;" transform="rotate(0, 1037.59, 1492.99)" x="1037.59" y="1492.99">-2</text>
</g>
<g clip-path="url(#clip8901)">
<text style="fill:#000000; fill-opacity:1; font-family:Arial,Helvetica Neue,Helvetica,sans-serif; font-size:48px; text-anchor:middle;" transform="rotate(0, 1585.5, 1492.99)" x="1585.5" y="1492.99">0</text>
</g>
<g clip-path="url(#clip8901)">
<text style="fill:#000000; fill-opacity:1; font-family:Arial,Helvetica Neue,Helvetica,sans-serif; font-size:48px; text-anchor:middle;" transform="rotate(0, 2133.4, 1492.99)" x="2133.4" y="1492.99">2</text>
</g>
<g clip-path="url(#clip8901)">
<text style="fill:#000000; fill-opacity:1; font-family:Arial,Helvetica Neue,Helvetica,sans-serif; font-size:48px; text-anchor:end;" transform="rotate(0, 126.321, 1416.64)" x="126.321" y="1416.64">-6</text>
</g>
<g clip-path="url(#clip8901)">
<text style="fill:#000000; fill-opacity:1; font-family:Arial,Helvetica Neue,Helvetica,sans-serif; font-size:48px; text-anchor:end;" transform="rotate(0, 126.321, 1096.5)" x="126.321" y="1096.5">-4</text>
</g>
<g clip-path="url(#clip8901)">
<text style="fill:#000000; fill-opacity:1; font-family:Arial,Helvetica Neue,Helvetica,sans-serif; font-size:48px; text-anchor:end;" transform="rotate(0, 126.321, 776.362)" x="126.321" y="776.362">-2</text>
</g>
<g clip-path="url(#clip8901)">
<text style="fill:#000000; fill-opacity:1; font-family:Arial,Helvetica Neue,Helvetica,sans-serif; font-size:48px; text-anchor:end;" transform="rotate(0, 126.321, 456.222)" x="126.321" y="456.222">0</text>
</g>
<g clip-path="url(#clip8901)">
<text style="fill:#000000; fill-opacity:1; font-family:Arial,Helvetica Neue,Helvetica,sans-serif; font-size:84px; text-anchor:middle;" transform="rotate(0, 1187.31, 73.2)" x="1187.31" y="73.2">Assignments on Synthetic Dataset</text>
</g>
<circle clip-path="url(#clip8903)" style="fill:#000000; stroke:none; fill-opacity:1" cx="953.093" cy="1402.3" r="18"/>
<circle clip-path="url(#clip8903)" style="fill:#0b0723; stroke:none; fill-opacity:1" cx="953.093" cy="1402.3" r="14"/>
<circle clip-path="url(#clip8903)" style="fill:#000000; stroke:none; fill-opacity:1" cx="1195.06" cy="1154.75" r="18"/>
<circle clip-path="url(#clip8903)" style="fill:#0b0723; stroke:none; fill-opacity:1" cx="1195.06" cy="1154.75" r="14"/>
<circle clip-path="url(#clip8903)" style="fill:#000000; stroke:none; fill-opacity:1" cx="598.829" cy="1245.88" r="18"/>
<circle clip-path="url(#clip8903)" style="fill:#010108; stroke:none; fill-opacity:1" cx="598.829" cy="1245.88" r="14"/>
<circle clip-path="url(#clip8903)" style="fill:#000000; stroke:none; fill-opacity:1" cx="654.276" cy="999.283" r="18"/>
<circle clip-path="url(#clip8903)" style="fill:#10092f; stroke:none; fill-opacity:1" cx="654.276" cy="999.283" r="14"/>
<circle clip-path="url(#clip8903)" style="fill:#000000; stroke:none; fill-opacity:1" cx="903.024" cy="863.832" r="18"/>
<circle clip-path="url(#clip8903)" style="fill:#10092f; stroke:none; fill-opacity:1" cx="903.024" cy="863.832" r="14"/>
<circle clip-path="url(#clip8903)" style="fill:#000000; stroke:none; fill-opacity:1" cx="943.921" cy="1075.03" r="18"/>
<circle clip-path="url(#clip8903)" style="fill:#10092f; stroke:none; fill-opacity:1" cx="943.921" cy="1075.03" r="14"/>
<circle clip-path="url(#clip8903)" style="fill:#000000; stroke:none; fill-opacity:1" cx="559.652" cy="987.462" r="18"/>
<circle clip-path="url(#clip8903)" style="fill:#0b0723; stroke:none; fill-opacity:1" cx="559.652" cy="987.462" r="14"/>
<circle clip-path="url(#clip8903)" style="fill:#000000; stroke:none; fill-opacity:1" cx="486.178" cy="1251.92" r="18"/>
<circle clip-path="url(#clip8903)" style="fill:#010108; stroke:none; fill-opacity:1" cx="486.178" cy="1251.92" r="14"/>
<circle clip-path="url(#clip8903)" style="fill:#000000; stroke:none; fill-opacity:1" cx="766.834" cy="1112.18" r="18"/>
<circle clip-path="url(#clip8903)" style="fill:#0b0723; stroke:none; fill-opacity:1" cx="766.834" cy="1112.18" r="14"/>
<circle clip-path="url(#clip8903)" style="fill:#000000; stroke:none; fill-opacity:1" cx="307.209" cy="1068.18" r="18"/>
<circle clip-path="url(#clip8903)" style="fill:#10092f; stroke:none; fill-opacity:1" cx="307.209" cy="1068.18" r="14"/>
<circle clip-path="url(#clip8903)" style="fill:#000000; stroke:none; fill-opacity:1" cx="432.444" cy="1032.33" r="18"/>
<circle clip-path="url(#clip8903)" style="fill:#10092f; stroke:none; fill-opacity:1" cx="432.444" cy="1032.33" r="14"/>
<circle clip-path="url(#clip8903)" style="fill:#000000; stroke:none; fill-opacity:1" cx="422.287" cy="942.258" r="18"/>
<circle clip-path="url(#clip8903)" style="fill:#0b0723; stroke:none; fill-opacity:1" cx="422.287" cy="942.258" r="14"/>
<circle clip-path="url(#clip8903)" style="fill:#000000; stroke:none; fill-opacity:1" cx="538.898" cy="779.028" r="18"/>
<circle clip-path="url(#clip8903)" style="fill:#0b0723; stroke:none; fill-opacity:1" cx="538.898" cy="779.028" r="14"/>
<circle clip-path="url(#clip8903)" style="fill:#000000; stroke:none; fill-opacity:1" cx="720.493" cy="1094.3" r="18"/>
<circle clip-path="url(#clip8903)" style="fill:#10092f; stroke:none; fill-opacity:1" cx="720.493" cy="1094.3" r="14"/>
<circle clip-path="url(#clip8903)" style="fill:#000000; stroke:none; fill-opacity:1" cx="794.58" cy="899.396" r="18"/>
<circle clip-path="url(#clip8903)" style="fill:#1a0b40; stroke:none; fill-opacity:1" cx="794.58" cy="899.396" r="14"/>
<circle clip-path="url(#clip8903)" style="fill:#000000; stroke:none; fill-opacity:1" cx="426.975" cy="897.57" r="18"/>
<circle clip-path="url(#clip8903)" style="fill:#0b0723; stroke:none; fill-opacity:1" cx="426.975" cy="897.57" r="14"/>
<circle clip-path="url(#clip8903)" style="fill:#000000; stroke:none; fill-opacity:1" cx="814.987" cy="1020.59" r="18"/>
<circle clip-path="url(#clip8903)" style="fill:#10092f; stroke:none; fill-opacity:1" cx="814.987" cy="1020.59" r="14"/>
<circle clip-path="url(#clip8903)" style="fill:#000000; stroke:none; fill-opacity:1" cx="761.674" cy="973.882" r="18"/>
<circle clip-path="url(#clip8903)" style="fill:#0b0723; stroke:none; fill-opacity:1" cx="761.674" cy="973.882" r="14"/>
<circle clip-path="url(#clip8903)" style="fill:#000000; stroke:none; fill-opacity:1" cx="966.249" cy="1192.72" r="18"/>
<circle clip-path="url(#clip8903)" style="fill:#02020d; stroke:none; fill-opacity:1" cx="966.249" cy="1192.72" r="14"/>
<circle clip-path="url(#clip8903)" style="fill:#000000; stroke:none; fill-opacity:1" cx="540.598" cy="881.497" r="18"/>
<circle clip-path="url(#clip8903)" style="fill:#10092f; stroke:none; fill-opacity:1" cx="540.598" cy="881.497" r="14"/>
<circle clip-path="url(#clip8903)" style="fill:#000000; stroke:none; fill-opacity:1" cx="208.112" cy="795.559" r="18"/>
<circle clip-path="url(#clip8903)" style="fill:#02020d; stroke:none; fill-opacity:1" cx="208.112" cy="795.559" r="14"/>
<circle clip-path="url(#clip8903)" style="fill:#000000; stroke:none; fill-opacity:1" cx="704.061" cy="1097.25" r="18"/>
<circle clip-path="url(#clip8903)" style="fill:#000003; stroke:none; fill-opacity:1" cx="704.061" cy="1097.25" r="14"/>
<circle clip-path="url(#clip8903)" style="fill:#000000; stroke:none; fill-opacity:1" cx="1047.45" cy="1175.43" r="18"/>
<circle clip-path="url(#clip8903)" style="fill:#000003; stroke:none; fill-opacity:1" cx="1047.45" cy="1175.43" r="14"/>
<circle clip-path="url(#clip8903)" style="fill:#000000; stroke:none; fill-opacity:1" cx="428.992" cy="1076.47" r="18"/>
<circle clip-path="url(#clip8903)" style="fill:#02020d; stroke:none; fill-opacity:1" cx="428.992" cy="1076.47" r="14"/>
<circle clip-path="url(#clip8903)" style="fill:#000000; stroke:none; fill-opacity:1" cx="922.233" cy="965.528" r="18"/>
<circle clip-path="url(#clip8903)" style="fill:#030212; stroke:none; fill-opacity:1" cx="922.233" cy="965.528" r="14"/>
<circle clip-path="url(#clip8903)" style="fill:#000000; stroke:none; fill-opacity:1" cx="438.755" cy="1040.64" r="18"/>
<circle clip-path="url(#clip8903)" style="fill:#02020d; stroke:none; fill-opacity:1" cx="438.755" cy="1040.64" r="14"/>
<circle clip-path="url(#clip8903)" style="fill:#000000; stroke:none; fill-opacity:1" cx="511.101" cy="1139.54" r="18"/>
<circle clip-path="url(#clip8903)" style="fill:#02020d; stroke:none; fill-opacity:1" cx="511.101" cy="1139.54" r="14"/>
<circle clip-path="url(#clip8903)" style="fill:#000000; stroke:none; fill-opacity:1" cx="827.928" cy="764.011" r="18"/>
<circle clip-path="url(#clip8903)" style="fill:#0b0723; stroke:none; fill-opacity:1" cx="827.928" cy="764.011" r="14"/>
<circle clip-path="url(#clip8903)" style="fill:#000000; stroke:none; fill-opacity:1" cx="538.614" cy="1076.23" r="18"/>
<circle clip-path="url(#clip8903)" style="fill:#000003; stroke:none; fill-opacity:1" cx="538.614" cy="1076.23" r="14"/>
<circle clip-path="url(#clip8903)" style="fill:#000000; stroke:none; fill-opacity:1" cx="478.637" cy="876.647" r="18"/>
<circle clip-path="url(#clip8903)" style="fill:#02020d; stroke:none; fill-opacity:1" cx="478.637" cy="876.647" r="14"/>
<circle clip-path="url(#clip8903)" style="fill:#000000; stroke:none; fill-opacity:1" cx="1684.37" cy="605.119" r="18"/>
<circle clip-path="url(#clip8903)" style="fill:#fcfea4; stroke:none; fill-opacity:1" cx="1684.37" cy="605.119" r="14"/>
<circle clip-path="url(#clip8903)" style="fill:#000000; stroke:none; fill-opacity:1" cx="1475.56" cy="243.256" r="18"/>
<circle clip-path="url(#clip8903)" style="fill:#fcfea4; stroke:none; fill-opacity:1" cx="1475.56" cy="243.256" r="14"/>
<circle clip-path="url(#clip8903)" style="fill:#000000; stroke:none; fill-opacity:1" cx="1371.53" cy="350.971" r="18"/>
<circle clip-path="url(#clip8903)" style="fill:#f6f88f; stroke:none; fill-opacity:1" cx="1371.53" cy="350.971" r="14"/>
<circle clip-path="url(#clip8903)" style="fill:#000000; stroke:none; fill-opacity:1" cx="1979.15" cy="386.743" r="18"/>
<circle clip-path="url(#clip8903)" style="fill:#f6f88f; stroke:none; fill-opacity:1" cx="1979.15" cy="386.743" r="14"/>
<circle clip-path="url(#clip8903)" style="fill:#000000; stroke:none; fill-opacity:1" cx="1308.37" cy="271.125" r="18"/>
<circle clip-path="url(#clip8903)" style="fill:#f6f88f; stroke:none; fill-opacity:1" cx="1308.37" cy="271.125" r="14"/>
<circle clip-path="url(#clip8903)" style="fill:#000000; stroke:none; fill-opacity:1" cx="1352.81" cy="347.755" r="18"/>
<circle clip-path="url(#clip8903)" style="fill:#f6f88f; stroke:none; fill-opacity:1" cx="1352.81" cy="347.755" r="14"/>
<circle clip-path="url(#clip8903)" style="fill:#000000; stroke:none; fill-opacity:1" cx="1270.52" cy="376.104" r="18"/>
<circle clip-path="url(#clip8903)" style="fill:#fcfea4; stroke:none; fill-opacity:1" cx="1270.52" cy="376.104" r="14"/>
<circle clip-path="url(#clip8903)" style="fill:#000000; stroke:none; fill-opacity:1" cx="1313.23" cy="442.292" r="18"/>
<circle clip-path="url(#clip8903)" style="fill:#fcfea4; stroke:none; fill-opacity:1" cx="1313.23" cy="442.292" r="14"/>
<circle clip-path="url(#clip8903)" style="fill:#000000; stroke:none; fill-opacity:1" cx="1254.66" cy="455.81" r="18"/>
<circle clip-path="url(#clip8903)" style="fill:#fcfea4; stroke:none; fill-opacity:1" cx="1254.66" cy="455.81" r="14"/>
<circle clip-path="url(#clip8903)" style="fill:#000000; stroke:none; fill-opacity:1" cx="1511.94" cy="477.851" r="18"/>
<circle clip-path="url(#clip8903)" style="fill:#f6f88f; stroke:none; fill-opacity:1" cx="1511.94" cy="477.851" r="14"/>
<circle clip-path="url(#clip8903)" style="fill:#000000; stroke:none; fill-opacity:1" cx="1894.34" cy="229.852" r="18"/>
<circle clip-path="url(#clip8903)" style="fill:#fcfea4; stroke:none; fill-opacity:1" cx="1894.34" cy="229.852" r="14"/>
<circle clip-path="url(#clip8903)" style="fill:#000000; stroke:none; fill-opacity:1" cx="2045.38" cy="539.393" r="18"/>
<circle clip-path="url(#clip8903)" style="fill:#f6f88f; stroke:none; fill-opacity:1" cx="2045.38" cy="539.393" r="14"/>
<circle clip-path="url(#clip8903)" style="fill:#000000; stroke:none; fill-opacity:1" cx="1530.98" cy="433.038" r="18"/>
<circle clip-path="url(#clip8903)" style="fill:#f6f88f; stroke:none; fill-opacity:1" cx="1530.98" cy="433.038" r="14"/>
<circle clip-path="url(#clip8903)" style="fill:#000000; stroke:none; fill-opacity:1" cx="1514.47" cy="249.821" r="18"/>
<circle clip-path="url(#clip8903)" style="fill:#fcfea4; stroke:none; fill-opacity:1" cx="1514.47" cy="249.821" r="14"/>
<circle clip-path="url(#clip8903)" style="fill:#000000; stroke:none; fill-opacity:1" cx="2166.51" cy="315.518" r="18"/>
<circle clip-path="url(#clip8903)" style="fill:#fcfea4; stroke:none; fill-opacity:1" cx="2166.51" cy="315.518" r="14"/>
<circle clip-path="url(#clip8903)" style="fill:#000000; stroke:none; fill-opacity:1" cx="1759.47" cy="168.024" r="18"/>
<circle clip-path="url(#clip8903)" style="fill:#fcfea4; stroke:none; fill-opacity:1" cx="1759.47" cy="168.024" r="14"/>
<circle clip-path="url(#clip8903)" style="fill:#000000; stroke:none; fill-opacity:1" cx="1662.04" cy="657.105" r="18"/>
<circle clip-path="url(#clip8903)" style="fill:#f9fb9a; stroke:none; fill-opacity:1" cx="1662.04" cy="657.105" r="14"/>
<circle clip-path="url(#clip8903)" style="fill:#000000; stroke:none; fill-opacity:1" cx="1886.56" cy="335.054" r="18"/>
<circle clip-path="url(#clip8903)" style="fill:#f6f88f; stroke:none; fill-opacity:1" cx="1886.56" cy="335.054" r="14"/>
<circle clip-path="url(#clip8903)" style="fill:#000000; stroke:none; fill-opacity:1" cx="1590.79" cy="275.929" r="18"/>
<circle clip-path="url(#clip8903)" style="fill:#f9fb9a; stroke:none; fill-opacity:1" cx="1590.79" cy="275.929" r="14"/>
<circle clip-path="url(#clip8903)" style="fill:#000000; stroke:none; fill-opacity:1" cx="2051.48" cy="393.657" r="18"/>
<circle clip-path="url(#clip8903)" style="fill:#fcfea4; stroke:none; fill-opacity:1" cx="2051.48" cy="393.657" r="14"/>
<circle clip-path="url(#clip8903)" style="fill:#000000; stroke:none; fill-opacity:1" cx="1278.93" cy="231.03" r="18"/>
<circle clip-path="url(#clip8903)" style="fill:#f9fb9a; stroke:none; fill-opacity:1" cx="1278.93" cy="231.03" r="14"/>
<circle clip-path="url(#clip8903)" style="fill:#000000; stroke:none; fill-opacity:1" cx="1715.26" cy="163.159" r="18"/>
<circle clip-path="url(#clip8903)" style="fill:#fcfea4; stroke:none; fill-opacity:1" cx="1715.26" cy="163.159" r="14"/>
<circle clip-path="url(#clip8903)" style="fill:#000000; stroke:none; fill-opacity:1" cx="2082.56" cy="539.286" r="18"/>
<circle clip-path="url(#clip8903)" style="fill:#f9fb9a; stroke:none; fill-opacity:1" cx="2082.56" cy="539.286" r="14"/>
<circle clip-path="url(#clip8903)" style="fill:#000000; stroke:none; fill-opacity:1" cx="1600.31" cy="557.028" r="18"/>
<circle clip-path="url(#clip8903)" style="fill:#fcfea4; stroke:none; fill-opacity:1" cx="1600.31" cy="557.028" r="14"/>
<circle clip-path="url(#clip8903)" style="fill:#000000; stroke:none; fill-opacity:1" cx="1459.63" cy="659.963" r="18"/>
<circle clip-path="url(#clip8903)" style="fill:#f9fb9a; stroke:none; fill-opacity:1" cx="1459.63" cy="659.963" r="14"/>
<circle clip-path="url(#clip8903)" style="fill:#000000; stroke:none; fill-opacity:1" cx="1524.77" cy="215.816" r="18"/>
<circle clip-path="url(#clip8903)" style="fill:#fcfea4; stroke:none; fill-opacity:1" cx="1524.77" cy="215.816" r="14"/>
<circle clip-path="url(#clip8903)" style="fill:#000000; stroke:none; fill-opacity:1" cx="1801.78" cy="441.197" r="18"/>
<circle clip-path="url(#clip8903)" style="fill:#fcfea4; stroke:none; fill-opacity:1" cx="1801.78" cy="441.197" r="14"/>
<circle clip-path="url(#clip8903)" style="fill:#000000; stroke:none; fill-opacity:1" cx="1666.93" cy="374.752" r="18"/>
<circle clip-path="url(#clip8903)" style="fill:#fcfea4; stroke:none; fill-opacity:1" cx="1666.93" cy="374.752" r="14"/>
<circle clip-path="url(#clip8903)" style="fill:#000000; stroke:none; fill-opacity:1" cx="1360.33" cy="522.019" r="18"/>
<circle clip-path="url(#clip8903)" style="fill:#f9fb9a; stroke:none; fill-opacity:1" cx="1360.33" cy="522.019" r="14"/>
<circle clip-path="url(#clip8903)" style="fill:#000000; stroke:none; fill-opacity:1" cx="1360.52" cy="520.144" r="18"/>
<circle clip-path="url(#clip8903)" style="fill:#fcfea4; stroke:none; fill-opacity:1" cx="1360.52" cy="520.144" r="14"/>
</svg>
