<?xml version="1.0" encoding="utf-8"?>
<svg xmlns="http://www.w3.org/2000/svg" xmlns:xlink="http://www.w3.org/1999/xlink" width="500" height="250" viewBox="0 0 2000 1000">
<defs>
  <clipPath id="clip8100">
    <rect x="0" y="0" width="2000" height="2000"/>
  </clipPath>
</defs>
<defs>
  <clipPath id="clip8101">
    <rect x="0" y="0" width="2000" height="1000"/>
  </clipPath>
</defs>
<polygon clip-path="url(#clip8101)" points="
0,1000 2000,1000 2000,0 0,0 
  " fill="#ffffff" fill-rule="evenodd" fill-opacity="1"/>
<defs>
  <clipPath id="clip8102">
    <rect x="400" y="0" width="1401" height="1000"/>
  </clipPath>
</defs>
<polygon clip-path="url(#clip8101)" points="
237.767,848.866 1921.26,848.866 1921.26,125.984 237.767,125.984 
  " fill="#ffffff" fill-rule="evenodd" fill-opacity="1"/>
<defs>
  <clipPath id="clip8103">
    <rect x="237" y="125" width="1684" height="724"/>
  </clipPath>
</defs>
<polyline clip-path="url(#clip8103)" style="stroke:#000000; stroke-width:2; stroke-opacity:0.1; fill:none" points="
  330.362,848.866 330.362,125.984 
  "/>
<polyline clip-path="url(#clip8103)" style="stroke:#000000; stroke-width:2; stroke-opacity:0.1; fill:none" points="
  784.393,848.866 784.393,125.984 
  "/>
<polyline clip-path="url(#clip8103)" style="stroke:#000000; stroke-width:2; stroke-opacity:0.1; fill:none" points="
  1238.42,848.866 1238.42,125.984 
  "/>
<polyline clip-path="url(#clip8103)" style="stroke:#000000; stroke-width:2; stroke-opacity:0.1; fill:none" points="
  1692.46,848.866 1692.46,125.984 
  "/>
<polyline clip-path="url(#clip8103)" style="stroke:#000000; stroke-width:2; stroke-opacity:0.1; fill:none" points="
  237.767,828.407 1921.26,828.407 
  "/>
<polyline clip-path="url(#clip8103)" style="stroke:#000000; stroke-width:2; stroke-opacity:0.1; fill:none" points="
  237.767,612.596 1921.26,612.596 
  "/>
<polyline clip-path="url(#clip8103)" style="stroke:#000000; stroke-width:2; stroke-opacity:0.1; fill:none" points="
  237.767,396.784 1921.26,396.784 
  "/>
<polyline clip-path="url(#clip8103)" style="stroke:#000000; stroke-width:2; stroke-opacity:0.1; fill:none" points="
  237.767,180.973 1921.26,180.973 
  "/>
<polyline clip-path="url(#clip8101)" style="stroke:#000000; stroke-width:4; stroke-opacity:1; fill:none" points="
  237.767,848.866 1921.26,848.866 
  "/>
<polyline clip-path="url(#clip8101)" style="stroke:#000000; stroke-width:4; stroke-opacity:1; fill:none" points="
  237.767,848.866 237.767,125.984 
  "/>
<polyline clip-path="url(#clip8101)" style="stroke:#000000; stroke-width:4; stroke-opacity:1; fill:none" points="
  330.362,848.866 330.362,838.023 
  "/>
<polyline clip-path="url(#clip8101)" style="stroke:#000000; stroke-width:4; stroke-opacity:1; fill:none" points="
  784.393,848.866 784.393,838.023 
  "/>
<polyline clip-path="url(#clip8101)" style="stroke:#000000; stroke-width:4; stroke-opacity:1; fill:none" points="
  1238.42,848.866 1238.42,838.023 
  "/>
<polyline clip-path="url(#clip8101)" style="stroke:#000000; stroke-width:4; stroke-opacity:1; fill:none" points="
  1692.46,848.866 1692.46,838.023 
  "/>
<polyline clip-path="url(#clip8101)" style="stroke:#000000; stroke-width:4; stroke-opacity:1; fill:none" points="
  237.767,828.407 263.02,828.407 
  "/>
<polyline clip-path="url(#clip8101)" style="stroke:#000000; stroke-width:4; stroke-opacity:1; fill:none" points="
  237.767,612.596 263.02,612.596 
  "/>
<polyline clip-path="url(#clip8101)" style="stroke:#000000; stroke-width:4; stroke-opacity:1; fill:none" points="
  237.767,396.784 263.02,396.784 
  "/>
<polyline clip-path="url(#clip8101)" style="stroke:#000000; stroke-width:4; stroke-opacity:1; fill:none" points="
  237.767,180.973 263.02,180.973 
  "/>
<g clip-path="url(#clip8101)">
<text style="fill:#000000; fill-opacity:1; font-family:Arial,Helvetica Neue,Helvetica,sans-serif; font-size:48px; text-anchor:middle;" transform="rotate(0, 330.362, 900.866)" x="330.362" y="900.866">0.2</text>
</g>
<g clip-path="url(#clip8101)">
<text style="fill:#000000; fill-opacity:1; font-family:Arial,Helvetica Neue,Helvetica,sans-serif; font-size:48px; text-anchor:middle;" transform="rotate(0, 784.393, 900.866)" x="784.393" y="900.866">0.4</text>
</g>
<g clip-path="url(#clip8101)">
<text style="fill:#000000; fill-opacity:1; font-family:Arial,Helvetica Neue,Helvetica,sans-serif; font-size:48px; text-anchor:middle;" transform="rotate(0, 1238.42, 900.866)" x="1238.42" y="900.866">0.6</text>
</g>
<g clip-path="url(#clip8101)">
<text style="fill:#000000; fill-opacity:1; font-family:Arial,Helvetica Neue,Helvetica,sans-serif; font-size:48px; text-anchor:middle;" transform="rotate(0, 1692.46, 900.866)" x="1692.46" y="900.866">0.8</text>
</g>
<g clip-path="url(#clip8101)">
<text style="fill:#000000; fill-opacity:1; font-family:Arial,Helvetica Neue,Helvetica,sans-serif; font-size:48px; text-anchor:end;" transform="rotate(0, 217.767, 845.907)" x="217.767" y="845.907">0</text>
</g>
<g clip-path="url(#clip8101)">
<text style="fill:#000000; fill-opacity:1; font-family:Arial,Helvetica Neue,Helvetica,sans-serif; font-size:48px; text-anchor:end;" transform="rotate(0, 217.767, 630.096)" x="217.767" y="630.096">50</text>
</g>
<g clip-path="url(#clip8101)">
<text style="fill:#000000; fill-opacity:1; font-family:Arial,Helvetica Neue,Helvetica,sans-serif; font-size:48px; text-anchor:end;" transform="rotate(0, 217.767, 414.284)" x="217.767" y="414.284">100</text>
</g>
<g clip-path="url(#clip8101)">
<text style="fill:#000000; fill-opacity:1; font-family:Arial,Helvetica Neue,Helvetica,sans-serif; font-size:48px; text-anchor:end;" transform="rotate(0, 217.767, 198.473)" x="217.767" y="198.473">150</text>
</g>
<g clip-path="url(#clip8101)">
<text style="fill:#000000; fill-opacity:1; font-family:Arial,Helvetica Neue,Helvetica,sans-serif; font-size:84px; text-anchor:middle;" transform="rotate(0, 1079.51, 73.2)" x="1079.51" y="73.2">Param#1</text>
</g>
<g clip-path="url(#clip8101)">
<text style="fill:#000000; fill-opacity:1; font-family:Arial,Helvetica Neue,Helvetica,sans-serif; font-size:66px; text-anchor:middle;" transform="rotate(0, 1079.51, 990.4)" x="1079.51" y="990.4">Sample value</text>
</g>
<g clip-path="url(#clip8101)">
<text style="fill:#000000; fill-opacity:1; font-family:Arial,Helvetica Neue,Helvetica,sans-serif; font-size:66px; text-anchor:middle;" transform="rotate(-90, 57.6, 487.425)" x="57.6" y="487.425">Frequency</text>
</g>
<polygon clip-path="url(#clip8103)" points="
330.362,824.091 330.362,828.407 375.766,828.407 375.766,824.091 330.362,824.091 330.362,824.091 
  " fill="#009af9" fill-rule="evenodd" fill-opacity="0.7"/>
<polyline clip-path="url(#clip8103)" style="stroke:#000000; stroke-width:4; stroke-opacity:1; fill:none" points="
  330.362,824.091 330.362,828.407 375.766,828.407 375.766,824.091 330.362,824.091 
  "/>
<polygon clip-path="url(#clip8103)" points="
375.766,828.407 375.766,828.407 421.169,828.407 421.169,828.407 375.766,828.407 375.766,828.407 
  " fill="#009af9" fill-rule="evenodd" fill-opacity="0.7"/>
<polyline clip-path="url(#clip8103)" style="stroke:#000000; stroke-width:4; stroke-opacity:1; fill:none" points="
  375.766,828.407 375.766,828.407 421.169,828.407 375.766,828.407 
  "/>
<polygon clip-path="url(#clip8103)" points="
421.169,824.091 421.169,828.407 466.572,828.407 466.572,824.091 421.169,824.091 421.169,824.091 
  " fill="#009af9" fill-rule="evenodd" fill-opacity="0.7"/>
<polyline clip-path="url(#clip8103)" style="stroke:#000000; stroke-width:4; stroke-opacity:1; fill:none" points="
  421.169,824.091 421.169,828.407 466.572,828.407 466.572,824.091 421.169,824.091 
  "/>
<polygon clip-path="url(#clip8103)" points="
466.572,828.407 466.572,828.407 511.975,828.407 511.975,828.407 466.572,828.407 466.572,828.407 
  " fill="#009af9" fill-rule="evenodd" fill-opacity="0.7"/>
<polyline clip-path="url(#clip8103)" style="stroke:#000000; stroke-width:4; stroke-opacity:1; fill:none" points="
  466.572,828.407 466.572,828.407 511.975,828.407 466.572,828.407 
  "/>
<polygon clip-path="url(#clip8103)" points="
511.975,828.407 511.975,828.407 557.378,828.407 557.378,828.407 511.975,828.407 511.975,828.407 
  " fill="#009af9" fill-rule="evenodd" fill-opacity="0.7"/>
<polyline clip-path="url(#clip8103)" style="stroke:#000000; stroke-width:4; stroke-opacity:1; fill:none" points="
  511.975,828.407 511.975,828.407 557.378,828.407 511.975,828.407 
  "/>
<polygon clip-path="url(#clip8103)" points="
557.378,828.407 557.378,828.407 602.781,828.407 602.781,828.407 557.378,828.407 557.378,828.407 
  " fill="#009af9" fill-rule="evenodd" fill-opacity="0.7"/>
<polyline clip-path="url(#clip8103)" style="stroke:#000000; stroke-width:4; stroke-opacity:1; fill:none" points="
  557.378,828.407 557.378,828.407 602.781,828.407 557.378,828.407 
  "/>
<polygon clip-path="url(#clip8103)" points="
602.781,824.091 602.781,828.407 648.184,828.407 648.184,824.091 602.781,824.091 602.781,824.091 
  " fill="#009af9" fill-rule="evenodd" fill-opacity="0.7"/>
<polyline clip-path="url(#clip8103)" style="stroke:#000000; stroke-width:4; stroke-opacity:1; fill:none" points="
  602.781,824.091 602.781,828.407 648.184,828.407 648.184,824.091 602.781,824.091 
  "/>
<polygon clip-path="url(#clip8103)" points="
648.184,828.407 648.184,828.407 693.587,828.407 693.587,828.407 648.184,828.407 648.184,828.407 
  " fill="#009af9" fill-rule="evenodd" fill-opacity="0.7"/>
<polyline clip-path="url(#clip8103)" style="stroke:#000000; stroke-width:4; stroke-opacity:1; fill:none" points="
  648.184,828.407 648.184,828.407 693.587,828.407 648.184,828.407 
  "/>
<polygon clip-path="url(#clip8103)" points="
693.587,811.142 693.587,828.407 738.99,828.407 738.99,811.142 693.587,811.142 693.587,811.142 
  " fill="#009af9" fill-rule="evenodd" fill-opacity="0.7"/>
<polyline clip-path="url(#clip8103)" style="stroke:#000000; stroke-width:4; stroke-opacity:1; fill:none" points="
  693.587,811.142 693.587,828.407 738.99,828.407 738.99,811.142 693.587,811.142 
  "/>
<polygon clip-path="url(#clip8103)" points="
738.99,802.51 738.99,828.407 784.393,828.407 784.393,802.51 738.99,802.51 738.99,802.51 
  " fill="#009af9" fill-rule="evenodd" fill-opacity="0.7"/>
<polyline clip-path="url(#clip8103)" style="stroke:#000000; stroke-width:4; stroke-opacity:1; fill:none" points="
  738.99,802.51 738.99,828.407 784.393,828.407 784.393,802.51 738.99,802.51 
  "/>
<polygon clip-path="url(#clip8103)" points="
784.393,733.45 784.393,828.407 829.797,828.407 829.797,733.45 784.393,733.45 784.393,733.45 
  " fill="#009af9" fill-rule="evenodd" fill-opacity="0.7"/>
<polyline clip-path="url(#clip8103)" style="stroke:#000000; stroke-width:4; stroke-opacity:1; fill:none" points="
  784.393,733.45 784.393,828.407 829.797,828.407 829.797,733.45 784.393,733.45 
  "/>
<polygon clip-path="url(#clip8103)" points="
829.797,677.339 829.797,828.407 875.2,828.407 875.2,677.339 829.797,677.339 829.797,677.339 
  " fill="#009af9" fill-rule="evenodd" fill-opacity="0.7"/>
<polyline clip-path="url(#clip8103)" style="stroke:#000000; stroke-width:4; stroke-opacity:1; fill:none" points="
  829.797,677.339 829.797,828.407 875.2,828.407 875.2,677.339 829.797,677.339 
  "/>
<polygon clip-path="url(#clip8103)" points="
875.2,539.22 875.2,828.407 920.603,828.407 920.603,539.22 875.2,539.22 875.2,539.22 
  " fill="#009af9" fill-rule="evenodd" fill-opacity="0.7"/>
<polyline clip-path="url(#clip8103)" style="stroke:#000000; stroke-width:4; stroke-opacity:1; fill:none" points="
  875.2,539.22 875.2,828.407 920.603,828.407 920.603,539.22 875.2,539.22 
  "/>
<polygon clip-path="url(#clip8103)" points="
920.603,448.579 920.603,828.407 966.006,828.407 966.006,448.579 920.603,448.579 920.603,448.579 
  " fill="#009af9" fill-rule="evenodd" fill-opacity="0.7"/>
<polyline clip-path="url(#clip8103)" style="stroke:#000000; stroke-width:4; stroke-opacity:1; fill:none" points="
  920.603,448.579 920.603,828.407 966.006,828.407 966.006,448.579 920.603,448.579 
  "/>
<polygon clip-path="url(#clip8103)" points="
966.006,280.246 966.006,828.407 1011.41,828.407 1011.41,280.246 966.006,280.246 966.006,280.246 
  " fill="#009af9" fill-rule="evenodd" fill-opacity="0.7"/>
<polyline clip-path="url(#clip8103)" style="stroke:#000000; stroke-width:4; stroke-opacity:1; fill:none" points="
  966.006,280.246 966.006,828.407 1011.41,828.407 1011.41,280.246 966.006,280.246 
  "/>
<polygon clip-path="url(#clip8103)" points="
1011.41,146.443 1011.41,828.407 1056.81,828.407 1056.81,146.443 1011.41,146.443 1011.41,146.443 
  " fill="#009af9" fill-rule="evenodd" fill-opacity="0.7"/>
<polyline clip-path="url(#clip8103)" style="stroke:#000000; stroke-width:4; stroke-opacity:1; fill:none" points="
  1011.41,146.443 1011.41,828.407 1056.81,828.407 1056.81,146.443 1011.41,146.443 
  "/>
<polygon clip-path="url(#clip8103)" points="
1056.81,245.716 1056.81,828.407 1102.22,828.407 1102.22,245.716 1056.81,245.716 1056.81,245.716 
  " fill="#009af9" fill-rule="evenodd" fill-opacity="0.7"/>
<polyline clip-path="url(#clip8103)" style="stroke:#000000; stroke-width:4; stroke-opacity:1; fill:none" points="
  1056.81,245.716 1056.81,828.407 1102.22,828.407 1102.22,245.716 1056.81,245.716 
  "/>
<polygon clip-path="url(#clip8103)" points="
1102.22,306.144 1102.22,828.407 1147.62,828.407 1147.62,306.144 1102.22,306.144 1102.22,306.144 
  " fill="#009af9" fill-rule="evenodd" fill-opacity="0.7"/>
<polyline clip-path="url(#clip8103)" style="stroke:#000000; stroke-width:4; stroke-opacity:1; fill:none" points="
  1102.22,306.144 1102.22,828.407 1147.62,828.407 1147.62,306.144 1102.22,306.144 
  "/>
<polygon clip-path="url(#clip8103)" points="
1147.62,392.468 1147.62,828.407 1193.02,828.407 1193.02,392.468 1147.62,392.468 1147.62,392.468 
  " fill="#009af9" fill-rule="evenodd" fill-opacity="0.7"/>
<polyline clip-path="url(#clip8103)" style="stroke:#000000; stroke-width:4; stroke-opacity:1; fill:none" points="
  1147.62,392.468 1147.62,828.407 1193.02,828.407 1193.02,392.468 1147.62,392.468 
  "/>
<polygon clip-path="url(#clip8103)" points="
1193.02,552.168 1193.02,828.407 1238.42,828.407 1238.42,552.168 1193.02,552.168 1193.02,552.168 
  " fill="#009af9" fill-rule="evenodd" fill-opacity="0.7"/>
<polyline clip-path="url(#clip8103)" style="stroke:#000000; stroke-width:4; stroke-opacity:1; fill:none" points="
  1193.02,552.168 1193.02,828.407 1238.42,828.407 1238.42,552.168 1193.02,552.168 
  "/>
<polygon clip-path="url(#clip8103)" points="
1238.42,642.809 1238.42,828.407 1283.83,828.407 1283.83,642.809 1238.42,642.809 1238.42,642.809 
  " fill="#009af9" fill-rule="evenodd" fill-opacity="0.7"/>
<polyline clip-path="url(#clip8103)" style="stroke:#000000; stroke-width:4; stroke-opacity:1; fill:none" points="
  1238.42,642.809 1238.42,828.407 1283.83,828.407 1283.83,642.809 1238.42,642.809 
  "/>
<polygon clip-path="url(#clip8103)" points="
1283.83,772.296 1283.83,828.407 1329.23,828.407 1329.23,772.296 1283.83,772.296 1283.83,772.296 
  " fill="#009af9" fill-rule="evenodd" fill-opacity="0.7"/>
<polyline clip-path="url(#clip8103)" style="stroke:#000000; stroke-width:4; stroke-opacity:1; fill:none" points="
  1283.83,772.296 1283.83,828.407 1329.23,828.407 1329.23,772.296 1283.83,772.296 
  "/>
<polygon clip-path="url(#clip8103)" points="
1329.23,802.51 1329.23,828.407 1374.63,828.407 1374.63,802.51 1329.23,802.51 1329.23,802.51 
  " fill="#009af9" fill-rule="evenodd" fill-opacity="0.7"/>
<polyline clip-path="url(#clip8103)" style="stroke:#000000; stroke-width:4; stroke-opacity:1; fill:none" points="
  1329.23,802.51 1329.23,828.407 1374.63,828.407 1374.63,802.51 1329.23,802.51 
  "/>
<polygon clip-path="url(#clip8103)" points="
1374.63,811.142 1374.63,828.407 1420.04,828.407 1420.04,811.142 1374.63,811.142 1374.63,811.142 
  " fill="#009af9" fill-rule="evenodd" fill-opacity="0.7"/>
<polyline clip-path="url(#clip8103)" style="stroke:#000000; stroke-width:4; stroke-opacity:1; fill:none" points="
  1374.63,811.142 1374.63,828.407 1420.04,828.407 1420.04,811.142 1374.63,811.142 
  "/>
<polygon clip-path="url(#clip8103)" points="
1420.04,828.407 1420.04,828.407 1465.44,828.407 1465.44,828.407 1420.04,828.407 1420.04,828.407 
  " fill="#009af9" fill-rule="evenodd" fill-opacity="0.7"/>
<polyline clip-path="url(#clip8103)" style="stroke:#000000; stroke-width:4; stroke-opacity:1; fill:none" points="
  1420.04,828.407 1420.04,828.407 1465.44,828.407 1420.04,828.407 
  "/>
<polygon clip-path="url(#clip8103)" points="
1465.44,828.407 1465.44,828.407 1510.84,828.407 1510.84,828.407 1465.44,828.407 1465.44,828.407 
  " fill="#009af9" fill-rule="evenodd" fill-opacity="0.7"/>
<polyline clip-path="url(#clip8103)" style="stroke:#000000; stroke-width:4; stroke-opacity:1; fill:none" points="
  1465.44,828.407 1465.44,828.407 1510.84,828.407 1465.44,828.407 
  "/>
<polygon clip-path="url(#clip8103)" points="
1510.84,828.407 1510.84,828.407 1556.25,828.407 1556.25,828.407 1510.84,828.407 1510.84,828.407 
  " fill="#009af9" fill-rule="evenodd" fill-opacity="0.7"/>
<polyline clip-path="url(#clip8103)" style="stroke:#000000; stroke-width:4; stroke-opacity:1; fill:none" points="
  1510.84,828.407 1510.84,828.407 1556.25,828.407 1510.84,828.407 
  "/>
<polygon clip-path="url(#clip8103)" points="
1556.25,824.091 1556.25,828.407 1601.65,828.407 1601.65,824.091 1556.25,824.091 1556.25,824.091 
  " fill="#009af9" fill-rule="evenodd" fill-opacity="0.7"/>
<polyline clip-path="url(#clip8103)" style="stroke:#000000; stroke-width:4; stroke-opacity:1; fill:none" points="
  1556.25,824.091 1556.25,828.407 1601.65,828.407 1601.65,824.091 1556.25,824.091 
  "/>
<polygon clip-path="url(#clip8103)" points="
1601.65,828.407 1601.65,828.407 1647.05,828.407 1647.05,828.407 1601.65,828.407 1601.65,828.407 
  " fill="#009af9" fill-rule="evenodd" fill-opacity="0.7"/>
<polyline clip-path="url(#clip8103)" style="stroke:#000000; stroke-width:4; stroke-opacity:1; fill:none" points="
  1601.65,828.407 1601.65,828.407 1647.05,828.407 1601.65,828.407 
  "/>
<polygon clip-path="url(#clip8103)" points="
1647.05,824.091 1647.05,828.407 1692.46,828.407 1692.46,824.091 1647.05,824.091 1647.05,824.091 
  " fill="#009af9" fill-rule="evenodd" fill-opacity="0.7"/>
<polyline clip-path="url(#clip8103)" style="stroke:#000000; stroke-width:4; stroke-opacity:1; fill:none" points="
  1647.05,824.091 1647.05,828.407 1692.46,828.407 1692.46,824.091 1647.05,824.091 
  "/>
<polygon clip-path="url(#clip8103)" points="
1692.46,828.407 1692.46,828.407 1737.86,828.407 1737.86,828.407 1692.46,828.407 1692.46,828.407 
  " fill="#009af9" fill-rule="evenodd" fill-opacity="0.7"/>
<polyline clip-path="url(#clip8103)" style="stroke:#000000; stroke-width:4; stroke-opacity:1; fill:none" points="
  1692.46,828.407 1692.46,828.407 1737.86,828.407 1692.46,828.407 
  "/>
<polygon clip-path="url(#clip8103)" points="
1737.86,828.407 1737.86,828.407 1783.26,828.407 1783.26,828.407 1737.86,828.407 1737.86,828.407 
  " fill="#009af9" fill-rule="evenodd" fill-opacity="0.7"/>
<polyline clip-path="url(#clip8103)" style="stroke:#000000; stroke-width:4; stroke-opacity:1; fill:none" points="
  1737.86,828.407 1737.86,828.407 1783.26,828.407 1737.86,828.407 
  "/>
<polygon clip-path="url(#clip8103)" points="
1783.26,824.091 1783.26,828.407 1828.66,828.407 1828.66,824.091 1783.26,824.091 1783.26,824.091 
  " fill="#009af9" fill-rule="evenodd" fill-opacity="0.7"/>
<polyline clip-path="url(#clip8103)" style="stroke:#000000; stroke-width:4; stroke-opacity:1; fill:none" points="
  1783.26,824.091 1783.26,828.407 1828.66,828.407 1828.66,824.091 1783.26,824.091 
  "/>
</svg>
