<?xml version="1.0" encoding="utf-8"?>
<svg xmlns="http://www.w3.org/2000/svg" xmlns:xlink="http://www.w3.org/1999/xlink" width="1000" height="250" viewBox="0 0 4000 1000">
<defs>
  <clipPath id="clip0500">
    <rect x="0" y="0" width="2000" height="2000"/>
  </clipPath>
</defs>
<defs>
  <clipPath id="clip0501">
    <rect x="0" y="0" width="4000" height="1000"/>
  </clipPath>
</defs>
<polygon clip-path="url(#clip0501)" points="
0,1000 4000,1000 4000,0 0,0 
  " fill="#ffffff" fill-opacity="1"/>
<defs>
  <clipPath id="clip0502">
    <rect x="800" y="0" width="2801" height="1000"/>
  </clipPath>
</defs>
<polygon clip-path="url(#clip0501)" points="
212.353,840.483 1915.24,840.483 1915.24,125.984 212.353,125.984 
  " fill="#ffffff" fill-opacity="1"/>
<defs>
  <clipPath id="clip0503">
    <rect x="212" y="125" width="1704" height="715"/>
  </clipPath>
</defs>
<polyline clip-path="url(#clip0503)" style="stroke:#000000; stroke-width:2; stroke-opacity:0.1; fill:none" points="
  244.32,840.483 244.32,125.984 
  "/>
<polyline clip-path="url(#clip0503)" style="stroke:#000000; stroke-width:2; stroke-opacity:0.1; fill:none" points="
  650.002,840.483 650.002,125.984 
  "/>
<polyline clip-path="url(#clip0503)" style="stroke:#000000; stroke-width:2; stroke-opacity:0.1; fill:none" points="
  1055.68,840.483 1055.68,125.984 
  "/>
<polyline clip-path="url(#clip0503)" style="stroke:#000000; stroke-width:2; stroke-opacity:0.1; fill:none" points="
  1461.37,840.483 1461.37,125.984 
  "/>
<polyline clip-path="url(#clip0503)" style="stroke:#000000; stroke-width:2; stroke-opacity:0.1; fill:none" points="
  1867.05,840.483 1867.05,125.984 
  "/>
<polyline clip-path="url(#clip0503)" style="stroke:#000000; stroke-width:2; stroke-opacity:0.1; fill:none" points="
  212.353,783.131 1915.24,783.131 
  "/>
<polyline clip-path="url(#clip0503)" style="stroke:#000000; stroke-width:2; stroke-opacity:0.1; fill:none" points="
  212.353,636.419 1915.24,636.419 
  "/>
<polyline clip-path="url(#clip0503)" style="stroke:#000000; stroke-width:2; stroke-opacity:0.1; fill:none" points="
  212.353,489.707 1915.24,489.707 
  "/>
<polyline clip-path="url(#clip0503)" style="stroke:#000000; stroke-width:2; stroke-opacity:0.1; fill:none" points="
  212.353,342.994 1915.24,342.994 
  "/>
<polyline clip-path="url(#clip0503)" style="stroke:#000000; stroke-width:2; stroke-opacity:0.1; fill:none" points="
  212.353,196.282 1915.24,196.282 
  "/>
<polyline clip-path="url(#clip0501)" style="stroke:#000000; stroke-width:4; stroke-opacity:1; fill:none" points="
  212.353,840.483 1915.24,840.483 
  "/>
<polyline clip-path="url(#clip0501)" style="stroke:#000000; stroke-width:4; stroke-opacity:1; fill:none" points="
  212.353,840.483 212.353,125.984 
  "/>
<polyline clip-path="url(#clip0501)" style="stroke:#000000; stroke-width:4; stroke-opacity:1; fill:none" points="
  244.32,840.483 244.32,829.765 
  "/>
<polyline clip-path="url(#clip0501)" style="stroke:#000000; stroke-width:4; stroke-opacity:1; fill:none" points="
  650.002,840.483 650.002,829.765 
  "/>
<polyline clip-path="url(#clip0501)" style="stroke:#000000; stroke-width:4; stroke-opacity:1; fill:none" points="
  1055.68,840.483 1055.68,829.765 
  "/>
<polyline clip-path="url(#clip0501)" style="stroke:#000000; stroke-width:4; stroke-opacity:1; fill:none" points="
  1461.37,840.483 1461.37,829.765 
  "/>
<polyline clip-path="url(#clip0501)" style="stroke:#000000; stroke-width:4; stroke-opacity:1; fill:none" points="
  1867.05,840.483 1867.05,829.765 
  "/>
<polyline clip-path="url(#clip0501)" style="stroke:#000000; stroke-width:4; stroke-opacity:1; fill:none" points="
  212.353,783.131 237.896,783.131 
  "/>
<polyline clip-path="url(#clip0501)" style="stroke:#000000; stroke-width:4; stroke-opacity:1; fill:none" points="
  212.353,636.419 237.896,636.419 
  "/>
<polyline clip-path="url(#clip0501)" style="stroke:#000000; stroke-width:4; stroke-opacity:1; fill:none" points="
  212.353,489.707 237.896,489.707 
  "/>
<polyline clip-path="url(#clip0501)" style="stroke:#000000; stroke-width:4; stroke-opacity:1; fill:none" points="
  212.353,342.994 237.896,342.994 
  "/>
<polyline clip-path="url(#clip0501)" style="stroke:#000000; stroke-width:4; stroke-opacity:1; fill:none" points="
  212.353,196.282 237.896,196.282 
  "/>
<g clip-path="url(#clip0501)">
<text style="fill:#000000; fill-opacity:1; font-family:Arial,Helvetica Neue,Helvetica,sans-serif; font-size:48; text-anchor:middle;" transform="rotate(0, 244.32, 902.483)" x="244.32" y="902.483">0</text>
</g>
<g clip-path="url(#clip0501)">
<text style="fill:#000000; fill-opacity:1; font-family:Arial,Helvetica Neue,Helvetica,sans-serif; font-size:48; text-anchor:middle;" transform="rotate(0, 650.002, 902.483)" x="650.002" y="902.483">25</text>
</g>
<g clip-path="url(#clip0501)">
<text style="fill:#000000; fill-opacity:1; font-family:Arial,Helvetica Neue,Helvetica,sans-serif; font-size:48; text-anchor:middle;" transform="rotate(0, 1055.68, 902.483)" x="1055.68" y="902.483">50</text>
</g>
<g clip-path="url(#clip0501)">
<text style="fill:#000000; fill-opacity:1; font-family:Arial,Helvetica Neue,Helvetica,sans-serif; font-size:48; text-anchor:middle;" transform="rotate(0, 1461.37, 902.483)" x="1461.37" y="902.483">75</text>
</g>
<g clip-path="url(#clip0501)">
<text style="fill:#000000; fill-opacity:1; font-family:Arial,Helvetica Neue,Helvetica,sans-serif; font-size:48; text-anchor:middle;" transform="rotate(0, 1867.05, 902.483)" x="1867.05" y="902.483">100</text>
</g>
<g clip-path="url(#clip0501)">
<text style="fill:#000000; fill-opacity:1; font-family:Arial,Helvetica Neue,Helvetica,sans-serif; font-size:48; text-anchor:end;" transform="rotate(0, 172.353, 800.631)" x="172.353" y="800.631">-6</text>
</g>
<g clip-path="url(#clip0501)">
<text style="fill:#000000; fill-opacity:1; font-family:Arial,Helvetica Neue,Helvetica,sans-serif; font-size:48; text-anchor:end;" transform="rotate(0, 172.353, 653.919)" x="172.353" y="653.919">-4</text>
</g>
<g clip-path="url(#clip0501)">
<text style="fill:#000000; fill-opacity:1; font-family:Arial,Helvetica Neue,Helvetica,sans-serif; font-size:48; text-anchor:end;" transform="rotate(0, 172.353, 507.207)" x="172.353" y="507.207">-2</text>
</g>
<g clip-path="url(#clip0501)">
<text style="fill:#000000; fill-opacity:1; font-family:Arial,Helvetica Neue,Helvetica,sans-serif; font-size:48; text-anchor:end;" transform="rotate(0, 172.353, 360.494)" x="172.353" y="360.494">0</text>
</g>
<g clip-path="url(#clip0501)">
<text style="fill:#000000; fill-opacity:1; font-family:Arial,Helvetica Neue,Helvetica,sans-serif; font-size:48; text-anchor:end;" transform="rotate(0, 172.353, 213.782)" x="172.353" y="213.782">2</text>
</g>
<g clip-path="url(#clip0501)">
<text style="fill:#000000; fill-opacity:1; font-family:Arial,Helvetica Neue,Helvetica,sans-serif; font-size:82; text-anchor:middle;" transform="rotate(0, 1063.8, 72)" x="1063.8" y="72">Chain 1</text>
</g>
<g clip-path="url(#clip0501)">
<text style="fill:#000000; fill-opacity:1; font-family:Arial,Helvetica Neue,Helvetica,sans-serif; font-size:66; text-anchor:middle;" transform="rotate(0, 1063.8, 990.4)" x="1063.8" y="990.4">Iteration</text>
</g>
<g clip-path="url(#clip0501)">
<text style="fill:#000000; fill-opacity:1; font-family:Arial,Helvetica Neue,Helvetica,sans-serif; font-size:66; text-anchor:middle;" transform="rotate(-90, 57.6, 483.233)" x="57.6" y="483.233">Sample value</text>
</g>
<polyline clip-path="url(#clip0503)" style="stroke:#009af9; stroke-width:4; stroke-opacity:1; fill:none" points="
  260.548,213.222 276.775,491.178 293.002,477.775 309.23,443.711 325.457,439.436 341.684,421.165 357.911,425.546 374.139,425.546 390.366,421.748 406.593,259.997 
  422.821,380.552 439.048,309.522 455.275,355.732 471.502,328.983 487.73,321.773 503.957,325.455 520.184,329.688 536.411,326.246 552.639,326.912 568.866,329.293 
  585.093,326.772 601.321,325.504 617.548,323.269 633.775,335.091 650.002,314.003 666.23,343.21 682.457,310.043 698.684,336.293 714.911,318.267 731.139,337.318 
  747.366,325.585 763.593,314.7 779.821,343.872 796.048,321.21 812.275,331.622 828.502,331.557 844.73,334.967 860.957,317.644 877.184,331.176 893.412,331.024 
  909.639,324.848 925.866,331.513 942.093,322.358 958.321,325.64 974.548,331.977 990.775,323.136 1007,328.473 1023.23,334.514 1039.46,322.571 1055.68,330.125 
  1071.91,318.98 1088.14,337.47 1104.37,311.606 1120.59,346.777 1136.82,318.319 1153.05,325.265 1169.28,322.183 1185.5,328.626 1201.73,321.923 1217.96,336.977 
  1234.18,324.121 1250.41,333.483 1266.64,324.057 1282.87,336.389 1299.09,323.678 1315.32,333.154 1331.55,319.947 1347.78,347.562 1364,319.798 1380.23,331.757 
  1396.46,329.306 1412.68,336.95 1428.91,318.928 1445.14,333.62 1461.37,331.025 1477.59,330.49 1493.82,319.664 1510.05,335.135 1526.28,318.604 1542.5,339.141 
  1558.73,326.905 1574.96,324.695 1591.18,340.885 1607.41,308.848 1623.64,348.495 1639.87,306.078 1656.09,340.95 1672.32,320.829 1688.55,332.925 1704.78,315.379 
  1721,332.209 1737.23,309.359 1753.46,339.247 1769.68,321.882 1785.91,335.091 1802.14,310.818 1818.37,331.615 1834.59,318.613 1850.82,338.648 1867.05,327.479 
  
  "/>
<polyline clip-path="url(#clip0503)" style="stroke:#e26f46; stroke-width:4; stroke-opacity:1; fill:none" points="
  260.548,146.206 276.775,820.261 293.002,693.814 309.23,546.535 325.457,618.837 341.684,603.349 357.911,616.972 374.139,616.972 390.366,593.287 406.593,588.598 
  422.821,593.011 439.048,601.976 455.275,605.461 471.502,597.226 487.73,607.618 503.957,592.684 520.184,592.95 536.411,615.766 552.639,587.162 568.866,606.191 
  585.093,595.358 601.321,603.647 617.548,589.261 633.775,610.308 650.002,589.88 666.23,603.464 682.457,597.323 698.684,600.178 714.911,585.142 731.139,608.558 
  747.366,583.155 763.593,608.6 779.821,597.735 796.048,595.556 812.275,596.298 828.502,605.375 844.73,589.015 860.957,616.538 877.184,575.588 893.412,604.287 
  909.639,595.429 925.866,605.045 942.093,600.285 958.321,599.678 974.548,593.267 990.775,603.63 1007,594.985 1023.23,603.624 1039.46,577.743 1055.68,621.701 
  1071.91,593.618 1088.14,608.73 1104.37,581.823 1120.59,613.594 1136.82,585.989 1153.05,607.964 1169.28,593.097 1185.5,598.861 1201.73,591.65 1217.96,592.734 
  1234.18,602.794 1250.41,598.082 1266.64,586.627 1282.87,601.823 1299.09,591.755 1315.32,587.534 1331.55,603.032 1347.78,590.529 1364,603.93 1380.23,597.814 
  1396.46,594.253 1412.68,612.265 1428.91,599.565 1445.14,599.905 1461.37,593.388 1477.59,594.286 1493.82,604.185 1510.05,599.262 1526.28,600.045 1542.5,592.807 
  1558.73,603.023 1574.96,595.039 1591.18,597.127 1607.41,590.896 1623.64,593.006 1639.87,600.707 1656.09,586.157 1672.32,602.479 1688.55,600.903 1704.78,580.843 
  1721,601.174 1737.23,596.752 1753.46,594.916 1769.68,592.995 1785.91,609.38 1802.14,588.445 1818.37,603.697 1834.59,590.895 1850.82,603.273 1867.05,598.189 
  
  "/>
<polygon clip-path="url(#clip0501)" points="
1288.24,486.944 1795.24,486.944 1795.24,305.504 1288.24,305.504 
  " fill="#ffffff" fill-opacity="1"/>
<polyline clip-path="url(#clip0501)" style="stroke:#000000; stroke-width:4; stroke-opacity:1; fill:none" points="
  1288.24,486.944 1795.24,486.944 1795.24,305.504 1288.24,305.504 1288.24,486.944 
  "/>
<polyline clip-path="url(#clip0501)" style="stroke:#009af9; stroke-width:4; stroke-opacity:1; fill:none" points="
  1328.24,365.984 1568.24,365.984 
  "/>
<g clip-path="url(#clip0501)">
<text style="fill:#000000; fill-opacity:1; font-family:Arial,Helvetica Neue,Helvetica,sans-serif; font-size:48; text-anchor:start;" transform="rotate(0, 1608.24, 383.484)" x="1608.24" y="383.484">mu 1</text>
</g>
<polyline clip-path="url(#clip0501)" style="stroke:#e26f46; stroke-width:4; stroke-opacity:1; fill:none" points="
  1328.24,426.464 1568.24,426.464 
  "/>
<g clip-path="url(#clip0501)">
<text style="fill:#000000; fill-opacity:1; font-family:Arial,Helvetica Neue,Helvetica,sans-serif; font-size:48; text-anchor:start;" transform="rotate(0, 1608.24, 443.964)" x="1608.24" y="443.964">mu 2</text>
</g>
<polygon clip-path="url(#clip0501)" points="
2218.37,840.483 3921.26,840.483 3921.26,125.984 2218.37,125.984 
  " fill="#ffffff" fill-opacity="1"/>
<defs>
  <clipPath id="clip0504">
    <rect x="2218" y="125" width="1704" height="715"/>
  </clipPath>
</defs>
<polyline clip-path="url(#clip0504)" style="stroke:#000000; stroke-width:2; stroke-opacity:0.1; fill:none" points="
  2378.89,840.483 2378.89,125.984 
  "/>
<polyline clip-path="url(#clip0504)" style="stroke:#000000; stroke-width:2; stroke-opacity:0.1; fill:none" points="
  2716.9,840.483 2716.9,125.984 
  "/>
<polyline clip-path="url(#clip0504)" style="stroke:#000000; stroke-width:2; stroke-opacity:0.1; fill:none" points="
  3054.9,840.483 3054.9,125.984 
  "/>
<polyline clip-path="url(#clip0504)" style="stroke:#000000; stroke-width:2; stroke-opacity:0.1; fill:none" points="
  3392.91,840.483 3392.91,125.984 
  "/>
<polyline clip-path="url(#clip0504)" style="stroke:#000000; stroke-width:2; stroke-opacity:0.1; fill:none" points="
  3730.91,840.483 3730.91,125.984 
  "/>
<polyline clip-path="url(#clip0504)" style="stroke:#000000; stroke-width:2; stroke-opacity:0.1; fill:none" points="
  2218.37,820.261 3921.26,820.261 
  "/>
<polyline clip-path="url(#clip0504)" style="stroke:#000000; stroke-width:2; stroke-opacity:0.1; fill:none" points="
  2218.37,704.5 3921.26,704.5 
  "/>
<polyline clip-path="url(#clip0504)" style="stroke:#000000; stroke-width:2; stroke-opacity:0.1; fill:none" points="
  2218.37,588.739 3921.26,588.739 
  "/>
<polyline clip-path="url(#clip0504)" style="stroke:#000000; stroke-width:2; stroke-opacity:0.1; fill:none" points="
  2218.37,472.979 3921.26,472.979 
  "/>
<polyline clip-path="url(#clip0504)" style="stroke:#000000; stroke-width:2; stroke-opacity:0.1; fill:none" points="
  2218.37,357.218 3921.26,357.218 
  "/>
<polyline clip-path="url(#clip0504)" style="stroke:#000000; stroke-width:2; stroke-opacity:0.1; fill:none" points="
  2218.37,241.457 3921.26,241.457 
  "/>
<polyline clip-path="url(#clip0501)" style="stroke:#000000; stroke-width:4; stroke-opacity:1; fill:none" points="
  2218.37,840.483 3921.26,840.483 
  "/>
<polyline clip-path="url(#clip0501)" style="stroke:#000000; stroke-width:4; stroke-opacity:1; fill:none" points="
  2218.37,840.483 2218.37,125.984 
  "/>
<polyline clip-path="url(#clip0501)" style="stroke:#000000; stroke-width:4; stroke-opacity:1; fill:none" points="
  2378.89,840.483 2378.89,829.765 
  "/>
<polyline clip-path="url(#clip0501)" style="stroke:#000000; stroke-width:4; stroke-opacity:1; fill:none" points="
  2716.9,840.483 2716.9,829.765 
  "/>
<polyline clip-path="url(#clip0501)" style="stroke:#000000; stroke-width:4; stroke-opacity:1; fill:none" points="
  3054.9,840.483 3054.9,829.765 
  "/>
<polyline clip-path="url(#clip0501)" style="stroke:#000000; stroke-width:4; stroke-opacity:1; fill:none" points="
  3392.91,840.483 3392.91,829.765 
  "/>
<polyline clip-path="url(#clip0501)" style="stroke:#000000; stroke-width:4; stroke-opacity:1; fill:none" points="
  3730.91,840.483 3730.91,829.765 
  "/>
<polyline clip-path="url(#clip0501)" style="stroke:#000000; stroke-width:4; stroke-opacity:1; fill:none" points="
  2218.37,820.261 2243.91,820.261 
  "/>
<polyline clip-path="url(#clip0501)" style="stroke:#000000; stroke-width:4; stroke-opacity:1; fill:none" points="
  2218.37,704.5 2243.91,704.5 
  "/>
<polyline clip-path="url(#clip0501)" style="stroke:#000000; stroke-width:4; stroke-opacity:1; fill:none" points="
  2218.37,588.739 2243.91,588.739 
  "/>
<polyline clip-path="url(#clip0501)" style="stroke:#000000; stroke-width:4; stroke-opacity:1; fill:none" points="
  2218.37,472.979 2243.91,472.979 
  "/>
<polyline clip-path="url(#clip0501)" style="stroke:#000000; stroke-width:4; stroke-opacity:1; fill:none" points="
  2218.37,357.218 2243.91,357.218 
  "/>
<polyline clip-path="url(#clip0501)" style="stroke:#000000; stroke-width:4; stroke-opacity:1; fill:none" points="
  2218.37,241.457 2243.91,241.457 
  "/>
<g clip-path="url(#clip0501)">
<text style="fill:#000000; fill-opacity:1; font-family:Arial,Helvetica Neue,Helvetica,sans-serif; font-size:48; text-anchor:middle;" transform="rotate(0, 2378.89, 902.483)" x="2378.89" y="902.483">-6</text>
</g>
<g clip-path="url(#clip0501)">
<text style="fill:#000000; fill-opacity:1; font-family:Arial,Helvetica Neue,Helvetica,sans-serif; font-size:48; text-anchor:middle;" transform="rotate(0, 2716.9, 902.483)" x="2716.9" y="902.483">-4</text>
</g>
<g clip-path="url(#clip0501)">
<text style="fill:#000000; fill-opacity:1; font-family:Arial,Helvetica Neue,Helvetica,sans-serif; font-size:48; text-anchor:middle;" transform="rotate(0, 3054.9, 902.483)" x="3054.9" y="902.483">-2</text>
</g>
<g clip-path="url(#clip0501)">
<text style="fill:#000000; fill-opacity:1; font-family:Arial,Helvetica Neue,Helvetica,sans-serif; font-size:48; text-anchor:middle;" transform="rotate(0, 3392.91, 902.483)" x="3392.91" y="902.483">0</text>
</g>
<g clip-path="url(#clip0501)">
<text style="fill:#000000; fill-opacity:1; font-family:Arial,Helvetica Neue,Helvetica,sans-serif; font-size:48; text-anchor:middle;" transform="rotate(0, 3730.91, 902.483)" x="3730.91" y="902.483">2</text>
</g>
<g clip-path="url(#clip0501)">
<text style="fill:#000000; fill-opacity:1; font-family:Arial,Helvetica Neue,Helvetica,sans-serif; font-size:48; text-anchor:end;" transform="rotate(0, 2178.37, 837.761)" x="2178.37" y="837.761">0.0</text>
</g>
<g clip-path="url(#clip0501)">
<text style="fill:#000000; fill-opacity:1; font-family:Arial,Helvetica Neue,Helvetica,sans-serif; font-size:48; text-anchor:end;" transform="rotate(0, 2178.37, 722)" x="2178.37" y="722">0.5</text>
</g>
<g clip-path="url(#clip0501)">
<text style="fill:#000000; fill-opacity:1; font-family:Arial,Helvetica Neue,Helvetica,sans-serif; font-size:48; text-anchor:end;" transform="rotate(0, 2178.37, 606.239)" x="2178.37" y="606.239">1.0</text>
</g>
<g clip-path="url(#clip0501)">
<text style="fill:#000000; fill-opacity:1; font-family:Arial,Helvetica Neue,Helvetica,sans-serif; font-size:48; text-anchor:end;" transform="rotate(0, 2178.37, 490.479)" x="2178.37" y="490.479">1.5</text>
</g>
<g clip-path="url(#clip0501)">
<text style="fill:#000000; fill-opacity:1; font-family:Arial,Helvetica Neue,Helvetica,sans-serif; font-size:48; text-anchor:end;" transform="rotate(0, 2178.37, 374.718)" x="2178.37" y="374.718">2.0</text>
</g>
<g clip-path="url(#clip0501)">
<text style="fill:#000000; fill-opacity:1; font-family:Arial,Helvetica Neue,Helvetica,sans-serif; font-size:48; text-anchor:end;" transform="rotate(0, 2178.37, 258.957)" x="2178.37" y="258.957">2.5</text>
</g>
<g clip-path="url(#clip0501)">
<text style="fill:#000000; fill-opacity:1; font-family:Arial,Helvetica Neue,Helvetica,sans-serif; font-size:82; text-anchor:middle;" transform="rotate(0, 3069.81, 72)" x="3069.81" y="72">Chain 1</text>
</g>
<g clip-path="url(#clip0501)">
<text style="fill:#000000; fill-opacity:1; font-family:Arial,Helvetica Neue,Helvetica,sans-serif; font-size:66; text-anchor:middle;" transform="rotate(0, 3069.81, 990.4)" x="3069.81" y="990.4">Sample value</text>
</g>
<g clip-path="url(#clip0501)">
<text style="fill:#000000; fill-opacity:1; font-family:Arial,Helvetica Neue,Helvetica,sans-serif; font-size:66; text-anchor:middle;" transform="rotate(-90, 2051.58, 483.233)" x="2051.58" y="483.233">Density</text>
</g>
<polyline clip-path="url(#clip0504)" style="stroke:#009af9; stroke-width:4; stroke-opacity:1; fill:none" points="
  3015.87,820.254 3019.45,820.232 3023.03,820.152 3026.6,819.901 3030.18,819.249 3033.76,817.836 3037.33,815.305 3040.91,811.628 3044.48,807.442 3048.06,804.035 
  3051.64,802.731 3055.21,804.022 3058.79,807.126 3062.36,810.39 3065.94,812.187 3069.52,811.681 3073.09,809.151 3076.67,805.849 3080.24,803.455 3083.82,803.257 
  3087.4,805.478 3090.97,809.248 3094.55,813.238 3098.13,816.428 3101.7,818.472 3105.28,819.547 3108.85,820.018 3112.43,820.19 3116.01,820.243 3119.58,820.257 
  3123.16,820.257 3126.73,820.246 3130.31,820.2 3133.89,820.048 3137.46,819.618 3141.04,818.593 3144.61,816.523 3148.19,812.992 3151.77,807.933 3155.34,801.904 
  3158.92,796.087 3162.49,791.919 3166.07,790.539 3169.65,792.324 3173.22,796.701 3176.8,802.258 3180.38,807.113 3183.95,809.396 3187.53,807.676 3191.1,801.358 
  3194.68,791.076 3198.26,778.877 3201.83,767.842 3205.41,761.093 3208.98,760.648 3212.56,766.669 3216.14,777.426 3219.71,790.004 3223.29,801.503 3226.86,810.123 
  3230.44,815.51 3234.02,818.339 3237.59,819.592 3241.17,820.061 3244.75,820.21 3248.32,820.25 3251.9,820.259 3255.47,820.261 3259.05,820.261 3262.63,820.261 
  3266.2,820.26 3269.78,820.256 3273.35,820.24 3276.93,820.178 3280.51,819.979 3284.08,819.444 3287.66,818.246 3291.23,816.018 3294.81,812.635 3298.39,808.555 
  3301.96,804.911 3305.54,803.058 3309.12,803.777 3312.69,806.751 3316.27,810.787 3319.84,814.574 3323.42,817.337 3327,818.97 3330.57,819.755 3334.15,820.02 
  3337.72,819.932 3341.3,819.425 3344.88,818.217 3348.45,815.936 3352.03,812.377 3355.6,807.766 3359.18,802.696 3362.76,797.548 3366.33,791.781 3369.91,783.915 
  3373.48,772.544 3377.06,757.481 3380.64,739.711 3384.21,719.867 3387.79,696.62 3391.37,666.663 3394.94,626.543 3398.52,574.951 3402.09,513.859 3405.67,448.008 
  3409.25,383.63 3412.82,327.248 3416.4,284.406 3419.97,257.84 3423.55,246.07 3427.13,244.414 3430.7,248.616 3434.28,258.289 3437.85,277.168 3441.43,310.063 
  3445.01,358.96 3448.58,420.61 3452.16,486.797 3455.74,547.377 3459.31,594.903 3462.89,628.182 3466.46,652.225 3470.04,674.432 3473.62,699.778 3477.19,728.411 
  3480.77,756.826 3484.34,780.942 3487.92,798.491 3491.5,809.527 3495.07,815.562 3498.65,818.441 3502.22,819.64 3505.8,820.075 3509.38,820.213 3512.95,820.25 
  3516.53,820.259 3520.1,820.261 3523.68,820.261 3527.26,820.261 3530.83,820.261 3534.41,820.261 3537.99,820.261 3541.56,820.261 3545.14,820.259 3548.71,820.253 
  3552.29,820.228 3555.87,820.136 3559.44,819.861 3563.02,819.161 3566.59,817.676 3570.17,815.07 3573.75,811.358 3577.32,807.222 3580.9,803.961 3584.47,802.874 
  3588.05,804.44 3591.63,807.984 3595.2,812.138 3598.78,815.68 3602.36,818.059 3605.93,819.359 3609.51,819.946 3613.08,820.167 3616.66,820.237 3620.24,820.256 
  3623.81,820.26 3627.39,820.261 3630.96,820.261 3634.54,820.261 3638.12,820.261 3641.69,820.261 3645.27,820.261 3648.84,820.261 3652.42,820.26 3656,820.256 
  3659.57,820.236 3663.15,820.163 3666.72,819.931 3670.3,819.319 3673.88,817.971 3677.45,815.52 3681.03,811.904 3684.61,807.714 3688.18,804.217 3691.76,802.787 
  3695.33,804.048 3698.91,807.445 3702.49,811.628 3706.06,815.305 3709.64,817.836 3713.21,819.249 3716.79,819.901 3720.37,820.152 3723.94,820.232 3727.52,820.254 
  
  "/>
<polyline clip-path="url(#clip0504)" style="stroke:#e26f46; stroke-width:4; stroke-opacity:1; fill:none" points="
  2266.56,820.223 2274.64,819.427 2282.71,812.097 2290.78,800.856 2298.86,805.108 2306.93,815.833 2315,819.82 2323.07,820.257 2331.15,820.256 2339.22,820.261 
  2347.29,820.258 2355.37,820.261 2363.44,820.259 2371.51,820.261 2379.58,820.26 2387.66,820.261 2395.73,820.26 2403.8,820.261 2411.88,820.261 2419.95,820.261 
  2428.02,820.261 2436.09,820.261 2444.17,820.261 2452.24,820.261 2460.31,820.261 2468.39,820.261 2476.46,820.26 2484.53,820.261 2492.6,820.26 2500.68,820.261 
  2508.75,820.258 2516.82,820.261 2524.9,820.256 2532.97,820.261 2541.04,820.25 2549.11,820.261 2557.19,820.213 2565.26,819.531 2573.33,812.971 2581.41,801.863 
  2589.48,804.104 2597.55,814.952 2605.62,819.73 2613.7,820.244 2621.77,820.261 2629.84,820.26 2637.92,820.261 2645.99,820.26 2654.06,820.261 2662.13,820.26 
  2670.21,820.261 2678.28,820.26 2686.35,820.261 2694.43,820.261 2702.5,820.261 2710.57,820.261 2718.64,820.258 2726.72,820.203 2734.79,818.458 2742.86,802.673 
  2750.94,754.883 2759.01,700.979 2767.08,674.184 2775.16,618.741 2783.23,447.564 2791.3,231.4 2799.37,161.427 2807.45,146.206 2815.52,153.747 2823.59,320.933 
  2831.67,513.225 2839.74,654.136 2847.81,731.376 2855.88,765.948 2863.96,799.346 2872.03,816.817 2880.1,820.043 2888.18,820.247 2896.25,820.24 2904.32,819.543 
  2912.39,813.308 2920.47,802.208 2928.54,803.756 2936.61,814.622 2944.69,819.708 2952.76,820.231 2960.83,820.261 2968.9,820.252 2976.98,820.261 2985.05,820.254 
  2993.12,820.261 3001.2,820.256 3009.27,820.261 3017.34,820.257 3025.41,820.261 3033.49,820.257 3041.56,820.261 3049.63,820.258 3057.71,820.261 3065.78,820.258 
  3073.85,820.261 3081.92,820.259 3090,820.261 3098.07,820.259 3106.14,820.261 3114.22,820.259 3122.29,820.261 3130.36,820.259 3138.43,820.261 3146.51,820.259 
  3154.58,820.261 3162.65,820.259 3170.73,820.261 3178.8,820.26 3186.87,820.261 3194.94,820.26 3203.02,820.261 3211.09,820.26 3219.16,820.261 3227.24,820.26 
  3235.31,820.261 3243.38,820.26 3251.45,820.261 3259.53,820.26 3267.6,820.261 3275.67,820.26 3283.75,820.261 3291.82,820.26 3299.89,820.261 3307.96,820.26 
  3316.04,820.261 3324.11,820.26 3332.18,820.261 3340.26,820.26 3348.33,820.261 3356.4,820.26 3364.47,820.261 3372.55,820.26 3380.62,820.261 3388.69,820.26 
  3396.77,820.261 3404.84,820.26 3412.91,820.261 3420.98,820.26 3429.06,820.261 3437.13,820.26 3445.2,820.261 3453.28,820.26 3461.35,820.261 3469.42,820.26 
  3477.49,820.261 3485.57,820.26 3493.64,820.261 3501.71,820.26 3509.79,820.261 3517.86,820.26 3525.93,820.261 3534,820.26 3542.08,820.261 3550.15,820.26 
  3558.22,820.261 3566.3,820.26 3574.37,820.261 3582.44,820.26 3590.51,820.261 3598.59,820.26 3606.66,820.261 3614.73,820.26 3622.81,820.261 3630.88,820.26 
  3638.95,820.261 3647.02,820.26 3655.1,820.261 3663.17,820.26 3671.24,820.261 3679.32,820.26 3687.39,820.261 3695.46,820.26 3703.53,820.261 3711.61,820.26 
  3719.68,820.261 3727.75,820.26 3735.83,820.261 3743.9,820.26 3751.97,820.261 3760.04,820.259 3768.12,820.261 3776.19,820.258 3784.26,820.261 3792.34,820.257 
  3800.41,820.261 3808.48,820.255 3816.55,820.258 3824.63,819.819 3832.7,815.834 3840.77,805.107 3848.85,800.857 3856.92,812.096 3864.99,819.428 3873.06,820.223 
  
  "/>
<polygon clip-path="url(#clip0501)" points="
3294.26,486.944 3801.26,486.944 3801.26,305.504 3294.26,305.504 
  " fill="#ffffff" fill-opacity="1"/>
<polyline clip-path="url(#clip0501)" style="stroke:#000000; stroke-width:4; stroke-opacity:1; fill:none" points="
  3294.26,486.944 3801.26,486.944 3801.26,305.504 3294.26,305.504 3294.26,486.944 
  "/>
<polyline clip-path="url(#clip0501)" style="stroke:#009af9; stroke-width:4; stroke-opacity:1; fill:none" points="
  3334.26,365.984 3574.26,365.984 
  "/>
<g clip-path="url(#clip0501)">
<text style="fill:#000000; fill-opacity:1; font-family:Arial,Helvetica Neue,Helvetica,sans-serif; font-size:48; text-anchor:start;" transform="rotate(0, 3614.26, 383.484)" x="3614.26" y="383.484">mu 1</text>
</g>
<polyline clip-path="url(#clip0501)" style="stroke:#e26f46; stroke-width:4; stroke-opacity:1; fill:none" points="
  3334.26,426.464 3574.26,426.464 
  "/>
<g clip-path="url(#clip0501)">
<text style="fill:#000000; fill-opacity:1; font-family:Arial,Helvetica Neue,Helvetica,sans-serif; font-size:48; text-anchor:start;" transform="rotate(0, 3614.26, 443.964)" x="3614.26" y="443.964">mu 2</text>
</g>
</svg>
