<?xml version="1.0" encoding="utf-8"?>
<svg xmlns="http://www.w3.org/2000/svg" xmlns:xlink="http://www.w3.org/1999/xlink" width="576" height="384" viewBox="0 0 2304 1536">
<defs>
  <clipPath id="clip9300">
    <rect x="0" y="0" width="2000" height="2000"/>
  </clipPath>
</defs>
<defs>
  <clipPath id="clip9301">
    <rect x="0" y="0" width="2304" height="1536"/>
  </clipPath>
</defs>
<polygon clip-path="url(#clip9301)" points="
0,1536 2304,1536 2304,0 0,0 
  " fill="#ffffff" fill-rule="evenodd" fill-opacity="1"/>
<defs>
  <clipPath id="clip9302">
    <rect x="460" y="0" width="1614" height="1536"/>
  </clipPath>
</defs>
<polygon clip-path="url(#clip9301)" points="
149.361,1422.71 2225.26,1422.71 2225.26,47.2441 149.361,47.2441 
  " fill="#ffffff" fill-rule="evenodd" fill-opacity="1"/>
<defs>
  <clipPath id="clip9303">
    <rect x="149" y="47" width="2077" height="1376"/>
  </clipPath>
</defs>
<polyline clip-path="url(#clip9303)" style="stroke:#000000; stroke-width:2; stroke-opacity:0.1; fill:none" points="
  384.251,1422.71 384.251,47.2441 
  "/>
<polyline clip-path="url(#clip9303)" style="stroke:#000000; stroke-width:2; stroke-opacity:0.1; fill:none" points="
  789.061,1422.71 789.061,47.2441 
  "/>
<polyline clip-path="url(#clip9303)" style="stroke:#000000; stroke-width:2; stroke-opacity:0.1; fill:none" points="
  1193.87,1422.71 1193.87,47.2441 
  "/>
<polyline clip-path="url(#clip9303)" style="stroke:#000000; stroke-width:2; stroke-opacity:0.1; fill:none" points="
  1598.68,1422.71 1598.68,47.2441 
  "/>
<polyline clip-path="url(#clip9303)" style="stroke:#000000; stroke-width:2; stroke-opacity:0.1; fill:none" points="
  2003.49,1422.71 2003.49,47.2441 
  "/>
<polyline clip-path="url(#clip9303)" style="stroke:#000000; stroke-width:2; stroke-opacity:0.1; fill:none" points="
  149.361,1260.75 2225.26,1260.75 
  "/>
<polyline clip-path="url(#clip9303)" style="stroke:#000000; stroke-width:2; stroke-opacity:0.1; fill:none" points="
  149.361,998.951 2225.26,998.951 
  "/>
<polyline clip-path="url(#clip9303)" style="stroke:#000000; stroke-width:2; stroke-opacity:0.1; fill:none" points="
  149.361,737.147 2225.26,737.147 
  "/>
<polyline clip-path="url(#clip9303)" style="stroke:#000000; stroke-width:2; stroke-opacity:0.1; fill:none" points="
  149.361,475.342 2225.26,475.342 
  "/>
<polyline clip-path="url(#clip9303)" style="stroke:#000000; stroke-width:2; stroke-opacity:0.1; fill:none" points="
  149.361,213.538 2225.26,213.538 
  "/>
<polyline clip-path="url(#clip9301)" style="stroke:#000000; stroke-width:4; stroke-opacity:1; fill:none" points="
  149.361,1422.71 2225.26,1422.71 
  "/>
<polyline clip-path="url(#clip9301)" style="stroke:#000000; stroke-width:4; stroke-opacity:1; fill:none" points="
  149.361,1422.71 149.361,47.2441 
  "/>
<polyline clip-path="url(#clip9301)" style="stroke:#000000; stroke-width:4; stroke-opacity:1; fill:none" points="
  384.251,1422.71 384.251,1402.08 
  "/>
<polyline clip-path="url(#clip9301)" style="stroke:#000000; stroke-width:4; stroke-opacity:1; fill:none" points="
  789.061,1422.71 789.061,1402.08 
  "/>
<polyline clip-path="url(#clip9301)" style="stroke:#000000; stroke-width:4; stroke-opacity:1; fill:none" points="
  1193.87,1422.71 1193.87,1402.08 
  "/>
<polyline clip-path="url(#clip9301)" style="stroke:#000000; stroke-width:4; stroke-opacity:1; fill:none" points="
  1598.68,1422.71 1598.68,1402.08 
  "/>
<polyline clip-path="url(#clip9301)" style="stroke:#000000; stroke-width:4; stroke-opacity:1; fill:none" points="
  2003.49,1422.71 2003.49,1402.08 
  "/>
<polyline clip-path="url(#clip9301)" style="stroke:#000000; stroke-width:4; stroke-opacity:1; fill:none" points="
  149.361,1260.75 180.499,1260.75 
  "/>
<polyline clip-path="url(#clip9301)" style="stroke:#000000; stroke-width:4; stroke-opacity:1; fill:none" points="
  149.361,998.951 180.499,998.951 
  "/>
<polyline clip-path="url(#clip9301)" style="stroke:#000000; stroke-width:4; stroke-opacity:1; fill:none" points="
  149.361,737.147 180.499,737.147 
  "/>
<polyline clip-path="url(#clip9301)" style="stroke:#000000; stroke-width:4; stroke-opacity:1; fill:none" points="
  149.361,475.342 180.499,475.342 
  "/>
<polyline clip-path="url(#clip9301)" style="stroke:#000000; stroke-width:4; stroke-opacity:1; fill:none" points="
  149.361,213.538 180.499,213.538 
  "/>
<g clip-path="url(#clip9301)">
<text style="fill:#000000; fill-opacity:1; font-family:Arial,Helvetica Neue,Helvetica,sans-serif; font-size:48px; text-anchor:middle;" transform="rotate(0, 384.251, 1476.23)" x="384.251" y="1476.23">-4</text>
</g>
<g clip-path="url(#clip9301)">
<text style="fill:#000000; fill-opacity:1; font-family:Arial,Helvetica Neue,Helvetica,sans-serif; font-size:48px; text-anchor:middle;" transform="rotate(0, 789.061, 1476.23)" x="789.061" y="1476.23">-2</text>
</g>
<g clip-path="url(#clip9301)">
<text style="fill:#000000; fill-opacity:1; font-family:Arial,Helvetica Neue,Helvetica,sans-serif; font-size:48px; text-anchor:middle;" transform="rotate(0, 1193.87, 1476.23)" x="1193.87" y="1476.23">0</text>
</g>
<g clip-path="url(#clip9301)">
<text style="fill:#000000; fill-opacity:1; font-family:Arial,Helvetica Neue,Helvetica,sans-serif; font-size:48px; text-anchor:middle;" transform="rotate(0, 1598.68, 1476.23)" x="1598.68" y="1476.23">2</text>
</g>
<g clip-path="url(#clip9301)">
<text style="fill:#000000; fill-opacity:1; font-family:Arial,Helvetica Neue,Helvetica,sans-serif; font-size:48px; text-anchor:middle;" transform="rotate(0, 2003.49, 1476.23)" x="2003.49" y="1476.23">4</text>
</g>
<g clip-path="url(#clip9301)">
<text style="fill:#000000; fill-opacity:1; font-family:Arial,Helvetica Neue,Helvetica,sans-serif; font-size:48px; text-anchor:end;" transform="rotate(0, 126.321, 1278.25)" x="126.321" y="1278.25">-4</text>
</g>
<g clip-path="url(#clip9301)">
<text style="fill:#000000; fill-opacity:1; font-family:Arial,Helvetica Neue,Helvetica,sans-serif; font-size:48px; text-anchor:end;" transform="rotate(0, 126.321, 1016.45)" x="126.321" y="1016.45">-2</text>
</g>
<g clip-path="url(#clip9301)">
<text style="fill:#000000; fill-opacity:1; font-family:Arial,Helvetica Neue,Helvetica,sans-serif; font-size:48px; text-anchor:end;" transform="rotate(0, 126.321, 754.647)" x="126.321" y="754.647">0</text>
</g>
<g clip-path="url(#clip9301)">
<text style="fill:#000000; fill-opacity:1; font-family:Arial,Helvetica Neue,Helvetica,sans-serif; font-size:48px; text-anchor:end;" transform="rotate(0, 126.321, 492.842)" x="126.321" y="492.842">2</text>
</g>
<g clip-path="url(#clip9301)">
<text style="fill:#000000; fill-opacity:1; font-family:Arial,Helvetica Neue,Helvetica,sans-serif; font-size:48px; text-anchor:end;" transform="rotate(0, 126.321, 231.038)" x="126.321" y="231.038">4</text>
</g>
<circle clip-path="url(#clip9303)" style="fill:#000000; stroke:none; fill-opacity:1" cx="1833.23" cy="111.796" r="18"/>
<circle clip-path="url(#clip9303)" style="fill:#ff0000; stroke:none; fill-opacity:1" cx="1833.23" cy="111.796" r="14"/>
<circle clip-path="url(#clip9303)" style="fill:#000000; stroke:none; fill-opacity:1" cx="1993.49" cy="103.448" r="18"/>
<circle clip-path="url(#clip9303)" style="fill:#ff0000; stroke:none; fill-opacity:1" cx="1993.49" cy="103.448" r="14"/>
<circle clip-path="url(#clip9303)" style="fill:#000000; stroke:none; fill-opacity:1" cx="1810.82" cy="114.578" r="18"/>
<circle clip-path="url(#clip9303)" style="fill:#ff0000; stroke:none; fill-opacity:1" cx="1810.82" cy="114.578" r="14"/>
<circle clip-path="url(#clip9303)" style="fill:#000000; stroke:none; fill-opacity:1" cx="1714.13" cy="206.395" r="18"/>
<circle clip-path="url(#clip9303)" style="fill:#ff0000; stroke:none; fill-opacity:1" cx="1714.13" cy="206.395" r="14"/>
<circle clip-path="url(#clip9303)" style="fill:#000000; stroke:none; fill-opacity:1" cx="2018.29" cy="187.983" r="18"/>
<circle clip-path="url(#clip9303)" style="fill:#ff0000; stroke:none; fill-opacity:1" cx="2018.29" cy="187.983" r="14"/>
<circle clip-path="url(#clip9303)" style="fill:#000000; stroke:none; fill-opacity:1" cx="2073.05" cy="651.573" r="18"/>
<circle clip-path="url(#clip9303)" style="fill:#ff0000; stroke:none; fill-opacity:1" cx="2073.05" cy="651.573" r="14"/>
<circle clip-path="url(#clip9303)" style="fill:#000000; stroke:none; fill-opacity:1" cx="1477.77" cy="616.003" r="18"/>
<circle clip-path="url(#clip9303)" style="fill:#ff0000; stroke:none; fill-opacity:1" cx="1477.77" cy="616.003" r="14"/>
<circle clip-path="url(#clip9303)" style="fill:#000000; stroke:none; fill-opacity:1" cx="1567.06" cy="486.185" r="18"/>
<circle clip-path="url(#clip9303)" style="fill:#ff0000; stroke:none; fill-opacity:1" cx="1567.06" cy="486.185" r="14"/>
<circle clip-path="url(#clip9303)" style="fill:#000000; stroke:none; fill-opacity:1" cx="1519.9" cy="596.408" r="18"/>
<circle clip-path="url(#clip9303)" style="fill:#ff0000; stroke:none; fill-opacity:1" cx="1519.9" cy="596.408" r="14"/>
<circle clip-path="url(#clip9303)" style="fill:#000000; stroke:none; fill-opacity:1" cx="1823.05" cy="451.277" r="18"/>
<circle clip-path="url(#clip9303)" style="fill:#ff0000; stroke:none; fill-opacity:1" cx="1823.05" cy="451.277" r="14"/>
<circle clip-path="url(#clip9303)" style="fill:#000000; stroke:none; fill-opacity:1" cx="1886.09" cy="123.213" r="18"/>
<circle clip-path="url(#clip9303)" style="fill:#ff0000; stroke:none; fill-opacity:1" cx="1886.09" cy="123.213" r="14"/>
<circle clip-path="url(#clip9303)" style="fill:#000000; stroke:none; fill-opacity:1" cx="1305.01" cy="413.134" r="18"/>
<circle clip-path="url(#clip9303)" style="fill:#ff0000; stroke:none; fill-opacity:1" cx="1305.01" cy="413.134" r="14"/>
<circle clip-path="url(#clip9303)" style="fill:#000000; stroke:none; fill-opacity:1" cx="1355.57" cy="526.279" r="18"/>
<circle clip-path="url(#clip9303)" style="fill:#ff0000; stroke:none; fill-opacity:1" cx="1355.57" cy="526.279" r="14"/>
<circle clip-path="url(#clip9303)" style="fill:#000000; stroke:none; fill-opacity:1" cx="2166.51" cy="664.733" r="18"/>
<circle clip-path="url(#clip9303)" style="fill:#ff0000; stroke:none; fill-opacity:1" cx="2166.51" cy="664.733" r="14"/>
<circle clip-path="url(#clip9303)" style="fill:#000000; stroke:none; fill-opacity:1" cx="1884.1" cy="644.574" r="18"/>
<circle clip-path="url(#clip9303)" style="fill:#ff0000; stroke:none; fill-opacity:1" cx="1884.1" cy="644.574" r="14"/>
<circle clip-path="url(#clip9303)" style="fill:#000000; stroke:none; fill-opacity:1" cx="1397.53" cy="379.423" r="18"/>
<circle clip-path="url(#clip9303)" style="fill:#ff0000; stroke:none; fill-opacity:1" cx="1397.53" cy="379.423" r="14"/>
<circle clip-path="url(#clip9303)" style="fill:#000000; stroke:none; fill-opacity:1" cx="1546.48" cy="240.504" r="18"/>
<circle clip-path="url(#clip9303)" style="fill:#ff0000; stroke:none; fill-opacity:1" cx="1546.48" cy="240.504" r="14"/>
<circle clip-path="url(#clip9303)" style="fill:#000000; stroke:none; fill-opacity:1" cx="1888.63" cy="495.533" r="18"/>
<circle clip-path="url(#clip9303)" style="fill:#ff0000; stroke:none; fill-opacity:1" cx="1888.63" cy="495.533" r="14"/>
<circle clip-path="url(#clip9303)" style="fill:#000000; stroke:none; fill-opacity:1" cx="1346.67" cy="407.101" r="18"/>
<circle clip-path="url(#clip9303)" style="fill:#ff0000; stroke:none; fill-opacity:1" cx="1346.67" cy="407.101" r="14"/>
<circle clip-path="url(#clip9303)" style="fill:#000000; stroke:none; fill-opacity:1" cx="2062.64" cy="156.212" r="18"/>
<circle clip-path="url(#clip9303)" style="fill:#ff0000; stroke:none; fill-opacity:1" cx="2062.64" cy="156.212" r="14"/>
<circle clip-path="url(#clip9303)" style="fill:#000000; stroke:none; fill-opacity:1" cx="224.006" cy="1012.48" r="18"/>
<circle clip-path="url(#clip9303)" style="fill:#ff0000; stroke:none; fill-opacity:1" cx="224.006" cy="1012.48" r="14"/>
<circle clip-path="url(#clip9303)" style="fill:#000000; stroke:none; fill-opacity:1" cx="817.924" cy="1155.2" r="18"/>
<circle clip-path="url(#clip9303)" style="fill:#ff0000; stroke:none; fill-opacity:1" cx="817.924" cy="1155.2" r="14"/>
<circle clip-path="url(#clip9303)" style="fill:#000000; stroke:none; fill-opacity:1" cx="514.396" cy="1082.37" r="18"/>
<circle clip-path="url(#clip9303)" style="fill:#ff0000; stroke:none; fill-opacity:1" cx="514.396" cy="1082.37" r="14"/>
<circle clip-path="url(#clip9303)" style="fill:#000000; stroke:none; fill-opacity:1" cx="457.35" cy="1031.15" r="18"/>
<circle clip-path="url(#clip9303)" style="fill:#ff0000; stroke:none; fill-opacity:1" cx="457.35" cy="1031.15" r="14"/>
<circle clip-path="url(#clip9303)" style="fill:#000000; stroke:none; fill-opacity:1" cx="521.196" cy="1136.84" r="18"/>
<circle clip-path="url(#clip9303)" style="fill:#ff0000; stroke:none; fill-opacity:1" cx="521.196" cy="1136.84" r="14"/>
<circle clip-path="url(#clip9303)" style="fill:#000000; stroke:none; fill-opacity:1" cx="318.932" cy="1343.23" r="18"/>
<circle clip-path="url(#clip9303)" style="fill:#ff0000; stroke:none; fill-opacity:1" cx="318.932" cy="1343.23" r="14"/>
<circle clip-path="url(#clip9303)" style="fill:#000000; stroke:none; fill-opacity:1" cx="316.037" cy="1274.4" r="18"/>
<circle clip-path="url(#clip9303)" style="fill:#ff0000; stroke:none; fill-opacity:1" cx="316.037" cy="1274.4" r="14"/>
<circle clip-path="url(#clip9303)" style="fill:#000000; stroke:none; fill-opacity:1" cx="439.974" cy="1052.31" r="18"/>
<circle clip-path="url(#clip9303)" style="fill:#ff0000; stroke:none; fill-opacity:1" cx="439.974" cy="1052.31" r="14"/>
<circle clip-path="url(#clip9303)" style="fill:#000000; stroke:none; fill-opacity:1" cx="550.686" cy="1263.14" r="18"/>
<circle clip-path="url(#clip9303)" style="fill:#ff0000; stroke:none; fill-opacity:1" cx="550.686" cy="1263.14" r="14"/>
<circle clip-path="url(#clip9303)" style="fill:#000000; stroke:none; fill-opacity:1" cx="636.83" cy="1178.4" r="18"/>
<circle clip-path="url(#clip9303)" style="fill:#ff0000; stroke:none; fill-opacity:1" cx="636.83" cy="1178.4" r="14"/>
<circle clip-path="url(#clip9303)" style="fill:#000000; stroke:none; fill-opacity:1" cx="781.91" cy="1271.06" r="18"/>
<circle clip-path="url(#clip9303)" style="fill:#ff0000; stroke:none; fill-opacity:1" cx="781.91" cy="1271.06" r="14"/>
<circle clip-path="url(#clip9303)" style="fill:#000000; stroke:none; fill-opacity:1" cx="651.491" cy="842.074" r="18"/>
<circle clip-path="url(#clip9303)" style="fill:#ff0000; stroke:none; fill-opacity:1" cx="651.491" cy="842.074" r="14"/>
<circle clip-path="url(#clip9303)" style="fill:#000000; stroke:none; fill-opacity:1" cx="419.311" cy="904.35" r="18"/>
<circle clip-path="url(#clip9303)" style="fill:#ff0000; stroke:none; fill-opacity:1" cx="419.311" cy="904.35" r="14"/>
<circle clip-path="url(#clip9303)" style="fill:#000000; stroke:none; fill-opacity:1" cx="724.26" cy="1333.16" r="18"/>
<circle clip-path="url(#clip9303)" style="fill:#ff0000; stroke:none; fill-opacity:1" cx="724.26" cy="1333.16" r="14"/>
<circle clip-path="url(#clip9303)" style="fill:#000000; stroke:none; fill-opacity:1" cx="448.226" cy="1018.02" r="18"/>
<circle clip-path="url(#clip9303)" style="fill:#ff0000; stroke:none; fill-opacity:1" cx="448.226" cy="1018.02" r="14"/>
<circle clip-path="url(#clip9303)" style="fill:#000000; stroke:none; fill-opacity:1" cx="444.691" cy="1313.48" r="18"/>
<circle clip-path="url(#clip9303)" style="fill:#ff0000; stroke:none; fill-opacity:1" cx="444.691" cy="1313.48" r="14"/>
<circle clip-path="url(#clip9303)" style="fill:#000000; stroke:none; fill-opacity:1" cx="744.88" cy="935.022" r="18"/>
<circle clip-path="url(#clip9303)" style="fill:#ff0000; stroke:none; fill-opacity:1" cx="744.88" cy="935.022" r="14"/>
<circle clip-path="url(#clip9303)" style="fill:#000000; stroke:none; fill-opacity:1" cx="786.869" cy="879.625" r="18"/>
<circle clip-path="url(#clip9303)" style="fill:#ff0000; stroke:none; fill-opacity:1" cx="786.869" cy="879.625" r="14"/>
<circle clip-path="url(#clip9303)" style="fill:#000000; stroke:none; fill-opacity:1" cx="868.159" cy="1368.31" r="18"/>
<circle clip-path="url(#clip9303)" style="fill:#ff0000; stroke:none; fill-opacity:1" cx="868.159" cy="1368.31" r="14"/>
<circle clip-path="url(#clip9303)" style="fill:#000000; stroke:none; fill-opacity:1" cx="215.441" cy="926.059" r="18"/>
<circle clip-path="url(#clip9303)" style="fill:#ff0000; stroke:none; fill-opacity:1" cx="215.441" cy="926.059" r="14"/>
<circle clip-path="url(#clip9303)" style="fill:#000000; stroke:none; fill-opacity:1" cx="1687.81" cy="1220.2" r="18"/>
<circle clip-path="url(#clip9303)" style="fill:#0000ff; stroke:none; fill-opacity:1" cx="1687.81" cy="1220.2" r="14"/>
<circle clip-path="url(#clip9303)" style="fill:#000000; stroke:none; fill-opacity:1" cx="1420.46" cy="1030.78" r="18"/>
<circle clip-path="url(#clip9303)" style="fill:#0000ff; stroke:none; fill-opacity:1" cx="1420.46" cy="1030.78" r="14"/>
<circle clip-path="url(#clip9303)" style="fill:#000000; stroke:none; fill-opacity:1" cx="1848.93" cy="975.919" r="18"/>
<circle clip-path="url(#clip9303)" style="fill:#0000ff; stroke:none; fill-opacity:1" cx="1848.93" cy="975.919" r="14"/>
<circle clip-path="url(#clip9303)" style="fill:#000000; stroke:none; fill-opacity:1" cx="1527.38" cy="1092.2" r="18"/>
<circle clip-path="url(#clip9303)" style="fill:#0000ff; stroke:none; fill-opacity:1" cx="1527.38" cy="1092.2" r="14"/>
<circle clip-path="url(#clip9303)" style="fill:#000000; stroke:none; fill-opacity:1" cx="1749.33" cy="1113.3" r="18"/>
<circle clip-path="url(#clip9303)" style="fill:#0000ff; stroke:none; fill-opacity:1" cx="1749.33" cy="1113.3" r="14"/>
<circle clip-path="url(#clip9303)" style="fill:#000000; stroke:none; fill-opacity:1" cx="1380.73" cy="1030.83" r="18"/>
<circle clip-path="url(#clip9303)" style="fill:#0000ff; stroke:none; fill-opacity:1" cx="1380.73" cy="1030.83" r="14"/>
<circle clip-path="url(#clip9303)" style="fill:#000000; stroke:none; fill-opacity:1" cx="1773.34" cy="1278.18" r="18"/>
<circle clip-path="url(#clip9303)" style="fill:#0000ff; stroke:none; fill-opacity:1" cx="1773.34" cy="1278.18" r="14"/>
<circle clip-path="url(#clip9303)" style="fill:#000000; stroke:none; fill-opacity:1" cx="1536.91" cy="890.326" r="18"/>
<circle clip-path="url(#clip9303)" style="fill:#0000ff; stroke:none; fill-opacity:1" cx="1536.91" cy="890.326" r="14"/>
<circle clip-path="url(#clip9303)" style="fill:#000000; stroke:none; fill-opacity:1" cx="1395.35" cy="830.832" r="18"/>
<circle clip-path="url(#clip9303)" style="fill:#0000ff; stroke:none; fill-opacity:1" cx="1395.35" cy="830.832" r="14"/>
<circle clip-path="url(#clip9303)" style="fill:#000000; stroke:none; fill-opacity:1" cx="2055.03" cy="923.33" r="18"/>
<circle clip-path="url(#clip9303)" style="fill:#0000ff; stroke:none; fill-opacity:1" cx="2055.03" cy="923.33" r="14"/>
<circle clip-path="url(#clip9303)" style="fill:#000000; stroke:none; fill-opacity:1" cx="1872.02" cy="1115.93" r="18"/>
<circle clip-path="url(#clip9303)" style="fill:#0000ff; stroke:none; fill-opacity:1" cx="1872.02" cy="1115.93" r="14"/>
<circle clip-path="url(#clip9303)" style="fill:#000000; stroke:none; fill-opacity:1" cx="1602.81" cy="1335.59" r="18"/>
<circle clip-path="url(#clip9303)" style="fill:#0000ff; stroke:none; fill-opacity:1" cx="1602.81" cy="1335.59" r="14"/>
<circle clip-path="url(#clip9303)" style="fill:#000000; stroke:none; fill-opacity:1" cx="1397.99" cy="962.962" r="18"/>
<circle clip-path="url(#clip9303)" style="fill:#0000ff; stroke:none; fill-opacity:1" cx="1397.99" cy="962.962" r="14"/>
<circle clip-path="url(#clip9303)" style="fill:#000000; stroke:none; fill-opacity:1" cx="2008.24" cy="812.905" r="18"/>
<circle clip-path="url(#clip9303)" style="fill:#0000ff; stroke:none; fill-opacity:1" cx="2008.24" cy="812.905" r="14"/>
<circle clip-path="url(#clip9303)" style="fill:#000000; stroke:none; fill-opacity:1" cx="2058.38" cy="1140.11" r="18"/>
<circle clip-path="url(#clip9303)" style="fill:#0000ff; stroke:none; fill-opacity:1" cx="2058.38" cy="1140.11" r="14"/>
<circle clip-path="url(#clip9303)" style="fill:#000000; stroke:none; fill-opacity:1" cx="1375.1" cy="1116.01" r="18"/>
<circle clip-path="url(#clip9303)" style="fill:#0000ff; stroke:none; fill-opacity:1" cx="1375.1" cy="1116.01" r="14"/>
<circle clip-path="url(#clip9303)" style="fill:#000000; stroke:none; fill-opacity:1" cx="1647.17" cy="891.589" r="18"/>
<circle clip-path="url(#clip9303)" style="fill:#0000ff; stroke:none; fill-opacity:1" cx="1647.17" cy="891.589" r="14"/>
<circle clip-path="url(#clip9303)" style="fill:#000000; stroke:none; fill-opacity:1" cx="1596.17" cy="1062.58" r="18"/>
<circle clip-path="url(#clip9303)" style="fill:#0000ff; stroke:none; fill-opacity:1" cx="1596.17" cy="1062.58" r="14"/>
<circle clip-path="url(#clip9303)" style="fill:#000000; stroke:none; fill-opacity:1" cx="1976.41" cy="916.033" r="18"/>
<circle clip-path="url(#clip9303)" style="fill:#0000ff; stroke:none; fill-opacity:1" cx="1976.41" cy="916.033" r="14"/>
<circle clip-path="url(#clip9303)" style="fill:#000000; stroke:none; fill-opacity:1" cx="1536.98" cy="1383.78" r="18"/>
<circle clip-path="url(#clip9303)" style="fill:#0000ff; stroke:none; fill-opacity:1" cx="1536.98" cy="1383.78" r="14"/>
<circle clip-path="url(#clip9303)" style="fill:#000000; stroke:none; fill-opacity:1" cx="504.458" cy="178.958" r="18"/>
<circle clip-path="url(#clip9303)" style="fill:#0000ff; stroke:none; fill-opacity:1" cx="504.458" cy="178.958" r="14"/>
<circle clip-path="url(#clip9303)" style="fill:#000000; stroke:none; fill-opacity:1" cx="302.894" cy="413.495" r="18"/>
<circle clip-path="url(#clip9303)" style="fill:#0000ff; stroke:none; fill-opacity:1" cx="302.894" cy="413.495" r="14"/>
<circle clip-path="url(#clip9303)" style="fill:#000000; stroke:none; fill-opacity:1" cx="455.776" cy="265.258" r="18"/>
<circle clip-path="url(#clip9303)" style="fill:#0000ff; stroke:none; fill-opacity:1" cx="455.776" cy="265.258" r="14"/>
<circle clip-path="url(#clip9303)" style="fill:#000000; stroke:none; fill-opacity:1" cx="359.007" cy="452.413" r="18"/>
<circle clip-path="url(#clip9303)" style="fill:#0000ff; stroke:none; fill-opacity:1" cx="359.007" cy="452.413" r="14"/>
<circle clip-path="url(#clip9303)" style="fill:#000000; stroke:none; fill-opacity:1" cx="986.744" cy="498.003" r="18"/>
<circle clip-path="url(#clip9303)" style="fill:#0000ff; stroke:none; fill-opacity:1" cx="986.744" cy="498.003" r="14"/>
<circle clip-path="url(#clip9303)" style="fill:#000000; stroke:none; fill-opacity:1" cx="243.599" cy="261.527" r="18"/>
<circle clip-path="url(#clip9303)" style="fill:#0000ff; stroke:none; fill-opacity:1" cx="243.599" cy="261.527" r="14"/>
<circle clip-path="url(#clip9303)" style="fill:#000000; stroke:none; fill-opacity:1" cx="208.112" cy="475.919" r="18"/>
<circle clip-path="url(#clip9303)" style="fill:#0000ff; stroke:none; fill-opacity:1" cx="208.112" cy="475.919" r="14"/>
<circle clip-path="url(#clip9303)" style="fill:#000000; stroke:none; fill-opacity:1" cx="696.104" cy="427.186" r="18"/>
<circle clip-path="url(#clip9303)" style="fill:#0000ff; stroke:none; fill-opacity:1" cx="696.104" cy="427.186" r="14"/>
<circle clip-path="url(#clip9303)" style="fill:#000000; stroke:none; fill-opacity:1" cx="727.31" cy="316.125" r="18"/>
<circle clip-path="url(#clip9303)" style="fill:#0000ff; stroke:none; fill-opacity:1" cx="727.31" cy="316.125" r="14"/>
<circle clip-path="url(#clip9303)" style="fill:#000000; stroke:none; fill-opacity:1" cx="458.423" cy="645.555" r="18"/>
<circle clip-path="url(#clip9303)" style="fill:#0000ff; stroke:none; fill-opacity:1" cx="458.423" cy="645.555" r="14"/>
<circle clip-path="url(#clip9303)" style="fill:#000000; stroke:none; fill-opacity:1" cx="637.918" cy="132.305" r="18"/>
<circle clip-path="url(#clip9303)" style="fill:#0000ff; stroke:none; fill-opacity:1" cx="637.918" cy="132.305" r="14"/>
<circle clip-path="url(#clip9303)" style="fill:#000000; stroke:none; fill-opacity:1" cx="555.254" cy="452.375" r="18"/>
<circle clip-path="url(#clip9303)" style="fill:#0000ff; stroke:none; fill-opacity:1" cx="555.254" cy="452.375" r="14"/>
<circle clip-path="url(#clip9303)" style="fill:#000000; stroke:none; fill-opacity:1" cx="315.129" cy="605.113" r="18"/>
<circle clip-path="url(#clip9303)" style="fill:#0000ff; stroke:none; fill-opacity:1" cx="315.129" cy="605.113" r="14"/>
<circle clip-path="url(#clip9303)" style="fill:#000000; stroke:none; fill-opacity:1" cx="771.219" cy="276.923" r="18"/>
<circle clip-path="url(#clip9303)" style="fill:#0000ff; stroke:none; fill-opacity:1" cx="771.219" cy="276.923" r="14"/>
<circle clip-path="url(#clip9303)" style="fill:#000000; stroke:none; fill-opacity:1" cx="1091.35" cy="588.949" r="18"/>
<circle clip-path="url(#clip9303)" style="fill:#0000ff; stroke:none; fill-opacity:1" cx="1091.35" cy="588.949" r="14"/>
<circle clip-path="url(#clip9303)" style="fill:#000000; stroke:none; fill-opacity:1" cx="633.062" cy="623.789" r="18"/>
<circle clip-path="url(#clip9303)" style="fill:#0000ff; stroke:none; fill-opacity:1" cx="633.062" cy="623.789" r="14"/>
<circle clip-path="url(#clip9303)" style="fill:#000000; stroke:none; fill-opacity:1" cx="777.791" cy="394.91" r="18"/>
<circle clip-path="url(#clip9303)" style="fill:#0000ff; stroke:none; fill-opacity:1" cx="777.791" cy="394.91" r="14"/>
<circle clip-path="url(#clip9303)" style="fill:#000000; stroke:none; fill-opacity:1" cx="942.3" cy="86.1723" r="18"/>
<circle clip-path="url(#clip9303)" style="fill:#0000ff; stroke:none; fill-opacity:1" cx="942.3" cy="86.1723" r="14"/>
<circle clip-path="url(#clip9303)" style="fill:#000000; stroke:none; fill-opacity:1" cx="560.441" cy="462.095" r="18"/>
<circle clip-path="url(#clip9303)" style="fill:#0000ff; stroke:none; fill-opacity:1" cx="560.441" cy="462.095" r="14"/>
<circle clip-path="url(#clip9303)" style="fill:#000000; stroke:none; fill-opacity:1" cx="348.305" cy="574.423" r="18"/>
<circle clip-path="url(#clip9303)" style="fill:#0000ff; stroke:none; fill-opacity:1" cx="348.305" cy="574.423" r="14"/>
<polygon clip-path="url(#clip9301)" points="
1874.91,306.444 2156.14,306.444 2156.14,125.004 1874.91,125.004 
  " fill="#ffffff" fill-rule="evenodd" fill-opacity="1"/>
<polyline clip-path="url(#clip9301)" style="stroke:#000000; stroke-width:4; stroke-opacity:1; fill:none" points="
  1874.91,306.444 2156.14,306.444 2156.14,125.004 1874.91,125.004 1874.91,306.444 
  "/>
<circle clip-path="url(#clip9301)" style="fill:#000000; stroke:none; fill-opacity:1" cx="1978.59" cy="185.484" r="25"/>
<circle clip-path="url(#clip9301)" style="fill:#ff0000; stroke:none; fill-opacity:1" cx="1978.59" cy="185.484" r="21"/>
<g clip-path="url(#clip9301)">
<text style="fill:#000000; fill-opacity:1; font-family:Arial,Helvetica Neue,Helvetica,sans-serif; font-size:48px; text-anchor:start;" transform="rotate(0, 2059.23, 202.984)" x="2059.23" y="202.984">y1</text>
</g>
<circle clip-path="url(#clip9301)" style="fill:#000000; stroke:none; fill-opacity:1" cx="1978.59" cy="245.964" r="25"/>
<circle clip-path="url(#clip9301)" style="fill:#0000ff; stroke:none; fill-opacity:1" cx="1978.59" cy="245.964" r="21"/>
<g clip-path="url(#clip9301)">
<text style="fill:#000000; fill-opacity:1; font-family:Arial,Helvetica Neue,Helvetica,sans-serif; font-size:48px; text-anchor:start;" transform="rotate(0, 2059.23, 263.464)" x="2059.23" y="263.464">y2</text>
</g>
</svg>
