<?xml version="1.0" encoding="utf-8"?>
<svg xmlns="http://www.w3.org/2000/svg" xmlns:xlink="http://www.w3.org/1999/xlink" width="500" height="250" viewBox="0 0 2000 1000">
<defs>
  <clipPath id="clip0100">
    <rect x="0" y="0" width="2000" height="2000"/>
  </clipPath>
</defs>
<defs>
  <clipPath id="clip0101">
    <rect x="0" y="0" width="2000" height="1000"/>
  </clipPath>
</defs>
<polygon clip-path="url(#clip0101)" points="
0,1000 2000,1000 2000,0 0,0 
  " fill="#ffffff" fill-rule="evenodd" fill-opacity="1"/>
<defs>
  <clipPath id="clip0102">
    <rect x="400" y="0" width="1401" height="1000"/>
  </clipPath>
</defs>
<polygon clip-path="url(#clip0101)" points="
149.361,903.475 1921.26,903.475 1921.26,47.2441 149.361,47.2441 
  " fill="#ffffff" fill-rule="evenodd" fill-opacity="1"/>
<defs>
  <clipPath id="clip0103">
    <rect x="149" y="47" width="1773" height="857"/>
  </clipPath>
</defs>
<polyline clip-path="url(#clip0103)" style="stroke:#000000; stroke-width:2; stroke-opacity:0.1; fill:none" points="
  149.361,903.475 149.361,47.2441 
  "/>
<polyline clip-path="url(#clip0103)" style="stroke:#000000; stroke-width:2; stroke-opacity:0.1; fill:none" points="
  739.994,903.475 739.994,47.2441 
  "/>
<polyline clip-path="url(#clip0103)" style="stroke:#000000; stroke-width:2; stroke-opacity:0.1; fill:none" points="
  1330.63,903.475 1330.63,47.2441 
  "/>
<polyline clip-path="url(#clip0103)" style="stroke:#000000; stroke-width:2; stroke-opacity:0.1; fill:none" points="
  1921.26,903.475 1921.26,47.2441 
  "/>
<polyline clip-path="url(#clip0103)" style="stroke:#000000; stroke-width:2; stroke-opacity:0.1; fill:none" points="
  149.361,903.475 1921.26,903.475 
  "/>
<polyline clip-path="url(#clip0103)" style="stroke:#000000; stroke-width:2; stroke-opacity:0.1; fill:none" points="
  149.361,760.77 1921.26,760.77 
  "/>
<polyline clip-path="url(#clip0103)" style="stroke:#000000; stroke-width:2; stroke-opacity:0.1; fill:none" points="
  149.361,618.065 1921.26,618.065 
  "/>
<polyline clip-path="url(#clip0103)" style="stroke:#000000; stroke-width:2; stroke-opacity:0.1; fill:none" points="
  149.361,475.359 1921.26,475.359 
  "/>
<polyline clip-path="url(#clip0103)" style="stroke:#000000; stroke-width:2; stroke-opacity:0.1; fill:none" points="
  149.361,332.654 1921.26,332.654 
  "/>
<polyline clip-path="url(#clip0103)" style="stroke:#000000; stroke-width:2; stroke-opacity:0.1; fill:none" points="
  149.361,189.949 1921.26,189.949 
  "/>
<polyline clip-path="url(#clip0103)" style="stroke:#000000; stroke-width:2; stroke-opacity:0.1; fill:none" points="
  149.361,47.2441 1921.26,47.2441 
  "/>
<polyline clip-path="url(#clip0101)" style="stroke:#000000; stroke-width:4; stroke-opacity:1; fill:none" points="
  149.361,903.475 1921.26,903.475 
  "/>
<polyline clip-path="url(#clip0101)" style="stroke:#000000; stroke-width:4; stroke-opacity:1; fill:none" points="
  149.361,903.475 149.361,47.2441 
  "/>
<polyline clip-path="url(#clip0101)" style="stroke:#000000; stroke-width:4; stroke-opacity:1; fill:none" points="
  149.361,903.475 149.361,890.631 
  "/>
<polyline clip-path="url(#clip0101)" style="stroke:#000000; stroke-width:4; stroke-opacity:1; fill:none" points="
  739.994,903.475 739.994,890.631 
  "/>
<polyline clip-path="url(#clip0101)" style="stroke:#000000; stroke-width:4; stroke-opacity:1; fill:none" points="
  1330.63,903.475 1330.63,890.631 
  "/>
<polyline clip-path="url(#clip0101)" style="stroke:#000000; stroke-width:4; stroke-opacity:1; fill:none" points="
  1921.26,903.475 1921.26,890.631 
  "/>
<polyline clip-path="url(#clip0101)" style="stroke:#000000; stroke-width:4; stroke-opacity:1; fill:none" points="
  149.361,903.475 175.939,903.475 
  "/>
<polyline clip-path="url(#clip0101)" style="stroke:#000000; stroke-width:4; stroke-opacity:1; fill:none" points="
  149.361,760.77 175.939,760.77 
  "/>
<polyline clip-path="url(#clip0101)" style="stroke:#000000; stroke-width:4; stroke-opacity:1; fill:none" points="
  149.361,618.065 175.939,618.065 
  "/>
<polyline clip-path="url(#clip0101)" style="stroke:#000000; stroke-width:4; stroke-opacity:1; fill:none" points="
  149.361,475.359 175.939,475.359 
  "/>
<polyline clip-path="url(#clip0101)" style="stroke:#000000; stroke-width:4; stroke-opacity:1; fill:none" points="
  149.361,332.654 175.939,332.654 
  "/>
<polyline clip-path="url(#clip0101)" style="stroke:#000000; stroke-width:4; stroke-opacity:1; fill:none" points="
  149.361,189.949 175.939,189.949 
  "/>
<polyline clip-path="url(#clip0101)" style="stroke:#000000; stroke-width:4; stroke-opacity:1; fill:none" points="
  149.361,47.2441 175.939,47.2441 
  "/>
<g clip-path="url(#clip0101)">
<text style="fill:#000000; fill-opacity:1; font-family:Arial,Helvetica Neue,Helvetica,sans-serif; font-size:48px; text-anchor:middle;" transform="rotate(0, 149.361, 955.475)" x="149.361" y="955.475">0</text>
</g>
<g clip-path="url(#clip0101)">
<text style="fill:#000000; fill-opacity:1; font-family:Arial,Helvetica Neue,Helvetica,sans-serif; font-size:48px; text-anchor:middle;" transform="rotate(0, 739.994, 955.475)" x="739.994" y="955.475">5</text>
</g>
<g clip-path="url(#clip0101)">
<text style="fill:#000000; fill-opacity:1; font-family:Arial,Helvetica Neue,Helvetica,sans-serif; font-size:48px; text-anchor:middle;" transform="rotate(0, 1330.63, 955.475)" x="1330.63" y="955.475">10</text>
</g>
<g clip-path="url(#clip0101)">
<text style="fill:#000000; fill-opacity:1; font-family:Arial,Helvetica Neue,Helvetica,sans-serif; font-size:48px; text-anchor:middle;" transform="rotate(0, 1921.26, 955.475)" x="1921.26" y="955.475">15</text>
</g>
<g clip-path="url(#clip0101)">
<text style="fill:#000000; fill-opacity:1; font-family:Arial,Helvetica Neue,Helvetica,sans-serif; font-size:48px; text-anchor:end;" transform="rotate(0, 129.361, 920.975)" x="129.361" y="920.975">-1</text>
</g>
<g clip-path="url(#clip0101)">
<text style="fill:#000000; fill-opacity:1; font-family:Arial,Helvetica Neue,Helvetica,sans-serif; font-size:48px; text-anchor:end;" transform="rotate(0, 129.361, 778.27)" x="129.361" y="778.27">0</text>
</g>
<g clip-path="url(#clip0101)">
<text style="fill:#000000; fill-opacity:1; font-family:Arial,Helvetica Neue,Helvetica,sans-serif; font-size:48px; text-anchor:end;" transform="rotate(0, 129.361, 635.565)" x="129.361" y="635.565">1</text>
</g>
<g clip-path="url(#clip0101)">
<text style="fill:#000000; fill-opacity:1; font-family:Arial,Helvetica Neue,Helvetica,sans-serif; font-size:48px; text-anchor:end;" transform="rotate(0, 129.361, 492.859)" x="129.361" y="492.859">2</text>
</g>
<g clip-path="url(#clip0101)">
<text style="fill:#000000; fill-opacity:1; font-family:Arial,Helvetica Neue,Helvetica,sans-serif; font-size:48px; text-anchor:end;" transform="rotate(0, 129.361, 350.154)" x="129.361" y="350.154">3</text>
</g>
<g clip-path="url(#clip0101)">
<text style="fill:#000000; fill-opacity:1; font-family:Arial,Helvetica Neue,Helvetica,sans-serif; font-size:48px; text-anchor:end;" transform="rotate(0, 129.361, 207.449)" x="129.361" y="207.449">4</text>
</g>
<g clip-path="url(#clip0101)">
<text style="fill:#000000; fill-opacity:1; font-family:Arial,Helvetica Neue,Helvetica,sans-serif; font-size:48px; text-anchor:end;" transform="rotate(0, 129.361, 64.7441)" x="129.361" y="64.7441">5</text>
</g>
<polyline clip-path="url(#clip0103)" style="stroke:#009af9; stroke-width:4; stroke-opacity:1; fill:none" points="
  267.487,618.065 385.614,618.065 503.74,618.065 621.867,618.065 739.994,475.359 858.12,475.359 976.247,475.359 1094.37,332.654 1212.5,332.654 1330.63,332.654 
  1448.75,475.359 1566.88,475.359 1685.01,475.359 1803.13,618.065 1921.26,618.065 
  "/>
<polygon clip-path="url(#clip0101)" points="
1610.43,227.724 1861.26,227.724 1861.26,106.764 1610.43,106.764 
  " fill="#ffffff" fill-rule="evenodd" fill-opacity="1"/>
<polyline clip-path="url(#clip0101)" style="stroke:#000000; stroke-width:4; stroke-opacity:1; fill:none" points="
  1610.43,227.724 1861.26,227.724 1861.26,106.764 1610.43,106.764 1610.43,227.724 
  "/>
<polyline clip-path="url(#clip0101)" style="stroke:#009af9; stroke-width:4; stroke-opacity:1; fill:none" points="
  1630.43,167.244 1750.43,167.244 
  "/>
<g clip-path="url(#clip0101)">
<text style="fill:#000000; fill-opacity:1; font-family:Arial,Helvetica Neue,Helvetica,sans-serif; font-size:48px; text-anchor:start;" transform="rotate(0, 1770.43, 184.744)" x="1770.43" y="184.744">y1</text>
</g>
</svg>
