<?xml version="1.0" encoding="utf-8"?>
<svg xmlns="http://www.w3.org/2000/svg" xmlns:xlink="http://www.w3.org/1999/xlink" width="576" height="384" viewBox="0 0 2304 1536">
<defs>
  <clipPath id="clip5500">
    <rect x="0" y="0" width="2000" height="2000"/>
  </clipPath>
</defs>
<defs>
  <clipPath id="clip5501">
    <rect x="0" y="0" width="2304" height="1536"/>
  </clipPath>
</defs>
<polygon clip-path="url(#clip5501)" points="
0,1536 2304,1536 2304,0 0,0 
  " fill="#ffffff" fill-rule="evenodd" fill-opacity="1"/>
<defs>
  <clipPath id="clip5502">
    <rect x="460" y="0" width="1614" height="1536"/>
  </clipPath>
</defs>
<polygon clip-path="url(#clip5501)" points="
161.394,1439.47 2225.26,1439.47 2225.26,47.2441 161.394,47.2441 
  " fill="#ffffff" fill-rule="evenodd" fill-opacity="1"/>
<defs>
  <clipPath id="clip5503">
    <rect x="161" y="47" width="2065" height="1393"/>
  </clipPath>
</defs>
<polyline clip-path="url(#clip5503)" style="stroke:#000000; stroke-width:2; stroke-opacity:0.1; fill:none" points="
  358.88,1439.47 358.88,47.2441 
  "/>
<polyline clip-path="url(#clip5503)" style="stroke:#000000; stroke-width:2; stroke-opacity:0.1; fill:none" points="
  637.029,1439.47 637.029,47.2441 
  "/>
<polyline clip-path="url(#clip5503)" style="stroke:#000000; stroke-width:2; stroke-opacity:0.1; fill:none" points="
  915.178,1439.47 915.178,47.2441 
  "/>
<polyline clip-path="url(#clip5503)" style="stroke:#000000; stroke-width:2; stroke-opacity:0.1; fill:none" points="
  1193.33,1439.47 1193.33,47.2441 
  "/>
<polyline clip-path="url(#clip5503)" style="stroke:#000000; stroke-width:2; stroke-opacity:0.1; fill:none" points="
  1471.48,1439.47 1471.48,47.2441 
  "/>
<polyline clip-path="url(#clip5503)" style="stroke:#000000; stroke-width:2; stroke-opacity:0.1; fill:none" points="
  1749.63,1439.47 1749.63,47.2441 
  "/>
<polyline clip-path="url(#clip5503)" style="stroke:#000000; stroke-width:2; stroke-opacity:0.1; fill:none" points="
  2027.77,1439.47 2027.77,47.2441 
  "/>
<polyline clip-path="url(#clip5503)" style="stroke:#000000; stroke-width:2; stroke-opacity:0.1; fill:none" points="
  161.394,1395.04 2225.26,1395.04 
  "/>
<polyline clip-path="url(#clip5503)" style="stroke:#000000; stroke-width:2; stroke-opacity:0.1; fill:none" points="
  161.394,1129.27 2225.26,1129.27 
  "/>
<polyline clip-path="url(#clip5503)" style="stroke:#000000; stroke-width:2; stroke-opacity:0.1; fill:none" points="
  161.394,863.497 2225.26,863.497 
  "/>
<polyline clip-path="url(#clip5503)" style="stroke:#000000; stroke-width:2; stroke-opacity:0.1; fill:none" points="
  161.394,597.724 2225.26,597.724 
  "/>
<polyline clip-path="url(#clip5503)" style="stroke:#000000; stroke-width:2; stroke-opacity:0.1; fill:none" points="
  161.394,331.952 2225.26,331.952 
  "/>
<polyline clip-path="url(#clip5503)" style="stroke:#000000; stroke-width:2; stroke-opacity:0.1; fill:none" points="
  161.394,66.1787 2225.26,66.1787 
  "/>
<polyline clip-path="url(#clip5501)" style="stroke:#000000; stroke-width:4; stroke-opacity:1; fill:none" points="
  161.394,1439.47 2225.26,1439.47 
  "/>
<polyline clip-path="url(#clip5501)" style="stroke:#000000; stroke-width:4; stroke-opacity:1; fill:none" points="
  161.394,1439.47 161.394,47.2441 
  "/>
<polyline clip-path="url(#clip5501)" style="stroke:#000000; stroke-width:4; stroke-opacity:1; fill:none" points="
  358.88,1439.47 358.88,1418.59 
  "/>
<polyline clip-path="url(#clip5501)" style="stroke:#000000; stroke-width:4; stroke-opacity:1; fill:none" points="
  637.029,1439.47 637.029,1418.59 
  "/>
<polyline clip-path="url(#clip5501)" style="stroke:#000000; stroke-width:4; stroke-opacity:1; fill:none" points="
  915.178,1439.47 915.178,1418.59 
  "/>
<polyline clip-path="url(#clip5501)" style="stroke:#000000; stroke-width:4; stroke-opacity:1; fill:none" points="
  1193.33,1439.47 1193.33,1418.59 
  "/>
<polyline clip-path="url(#clip5501)" style="stroke:#000000; stroke-width:4; stroke-opacity:1; fill:none" points="
  1471.48,1439.47 1471.48,1418.59 
  "/>
<polyline clip-path="url(#clip5501)" style="stroke:#000000; stroke-width:4; stroke-opacity:1; fill:none" points="
  1749.63,1439.47 1749.63,1418.59 
  "/>
<polyline clip-path="url(#clip5501)" style="stroke:#000000; stroke-width:4; stroke-opacity:1; fill:none" points="
  2027.77,1439.47 2027.77,1418.59 
  "/>
<polyline clip-path="url(#clip5501)" style="stroke:#000000; stroke-width:4; stroke-opacity:1; fill:none" points="
  161.394,1395.04 192.352,1395.04 
  "/>
<polyline clip-path="url(#clip5501)" style="stroke:#000000; stroke-width:4; stroke-opacity:1; fill:none" points="
  161.394,1129.27 192.352,1129.27 
  "/>
<polyline clip-path="url(#clip5501)" style="stroke:#000000; stroke-width:4; stroke-opacity:1; fill:none" points="
  161.394,863.497 192.352,863.497 
  "/>
<polyline clip-path="url(#clip5501)" style="stroke:#000000; stroke-width:4; stroke-opacity:1; fill:none" points="
  161.394,597.724 192.352,597.724 
  "/>
<polyline clip-path="url(#clip5501)" style="stroke:#000000; stroke-width:4; stroke-opacity:1; fill:none" points="
  161.394,331.952 192.352,331.952 
  "/>
<polyline clip-path="url(#clip5501)" style="stroke:#000000; stroke-width:4; stroke-opacity:1; fill:none" points="
  161.394,66.1787 192.352,66.1787 
  "/>
<g clip-path="url(#clip5501)">
<text style="fill:#000000; fill-opacity:1; font-family:Arial,Helvetica Neue,Helvetica,sans-serif; font-size:48px; text-anchor:middle;" transform="rotate(0, 358.88, 1492.99)" x="358.88" y="1492.99">2</text>
</g>
<g clip-path="url(#clip5501)">
<text style="fill:#000000; fill-opacity:1; font-family:Arial,Helvetica Neue,Helvetica,sans-serif; font-size:48px; text-anchor:middle;" transform="rotate(0, 637.029, 1492.99)" x="637.029" y="1492.99">4</text>
</g>
<g clip-path="url(#clip5501)">
<text style="fill:#000000; fill-opacity:1; font-family:Arial,Helvetica Neue,Helvetica,sans-serif; font-size:48px; text-anchor:middle;" transform="rotate(0, 915.178, 1492.99)" x="915.178" y="1492.99">6</text>
</g>
<g clip-path="url(#clip5501)">
<text style="fill:#000000; fill-opacity:1; font-family:Arial,Helvetica Neue,Helvetica,sans-serif; font-size:48px; text-anchor:middle;" transform="rotate(0, 1193.33, 1492.99)" x="1193.33" y="1492.99">8</text>
</g>
<g clip-path="url(#clip5501)">
<text style="fill:#000000; fill-opacity:1; font-family:Arial,Helvetica Neue,Helvetica,sans-serif; font-size:48px; text-anchor:middle;" transform="rotate(0, 1471.48, 1492.99)" x="1471.48" y="1492.99">10</text>
</g>
<g clip-path="url(#clip5501)">
<text style="fill:#000000; fill-opacity:1; font-family:Arial,Helvetica Neue,Helvetica,sans-serif; font-size:48px; text-anchor:middle;" transform="rotate(0, 1749.63, 1492.99)" x="1749.63" y="1492.99">12</text>
</g>
<g clip-path="url(#clip5501)">
<text style="fill:#000000; fill-opacity:1; font-family:Arial,Helvetica Neue,Helvetica,sans-serif; font-size:48px; text-anchor:middle;" transform="rotate(0, 2027.77, 1492.99)" x="2027.77" y="1492.99">14</text>
</g>
<g clip-path="url(#clip5501)">
<text style="fill:#000000; fill-opacity:1; font-family:Arial,Helvetica Neue,Helvetica,sans-serif; font-size:48px; text-anchor:end;" transform="rotate(0, 138.354, 1412.54)" x="138.354" y="1412.54">0.0</text>
</g>
<g clip-path="url(#clip5501)">
<text style="fill:#000000; fill-opacity:1; font-family:Arial,Helvetica Neue,Helvetica,sans-serif; font-size:48px; text-anchor:end;" transform="rotate(0, 138.354, 1146.77)" x="138.354" y="1146.77">0.5</text>
</g>
<g clip-path="url(#clip5501)">
<text style="fill:#000000; fill-opacity:1; font-family:Arial,Helvetica Neue,Helvetica,sans-serif; font-size:48px; text-anchor:end;" transform="rotate(0, 138.354, 880.997)" x="138.354" y="880.997">1.0</text>
</g>
<g clip-path="url(#clip5501)">
<text style="fill:#000000; fill-opacity:1; font-family:Arial,Helvetica Neue,Helvetica,sans-serif; font-size:48px; text-anchor:end;" transform="rotate(0, 138.354, 615.224)" x="138.354" y="615.224">1.5</text>
</g>
<g clip-path="url(#clip5501)">
<text style="fill:#000000; fill-opacity:1; font-family:Arial,Helvetica Neue,Helvetica,sans-serif; font-size:48px; text-anchor:end;" transform="rotate(0, 138.354, 349.452)" x="138.354" y="349.452">2.0</text>
</g>
<g clip-path="url(#clip5501)">
<text style="fill:#000000; fill-opacity:1; font-family:Arial,Helvetica Neue,Helvetica,sans-serif; font-size:48px; text-anchor:end;" transform="rotate(0, 138.354, 83.6787)" x="138.354" y="83.6787">2.5</text>
</g>
<polyline clip-path="url(#clip5503)" style="stroke:#009af9; stroke-width:4; stroke-opacity:1; fill:none" points="
  219.805,1365.38 358.88,207.277 497.954,1400.07 637.029,914.777 776.103,142.625 915.178,136.799 1054.25,894.426 1193.33,134.095 1332.4,86.6468 1471.48,236.778 
  1610.55,142.876 1749.63,902.591 1888.7,136.281 2027.77,1322.73 2166.85,165.093 
  "/>
<polygon clip-path="url(#clip5501)" points="
1874.91,245.964 2156.14,245.964 2156.14,125.004 1874.91,125.004 
  " fill="#ffffff" fill-rule="evenodd" fill-opacity="1"/>
<polyline clip-path="url(#clip5501)" style="stroke:#000000; stroke-width:4; stroke-opacity:1; fill:none" points="
  1874.91,245.964 2156.14,245.964 2156.14,125.004 1874.91,125.004 1874.91,245.964 
  "/>
<polyline clip-path="url(#clip5501)" style="stroke:#009af9; stroke-width:4; stroke-opacity:1; fill:none" points="
  1897.95,185.484 2036.19,185.484 
  "/>
<g clip-path="url(#clip5501)">
<text style="fill:#000000; fill-opacity:1; font-family:Arial,Helvetica Neue,Helvetica,sans-serif; font-size:48px; text-anchor:start;" transform="rotate(0, 2059.23, 202.984)" x="2059.23" y="202.984">y1</text>
</g>
</svg>
