<?xml version="1.0" encoding="utf-8"?>
<svg xmlns="http://www.w3.org/2000/svg" xmlns:xlink="http://www.w3.org/1999/xlink" width="600" height="400" viewBox="0 0 2400 1600">
<defs>
  <clipPath id="clip3500">
    <rect x="0" y="0" width="2000" height="2000"/>
  </clipPath>
</defs>
<defs>
  <clipPath id="clip3501">
    <rect x="0" y="0" width="2400" height="1600"/>
  </clipPath>
</defs>
<polygon clip-path="url(#clip3501)" points="
0,1600 2400,1600 2400,0 0,0 
  " fill="#ffffff" fill-opacity="0"/>
<defs>
  <clipPath id="clip3502">
    <rect x="480" y="0" width="1681" height="1600"/>
  </clipPath>
</defs>
<polygon clip-path="url(#clip3501)" points="
161.394,1503.47 2321.26,1503.47 2321.26,47.2441 161.394,47.2441 
  " fill="#ffffff" fill-opacity="0"/>
<defs>
  <clipPath id="clip3503">
    <rect x="161" y="47" width="2161" height="1457"/>
  </clipPath>
</defs>
<polyline clip-path="url(#clip3503)" style="stroke:#b352cc; stroke-width:60; stroke-opacity:1; fill:none" points="
  222.522,1453.45 225.069,1453.18 227.616,1452.91 230.163,1452.62 232.71,1452.33 235.257,1452.04 237.804,1451.73 240.351,1451.42 242.898,1451.1 245.445,1450.76 
  247.992,1450.43 250.539,1450.08 253.086,1449.72 255.633,1449.36 258.18,1448.98 260.727,1448.6 263.275,1448.2 265.822,1447.8 268.369,1447.38 270.916,1446.96 
  273.463,1446.52 276.01,1446.08 278.557,1445.62 281.104,1445.15 283.651,1444.67 286.198,1444.18 288.745,1443.68 291.292,1443.16 293.839,1442.64 296.386,1442.09 
  298.933,1441.54 301.48,1440.98 304.027,1440.4 306.574,1439.8 309.121,1439.2 311.668,1438.58 314.215,1437.94 316.762,1437.29 319.309,1436.63 321.856,1435.95 
  324.403,1435.26 326.95,1434.55 329.497,1433.82 332.044,1433.08 334.591,1432.32 337.138,1431.54 339.685,1430.75 342.232,1429.94 344.779,1429.12 347.326,1428.27 
  349.873,1427.41 352.42,1426.53 354.967,1425.63 357.514,1424.71 360.061,1423.78 362.608,1422.82 365.155,1421.84 367.702,1420.85 370.249,1419.83 372.796,1418.79 
  375.343,1417.74 377.89,1416.66 380.437,1415.56 382.984,1414.43 385.531,1413.29 388.078,1412.12 390.625,1410.93 393.172,1409.72 395.719,1408.48 398.266,1407.22 
  400.813,1405.94 403.36,1404.63 405.907,1403.3 408.454,1401.95 411.001,1400.56 413.548,1399.16 416.095,1397.72 418.642,1396.27 421.189,1394.78 423.736,1393.27 
  426.283,1391.73 428.83,1390.17 431.377,1388.57 433.924,1386.95 436.471,1385.3 439.018,1383.63 441.565,1381.92 444.112,1380.19 446.659,1378.43 449.206,1376.64 
  451.753,1374.81 454.3,1372.96 456.847,1371.08 459.394,1369.17 461.941,1367.23 464.488,1365.25 467.035,1363.25 469.582,1361.21 472.129,1359.15 474.676,1357.05 
  477.223,1354.92 479.77,1352.75 482.317,1350.56 484.865,1348.33 487.412,1346.07 489.959,1343.78 492.506,1341.45 495.053,1339.09 497.6,1336.69 500.147,1334.27 
  502.694,1331.81 505.241,1329.31 507.788,1326.78 510.335,1324.22 512.882,1321.62 515.429,1318.98 517.976,1316.32 520.523,1313.61 523.07,1310.87 525.617,1308.1 
  528.164,1305.29 530.711,1302.45 533.258,1299.57 535.805,1296.66 538.352,1293.71 540.899,1290.73 543.446,1287.71 545.993,1284.65 548.54,1281.56 551.087,1278.44 
  553.634,1275.28 556.181,1272.08 558.728,1268.85 561.275,1265.58 563.822,1262.28 566.369,1258.94 568.916,1255.57 571.463,1252.16 574.01,1248.72 576.557,1245.24 
  579.104,1241.73 581.651,1238.19 584.198,1234.61 586.745,1230.99 589.292,1227.34 591.839,1223.66 594.386,1219.95 596.933,1216.2 599.48,1212.42 602.027,1208.6 
  604.574,1204.76 607.121,1200.88 609.668,1196.97 612.215,1193.03 614.762,1189.05 617.309,1185.05 619.856,1181.01 622.403,1176.95 624.95,1172.85 627.497,1168.73 
  630.044,1164.58 632.591,1160.4 635.138,1156.19 637.685,1151.95 640.232,1147.68 642.779,1143.39 645.326,1139.07 647.873,1134.73 650.42,1130.36 652.967,1125.97 
  655.514,1121.55 658.061,1117.11 660.608,1112.65 663.155,1108.16 665.702,1103.65 668.249,1099.12 670.796,1094.57 673.343,1090 675.89,1085.42 678.437,1080.81 
  680.984,1076.19 683.531,1071.54 686.078,1066.89 688.625,1062.21 691.172,1057.53 693.719,1052.82 696.266,1048.11 698.813,1043.38 701.36,1038.64 703.908,1033.89 
  706.455,1029.13 709.002,1024.36 711.549,1019.59 714.096,1014.8 716.643,1010.01 719.19,1005.22 721.737,1000.41 724.284,995.61 726.831,990.802 729.378,985.992 
  731.925,981.182 734.472,976.371 737.019,971.561 739.566,966.754 742.113,961.949 744.66,957.148 747.207,952.352 749.754,947.562 752.301,942.779 754.848,938.004 
  757.395,933.238 759.942,928.482 762.489,923.737 765.036,919.004 767.583,914.285 770.13,909.579 772.677,904.889 775.224,900.216 777.771,895.56 780.318,890.922 
  782.865,886.304 785.412,881.707 787.959,877.132 790.506,872.58 793.053,868.051 795.6,863.548 798.147,859.071 800.694,854.621 803.241,850.2 805.788,845.808 
  808.335,841.447 810.882,837.117 813.429,832.82 815.976,828.557 818.523,824.329 821.07,820.137 823.617,815.981 826.164,811.865 828.711,807.787 831.258,803.749 
  833.805,799.753 836.352,795.8 838.899,791.889 841.446,788.024 843.993,784.204 846.54,780.43 849.087,776.704 851.634,773.026 854.181,769.398 856.728,765.821 
  859.275,762.295 861.822,758.821 864.369,755.401 866.916,752.036 869.463,748.726 872.01,745.472 874.557,742.275 877.104,739.136 879.651,736.056 882.198,733.036 
  884.745,730.077 887.292,727.179 889.839,724.343 892.386,721.571 894.933,718.863 897.48,716.219 900.027,713.641 902.574,711.129 905.121,708.683 907.668,706.306 
  910.215,703.997 912.762,701.757 915.309,699.586 917.856,697.486 920.403,695.456 922.95,693.499 925.498,691.613 928.045,689.8 930.592,688.06 933.139,686.393 
  935.686,684.801 938.233,683.284 940.78,681.841 943.327,680.474 945.874,679.183 948.421,677.969 950.968,676.83 953.515,675.769 956.062,674.786 958.609,673.88 
  961.156,673.051 963.703,672.301 966.25,671.629 968.797,671.036 971.344,670.522 973.891,670.086 976.438,669.73 978.985,669.452 981.532,669.254 984.079,669.135 
  986.626,669.095 989.173,669.135 991.72,669.254 994.267,669.452 996.814,669.73 999.361,670.086 1001.91,670.522 1004.45,671.036 1007,671.629 1009.55,672.301 
  1012.1,673.051 1014.64,673.88 1017.19,674.786 1019.74,675.769 1022.28,676.83 1024.83,677.969 1027.38,679.183 1029.92,680.474 1032.47,681.841 1035.02,683.284 
  1037.57,684.801 1040.11,686.393 1042.66,688.06 1045.21,689.8 1047.75,691.613 1050.3,693.499 1052.85,695.456 1055.4,697.486 1057.94,699.586 1060.49,701.757 
  1063.04,703.997 1065.58,706.306 1068.13,708.683 1070.68,711.129 1073.22,713.641 1075.77,716.219 1078.32,718.863 1080.87,721.571 1083.41,724.343 1085.96,727.179 
  1088.51,730.077 1091.05,733.036 1093.6,736.056 1096.15,739.136 1098.69,742.275 1101.24,745.472 1103.79,748.726 1106.34,752.036 1108.88,755.401 1111.43,758.821 
  1113.98,762.295 1116.52,765.821 1119.07,769.398 1121.62,773.026 1124.16,776.704 1126.71,780.43 1129.26,784.204 1131.81,788.024 1134.35,791.889 1136.9,795.8 
  1139.45,799.753 1141.99,803.749 1144.54,807.787 1147.09,811.865 1149.63,815.981 1152.18,820.137 1154.73,824.329 1157.28,828.557 1159.82,832.82 1162.37,837.117 
  1164.92,841.447 1167.46,845.808 1170.01,850.2 1172.56,854.621 1175.1,859.071 1177.65,863.548 1180.2,868.051 1182.75,872.58 1185.29,877.132 1187.84,881.707 
  1190.39,886.304 1192.93,890.922 1195.48,895.56 1198.03,900.216 1200.57,904.889 1203.12,909.579 1205.67,914.285 1208.22,919.004 1210.76,923.737 1213.31,928.482 
  1215.86,933.238 1218.4,938.004 1220.95,942.779 1223.5,947.562 1226.04,952.352 1228.59,957.148 1231.14,961.949 1233.69,966.754 1236.23,971.561 1238.78,976.371 
  1241.33,981.182 1243.87,985.992 1246.42,990.802 1248.97,995.61 1251.51,1000.41 1254.06,1005.22 1256.61,1010.01 1259.16,1014.8 1261.7,1019.59 1264.25,1024.36 
  1266.8,1029.13 1269.34,1033.89 1271.89,1038.64 1274.44,1043.38 1276.99,1048.11 1279.53,1052.82 1282.08,1057.53 1284.63,1062.21 1287.17,1066.89 1289.72,1071.54 
  1292.27,1076.19 1294.81,1080.81 1297.36,1085.42 1299.91,1090 1302.46,1094.57 1305,1099.12 1307.55,1103.65 1310.1,1108.16 1312.64,1112.65 1315.19,1117.11 
  1317.74,1121.55 1320.28,1125.97 1322.83,1130.36 1325.38,1134.73 1327.93,1139.07 1330.47,1143.39 1333.02,1147.68 1335.57,1151.95 1338.11,1156.19 1340.66,1160.4 
  1343.21,1164.58 1345.75,1168.73 1348.3,1172.85 1350.85,1176.95 1353.4,1181.01 1355.94,1185.05 1358.49,1189.05 1361.04,1193.03 1363.58,1196.97 1366.13,1200.88 
  1368.68,1204.76 1371.22,1208.6 1373.77,1212.42 1376.32,1216.2 1378.87,1219.95 1381.41,1223.66 1383.96,1227.34 1386.51,1230.99 1389.05,1234.61 1391.6,1238.19 
  1394.15,1241.73 1396.69,1245.24 1399.24,1248.72 1401.79,1252.16 1404.34,1255.57 1406.88,1258.94 1409.43,1262.28 1411.98,1265.58 1414.52,1268.85 1417.07,1272.08 
  1419.62,1275.28 1422.16,1278.44 1424.71,1281.56 1427.26,1284.65 1429.81,1287.71 1432.35,1290.73 1434.9,1293.71 1437.45,1296.66 1439.99,1299.57 1442.54,1302.45 
  1445.09,1305.29 1447.63,1308.1 1450.18,1310.87 1452.73,1313.61 1455.28,1316.32 1457.82,1318.98 1460.37,1321.62 1462.92,1324.22 1465.46,1326.78 1468.01,1329.31 
  1470.56,1331.81 1473.1,1334.27 1475.65,1336.69 1478.2,1339.09 1480.75,1341.45 1483.29,1343.78 1485.84,1346.07 1488.39,1348.33 1490.93,1350.56 1493.48,1352.75 
  1496.03,1354.92 1498.58,1357.05 1501.12,1359.15 1503.67,1361.21 1506.22,1363.25 1508.76,1365.25 1511.31,1367.23 1513.86,1369.17 1516.4,1371.08 1518.95,1372.96 
  1521.5,1374.81 1524.05,1376.64 1526.59,1378.43 1529.14,1380.19 1531.69,1381.92 1534.23,1383.63 1536.78,1385.3 1539.33,1386.95 1541.87,1388.57 1544.42,1390.17 
  1546.97,1391.73 1549.52,1393.27 1552.06,1394.78 1554.61,1396.27 1557.16,1397.72 1559.7,1399.16 1562.25,1400.56 1564.8,1401.95 1567.34,1403.3 1569.89,1404.63 
  1572.44,1405.94 1574.99,1407.22 1577.53,1408.48 1580.08,1409.72 1582.63,1410.93 1585.17,1412.12 1587.72,1413.29 1590.27,1414.43 1592.81,1415.56 1595.36,1416.66 
  1597.91,1417.74 1600.46,1418.79 1603,1419.83 1605.55,1420.85 1608.1,1421.84 1610.64,1422.82 1613.19,1423.78 1615.74,1424.71 1618.28,1425.63 1620.83,1426.53 
  1623.38,1427.41 1625.93,1428.27 1628.47,1429.12 1631.02,1429.94 1633.57,1430.75 1636.11,1431.54 1638.66,1432.32 1641.21,1433.08 1643.75,1433.82 1646.3,1434.55 
  1648.85,1435.26 1651.4,1435.95 1653.94,1436.63 1656.49,1437.29 1659.04,1437.94 1661.58,1438.58 1664.13,1439.2 1666.68,1439.8 1669.22,1440.4 1671.77,1440.98 
  1674.32,1441.54 1676.87,1442.09 1679.41,1442.64 1681.96,1443.16 1684.51,1443.68 1687.05,1444.18 1689.6,1444.67 1692.15,1445.15 1694.69,1445.62 1697.24,1446.08 
  1699.79,1446.52 1702.34,1446.96 1704.88,1447.38 1707.43,1447.8 1709.98,1448.2 1712.52,1448.6 1715.07,1448.98 1717.62,1449.36 1720.17,1449.72 1722.71,1450.08 
  1725.26,1450.43 1727.81,1450.76 1730.35,1451.1 1732.9,1451.42 1735.45,1451.73 1737.99,1452.04 1740.54,1452.33 1743.09,1452.62 1745.64,1452.91 1748.18,1453.18 
  1750.73,1453.45 1753.28,1453.71 1755.82,1453.96 1758.37,1454.21 1760.92,1454.45 1763.46,1454.69 1766.01,1454.91 1768.56,1455.14 1771.11,1455.35 1773.65,1455.56 
  1776.2,1455.77 1778.75,1455.96 1781.29,1456.16 1783.84,1456.35 1786.39,1456.53 1788.93,1456.71 1791.48,1456.88 1794.03,1457.05 1796.58,1457.21 1799.12,1457.37 
  1801.67,1457.52 1804.22,1457.67 1806.76,1457.82 1809.31,1457.96 1811.86,1458.09 1814.4,1458.23 1816.95,1458.36 1819.5,1458.48 1822.05,1458.6 1824.59,1458.72 
  1827.14,1458.84 1829.69,1458.95 1832.23,1459.06 1834.78,1459.16 1837.33,1459.26 1839.87,1459.36 1842.42,1459.46 1844.97,1459.55 1847.52,1459.64 1850.06,1459.73 
  1852.61,1459.81 1855.16,1459.89 1857.7,1459.97 1860.25,1460.05 1862.8,1460.12 1865.34,1460.2 1867.89,1460.27 1870.44,1460.33 1872.99,1460.4 1875.53,1460.46 
  1878.08,1460.53 1880.63,1460.59 1883.17,1460.64 1885.72,1460.7 1888.27,1460.75 1890.81,1460.81 1893.36,1460.86 1895.91,1460.91 1898.46,1460.95 1901,1461 
  1903.55,1461.04 1906.1,1461.09 1908.64,1461.13 1911.19,1461.17 1913.74,1461.21 1916.29,1461.25 1918.83,1461.28 1921.38,1461.32 1923.93,1461.35 1926.47,1461.38 
  1929.02,1461.42 1931.57,1461.45 1934.11,1461.48 1936.66,1461.51 1939.21,1461.53 1941.76,1461.56 1944.3,1461.59 1946.85,1461.61 1949.4,1461.63 1951.94,1461.66 
  1954.49,1461.68 1957.04,1461.7 1959.58,1461.72 1962.13,1461.74 1964.68,1461.76 1967.23,1461.78 1969.77,1461.8 1972.32,1461.82 1974.87,1461.83 1977.41,1461.85 
  1979.96,1461.87 1982.51,1461.88 1985.05,1461.9 1987.6,1461.91 1990.15,1461.92 1992.7,1461.94 1995.24,1461.95 1997.79,1461.96 2000.34,1461.97 2002.88,1461.98 
  2005.43,1461.99 2007.98,1462.01 2010.52,1462.02 2013.07,1462.02 2015.62,1462.03 2018.17,1462.04 2020.71,1462.05 2023.26,1462.06 2025.81,1462.07 2028.35,1462.08 
  2030.9,1462.08 2033.45,1462.09 2035.99,1462.1 2038.54,1462.1 2041.09,1462.11 2043.64,1462.12 2046.18,1462.12 2048.73,1462.13 2051.28,1462.13 2053.82,1462.14 
  2056.37,1462.14 2058.92,1462.15 2061.46,1462.15 2064.01,1462.16 2066.56,1462.16 2069.11,1462.17 2071.65,1462.17 2074.2,1462.17 2076.75,1462.18 2079.29,1462.18 
  2081.84,1462.18 2084.39,1462.19 2086.93,1462.19 2089.48,1462.19 2092.03,1462.2 2094.58,1462.2 2097.12,1462.2 2099.67,1462.2 2102.22,1462.21 2104.76,1462.21 
  2107.31,1462.21 2109.86,1462.21 2112.4,1462.22 2114.95,1462.22 2117.5,1462.22 2120.05,1462.22 2122.59,1462.22 2125.14,1462.22 2127.69,1462.23 2130.23,1462.23 
  2132.78,1462.23 2135.33,1462.23 2137.88,1462.23 2140.42,1462.23 2142.97,1462.23 2145.52,1462.24 2148.06,1462.24 2150.61,1462.24 2153.16,1462.24 2155.7,1462.24 
  2158.25,1462.24 2160.8,1462.24 2163.35,1462.24 2165.89,1462.24 2168.44,1462.24 2170.99,1462.24 2173.53,1462.25 2176.08,1462.25 2178.63,1462.25 2181.17,1462.25 
  2183.72,1462.25 2186.27,1462.25 2188.82,1462.25 2191.36,1462.25 2193.91,1462.25 2196.46,1462.25 2199,1462.25 2201.55,1462.25 2204.1,1462.25 2206.64,1462.25 
  2209.19,1462.25 2211.74,1462.25 2214.29,1462.25 2216.83,1462.25 2219.38,1462.25 2221.93,1462.25 2224.47,1462.25 2227.02,1462.26 2229.57,1462.26 2232.11,1462.26 
  2234.66,1462.26 2237.21,1462.26 2239.76,1462.26 2242.3,1462.26 2244.85,1462.26 2247.4,1462.26 2249.94,1462.26 2252.49,1462.26 2255.04,1462.26 2257.58,1462.26 
  2260.13,1462.26 
  "/>
<polyline clip-path="url(#clip3503)" style="stroke:#cc3333; stroke-width:60; stroke-opacity:1; fill:none" points="
  222.522,1462.26 225.069,1462.26 227.616,1462.26 230.163,1462.26 232.71,1462.26 235.257,1462.26 237.804,1462.26 240.351,1462.26 242.898,1462.26 245.445,1462.26 
  247.992,1462.26 250.539,1462.26 253.086,1462.26 255.633,1462.26 258.18,1462.26 260.727,1462.26 263.275,1462.26 265.822,1462.26 268.369,1462.26 270.916,1462.26 
  273.463,1462.26 276.01,1462.26 278.557,1462.26 281.104,1462.26 283.651,1462.26 286.198,1462.26 288.745,1462.26 291.292,1462.26 293.839,1462.26 296.386,1462.26 
  298.933,1462.26 301.48,1462.26 304.027,1462.26 306.574,1462.26 309.121,1462.26 311.668,1462.26 314.215,1462.26 316.762,1462.26 319.309,1462.26 321.856,1462.26 
  324.403,1462.26 326.95,1462.26 329.497,1462.26 332.044,1462.26 334.591,1462.26 337.138,1462.26 339.685,1462.26 342.232,1462.26 344.779,1462.26 347.326,1462.26 
  349.873,1462.26 352.42,1462.26 354.967,1462.26 357.514,1462.26 360.061,1462.26 362.608,1462.26 365.155,1462.26 367.702,1462.26 370.249,1462.26 372.796,1462.26 
  375.343,1462.26 377.89,1462.26 380.437,1462.26 382.984,1462.26 385.531,1462.26 388.078,1462.26 390.625,1462.26 393.172,1462.26 395.719,1462.26 398.266,1462.26 
  400.813,1462.26 403.36,1462.26 405.907,1462.26 408.454,1462.26 411.001,1462.26 413.548,1462.26 416.095,1462.26 418.642,1462.26 421.189,1462.26 423.736,1462.26 
  426.283,1462.26 428.83,1462.26 431.377,1462.26 433.924,1462.26 436.471,1462.26 439.018,1462.26 441.565,1462.26 444.112,1462.26 446.659,1462.26 449.206,1462.26 
  451.753,1462.26 454.3,1462.26 456.847,1462.26 459.394,1462.26 461.941,1462.26 464.488,1462.26 467.035,1462.26 469.582,1462.26 472.129,1462.26 474.676,1462.26 
  477.223,1462.26 479.77,1462.26 482.317,1462.26 484.865,1462.26 487.412,1462.26 489.959,1462.26 492.506,1462.26 495.053,1462.26 497.6,1462.26 500.147,1462.26 
  502.694,1462.26 505.241,1462.26 507.788,1462.26 510.335,1462.26 512.882,1462.26 515.429,1462.26 517.976,1462.26 520.523,1462.26 523.07,1462.26 525.617,1462.26 
  528.164,1462.26 530.711,1462.26 533.258,1462.26 535.805,1462.26 538.352,1462.26 540.899,1462.26 543.446,1462.26 545.993,1462.26 548.54,1462.26 551.087,1462.26 
  553.634,1462.26 556.181,1462.26 558.728,1462.26 561.275,1462.26 563.822,1462.26 566.369,1462.26 568.916,1462.26 571.463,1462.26 574.01,1462.26 576.557,1462.26 
  579.104,1462.26 581.651,1462.26 584.198,1462.26 586.745,1462.26 589.292,1462.26 591.839,1462.26 594.386,1462.26 596.933,1462.26 599.48,1462.26 602.027,1462.26 
  604.574,1462.26 607.121,1462.26 609.668,1462.26 612.215,1462.26 614.762,1462.26 617.309,1462.26 619.856,1462.26 622.403,1462.26 624.95,1462.26 627.497,1462.26 
  630.044,1462.26 632.591,1462.26 635.138,1462.26 637.685,1462.26 640.232,1462.26 642.779,1462.26 645.326,1462.26 647.873,1462.26 650.42,1462.26 652.967,1462.26 
  655.514,1462.26 658.061,1462.26 660.608,1462.26 663.155,1462.26 665.702,1462.26 668.249,1462.26 670.796,1462.26 673.343,1462.26 675.89,1462.26 678.437,1462.26 
  680.984,1462.26 683.531,1462.26 686.078,1462.26 688.625,1462.26 691.172,1462.26 693.719,1462.26 696.266,1462.26 698.813,1462.26 701.36,1462.26 703.908,1462.26 
  706.455,1462.26 709.002,1462.26 711.549,1462.26 714.096,1462.26 716.643,1462.26 719.19,1462.26 721.737,1462.26 724.284,1462.26 726.831,1462.26 729.378,1462.26 
  731.925,1462.26 734.472,1462.25 737.019,1462.25 739.566,1462.25 742.113,1462.25 744.66,1462.25 747.207,1462.25 749.754,1462.25 752.301,1462.25 754.848,1462.25 
  757.395,1462.25 759.942,1462.25 762.489,1462.25 765.036,1462.25 767.583,1462.25 770.13,1462.25 772.677,1462.24 775.224,1462.24 777.771,1462.24 780.318,1462.24 
  782.865,1462.24 785.412,1462.24 787.959,1462.24 790.506,1462.24 793.053,1462.23 795.6,1462.23 798.147,1462.23 800.694,1462.23 803.241,1462.23 805.788,1462.22 
  808.335,1462.22 810.882,1462.22 813.429,1462.22 815.976,1462.21 818.523,1462.21 821.07,1462.21 823.617,1462.2 826.164,1462.2 828.711,1462.19 831.258,1462.19 
  833.805,1462.19 836.352,1462.18 838.899,1462.18 841.446,1462.17 843.993,1462.16 846.54,1462.16 849.087,1462.15 851.634,1462.15 854.181,1462.14 856.728,1462.13 
  859.275,1462.12 861.822,1462.11 864.369,1462.1 866.916,1462.1 869.463,1462.08 872.01,1462.07 874.557,1462.06 877.104,1462.05 879.651,1462.04 882.198,1462.03 
  884.745,1462.01 887.292,1462 889.839,1461.98 892.386,1461.96 894.933,1461.95 897.48,1461.93 900.027,1461.91 902.574,1461.89 905.121,1461.87 907.668,1461.84 
  910.215,1461.82 912.762,1461.79 915.309,1461.77 917.856,1461.74 920.403,1461.71 922.95,1461.68 925.498,1461.64 928.045,1461.61 930.592,1461.57 933.139,1461.54 
  935.686,1461.5 938.233,1461.45 940.78,1461.41 943.327,1461.36 945.874,1461.31 948.421,1461.26 950.968,1461.21 953.515,1461.15 956.062,1461.09 958.609,1461.03 
  961.156,1460.96 963.703,1460.89 966.25,1460.82 968.797,1460.74 971.344,1460.66 973.891,1460.58 976.438,1460.49 978.985,1460.4 981.532,1460.3 984.079,1460.2 
  986.626,1460.1 989.173,1459.98 991.72,1459.87 994.267,1459.75 996.814,1459.62 999.361,1459.49 1001.91,1459.35 1004.45,1459.2 1007,1459.05 1009.55,1458.89 
  1012.1,1458.73 1014.64,1458.55 1017.19,1458.37 1019.74,1458.18 1022.28,1457.98 1024.83,1457.78 1027.38,1457.56 1029.92,1457.34 1032.47,1457.1 1035.02,1456.86 
  1037.57,1456.61 1040.11,1456.34 1042.66,1456.06 1045.21,1455.77 1047.75,1455.47 1050.3,1455.16 1052.85,1454.83 1055.4,1454.5 1057.94,1454.14 1060.49,1453.77 
  1063.04,1453.39 1065.58,1452.99 1068.13,1452.58 1070.68,1452.15 1073.22,1451.7 1075.77,1451.24 1078.32,1450.75 1080.87,1450.25 1083.41,1449.73 1085.96,1449.19 
  1088.51,1448.63 1091.05,1448.04 1093.6,1447.44 1096.15,1446.81 1098.69,1446.16 1101.24,1445.48 1103.79,1444.78 1106.34,1444.06 1108.88,1443.3 1111.43,1442.52 
  1113.98,1441.72 1116.52,1440.88 1119.07,1440.01 1121.62,1439.12 1124.16,1438.19 1126.71,1437.23 1129.26,1436.24 1131.81,1435.21 1134.35,1434.15 1136.9,1433.05 
  1139.45,1431.92 1141.99,1430.74 1144.54,1429.53 1147.09,1428.28 1149.63,1426.99 1152.18,1425.66 1154.73,1424.28 1157.28,1422.86 1159.82,1421.4 1162.37,1419.89 
  1164.92,1418.33 1167.46,1416.72 1170.01,1415.07 1172.56,1413.36 1175.1,1411.61 1177.65,1409.8 1180.2,1407.93 1182.75,1406.02 1185.29,1404.04 1187.84,1402.01 
  1190.39,1399.92 1192.93,1397.77 1195.48,1395.56 1198.03,1393.29 1200.57,1390.95 1203.12,1388.55 1205.67,1386.09 1208.22,1383.56 1210.76,1380.96 1213.31,1378.29 
  1215.86,1375.55 1218.4,1372.74 1220.95,1369.85 1223.5,1366.9 1226.04,1363.86 1228.59,1360.76 1231.14,1357.57 1233.69,1354.31 1236.23,1350.96 1238.78,1347.54 
  1241.33,1344.03 1243.87,1340.45 1246.42,1336.77 1248.97,1333.02 1251.51,1329.17 1254.06,1325.24 1256.61,1321.23 1259.16,1317.12 1261.7,1312.92 1264.25,1308.64 
  1266.8,1304.26 1269.34,1299.79 1271.89,1295.23 1274.44,1290.57 1276.99,1285.82 1279.53,1280.97 1282.08,1276.03 1284.63,1270.99 1287.17,1265.85 1289.72,1260.62 
  1292.27,1255.28 1294.81,1249.85 1297.36,1244.32 1299.91,1238.69 1302.46,1232.97 1305,1227.14 1307.55,1221.21 1310.1,1215.18 1312.64,1209.05 1315.19,1202.83 
  1317.74,1196.5 1320.28,1190.07 1322.83,1183.54 1325.38,1176.91 1327.93,1170.19 1330.47,1163.36 1333.02,1156.44 1335.57,1149.42 1338.11,1142.3 1340.66,1135.08 
  1343.21,1127.77 1345.75,1120.37 1348.3,1112.86 1350.85,1105.27 1353.4,1097.59 1355.94,1089.81 1358.49,1081.94 1361.04,1073.99 1363.58,1065.95 1366.13,1057.82 
  1368.68,1049.61 1371.22,1041.31 1373.77,1032.94 1376.32,1024.49 1378.87,1015.95 1381.41,1007.35 1383.96,998.669 1386.51,989.918 1389.05,981.098 1391.6,972.212 
  1394.15,963.261 1396.69,954.249 1399.24,945.177 1401.79,936.048 1404.34,926.865 1406.88,917.631 1409.43,908.349 1411.98,899.021 1414.52,889.65 1417.07,880.24 
  1419.62,870.794 1422.16,861.315 1424.71,851.805 1427.26,842.27 1429.81,832.711 1432.35,823.132 1434.9,813.538 1437.45,803.931 1439.99,794.316 1442.54,784.696 
  1445.09,775.075 1447.63,765.456 1450.18,755.844 1452.73,746.243 1455.28,736.656 1457.82,727.088 1460.37,717.543 1462.92,708.025 1465.46,698.538 1468.01,689.086 
  1470.56,679.674 1473.1,670.305 1475.65,660.985 1478.2,651.717 1480.75,642.506 1483.29,633.356 1485.84,624.272 1488.39,615.257 1490.93,606.316 1493.48,597.455 
  1496.03,588.676 1498.58,579.984 1501.12,571.385 1503.67,562.881 1506.22,554.478 1508.76,546.179 1511.31,537.99 1513.86,529.914 1516.4,521.955 1518.95,514.118 
  1521.5,506.407 1524.05,498.826 1526.59,491.378 1529.14,484.069 1531.69,476.903 1534.23,469.882 1536.78,463.01 1539.33,456.293 1541.87,449.733 1544.42,443.334 
  1546.97,437.099 1549.52,431.033 1552.06,425.138 1554.61,419.418 1557.16,413.877 1559.7,408.516 1562.25,403.34 1564.8,398.352 1567.34,393.553 1569.89,388.948 
  1572.44,384.538 1574.99,380.327 1577.53,376.316 1580.08,372.509 1582.63,368.907 1585.17,365.512 1587.72,362.327 1590.27,359.353 1592.81,356.592 1595.36,354.046 
  1597.91,351.717 1600.46,349.605 1603,347.712 1605.55,346.039 1608.1,344.586 1610.64,343.356 1613.19,342.349 1615.74,341.565 1618.28,341.004 1620.83,340.668 
  1623.38,340.556 1625.93,340.668 1628.47,341.004 1631.02,341.565 1633.57,342.349 1636.11,343.356 1638.66,344.586 1641.21,346.039 1643.75,347.712 1646.3,349.605 
  1648.85,351.717 1651.4,354.046 1653.94,356.592 1656.49,359.353 1659.04,362.327 1661.58,365.512 1664.13,368.907 1666.68,372.509 1669.22,376.316 1671.77,380.327 
  1674.32,384.538 1676.87,388.948 1679.41,393.553 1681.96,398.352 1684.51,403.34 1687.05,408.516 1689.6,413.877 1692.15,419.418 1694.69,425.138 1697.24,431.033 
  1699.79,437.099 1702.34,443.334 1704.88,449.733 1707.43,456.293 1709.98,463.01 1712.52,469.882 1715.07,476.903 1717.62,484.069 1720.17,491.378 1722.71,498.826 
  1725.26,506.407 1727.81,514.118 1730.35,521.955 1732.9,529.914 1735.45,537.99 1737.99,546.179 1740.54,554.478 1743.09,562.881 1745.64,571.385 1748.18,579.984 
  1750.73,588.676 1753.28,597.455 1755.82,606.316 1758.37,615.257 1760.92,624.272 1763.46,633.356 1766.01,642.506 1768.56,651.717 1771.11,660.985 1773.65,670.305 
  1776.2,679.674 1778.75,689.086 1781.29,698.538 1783.84,708.025 1786.39,717.543 1788.93,727.088 1791.48,736.656 1794.03,746.243 1796.58,755.844 1799.12,765.456 
  1801.67,775.075 1804.22,784.696 1806.76,794.316 1809.31,803.931 1811.86,813.538 1814.4,823.132 1816.95,832.711 1819.5,842.27 1822.05,851.805 1824.59,861.315 
  1827.14,870.794 1829.69,880.24 1832.23,889.65 1834.78,899.021 1837.33,908.349 1839.87,917.631 1842.42,926.865 1844.97,936.048 1847.52,945.177 1850.06,954.249 
  1852.61,963.261 1855.16,972.212 1857.7,981.098 1860.25,989.918 1862.8,998.669 1865.34,1007.35 1867.89,1015.95 1870.44,1024.49 1872.99,1032.94 1875.53,1041.31 
  1878.08,1049.61 1880.63,1057.82 1883.17,1065.95 1885.72,1073.99 1888.27,1081.94 1890.81,1089.81 1893.36,1097.59 1895.91,1105.27 1898.46,1112.86 1901,1120.37 
  1903.55,1127.77 1906.1,1135.08 1908.64,1142.3 1911.19,1149.42 1913.74,1156.44 1916.29,1163.36 1918.83,1170.19 1921.38,1176.91 1923.93,1183.54 1926.47,1190.07 
  1929.02,1196.5 1931.57,1202.83 1934.11,1209.05 1936.66,1215.18 1939.21,1221.21 1941.76,1227.14 1944.3,1232.97 1946.85,1238.69 1949.4,1244.32 1951.94,1249.85 
  1954.49,1255.28 1957.04,1260.62 1959.58,1265.85 1962.13,1270.99 1964.68,1276.03 1967.23,1280.97 1969.77,1285.82 1972.32,1290.57 1974.87,1295.23 1977.41,1299.79 
  1979.96,1304.26 1982.51,1308.64 1985.05,1312.92 1987.6,1317.12 1990.15,1321.23 1992.7,1325.24 1995.24,1329.17 1997.79,1333.02 2000.34,1336.77 2002.88,1340.45 
  2005.43,1344.03 2007.98,1347.54 2010.52,1350.96 2013.07,1354.31 2015.62,1357.57 2018.17,1360.76 2020.71,1363.86 2023.26,1366.9 2025.81,1369.85 2028.35,1372.74 
  2030.9,1375.55 2033.45,1378.29 2035.99,1380.96 2038.54,1383.56 2041.09,1386.09 2043.64,1388.55 2046.18,1390.95 2048.73,1393.29 2051.28,1395.56 2053.82,1397.77 
  2056.37,1399.92 2058.92,1402.01 2061.46,1404.04 2064.01,1406.02 2066.56,1407.93 2069.11,1409.8 2071.65,1411.61 2074.2,1413.36 2076.75,1415.07 2079.29,1416.72 
  2081.84,1418.33 2084.39,1419.89 2086.93,1421.4 2089.48,1422.86 2092.03,1424.28 2094.58,1425.66 2097.12,1426.99 2099.67,1428.28 2102.22,1429.53 2104.76,1430.74 
  2107.31,1431.92 2109.86,1433.05 2112.4,1434.15 2114.95,1435.21 2117.5,1436.24 2120.05,1437.23 2122.59,1438.19 2125.14,1439.12 2127.69,1440.01 2130.23,1440.88 
  2132.78,1441.72 2135.33,1442.52 2137.88,1443.3 2140.42,1444.06 2142.97,1444.78 2145.52,1445.48 2148.06,1446.16 2150.61,1446.81 2153.16,1447.44 2155.7,1448.04 
  2158.25,1448.63 2160.8,1449.19 2163.35,1449.73 2165.89,1450.25 2168.44,1450.75 2170.99,1451.24 2173.53,1451.7 2176.08,1452.15 2178.63,1452.58 2181.17,1452.99 
  2183.72,1453.39 2186.27,1453.77 2188.82,1454.14 2191.36,1454.5 2193.91,1454.83 2196.46,1455.16 2199,1455.47 2201.55,1455.77 2204.1,1456.06 2206.64,1456.34 
  2209.19,1456.61 2211.74,1456.86 2214.29,1457.1 2216.83,1457.34 2219.38,1457.56 2221.93,1457.78 2224.47,1457.98 2227.02,1458.18 2229.57,1458.37 2232.11,1458.55 
  2234.66,1458.73 2237.21,1458.89 2239.76,1459.05 2242.3,1459.2 2244.85,1459.35 2247.4,1459.49 2249.94,1459.62 2252.49,1459.75 2255.04,1459.87 2257.58,1459.98 
  2260.13,1460.1 
  "/>
<polyline clip-path="url(#clip3503)" style="stroke:#218921; stroke-width:60; stroke-opacity:1; fill:none" points="
  222.522,1462.26 225.069,1462.26 227.616,1462.26 230.163,1462.26 232.71,1462.26 235.257,1462.26 237.804,1462.26 240.351,1462.26 242.898,1462.26 245.445,1462.26 
  247.992,1462.26 250.539,1462.26 253.086,1462.26 255.633,1462.26 258.18,1462.26 260.727,1462.26 263.275,1462.26 265.822,1462.26 268.369,1462.26 270.916,1462.26 
  273.463,1462.26 276.01,1462.26 278.557,1462.26 281.104,1462.26 283.651,1462.26 286.198,1462.26 288.745,1462.26 291.292,1462.26 293.839,1462.26 296.386,1462.26 
  298.933,1462.26 301.48,1462.26 304.027,1462.26 306.574,1462.26 309.121,1462.26 311.668,1462.26 314.215,1462.26 316.762,1462.26 319.309,1462.26 321.856,1462.26 
  324.403,1462.26 326.95,1462.26 329.497,1462.26 332.044,1462.26 334.591,1462.26 337.138,1462.26 339.685,1462.26 342.232,1462.26 344.779,1462.26 347.326,1462.26 
  349.873,1462.26 352.42,1462.26 354.967,1462.26 357.514,1462.26 360.061,1462.26 362.608,1462.26 365.155,1462.26 367.702,1462.26 370.249,1462.26 372.796,1462.26 
  375.343,1462.26 377.89,1462.26 380.437,1462.26 382.984,1462.26 385.531,1462.26 388.078,1462.26 390.625,1462.26 393.172,1462.26 395.719,1462.26 398.266,1462.26 
  400.813,1462.26 403.36,1462.26 405.907,1462.26 408.454,1462.26 411.001,1462.26 413.548,1462.26 416.095,1462.26 418.642,1462.26 421.189,1462.26 423.736,1462.26 
  426.283,1462.26 428.83,1462.26 431.377,1462.26 433.924,1462.26 436.471,1462.26 439.018,1462.26 441.565,1462.26 444.112,1462.26 446.659,1462.26 449.206,1462.26 
  451.753,1462.26 454.3,1462.26 456.847,1462.26 459.394,1462.26 461.941,1462.26 464.488,1462.26 467.035,1462.26 469.582,1462.26 472.129,1462.26 474.676,1462.26 
  477.223,1462.26 479.77,1462.26 482.317,1462.26 484.865,1462.26 487.412,1462.26 489.959,1462.26 492.506,1462.26 495.053,1462.26 497.6,1462.26 500.147,1462.26 
  502.694,1462.26 505.241,1462.26 507.788,1462.26 510.335,1462.26 512.882,1462.26 515.429,1462.26 517.976,1462.26 520.523,1462.26 523.07,1462.26 525.617,1462.26 
  528.164,1462.26 530.711,1462.26 533.258,1462.26 535.805,1462.26 538.352,1462.26 540.899,1462.26 543.446,1462.26 545.993,1462.26 548.54,1462.26 551.087,1462.26 
  553.634,1462.26 556.181,1462.26 558.728,1462.26 561.275,1462.26 563.822,1462.26 566.369,1462.26 568.916,1462.26 571.463,1462.26 574.01,1462.26 576.557,1462.26 
  579.104,1462.26 581.651,1462.26 584.198,1462.26 586.745,1462.26 589.292,1462.26 591.839,1462.26 594.386,1462.26 596.933,1462.26 599.48,1462.26 602.027,1462.26 
  604.574,1462.26 607.121,1462.26 609.668,1462.26 612.215,1462.26 614.762,1462.26 617.309,1462.26 619.856,1462.26 622.403,1462.26 624.95,1462.26 627.497,1462.26 
  630.044,1462.26 632.591,1462.26 635.138,1462.26 637.685,1462.26 640.232,1462.26 642.779,1462.26 645.326,1462.26 647.873,1462.26 650.42,1462.26 652.967,1462.26 
  655.514,1462.26 658.061,1462.26 660.608,1462.26 663.155,1462.26 665.702,1462.26 668.249,1462.26 670.796,1462.26 673.343,1462.26 675.89,1462.26 678.437,1462.26 
  680.984,1462.26 683.531,1462.26 686.078,1462.26 688.625,1462.26 691.172,1462.26 693.719,1462.26 696.266,1462.26 698.813,1462.26 701.36,1462.26 703.908,1462.26 
  706.455,1462.26 709.002,1462.26 711.549,1462.26 714.096,1462.26 716.643,1462.26 719.19,1462.26 721.737,1462.26 724.284,1462.26 726.831,1462.26 729.378,1462.26 
  731.925,1462.26 734.472,1462.26 737.019,1462.26 739.566,1462.26 742.113,1462.26 744.66,1462.26 747.207,1462.26 749.754,1462.26 752.301,1462.26 754.848,1462.26 
  757.395,1462.26 759.942,1462.26 762.489,1462.26 765.036,1462.25 767.583,1462.25 770.13,1462.25 772.677,1462.25 775.224,1462.25 777.771,1462.25 780.318,1462.25 
  782.865,1462.25 785.412,1462.25 787.959,1462.25 790.506,1462.25 793.053,1462.25 795.6,1462.24 798.147,1462.24 800.694,1462.24 803.241,1462.24 805.788,1462.24 
  808.335,1462.24 810.882,1462.23 813.429,1462.23 815.976,1462.23 818.523,1462.23 821.07,1462.22 823.617,1462.22 826.164,1462.22 828.711,1462.21 831.258,1462.21 
  833.805,1462.21 836.352,1462.2 838.899,1462.2 841.446,1462.19 843.993,1462.19 846.54,1462.18 849.087,1462.17 851.634,1462.17 854.181,1462.16 856.728,1462.15 
  859.275,1462.14 861.822,1462.14 864.369,1462.13 866.916,1462.11 869.463,1462.1 872.01,1462.09 874.557,1462.08 877.104,1462.07 879.651,1462.05 882.198,1462.03 
  884.745,1462.02 887.292,1462 889.839,1461.98 892.386,1461.96 894.933,1461.94 897.48,1461.91 900.027,1461.89 902.574,1461.86 905.121,1461.83 907.668,1461.8 
  910.215,1461.77 912.762,1461.73 915.309,1461.7 917.856,1461.66 920.403,1461.61 922.95,1461.57 925.498,1461.52 928.045,1461.47 930.592,1461.41 933.139,1461.36 
  935.686,1461.29 938.233,1461.23 940.78,1461.16 943.327,1461.08 945.874,1461.01 948.421,1460.92 950.968,1460.83 953.515,1460.74 956.062,1460.64 958.609,1460.53 
  961.156,1460.42 963.703,1460.3 966.25,1460.17 968.797,1460.04 971.344,1459.9 973.891,1459.75 976.438,1459.59 978.985,1459.42 981.532,1459.24 984.079,1459.05 
  986.626,1458.86 989.173,1458.65 991.72,1458.42 994.267,1458.19 996.814,1457.94 999.361,1457.68 1001.91,1457.41 1004.45,1457.12 1007,1456.81 1009.55,1456.49 
  1012.1,1456.15 1014.64,1455.79 1017.19,1455.41 1019.74,1455.02 1022.28,1454.6 1024.83,1454.16 1027.38,1453.7 1029.92,1453.22 1032.47,1452.71 1035.02,1452.17 
  1037.57,1451.61 1040.11,1451.02 1042.66,1450.41 1045.21,1449.76 1047.75,1449.08 1050.3,1448.36 1052.85,1447.62 1055.4,1446.84 1057.94,1446.02 1060.49,1445.16 
  1063.04,1444.26 1065.58,1443.32 1068.13,1442.34 1070.68,1441.31 1073.22,1440.24 1075.77,1439.12 1078.32,1437.95 1080.87,1436.73 1083.41,1435.45 1085.96,1434.12 
  1088.51,1432.73 1091.05,1431.29 1093.6,1429.78 1096.15,1428.21 1098.69,1426.57 1101.24,1424.86 1103.79,1423.09 1106.34,1421.24 1108.88,1419.32 1111.43,1417.33 
  1113.98,1415.25 1116.52,1413.1 1119.07,1410.86 1121.62,1408.53 1124.16,1406.12 1126.71,1403.61 1129.26,1401.01 1131.81,1398.32 1134.35,1395.53 1136.9,1392.63 
  1139.45,1389.63 1141.99,1386.53 1144.54,1383.32 1147.09,1379.99 1149.63,1376.55 1152.18,1373 1154.73,1369.32 1157.28,1365.52 1159.82,1361.6 1162.37,1357.55 
  1164.92,1353.37 1167.46,1349.06 1170.01,1344.61 1172.56,1340.02 1175.1,1335.29 1177.65,1330.42 1180.2,1325.4 1182.75,1320.24 1185.29,1314.92 1187.84,1309.45 
  1190.39,1303.83 1192.93,1298.04 1195.48,1292.1 1198.03,1286 1200.57,1279.73 1203.12,1273.29 1205.67,1266.69 1208.22,1259.91 1210.76,1252.97 1213.31,1245.85 
  1215.86,1238.55 1218.4,1231.08 1220.95,1223.43 1223.5,1215.61 1226.04,1207.6 1228.59,1199.41 1231.14,1191.04 1233.69,1182.49 1236.23,1173.75 1238.78,1164.83 
  1241.33,1155.72 1243.87,1146.44 1246.42,1136.96 1248.97,1127.31 1251.51,1117.47 1254.06,1107.45 1256.61,1097.25 1259.16,1086.86 1261.7,1076.3 1264.25,1065.56 
  1266.8,1054.64 1269.34,1043.55 1271.89,1032.28 1274.44,1020.84 1276.99,1009.24 1279.53,997.47 1282.08,985.537 1284.63,973.444 1287.17,961.195 1289.72,948.793 
  1292.27,936.241 1294.81,923.545 1297.36,910.708 1299.91,897.734 1302.46,884.628 1305,871.396 1307.55,858.041 1310.1,844.57 1312.64,830.988 1315.19,817.301 
  1317.74,803.515 1320.28,789.636 1322.83,775.67 1325.38,761.625 1327.93,747.507 1330.47,733.323 1333.02,719.081 1335.57,704.788 1338.11,690.451 1340.66,676.079 
  1343.21,661.68 1345.75,647.261 1348.3,632.831 1350.85,618.4 1353.4,603.974 1355.94,589.564 1358.49,575.178 1361.04,560.826 1363.58,546.516 1366.13,532.258 
  1368.68,518.061 1371.22,503.935 1373.77,489.889 1376.32,475.934 1378.87,462.078 1381.41,448.332 1383.96,434.705 1386.51,421.208 1389.05,407.85 1391.6,394.64 
  1394.15,381.589 1396.69,368.707 1399.24,356.003 1401.79,343.488 1404.34,331.17 1406.88,319.059 1409.43,307.166 1411.98,295.499 1414.52,284.067 1417.07,272.88 
  1419.62,261.948 1422.16,251.278 1424.71,240.879 1427.26,230.761 1429.81,220.932 1432.35,211.399 1434.9,202.172 1437.45,193.257 1439.99,184.662 1442.54,176.395 
  1445.09,168.462 1447.63,160.871 1450.18,153.629 1452.73,146.74 1455.28,140.212 1457.82,134.05 1460.37,128.26 1462.92,122.846 1465.46,117.814 1468.01,113.168 
  1470.56,108.911 1473.1,105.049 1475.65,101.584 1478.2,98.5186 1480.75,95.8567 1483.29,93.6003 1485.84,91.7513 1488.39,90.3116 1490.93,89.2822 1493.48,88.6642 
  1496.03,88.4582 1498.58,88.6642 1501.12,89.2822 1503.67,90.3116 1506.22,91.7513 1508.76,93.6003 1511.31,95.8567 1513.86,98.5186 1516.4,101.584 1518.95,105.049 
  1521.5,108.911 1524.05,113.168 1526.59,117.814 1529.14,122.846 1531.69,128.26 1534.23,134.05 1536.78,140.212 1539.33,146.74 1541.87,153.629 1544.42,160.871 
  1546.97,168.462 1549.52,176.395 1552.06,184.662 1554.61,193.257 1557.16,202.172 1559.7,211.399 1562.25,220.932 1564.8,230.761 1567.34,240.879 1569.89,251.278 
  1572.44,261.948 1574.99,272.88 1577.53,284.067 1580.08,295.499 1582.63,307.166 1585.17,319.059 1587.72,331.17 1590.27,343.488 1592.81,356.003 1595.36,368.707 
  1597.91,381.589 1600.46,394.64 1603,407.85 1605.55,421.208 1608.1,434.705 1610.64,448.332 1613.19,462.078 1615.74,475.934 1618.28,489.889 1620.83,503.935 
  1623.38,518.061 1625.93,532.258 1628.47,546.516 1631.02,560.826 1633.57,575.178 1636.11,589.564 1638.66,603.974 1641.21,618.4 1643.75,632.831 1646.3,647.261 
  1648.85,661.68 1651.4,676.079 1653.94,690.451 1656.49,704.788 1659.04,719.081 1661.58,733.323 1664.13,747.507 1666.68,761.625 1669.22,775.67 1671.77,789.636 
  1674.32,803.515 1676.87,817.301 1679.41,830.988 1681.96,844.57 1684.51,858.041 1687.05,871.396 1689.6,884.628 1692.15,897.734 1694.69,910.708 1697.24,923.545 
  1699.79,936.241 1702.34,948.793 1704.88,961.195 1707.43,973.444 1709.98,985.537 1712.52,997.47 1715.07,1009.24 1717.62,1020.84 1720.17,1032.28 1722.71,1043.55 
  1725.26,1054.64 1727.81,1065.56 1730.35,1076.3 1732.9,1086.86 1735.45,1097.25 1737.99,1107.45 1740.54,1117.47 1743.09,1127.31 1745.64,1136.96 1748.18,1146.44 
  1750.73,1155.72 1753.28,1164.83 1755.82,1173.75 1758.37,1182.49 1760.92,1191.04 1763.46,1199.41 1766.01,1207.6 1768.56,1215.61 1771.11,1223.43 1773.65,1231.08 
  1776.2,1238.55 1778.75,1245.85 1781.29,1252.97 1783.84,1259.91 1786.39,1266.69 1788.93,1273.29 1791.48,1279.73 1794.03,1286 1796.58,1292.1 1799.12,1298.04 
  1801.67,1303.83 1804.22,1309.45 1806.76,1314.92 1809.31,1320.24 1811.86,1325.4 1814.4,1330.42 1816.95,1335.29 1819.5,1340.02 1822.05,1344.61 1824.59,1349.06 
  1827.14,1353.37 1829.69,1357.55 1832.23,1361.6 1834.78,1365.52 1837.33,1369.32 1839.87,1373 1842.42,1376.55 1844.97,1379.99 1847.52,1383.32 1850.06,1386.53 
  1852.61,1389.63 1855.16,1392.63 1857.7,1395.53 1860.25,1398.32 1862.8,1401.01 1865.34,1403.61 1867.89,1406.12 1870.44,1408.53 1872.99,1410.86 1875.53,1413.1 
  1878.08,1415.25 1880.63,1417.33 1883.17,1419.32 1885.72,1421.24 1888.27,1423.09 1890.81,1424.86 1893.36,1426.57 1895.91,1428.21 1898.46,1429.78 1901,1431.29 
  1903.55,1432.73 1906.1,1434.12 1908.64,1435.45 1911.19,1436.73 1913.74,1437.95 1916.29,1439.12 1918.83,1440.24 1921.38,1441.31 1923.93,1442.34 1926.47,1443.32 
  1929.02,1444.26 1931.57,1445.16 1934.11,1446.02 1936.66,1446.84 1939.21,1447.62 1941.76,1448.36 1944.3,1449.08 1946.85,1449.76 1949.4,1450.41 1951.94,1451.02 
  1954.49,1451.61 1957.04,1452.17 1959.58,1452.71 1962.13,1453.22 1964.68,1453.7 1967.23,1454.16 1969.77,1454.6 1972.32,1455.02 1974.87,1455.41 1977.41,1455.79 
  1979.96,1456.15 1982.51,1456.49 1985.05,1456.81 1987.6,1457.12 1990.15,1457.41 1992.7,1457.68 1995.24,1457.94 1997.79,1458.19 2000.34,1458.42 2002.88,1458.65 
  2005.43,1458.86 2007.98,1459.05 2010.52,1459.24 2013.07,1459.42 2015.62,1459.59 2018.17,1459.75 2020.71,1459.9 2023.26,1460.04 2025.81,1460.17 2028.35,1460.3 
  2030.9,1460.42 2033.45,1460.53 2035.99,1460.64 2038.54,1460.74 2041.09,1460.83 2043.64,1460.92 2046.18,1461.01 2048.73,1461.08 2051.28,1461.16 2053.82,1461.23 
  2056.37,1461.29 2058.92,1461.36 2061.46,1461.41 2064.01,1461.47 2066.56,1461.52 2069.11,1461.57 2071.65,1461.61 2074.2,1461.66 2076.75,1461.7 2079.29,1461.73 
  2081.84,1461.77 2084.39,1461.8 2086.93,1461.83 2089.48,1461.86 2092.03,1461.89 2094.58,1461.91 2097.12,1461.94 2099.67,1461.96 2102.22,1461.98 2104.76,1462 
  2107.31,1462.02 2109.86,1462.03 2112.4,1462.05 2114.95,1462.07 2117.5,1462.08 2120.05,1462.09 2122.59,1462.1 2125.14,1462.11 2127.69,1462.13 2130.23,1462.14 
  2132.78,1462.14 2135.33,1462.15 2137.88,1462.16 2140.42,1462.17 2142.97,1462.17 2145.52,1462.18 2148.06,1462.19 2150.61,1462.19 2153.16,1462.2 2155.7,1462.2 
  2158.25,1462.21 2160.8,1462.21 2163.35,1462.21 2165.89,1462.22 2168.44,1462.22 2170.99,1462.22 2173.53,1462.23 2176.08,1462.23 2178.63,1462.23 2181.17,1462.23 
  2183.72,1462.24 2186.27,1462.24 2188.82,1462.24 2191.36,1462.24 2193.91,1462.24 2196.46,1462.24 2199,1462.25 2201.55,1462.25 2204.1,1462.25 2206.64,1462.25 
  2209.19,1462.25 2211.74,1462.25 2214.29,1462.25 2216.83,1462.25 2219.38,1462.25 2221.93,1462.25 2224.47,1462.25 2227.02,1462.25 2229.57,1462.26 2232.11,1462.26 
  2234.66,1462.26 2237.21,1462.26 2239.76,1462.26 2242.3,1462.26 2244.85,1462.26 2247.4,1462.26 2249.94,1462.26 2252.49,1462.26 2255.04,1462.26 2257.58,1462.26 
  2260.13,1462.26 
  "/>
</svg>
